<svg  width="20" height="20" viewBox="0 0 20 20" xmlns="http://www.w3.org/2000/svg" >
<path fill='red' d="M5.83334 2.98023e-07H3.33334C2.44928 2.98023e-07 1.60144 0.35119 0.976317 0.976311C0.351196 1.60143 6.35783e-06 2.44928 6.35783e-06 3.33333V5.83333C6.35783e-06 6.71739 0.351196 7.56524 0.976317 8.19036C1.60144 8.81548 2.44928 9.16667 3.33334 9.16667H5.83334C6.71739 9.16667 7.56524 8.81548 8.19036 8.19036C8.81548 7.56524 9.16667 6.71739 9.16667 5.83333V3.33333C9.16667 2.44928 8.81548 1.60143 8.19036 0.976311C7.56524 0.35119 6.71739 2.98023e-07 5.83334 2.98023e-07ZM7.50001 5.83333C7.50001 6.27536 7.32441 6.69928 7.01185 7.01184C6.69929 7.32441 6.27537 7.5 5.83334 7.5H3.33334C2.89131 7.5 2.46739 7.32441 2.15483 7.01184C1.84227 6.69928 1.66667 6.27536 1.66667 5.83333V3.33333C1.66667 2.89131 1.84227 2.46738 2.15483 2.15482C2.46739 1.84226 2.89131 1.66667 3.33334 1.66667H5.83334C6.27537 1.66667 6.69929 1.84226 7.01185 2.15482C7.32441 2.46738 7.50001 2.89131 7.50001 3.33333V5.83333Z"/>
<path d="M16.6665 0H14.1665C13.2825 0 12.4346 0.35119 11.8095 0.976312C11.1844 1.60143 10.8332 2.44928 10.8332 3.33334V5.83334C10.8332 6.71739 11.1844 7.56524 11.8095 8.19036C12.4346 8.81548 13.2825 9.16667 14.1665 9.16667H16.6665C17.5506 9.16667 18.3984 8.81548 19.0236 8.19036C19.6487 7.56524 19.9999 6.71739 19.9999 5.83334V3.33334C19.9999 2.44928 19.6487 1.60143 19.0236 0.976312C18.3984 0.35119 17.5506 0 16.6665 0ZM18.3332 5.83334C18.3332 6.27537 18.1576 6.69929 17.8451 7.01185C17.5325 7.32441 17.1086 7.50001 16.6665 7.50001H14.1665C13.7245 7.50001 13.3006 7.32441 12.988 7.01185C12.6755 6.69929 12.4999 6.27537 12.4999 5.83334V3.33334C12.4999 2.89131 12.6755 2.46738 12.988 2.15482C13.3006 1.84226 13.7245 1.66667 14.1665 1.66667H16.6665C17.1086 1.66667 17.5325 1.84226 17.8451 2.15482C18.1576 2.46738 18.3332 2.89131 18.3332 3.33334V5.83334Z" />
<path d="M5.83333 10.8333H3.33333C2.44928 10.8333 1.60143 11.1845 0.976311 11.8096C0.35119 12.4348 0 13.2826 0 14.1667V16.6667C0 17.5507 0.35119 18.3986 0.976311 19.0237C1.60143 19.6488 2.44928 20 3.33333 20H5.83333C6.71739 20 7.56523 19.6488 8.19036 19.0237C8.81548 18.3986 9.16667 17.5507 9.16667 16.6667V14.1667C9.16667 13.2826 8.81548 12.4348 8.19036 11.8096C7.56523 11.1845 6.71739 10.8333 5.83333 10.8333ZM7.5 16.6667C7.5 17.1087 7.3244 17.5326 7.01184 17.8452C6.69928 18.1577 6.27536 18.3333 5.83333 18.3333H3.33333C2.89131 18.3333 2.46738 18.1577 2.15482 17.8452C1.84226 17.5326 1.66667 17.1087 1.66667 16.6667V14.1667C1.66667 13.7246 1.84226 13.3007 2.15482 12.9882C2.46738 12.6756 2.89131 12.5 3.33333 12.5H5.83333C6.27536 12.5 6.69928 12.6756 7.01184 12.9882C7.3244 13.3007 7.5 13.7246 7.5 14.1667V16.6667Z"/>
<path d="M16.6665 10.8333H14.1665C13.2825 10.8333 12.4346 11.1845 11.8095 11.8096C11.1844 12.4348 10.8332 13.2826 10.8332 14.1667V16.6667C10.8332 17.5507 11.1844 18.3986 11.8095 19.0237C12.4346 19.6488 13.2825 20 14.1665 20H16.6665C17.5506 20 18.3984 19.6488 19.0236 19.0237C19.6487 18.3986 19.9999 17.5507 19.9999 16.6667V14.1667C19.9999 13.2826 19.6487 12.4348 19.0236 11.8096C18.3984 11.1845 17.5506 10.8333 16.6665 10.8333ZM18.3332 16.6667C18.3332 17.1087 18.1576 17.5326 17.8451 17.8452C17.5325 18.1577 17.1086 18.3333 16.6665 18.3333H14.1665C13.7245 18.3333 13.3006 18.1577 12.988 17.8452C12.6755 17.5326 12.4999 17.1087 12.4999 16.6667V14.1667C12.4999 13.7246 12.6755 13.3007 12.988 12.9882C13.3006 12.6756 13.7245 12.5 14.1665 12.5H16.6665C17.1086 12.5 17.5325 12.6756 17.8451 12.9882C18.1576 13.3007 18.3332 13.7246 18.3332 14.1667V16.6667Z"/>
</svg>
