<svg width="1384" height="208" viewBox="0 0 1384 208" fill="none" xmlns="http://www.w3.org/2000/svg">
    <g clip-path="url(#clip0_764_98128)">
        <rect width="1384" height="208" fill="#0040BD"/>
        <rect width="1440" height="867" fill="#FAFBFE" fill-opacity="0.98"/>
        <path d="M1378.92 1533.9C1378.92 1493.18 1412.06 1460.04 1452.78 1460.04C1802.84 1460.04 2087.56 1175.32 2087.56 825.265V521.294C2087.56 171.237 1802.84 -113.48 1452.78 -113.48C1102.72 -113.48 818.006 171.237 818.006 521.294V825.265C818.006 865.984 784.863 899.127 744.144 899.127C703.425 899.127 670.281 865.984 670.281 825.265V521.294C670.281 89.7993 1021.29 -261.204 1452.78 -261.204C1884.28 -261.204 2235.28 89.7993 2235.28 521.294V825.265C2235.28 1256.76 1884.28 1607.76 1452.78 1607.76C1412.06 1607.76 1378.92 1574.62 1378.92 1533.9Z" fill="#0040BD"/>
        <path d="M1000.14 824.013V522.567C1000.14 272.888 1203.11 69.9242 1452.79 69.9242C1678.48 69.9242 1865.97 235.641 1899.75 451.862L1908.27 443.654C1930.37 421.559 1966.35 421.559 1988.45 443.654C2010.54 465.75 2010.54 501.734 1988.45 523.83L1895.96 616.315L1815.79 696.806L1735.61 616.631L1643.12 523.83C1621.03 501.734 1621.03 465.75 1643.12 443.654C1665.22 421.559 1701.2 421.559 1723.3 443.654L1753.6 473.957C1730.24 328.758 1604.61 217.649 1453.1 217.649C1284.86 217.649 1148.18 354.325 1148.18 522.567V824.013C1148.18 992.255 1284.86 1128.93 1453.1 1128.93C1603.67 1128.93 1733.4 1016.88 1754.86 868.205C1760.86 827.801 1798.42 800.024 1838.51 805.706C1878.92 811.703 1906.69 848.95 1901.01 889.353C1869.13 1109.99 1676.58 1276.66 1453.1 1276.66C1203.42 1276.66 1000.46 1073.69 1000.46 824.013" fill="#0040BD"/>
        <path d="M1378.92 1533.9C1378.92 1493.18 1412.06 1460.04 1452.78 1460.04C1802.84 1460.04 2087.56 1175.32 2087.56 825.265V521.294C2087.56 171.237 1802.84 -113.48 1452.78 -113.48C1102.72 -113.48 818.006 171.237 818.006 521.294V825.265C818.006 865.984 784.863 899.127 744.144 899.127C703.425 899.127 670.281 865.984 670.281 825.265V521.294C670.281 89.7993 1021.29 -261.204 1452.78 -261.204C1884.28 -261.204 2235.28 89.7993 2235.28 521.294V825.265C2235.28 1256.76 1884.28 1607.76 1452.78 1607.76C1412.06 1607.76 1378.92 1574.62 1378.92 1533.9Z" fill="white" fill-opacity="0.93"/>
        <path d="M1000.14 824.013V522.567C1000.14 272.888 1203.11 69.9242 1452.79 69.9242C1678.48 69.9242 1865.97 235.641 1899.75 451.862L1908.27 443.654C1930.37 421.559 1966.35 421.559 1988.45 443.654C2010.54 465.75 2010.54 501.734 1988.45 523.83L1895.96 616.315L1815.79 696.806L1735.61 616.631L1643.12 523.83C1621.03 501.734 1621.03 465.75 1643.12 443.654C1665.22 421.559 1701.2 421.559 1723.3 443.654L1753.6 473.957C1730.24 328.758 1604.61 217.649 1453.1 217.649C1284.86 217.649 1148.18 354.325 1148.18 522.567V824.013C1148.18 992.255 1284.86 1128.93 1453.1 1128.93C1603.67 1128.93 1733.4 1016.88 1754.86 868.205C1760.86 827.801 1798.42 800.024 1838.51 805.706C1878.92 811.703 1906.69 848.95 1901.01 889.353C1869.13 1109.99 1676.58 1276.66 1453.1 1276.66C1203.42 1276.66 1000.46 1073.69 1000.46 824.013" fill="white" fill-opacity="0.93"/>
          </g>
    <defs>
        <clipPath id="clip0_764_98128">
            <rect width="1384" height="208" fill="white"/>
        </clipPath>
    </defs>
</svg>
