<svg width="573" height="566" viewBox="0 0 573 566" fill="none" xmlns="http://www.w3.org/2000/svg">
    <path d="M217.775 486.939C145.483 426.784 96.4042 330.009 87.0506 240.893L77.6758 151.353C138.965 117.358 197.567 78.301 251.538 33.554C314.766 63.7435 379.728 90.158 446.083 112.659L455.469 202.258C459.5 245.437 455.777 290.238 445.048 332.204C436.711 366.395 411.073 418.572 399.296 440.386C374.498 480.194 342.403 513.699 304.299 535.505C271.812 524.915 244.842 507.064 217.775 486.939Z" fill="white"/>
    <path d="M217.775 486.939C145.482 426.784 96.4042 330.009 87.0506 240.893L77.6758 151.353C138.965 117.358 197.567 78.301 251.538 33.554C314.766 63.7435 379.728 90.158 446.083 112.659L455.469 202.258C459.5 245.437 455.777 290.238 445.048 332.204C436.711 366.395 411.073 418.572 399.296 440.386C374.498 480.194 342.403 513.699 304.299 535.505C271.812 524.915 244.842 507.064 217.775 486.939Z" stroke="black" stroke-width="1.96554" stroke-linecap="round" stroke-linejoin="round"/>
    <path d="M154.108 108.743L152.664 92.0623L122.987 94.6516L124.431 111.332C124.577 113.301 125.112 115.219 126.006 116.977C126.897 118.736 128.131 120.301 129.633 121.579C131.137 122.856 132.877 123.823 134.756 124.423C136.635 125.023 138.616 125.243 140.582 125.073C142.545 124.9 144.458 124.342 146.203 123.424C147.951 122.51 149.5 121.254 150.758 119.734C152.016 118.217 152.96 116.461 153.536 114.574C154.11 112.687 154.304 110.706 154.108 108.743Z" fill="#D6056A"/>
    <path d="M154.108 108.743L152.664 92.0623L122.987 94.6515L124.431 111.332C124.577 113.301 125.112 115.219 126.006 116.977C126.897 118.736 128.131 120.3 129.633 121.579C131.137 122.856 132.877 123.823 134.756 124.423C136.635 125.023 138.616 125.243 140.582 125.073C142.545 124.9 144.458 124.342 146.203 123.424C147.951 122.51 149.5 121.254 150.758 119.734C152.016 118.217 152.96 116.461 153.536 114.574C154.11 112.687 154.304 110.706 154.108 108.743Z" fill="white" fill-opacity="0.5"/>
    <path d="M154.108 108.743L152.664 92.0623L122.987 94.6516L124.431 111.332C124.577 113.301 125.112 115.219 126.006 116.977C126.897 118.736 128.131 120.301 129.633 121.579C131.137 122.856 132.877 123.823 134.756 124.423C136.635 125.023 138.616 125.243 140.582 125.073C142.545 124.9 144.458 124.342 146.203 123.424C147.951 122.51 149.5 121.254 150.758 119.734C152.016 118.217 152.96 116.461 153.536 114.574C154.11 112.687 154.304 110.706 154.108 108.743Z" stroke="black" stroke-width="1.96554" stroke-linecap="round" stroke-linejoin="round"/>
    <path d="M122.987 94.6515L122.04 83.9957C121.752 80.0908 123.013 76.2279 125.55 73.2429C128.089 70.2605 131.7 68.3972 135.6 68.0565C139.502 67.7158 143.384 68.9266 146.397 71.4241C149.414 73.9243 151.327 77.5094 151.717 81.4064" stroke="black" stroke-width="1.96554" stroke-linecap="round" stroke-linejoin="round"/>
    <path d="M136.63 110.038C136.69 110.745 137.028 111.398 137.568 111.857C138.111 112.313 138.811 112.538 139.518 112.478C140.226 112.417 140.878 112.082 141.337 111.539C141.793 110.997 142.018 110.297 141.958 109.59L141.56 105.396C141.499 104.689 141.164 104.036 140.621 103.578C140.079 103.122 139.379 102.896 138.672 102.957C137.964 103.017 137.312 103.355 136.853 103.895C136.397 104.437 136.171 105.137 136.232 105.845L136.63 110.038Z" fill="white" stroke="black" stroke-width="1.96554" stroke-linecap="round" stroke-linejoin="round"/>
    <path d="M511.001 150L510.969 177.938" stroke="black" stroke-width="1.69514" stroke-linecap="round" stroke-linejoin="round"/>
    <path d="M524.972 164L497 163.97" stroke="black" stroke-width="1.69514" stroke-linecap="round" stroke-linejoin="round"/>
    <rect x="173" y="454.827" width="60.2764" height="61.5868" rx="30.1382" transform="rotate(-6.50326 173 454.827)" fill="white"/>
    <path d="M195.741 480.774L208.306 492.523L215.644 470.286" stroke="black" stroke-width="1.96554" stroke-linecap="round" stroke-linejoin="round"/>
    <rect x="173" y="454.827" width="60.2764" height="61.5868" rx="30.1382" transform="rotate(-6.50326 173 454.827)" stroke="black" stroke-width="1.96554" stroke-linecap="round" stroke-linejoin="round"/>
    <path d="M420.133 484C420.95 484 421.75 484.242 422.43 484.697C423.111 485.149 423.64 485.795 423.954 486.551C424.267 487.307 424.349 488.138 424.189 488.94C424.03 489.741 423.637 490.479 423.059 491.057C422.481 491.637 421.743 492.03 420.941 492.189C420.14 492.349 419.309 492.267 418.553 491.954C417.797 491.642 417.151 491.111 416.697 490.431C416.242 489.752 416 488.952 416 488.134C416.003 487.039 416.439 485.99 417.214 485.215C417.988 484.439 419.038 484.003 420.133 484Z" stroke="black" stroke-width="1.69514" stroke-linecap="round" stroke-linejoin="round"/>
    <path d="M68.5356 406.764L69.2826 415.527" stroke="black" stroke-width="1.96554" stroke-linecap="round" stroke-linejoin="round"/>
    <path d="M61.7637 424.49L53 425.287" stroke="black" stroke-width="1.96554" stroke-linecap="round" stroke-linejoin="round"/>
    <path d="M87.009 422.25L78.2454 423.046" stroke="black" stroke-width="1.96554" stroke-linecap="round" stroke-linejoin="round"/>
    <path d="M71.4735 440.773L70.7266 432.009" stroke="black" stroke-width="1.96554" stroke-linecap="round" stroke-linejoin="round"/>
    <path d="M78.2454 423.046C77.163 423.142 76.0728 423.023 75.0376 422.696C73.9998 422.37 73.038 421.843 72.2046 421.144C71.3738 420.446 70.6872 419.591 70.184 418.627C69.6835 417.663 69.3769 416.61 69.2825 415.527C69.3769 416.61 69.2589 417.7 68.9339 418.736C68.6063 419.773 68.0796 420.735 67.3799 421.567C66.6828 422.399 65.8258 423.086 64.864 423.588C63.8996 424.089 62.846 424.396 61.7637 424.49C62.846 424.395 63.9363 424.514 64.9741 424.84C66.0092 425.166 66.971 425.694 67.8044 426.392C68.6352 427.09 69.3218 427.946 69.825 428.91C70.3256 429.873 70.6322 430.927 70.7265 432.009C70.6322 430.927 70.7501 429.836 71.0777 428.8C71.4027 427.764 71.9294 426.802 72.6291 425.969C73.3263 425.137 74.1832 424.45 75.145 423.949C76.1095 423.447 77.163 423.141 78.2454 423.046Z" fill="white"/>
    <path d="M78.2454 423.046C77.163 423.142 76.0728 423.023 75.0376 422.696C73.9998 422.37 73.038 421.843 72.2046 421.144C71.3738 420.446 70.6872 419.591 70.184 418.627C69.6835 417.663 69.3769 416.61 69.2825 415.527C69.3769 416.61 69.2589 417.7 68.9339 418.736C68.6063 419.773 68.0796 420.735 67.3799 421.567C66.6828 422.399 65.8258 423.086 64.864 423.588C63.8996 424.089 62.846 424.396 61.7637 424.49C62.846 424.395 63.9363 424.514 64.9741 424.84C66.0092 425.166 66.971 425.694 67.8044 426.392C68.6352 427.09 69.3218 427.946 69.825 428.91C70.3256 429.873 70.6322 430.927 70.7265 432.009C70.6322 430.927 70.7501 429.836 71.0777 428.8C71.4027 427.764 71.9294 426.802 72.6291 425.969C73.3263 425.137 74.1832 424.45 75.145 423.949C76.1095 423.447 77.163 423.141 78.2454 423.046Z" stroke="black" stroke-width="1.96554" stroke-linecap="round" stroke-linejoin="round"/>
    <path d="M282.005 251.457L264.372 229.266L213.587 217.059L134 263.101L244.186 401.833L351.872 339.388L330.369 312.325" stroke="black" stroke-width="1.69514" stroke-linecap="round" stroke-linejoin="round"/>
    <path d="M236.079 245.574L208.269 220.101L213.586 217.026L236.079 245.574Z" fill="black"/>
    <path d="M236.079 245.574L208.269 220.101L213.586 217.026L236.079 245.574Z" stroke="black" stroke-width="1.69514" stroke-linecap="round" stroke-linejoin="round"/>
    <path d="M284.874 317.087C271.745 309.522 264.08 296.718 264.234 284.79C254.923 282.711 245.174 284.101 236.815 288.699C219.833 298.53 216.982 320.291 230.47 337.241C243.958 354.221 268.662 359.99 285.643 350.124C290.47 347.427 294.425 343.406 297.043 338.538C299.662 333.667 300.834 328.151 300.423 322.639C294.944 321.757 289.673 319.876 284.874 317.087Z" fill="#D6056A"/>
    <path d="M284.874 317.087C271.745 309.522 264.08 296.718 264.234 284.79C254.923 282.711 245.174 284.101 236.815 288.699C219.833 298.53 216.982 320.291 230.47 337.241C243.958 354.221 268.662 359.99 285.643 350.124C290.47 347.427 294.425 343.406 297.043 338.538C299.662 333.667 300.834 328.151 300.423 322.639C294.944 321.757 289.673 319.876 284.874 317.087Z" fill="white" fill-opacity="0.9"/>
    <path d="M284.874 317.087C271.745 309.522 264.08 296.718 264.234 284.79C254.923 282.711 245.174 284.101 236.815 288.699C219.833 298.53 216.982 320.291 230.47 337.241C243.958 354.221 268.662 359.99 285.643 350.124C290.47 347.427 294.425 343.406 297.043 338.538C299.662 333.667 300.834 328.151 300.423 322.639C294.944 321.757 289.673 319.876 284.874 317.087Z" stroke="black" stroke-width="1.69514" stroke-linecap="round" stroke-linejoin="round"/>
    <path d="M264.34 229.201L236.08 245.574L213.587 217.026" stroke="black" stroke-width="1.69514" stroke-linecap="round" stroke-linejoin="round"/>
    <path d="M167.453 273.864L214.776 246.471" stroke="black" stroke-width="1.69514" stroke-linecap="round" stroke-linejoin="round"/>
    <path d="M182.222 292.513L255.85 249.898" stroke="black" stroke-width="1.69514" stroke-linecap="round" stroke-linejoin="round"/>
    <path d="M239.189 327.565L271.358 336.151L270.205 303.567" stroke="black" stroke-width="1.69514" stroke-linecap="round" stroke-linejoin="round"/>
    <path d="M274.814 260.056L267.542 272.552C259.275 286.841 267.034 306.794 284.875 317.087C300.857 326.339 322.168 325.765 332.199 309.718L339.338 297.334" stroke="black" stroke-width="1.69514" stroke-linecap="round" stroke-linejoin="round"/>
    <path d="M287.172 248.436C281.133 251.032 276.362 255.905 273.894 261.997C267.764 277.063 277.567 294.686 292.756 303.436C306.276 311.244 323.931 311.998 334.921 302.346C336.599 300.873 338.081 299.192 339.328 297.34" stroke="black" stroke-width="1.69514" stroke-linecap="round" stroke-linejoin="round"/>
    <path d="M384.105 198.507L376.158 212.221C373.212 217.347 366.964 220.037 359.978 220.037C339.535 220.037 322.805 198.98 330.406 185.819L338.319 172.105C334.731 178.353 336.814 186.043 340.787 191.843C352.347 208.724 376.986 210.761 384.105 198.507Z" stroke="black" stroke-width="1.69514" stroke-linecap="round" stroke-linejoin="round"/>
    <path d="M412.618 252.59C402.727 273.052 383.168 296.271 367.281 308.981C361.702 308.137 356.256 306.586 351.069 304.367C340.998 299.317 332 292.363 324.572 283.893L335.977 264.285C333.927 260.535 332.39 257.335 330.98 254.033C329.429 254.788 327.683 255.045 325.981 254.769C328.608 263.292 324.925 266.88 319.22 266.143C321.689 274.058 316.049 277.331 308.327 274.378C309.416 280.625 300.457 281.562 293.268 275.531C287.552 270.733 278.457 257.181 284.623 251.121C285.4 250.367 286.4 249.883 287.474 249.742C286.321 245.352 286.626 240.917 290.903 238.336C291.606 237.901 292.392 237.618 293.21 237.503C291.985 230.64 295.597 225.888 300.899 224.334C300.95 222.593 301.452 220.895 302.355 219.406C303.259 217.918 304.534 216.689 306.054 215.84C303.352 211.68 301.248 207.161 299.806 202.416C298.163 195.649 303.366 191.636 310.284 196.969C312.562 198.727 315.569 201.261 319.158 204.177C320.151 203.601 329.539 198.986 329.539 198.986C329.907 200.133 330.368 201.247 330.917 202.319C330.917 202.319 329.222 205.267 326.496 209.913C335.243 216.45 346.039 223.434 357.543 227.214L361.675 220.094C366.544 219.972 371.173 217.962 374.587 214.488C385.368 223.939 380.159 218.889 412.618 252.59Z" stroke="black" stroke-width="1.69514" stroke-linecap="round" stroke-linejoin="round"/>
    <path d="M377.988 204.114C362.253 212.124 337.514 197.729 336.528 180.243C335.967 170.313 343.986 164.288 354.496 164.288C366.896 164.288 380.006 172.756 384.455 184.122C387.631 192.226 385.758 200.158 377.988 204.114Z" fill="black"/>
    <path d="M377.988 204.114C362.253 212.124 337.514 197.729 336.528 180.243C335.967 170.313 343.986 164.288 354.496 164.288C366.896 164.288 380.006 172.756 384.455 184.122C387.631 192.226 385.758 200.158 377.988 204.114Z" stroke="black" stroke-width="1.69514" stroke-linecap="round" stroke-linejoin="round"/>
    <path d="M351.102 304.36C348.795 310.161 348.41 314.361 350.364 315.99C352.992 318.17 359.335 315.285 367.316 308.974C361.766 307.999 356.333 306.453 351.102 304.36Z" fill="black"/>
    <path d="M351.102 304.36C348.795 310.161 348.41 314.361 350.364 315.99C352.992 318.17 359.335 315.285 367.316 308.974C361.766 307.999 356.333 306.453 351.102 304.36Z" stroke="black" stroke-width="1.69514" stroke-linecap="round" stroke-linejoin="round"/>
    <path d="M402.208 241.762L412.621 252.591C419.712 237.114 414.521 233.483 402.208 241.762Z" fill="black"/>
    <path d="M402.208 241.762L412.621 252.591C419.712 237.114 414.521 233.483 402.208 241.762Z" stroke="black" stroke-width="1.69514" stroke-linecap="round" stroke-linejoin="round"/>
    <path d="M339.313 297.318C338.638 298.373 337.877 299.369 337.038 300.298L324.575 283.893C328.971 288.905 333.914 293.408 339.313 297.318Z" fill="black"/>
    <path d="M339.313 297.318C338.638 298.373 337.877 299.369 337.038 300.298L324.575 283.893C328.971 288.905 333.914 293.408 339.313 297.318Z" stroke="black" stroke-width="1.69514" stroke-linecap="round" stroke-linejoin="round"/>
    <path d="M435.242 274.346C435.242 275.195 434.99 276.026 434.519 276.731C434.047 277.438 433.376 277.987 432.591 278.313C431.806 278.638 430.944 278.723 430.111 278.557C429.277 278.392 428.513 277.982 427.913 277.382C427.313 276.782 426.902 276.017 426.738 275.183C426.572 274.351 426.657 273.487 426.982 272.703C427.306 271.918 427.857 271.248 428.564 270.776C429.269 270.304 430.099 270.052 430.949 270.052C432.088 270.052 433.179 270.505 433.985 271.31C434.79 272.115 435.242 273.207 435.242 274.346Z" fill="black"/>
    <path d="M435.242 274.346C435.242 275.195 434.99 276.026 434.519 276.731C434.047 277.438 433.376 277.987 432.591 278.313C431.806 278.638 430.944 278.723 430.111 278.557C429.277 278.392 428.513 277.982 427.913 277.382C427.313 276.782 426.902 276.017 426.738 275.183C426.572 274.351 426.657 273.487 426.982 272.703C427.306 271.918 427.857 271.248 428.564 270.776C429.269 270.304 430.099 270.052 430.949 270.052C432.088 270.052 433.179 270.505 433.985 271.31C434.79 272.115 435.242 273.207 435.242 274.346Z" stroke="black" stroke-width="1.69514" stroke-linecap="round" stroke-linejoin="round"/>
    <path d="M361.71 220.006C355.436 220.196 349.233 218.632 343.8 215.491C338.366 212.349 333.916 207.754 330.951 202.223C330.951 202.223 329.256 205.17 326.53 209.817C335.277 216.353 346.074 223.337 357.577 227.119L361.71 220.006Z" fill="#D6056A"/>
    <path d="M361.71 220.006C355.436 220.196 349.233 218.632 343.8 215.491C338.366 212.349 333.916 207.754 330.951 202.223C330.951 202.223 329.256 205.17 326.53 209.817C335.277 216.353 346.074 223.337 357.577 227.119L361.71 220.006Z" stroke="black" stroke-width="1.69514" stroke-linecap="round" stroke-linejoin="round"/>
    <path d="M335.947 264.285C333.896 260.535 332.359 257.335 330.948 254.033C329.397 254.788 327.651 255.045 325.949 254.768C328.577 263.292 324.893 266.88 319.189 266.143C321.657 274.058 316.017 277.331 308.296 274.378C309.386 280.625 300.426 281.562 293.236 275.531C292.897 275.239 292.501 274.853 292.05 274.442C293.918 279.613 297.625 283.911 302.463 286.52C308.867 290.205 319.681 291.967 323.161 286.168L335.947 264.285Z" fill="#D6056A"/>
    <path d="M335.947 264.285C333.896 260.535 332.359 257.335 330.948 254.033C329.397 254.788 327.651 255.045 325.949 254.768C328.577 263.292 324.893 266.88 319.189 266.143C321.657 274.058 316.017 277.331 308.296 274.378C309.386 280.625 300.426 281.562 293.236 275.531C292.897 275.239 292.501 274.853 292.05 274.442C293.918 279.613 297.625 283.911 302.463 286.52C308.867 290.205 319.681 291.967 323.161 286.168L335.947 264.285Z" stroke="black" stroke-width="1.69514" stroke-linecap="round" stroke-linejoin="round"/>
    <path d="M335.949 264.285C339.888 271.334 345.016 278.158 350.91 280.657" stroke="black" stroke-width="1.69514" stroke-linecap="round" stroke-linejoin="round"/>
    <path d="M326.53 209.817C318.982 204.179 315.424 200.817 310.318 196.905C303.41 191.611 298.214 195.589 299.84 202.351C302.615 213.887 319.919 236.035 327.524 244.965C327.524 244.965 328.741 248.81 330.983 254.033" stroke="black" stroke-width="1.69514" stroke-linecap="round" stroke-linejoin="round"/>
    <path d="M370.036 229.774C365.781 229.376 361.589 228.484 357.541 227.116" stroke="black" stroke-width="1.69514" stroke-linecap="round" stroke-linejoin="round"/>
    <path d="M293.141 236.954C294.518 246.247 303.9 256.633 306.565 259.191C309.972 262.744 314.391 265.161 319.221 266.111" stroke="black" stroke-width="1.69514" stroke-linecap="round" stroke-linejoin="round"/>
    <path d="M330.973 254.033C327.288 255.923 321.075 254.767 313.928 248.17C310.628 245.118 300.599 233.422 300.92 224.268" stroke="black" stroke-width="1.69514" stroke-linecap="round" stroke-linejoin="round"/>
    <path d="M287.505 249.707C289.331 256.564 294.935 263.904 297.213 266.367C300.274 269.833 304.073 272.571 308.331 274.378" stroke="black" stroke-width="1.69514" stroke-linecap="round" stroke-linejoin="round"/>
    <path d="M414.572 238.109L454.398 272.488" stroke="black" stroke-width="1.69514" stroke-linecap="round" stroke-linejoin="round"/>
    <path d="M350.4 316.029L387.854 348.774" stroke="black" stroke-width="1.69514" stroke-linecap="round" stroke-linejoin="round"/>
</svg>
