<svg width="191" height="48" viewBox="0 0 191 48" fill="none" xmlns="http://www.w3.org/2000/svg">
    <path fill-rule="evenodd" clip-rule="evenodd" d="M123.473 14.161C122.908 14.161 122.485 14.0764 122.203 13.907C121.921 13.7377 121.737 13.5049 121.645 13.1944C121.554 12.884 121.511 12.5241 121.511 12.1149C121.511 11.7057 121.554 11.3529 121.645 11.0566C121.737 10.7602 121.928 10.5415 122.224 10.4004C122.52 10.2593 122.951 10.1887 123.515 10.1887C124.08 10.1887 124.461 10.2663 124.743 10.4216C125.025 10.5768 125.209 10.8026 125.3 11.113C125.392 11.4235 125.434 11.7904 125.434 12.2278C125.434 12.6088 125.385 12.9545 125.3 13.2509C125.209 13.5472 125.025 13.773 124.743 13.9212C124.461 14.0764 124.037 14.154 123.473 14.154V14.161ZM123.473 37.4023C122.986 37.4023 122.612 37.3318 122.358 37.1907C122.104 37.0496 121.942 36.852 121.878 36.598C121.815 36.344 121.779 36.0336 121.779 35.6737V20.4688C121.779 20.1372 121.822 19.8338 121.892 19.5657C121.97 19.2976 122.132 19.1 122.372 18.9659C122.612 18.8319 122.993 18.7754 123.508 18.7754C123.995 18.7754 124.355 18.846 124.588 18.9871C124.82 19.1282 124.976 19.3328 125.053 19.601C125.131 19.8691 125.166 20.1866 125.166 20.5464V35.709C125.166 36.0688 125.124 36.3793 125.053 36.6333C124.976 36.8873 124.813 37.0848 124.574 37.2118C124.327 37.3388 123.967 37.4023 123.48 37.4023H123.473ZM55.4631 36.8873C56.7754 37.2894 58.1231 37.487 59.506 37.487V37.4799C60.8113 37.4799 61.9261 37.36 62.8504 37.113C63.7746 36.8661 64.5225 36.5839 65.1011 36.2664C65.6726 35.9489 66.0677 35.7372 66.2724 35.6314C66.6322 35.4056 66.985 35.1516 67.3307 34.8835C67.6764 34.6153 67.8669 34.2837 67.8881 33.9027C67.9163 33.6487 67.8881 33.4088 67.8105 33.1901C67.7329 32.9714 67.627 32.7738 67.5 32.5904C67.2954 32.287 67.0838 32.0612 66.865 31.9201C66.6463 31.779 66.4064 31.7084 66.1524 31.7084C65.8984 31.7084 65.6585 31.786 65.4398 31.9413C65.2281 32.0894 64.9741 32.2446 64.6919 32.3999C64.5084 32.5269 64.1768 32.7103 63.69 32.9573C63.2031 33.2042 62.6034 33.43 61.8837 33.6346C61.1641 33.8463 60.3174 33.9451 59.3437 33.9451C58.0384 33.9451 56.7895 33.7122 55.6113 33.2536C54.4259 32.7879 53.3817 32.1247 52.4715 31.2498C51.5613 30.3749 50.8487 29.3166 50.3336 28.0748C49.8186 26.8259 49.5645 25.4642 49.5645 23.8978C49.5645 22.3315 49.8186 20.9344 50.3336 19.6997C50.8487 18.472 51.5542 17.4207 52.4503 16.5458C53.3534 15.6709 54.3977 15.0006 55.5901 14.542C56.7825 14.0834 58.0384 13.8506 59.3437 13.8506C60.3456 13.8506 61.2064 13.9564 61.9402 14.161C62.674 14.3656 63.2666 14.5844 63.7323 14.8172C64.198 15.05 64.5014 15.2194 64.6566 15.3182C64.9671 15.5228 65.2281 15.6992 65.4468 15.8544C65.6656 16.0096 65.9055 16.0872 66.1595 16.0872C66.3852 16.0872 66.6181 16.0167 66.8509 15.8755C67.0838 15.7415 67.3025 15.5157 67.5071 15.2053C67.6341 15.0289 67.7399 14.8384 67.8317 14.6479C67.9234 14.4574 67.9375 14.2175 67.8881 13.9352C67.8669 13.5754 67.6835 13.2579 67.3519 12.9757C67.0203 12.6935 66.6745 12.4394 66.3147 12.2066C66.0819 12.0796 65.6797 11.8609 65.1011 11.5504C64.5225 11.24 63.7746 10.9648 62.8504 10.7038C61.9261 10.4498 60.8254 10.3228 59.5413 10.3228C58.1301 10.3228 56.7754 10.5274 55.4631 10.9225C54.1578 11.3176 52.9301 11.8962 51.7871 12.6511C50.6441 13.4061 49.6492 14.3233 48.8025 15.4028C47.9559 16.4753 47.2856 17.7171 46.7987 19.1141C46.3119 20.5111 46.0649 22.0281 46.0649 23.7144C46.0649 25.4007 46.3119 26.967 46.7987 28.4064C47.2856 29.8387 47.9559 31.1228 48.8025 32.2517C49.6492 33.3806 50.6441 34.3331 51.7871 35.1163C52.9301 35.8995 54.1578 36.4921 55.4631 36.8873ZM76.5172 36.8307C77.7237 37.3458 79.0995 37.5998 80.6377 37.5998L80.6236 37.5927C82.0065 37.5927 83.2412 37.4446 84.3348 37.1341C85.4285 36.8307 86.2822 36.4638 86.896 36.0405C87.5099 35.6172 87.8203 35.215 87.8203 34.8269C87.8203 34.6223 87.7921 34.4318 87.7427 34.2484C87.6863 34.0649 87.5875 33.8744 87.4323 33.6698C87.3053 33.4087 87.1289 33.2394 86.896 33.1477C86.6632 33.056 86.4445 33.0418 86.2399 33.0912C86.0352 33.1406 85.8165 33.2323 85.5837 33.3593C85.3579 33.4934 85.1039 33.6204 84.8358 33.7474C84.5677 33.8815 84.2431 34.0014 83.855 34.1355C83.467 34.2695 83.0084 34.3683 82.4862 34.4459C81.9641 34.5235 81.3503 34.5588 80.6588 34.5588C79.6852 34.5588 78.7115 34.3401 77.7519 33.9026C76.7923 33.4722 75.995 32.8443 75.3671 32.0399C74.7391 31.2356 74.4357 30.276 74.464 29.1754H85.5907C86.4868 29.1754 87.2488 28.9002 87.8627 28.364C88.4765 27.8207 88.787 26.8964 88.787 25.5911C88.787 24.7726 88.5965 23.9471 88.2084 23.1287C87.8274 22.3102 87.277 21.5694 86.5574 20.8991C85.8377 20.2358 84.9769 19.6996 83.9609 19.3045C82.9449 18.9023 81.8018 18.7048 80.5177 18.7048C78.648 18.7048 76.9758 19.1069 75.5153 19.9183C74.0547 20.7227 72.9117 21.8234 72.0933 23.2063C71.2677 24.5892 70.8585 26.1696 70.8585 27.9406C70.8585 29.2741 71.0772 30.5159 71.5288 31.673C71.9804 32.8302 72.6224 33.8532 73.455 34.7352C74.2876 35.6172 75.3106 36.3157 76.5172 36.8307ZM84.1232 26.854H74.464H74.4569C74.4287 25.8804 74.6897 25.0055 75.226 24.2364C75.7693 23.4673 76.503 22.8605 77.4414 22.409C78.3799 21.9645 79.4029 21.7387 80.5036 21.7387C81.5055 21.7387 82.3875 21.9151 83.1424 22.2749C83.8974 22.6348 84.4971 23.1075 84.9346 23.7002C85.372 24.2928 85.5907 24.9349 85.5907 25.6264C85.5907 26.1908 85.4567 26.5365 85.2027 26.6635C84.9416 26.7905 84.5888 26.854 84.1232 26.854ZM93.9516 37.4094C93.4647 37.4094 93.0978 37.3388 92.8579 37.1977C92.611 37.0566 92.4628 36.852 92.3923 36.5838C92.3288 36.3157 92.3005 35.9982 92.3005 35.6384V20.4758C92.3005 20.0948 92.3288 19.7702 92.3923 19.5162C92.4558 19.2622 92.611 19.0717 92.8579 18.9588C93.1049 18.846 93.4788 18.7825 93.9939 18.7825C94.4525 18.7825 94.8053 18.8389 95.0522 18.9588C95.2992 19.0717 95.4615 19.2411 95.5532 19.4598C95.6449 19.6785 95.6873 19.9255 95.6873 20.2077L95.532 21.3648C95.7084 21.0332 95.9201 20.7016 96.167 20.3629C96.4069 20.0313 96.7174 19.7279 97.0913 19.4598C97.4653 19.1917 97.9098 18.9659 98.439 18.7825C98.9611 18.6061 99.6102 18.5143 100.386 18.5143C100.774 18.5143 101.134 18.5496 101.48 18.6131C101.826 18.6766 102.157 18.7754 102.482 18.9024C102.799 19.0294 103.075 19.1776 103.307 19.3469C103.54 19.5162 103.724 19.6926 103.865 19.8831C104.006 20.0736 104.076 20.2994 104.076 20.5534C104.076 21.1179 103.9 21.5977 103.54 21.9998C103.18 22.402 102.806 22.5996 102.425 22.5996C102.094 22.5996 101.847 22.5643 101.692 22.4867C101.536 22.4091 101.388 22.3103 101.247 22.1974C101.106 22.0845 100.908 21.9787 100.654 21.8869C100.4 21.7952 99.9842 21.7529 99.4197 21.7529C99.0316 21.7529 98.6295 21.8305 98.2061 21.9857C97.7828 22.1409 97.3806 22.3667 96.9926 22.656C96.6045 22.9523 96.2941 23.3333 96.0471 23.792C95.8002 24.2506 95.6802 24.808 95.6802 25.45V35.7301C95.6802 36.09 95.6449 36.4004 95.5673 36.6544C95.4897 36.9084 95.3274 37.106 95.0875 37.233C94.8406 37.36 94.4666 37.4235 93.9516 37.4235V37.4094ZM109.665 19.218L107.654 19.1988L107.661 19.1776C107.146 19.1776 106.779 19.3117 106.546 19.5657C106.313 19.8267 106.2 20.2077 106.2 20.8004C106.2 21.3931 106.299 21.8164 106.49 22.0704C106.68 22.3244 107.047 22.4655 107.583 22.4938L109.665 22.4522V31.144C109.665 32.3011 109.778 33.2677 110.01 34.0509C110.243 34.8341 110.617 35.4691 111.146 35.9559C111.676 36.4428 112.36 36.8026 113.207 37.0354C114.053 37.2683 115.076 37.3812 116.283 37.3812V37.3882C116.615 37.3882 116.918 37.3529 117.186 37.2894C117.454 37.2259 117.659 37.0707 117.8 36.8308C117.941 36.5909 118.012 36.224 118.012 35.7372C118.012 35.2786 117.948 34.9329 117.821 34.7C117.694 34.4742 117.497 34.319 117.243 34.2414C116.981 34.1638 116.65 34.1285 116.241 34.1285C115.648 34.1285 115.147 34.1003 114.738 34.0509C114.329 33.9945 114.004 33.8675 113.757 33.6628C113.517 33.4582 113.334 33.1548 113.221 32.7597C113.101 32.3646 113.044 31.8354 113.044 31.1651V22.4393L116.742 22.4938C117.101 22.4938 117.412 22.4585 117.666 22.3809C117.927 22.3033 118.117 22.148 118.244 21.9011C118.371 21.6612 118.435 21.2943 118.435 20.8075C118.435 20.3206 118.364 19.9608 118.223 19.7138C118.082 19.4739 117.878 19.3187 117.624 19.2552C117.37 19.1917 117.059 19.1564 116.699 19.1564L113.044 19.2095V14.1187C113.044 13.7871 113.009 13.4908 112.932 13.2368C112.854 12.9757 112.685 12.7781 112.431 12.637C112.177 12.4959 111.803 12.4254 111.316 12.4254C110.829 12.4254 110.469 12.4959 110.236 12.637C110.01 12.7781 109.855 12.9827 109.778 13.2368C109.7 13.4908 109.665 13.8083 109.665 14.1963V19.218ZM134.119 36.3157C135.157 36.7602 136.307 36.986 137.563 36.986L137.57 36.993C139.108 36.993 140.42 36.6261 141.514 35.8782C142.201 35.4128 142.79 34.8249 143.282 34.1145L143.292 36.0476C143.292 36.9718 143.158 37.7974 142.89 38.5311C142.621 39.2649 142.248 39.8858 141.775 40.4009C141.302 40.916 140.723 41.304 140.046 41.558C139.369 41.8191 138.621 41.9461 137.795 41.9461C136.97 41.9461 136.285 41.8402 135.735 41.6215C135.185 41.4028 134.726 41.1558 134.352 40.8877C133.978 40.6126 133.661 40.3727 133.407 40.1539C133.153 39.9352 132.892 39.8294 132.638 39.8294C132.384 39.8294 132.179 39.8788 132.024 39.9846C131.869 40.0834 131.664 40.2668 131.41 40.5208C131.255 40.7043 131.142 40.8736 131.064 41.043C130.987 41.2123 130.951 41.424 130.951 41.678C130.951 42.0166 131.128 42.3694 131.488 42.7575C131.847 43.1455 132.334 43.5054 132.948 43.837C133.569 44.1757 134.275 44.4438 135.086 44.6484C135.89 44.853 136.758 44.9588 137.683 44.9588L137.675 44.9447C138.96 44.9447 140.138 44.7472 141.217 44.3662C142.297 43.9852 143.228 43.4207 144.026 42.6728C144.823 41.9249 145.437 41.0218 145.874 39.9564C146.312 38.891 146.53 37.6774 146.53 36.3157V20.384C146.53 20.0242 146.495 19.7279 146.432 19.4809C146.361 19.234 146.22 19.0435 145.987 18.9023C145.761 18.7612 145.408 18.6907 144.95 18.6907C144.357 18.6907 143.927 18.7965 143.659 19.0011C143.383 19.2057 143.235 19.5515 143.214 20.0383L143.222 21.7043C143.136 21.5811 143.046 21.4609 142.953 21.3436C142.311 20.5393 141.528 19.9184 140.604 19.4809C139.679 19.0435 138.691 18.8247 137.485 18.8247C136.278 18.8247 135.157 19.0435 134.119 19.495C133.075 19.9466 132.172 20.5816 131.403 21.4C130.634 22.2185 130.034 23.1851 129.611 24.2858C129.187 25.3935 128.976 26.593 128.976 27.9053C128.976 29.2177 129.187 30.4242 129.611 31.5249C130.034 32.6256 130.634 33.5922 131.403 34.4107C132.172 35.2291 133.082 35.8641 134.119 36.3157ZM140.519 33.0489C139.7 33.564 138.762 33.818 137.711 33.818V33.8039C136.659 33.8039 135.721 33.5499 134.903 33.0348C134.077 32.5268 133.442 31.8212 132.976 30.9393C132.518 30.0573 132.285 29.0201 132.285 27.8418C132.285 26.6636 132.504 25.6405 132.955 24.7656C133.4 23.8907 134.042 23.2063 134.86 22.7053C135.679 22.2044 136.617 21.9574 137.668 21.9574C138.72 21.9574 139.665 22.2044 140.498 22.6912C141.33 23.1781 141.994 23.8695 142.48 24.7515C142.967 25.6405 143.214 26.6353 143.214 27.8136C143.214 28.9919 142.967 30.0362 142.48 30.9322C141.994 31.8283 141.337 32.5338 140.519 33.0489ZM152.881 37.3669C152.394 37.3669 152.027 37.2964 151.787 37.1553C151.54 37.0142 151.385 36.8166 151.329 36.5626C151.265 36.3086 151.23 35.9981 151.23 35.6383V20.3628C151.23 20.0312 151.258 19.749 151.329 19.5162C151.392 19.2833 151.554 19.1069 151.808 18.9799C152.062 18.8529 152.436 18.7894 152.923 18.7894C153.304 18.7894 153.607 18.8318 153.826 18.9235C154.045 19.0152 154.2 19.1352 154.285 19.2904C154.377 19.4456 154.433 19.6079 154.461 19.7913C154.489 19.9748 154.497 20.1371 154.497 20.2923L154.419 22.0632C154.673 21.6258 154.997 21.2095 155.378 20.8144C155.767 20.4193 156.211 20.0594 156.726 19.7349C157.241 19.4174 157.799 19.1634 158.398 18.987C158.998 18.8106 159.647 18.7189 160.339 18.7189C161.467 18.7189 162.505 18.9164 163.457 19.3186C164.41 19.7208 165.221 20.2923 165.906 21.0472C166.583 21.8022 167.112 22.7124 167.486 23.7637C167.86 24.815 168.043 26.0074 168.043 27.3409V35.6948C168.043 36.0546 168.008 36.365 167.945 36.619C167.881 36.8731 167.726 37.0706 167.486 37.1976C167.239 37.3246 166.865 37.3881 166.35 37.3881C165.835 37.3881 165.489 37.3176 165.235 37.1764C164.981 37.0353 164.819 36.8378 164.755 36.5838C164.692 36.3298 164.657 36.0193 164.657 35.6595V27.3056C164.657 26.2261 164.473 25.2947 164.099 24.4974C163.725 23.7002 163.189 23.0863 162.484 22.6489C161.778 22.2114 160.875 21.9927 159.767 21.9927C158.659 21.9927 157.799 22.2114 157.015 22.6489C156.232 23.0863 155.632 23.7002 155.209 24.4974C154.786 25.2947 154.574 26.2261 154.574 27.3056V35.6948C154.574 36.0546 154.539 36.365 154.461 36.619C154.384 36.8731 154.221 37.0706 153.981 37.1976C153.734 37.3246 153.375 37.3881 152.888 37.3881L152.881 37.3669ZM186.868 37.0214C187.122 37.2542 187.531 37.3671 188.095 37.3671L188.109 37.353C188.596 37.353 188.956 37.2824 189.189 37.1413C189.415 37.0002 189.57 36.7885 189.648 36.5063C189.725 36.2241 189.761 35.9066 189.761 35.5467V20.6875C189.761 20.2783 189.725 19.9326 189.648 19.6504C189.57 19.3681 189.422 19.1494 189.203 18.9942C188.984 18.839 188.632 18.7614 188.145 18.7614C187.552 18.7614 187.122 18.8884 186.854 19.1282C186.585 19.3752 186.451 19.7774 186.451 20.3418L186.564 21.9576C186.134 21.3719 185.626 20.8357 185.047 20.363C184.469 19.8832 183.784 19.5022 182.987 19.2059C182.19 18.9095 181.23 18.7614 180.101 18.7614C178.895 18.7614 177.759 19.0083 176.693 19.4951C175.628 19.982 174.683 20.6523 173.864 21.4989C173.039 22.3456 172.397 23.3264 171.938 24.4411C171.479 25.563 171.246 26.7201 171.246 28.0042C171.246 29.2884 171.479 30.4949 171.938 31.6238C172.397 32.7598 173.039 33.7546 173.843 34.6295C174.647 35.5044 175.586 36.1817 176.651 36.6686C177.717 37.1554 178.867 37.4024 180.094 37.4024C181.322 37.4024 182.38 37.1978 183.269 36.8026C184.158 36.4075 184.871 35.9419 185.407 35.4197C185.943 34.8976 186.346 34.4249 186.6 34.0157L186.444 35.9418C186.473 36.4287 186.614 36.7885 186.868 37.0214ZM183.495 33.3524C182.648 33.8887 181.696 34.1568 180.645 34.1568L180.652 34.1497C179.466 34.1497 178.422 33.8887 177.512 33.3595C176.602 32.8374 175.889 32.1177 175.374 31.2075C174.859 30.2973 174.605 29.2884 174.605 28.1101C174.605 26.9318 174.859 25.8805 175.374 24.9562C175.882 24.0319 176.588 23.2981 177.47 22.7619C178.352 22.2257 179.389 21.9576 180.567 21.9576C181.618 21.9576 182.571 22.2116 183.432 22.7266C184.292 23.2417 184.984 23.9543 185.513 24.8645C186.042 25.7747 186.303 26.8542 186.303 28.0395C186.303 29.2249 186.049 30.2691 185.534 31.1793C185.019 32.0895 184.342 32.8162 183.495 33.3524Z" fill="#E83977"/>
    <path d="M16.59 4.65102C16.59 5.5612 17.3308 6.30204 18.241 6.30204C26.0657 6.30204 32.4299 12.6662 32.4299 20.4909V27.2855C32.4299 35.1102 26.0657 41.4744 18.241 41.4744C10.4163 41.4744 4.05205 35.1102 4.05205 27.2855V20.4909C4.05205 19.5808 3.3112 18.8399 2.40102 18.8399C1.49084 18.8399 0.75 19.5808 0.75 20.4909V27.2855C0.75 36.9306 8.5959 44.7765 18.241 44.7765C27.8861 44.7765 35.732 36.9306 35.732 27.2855V20.4909C35.732 10.8459 27.8861 3 18.241 3C17.3308 3 16.59 3.74084 16.59 4.65102Z" fill="url(#paint0_linear_1130_4708)"/>
    <path d="M8.12329 20.5191V27.2572C8.12329 32.8383 12.6601 37.375 18.2411 37.375C23.2859 37.375 27.477 33.6708 28.2319 28.8377L28.4224 29.0212C28.9163 29.5151 29.7207 29.5151 30.2146 29.0212C30.7085 28.5273 30.7085 27.7229 30.2146 27.229L28.1473 25.1617L26.3551 23.3625L24.563 25.1547L22.4957 27.229C22.0018 27.7229 22.0018 28.5273 22.4957 29.0212C22.9896 29.5151 23.7939 29.5151 24.2878 29.0212L24.9652 28.3438C24.443 31.5894 21.6349 34.073 18.2482 34.073C14.4875 34.073 11.4324 31.0179 11.4324 27.2572V20.5191C11.4324 16.7584 14.4875 13.7033 18.2482 13.7033C21.6137 13.7033 24.5136 16.2081 24.9934 19.5313C25.1274 20.4344 25.9671 21.0553 26.8631 20.9283C27.7662 20.7943 28.3871 19.9617 28.2601 19.0586C27.5475 14.1267 23.2436 10.4013 18.2482 10.4013C12.6671 10.4013 8.13035 14.9381 8.13035 20.5191" fill="url(#paint1_linear_1130_4708)"/>
    <path d="M20.4848 23.913C20.4848 25.0984 19.5252 26.058 18.3399 26.058C17.1545 26.058 16.1949 25.0984 16.1949 23.913C16.1949 22.7277 17.1545 21.7681 18.3399 21.7681C19.5252 21.7681 20.4848 22.7277 20.4848 23.913Z" fill="#D6056A"/>
    <defs>
        <linearGradient id="paint0_linear_1130_4708" x1="14.964" y1="74.0098" x2="37.4239" y2="68.3987" gradientUnits="userSpaceOnUse">
            <stop stop-color="#F2939E"/>
            <stop offset="1" stop-color="#E83977"/>
        </linearGradient>
        <linearGradient id="paint1_linear_1130_4708" x1="17.25" y1="56.2501" x2="31.6807" y2="52.6648" gradientUnits="userSpaceOnUse">
            <stop stop-color="#F2939E"/>
            <stop offset="1" stop-color="#E83977"/>
        </linearGradient>
    </defs>
</svg>
