<svg width="904" height="867" viewBox="0 0 904 867" fill="none" xmlns="http://www.w3.org/2000/svg">
    <g clip-path="url(#clip0_554_41895)">
        <rect width="904" height="867" fill="#0040BD"/>
        <rect width="904" height="867" fill="white" fill-opacity="0.98"/>
        <path d="M-60.5228 -67.7097C-60.5228 -22.0123 -23.3271 15.1833 22.3704 15.1833C415.228 15.1833 734.756 334.711 734.756 727.568V1068.7C734.756 1461.56 415.228 1781.09 22.3704 1781.09C-370.487 1781.09 -690.015 1461.56 -690.015 1068.7V727.568C-690.015 681.87 -727.211 644.674 -772.909 644.674C-818.606 644.674 -855.802 681.87 -855.802 727.568V1068.7C-855.802 1552.96 -461.882 1946.87 22.3704 1946.87C506.623 1946.87 900.542 1552.96 900.542 1068.7V727.568C900.542 243.316 506.623 -150.603 22.3704 -150.603C-23.3271 -150.603 -60.5228 -113.407 -60.5228 -67.7097Z" fill="#0040BD"/>
        <path d="M-485.61 728.972V1067.27C-485.61 1347.48 -257.831 1575.26 22.3768 1575.26C275.662 1575.26 486.083 1389.28 523.987 1146.63L533.552 1155.84C558.349 1180.63 598.732 1180.63 623.53 1155.84C648.327 1131.04 648.327 1090.65 623.53 1065.86L519.736 962.064L429.758 871.732L339.78 961.71L235.986 1065.86C211.189 1090.65 211.189 1131.04 235.986 1155.84C260.783 1180.63 301.167 1180.63 325.964 1155.84L359.972 1121.83C333.758 1284.78 192.768 1409.47 22.731 1409.47C-166.081 1409.47 -319.469 1256.09 -319.469 1067.27V728.972C-319.469 540.16 -166.081 386.773 22.731 386.773C191.706 386.773 337.3 512.529 361.389 679.378C368.119 724.721 410.274 755.895 455.263 749.518C500.607 742.788 531.78 700.987 525.404 655.644C489.625 408.027 273.536 220.987 22.731 220.987C-257.476 220.987 -485.256 448.765 -485.256 728.972" fill="#0040BD"/>
        <path d="M135.044 899.39C135.044 958.903 86.8665 1007.08 27.3534 1007.08C-32.1596 1007.08 -80.3369 958.903 -80.3369 899.39C-80.3369 839.877 -32.1596 791.7 27.3534 791.7C86.8665 791.7 135.044 839.877 135.044 899.39Z" fill="#0040BD"/>
        <path d="M-60.5228 -67.7097C-60.5228 -22.0123 -23.3271 15.1833 22.3704 15.1833C415.228 15.1833 734.756 334.711 734.756 727.568V1068.7C734.756 1461.56 415.228 1781.09 22.3704 1781.09C-370.487 1781.09 -690.015 1461.56 -690.015 1068.7V727.568C-690.015 681.87 -727.211 644.674 -772.909 644.674C-818.606 644.674 -855.802 681.87 -855.802 727.568V1068.7C-855.802 1552.96 -461.882 1946.87 22.3704 1946.87C506.623 1946.87 900.542 1552.96 900.542 1068.7V727.568C900.542 243.316 506.623 -150.603 22.3704 -150.603C-23.3271 -150.603 -60.5228 -113.407 -60.5228 -67.7097Z" fill="white" fill-opacity="0.93"/>
        <path d="M-485.61 728.972V1067.27C-485.61 1347.48 -257.831 1575.26 22.3768 1575.26C275.662 1575.26 486.083 1389.28 523.987 1146.63L533.552 1155.84C558.349 1180.63 598.732 1180.63 623.53 1155.84C648.327 1131.04 648.327 1090.65 623.53 1065.86L519.736 962.064L429.758 871.732L339.78 961.71L235.986 1065.86C211.189 1090.65 211.189 1131.04 235.986 1155.84C260.783 1180.63 301.167 1180.63 325.964 1155.84L359.972 1121.83C333.758 1284.78 192.768 1409.47 22.731 1409.47C-166.081 1409.47 -319.469 1256.09 -319.469 1067.27V728.972C-319.469 540.16 -166.081 386.773 22.731 386.773C191.706 386.773 337.3 512.529 361.389 679.378C368.119 724.721 410.274 755.895 455.263 749.518C500.607 742.788 531.78 700.987 525.404 655.644C489.625 408.027 273.536 220.987 22.731 220.987C-257.476 220.987 -485.256 448.765 -485.256 728.972" fill="white" fill-opacity="0.93"/>
        <path d="M135.044 899.39C135.044 958.903 86.8665 1007.08 27.3534 1007.08C-32.1596 1007.08 -80.3369 958.903 -80.3369 899.39C-80.3369 839.877 -32.1596 791.7 27.3534 791.7C86.8665 791.7 135.044 839.877 135.044 899.39Z" fill="white" fill-opacity="0.93"/>
    </g>
    <defs>
        <clipPath id="clip0_554_41895">
            <rect width="904" height="867" fill="white"/>
        </clipPath>
    </defs>
</svg>
