<svg id="Calque_1" data-name="Calque 1" xmlns="http://www.w3.org/2000/svg" xmlns:xlink="http://www.w3.org/1999/xlink" viewBox="0 0 923.15 174.94"><defs><style>.cls-1{fill:#28264d;}.cls-2{font-size:105.31px;font-family:Montserrat-Light, Montserrat;font-weight:300;}.cls-2,.cls-9{fill:#fff;}.cls-3,.cls-4,.cls-5,.cls-6,.cls-7{font-family:Montserrat-SemiBold, Montserrat;font-weight:600;}.cls-3{letter-spacing:-0.01em;}.cls-5{letter-spacing:0em;}.cls-6{letter-spacing:0em;}.cls-7{letter-spacing:-0.01em;}.cls-8{fill:url(#Dégradé_sans_nom_3);}</style><linearGradient id="Dégradé_sans_nom_3" x1="806.66" y1="166.21" x2="918.09" y2="166.21" gradientUnits="userSpaceOnUse"><stop offset="0" stop-color="#3564ac"/><stop offset="0.2" stop-color="#327bbf"/><stop offset="0.4" stop-color="#954c97"/><stop offset="0.75" stop-color="#ea537e"/><stop offset="1" stop-color="#ef848f"/></linearGradient></defs><rect class="cls-1" x="-6.81" y="-5.09" width="935.84" height="183.54"/><text class="cls-2" transform="translate(-5.16 89.51)">digital<tspan class="cls-3" x="328.66" y="0">e</tspan><tspan class="cls-4" x="392.58" y="0">xpe</tspan><tspan class="cls-5" x="590.66" y="0">r</tspan><tspan class="cls-4" x="634.36" y="0">ie</tspan><tspan class="cls-6" x="730.3" y="0">n</tspan><tspan class="cls-7" x="802.96" y="0">c</tspan><tspan class="cls-4" x="863.3" y="0">e</tspan></text><rect class="cls-8" x="806.66" y="162.35" width="111.43" height="7.73"/><path class="cls-9" d="M772.26,132.44a6.89,6.89,0,0,1,2.7,2.68,8.69,8.69,0,0,1,0,8,6.91,6.91,0,0,1-2.7,2.69,7.82,7.82,0,0,1-3.89,1,7,7,0,0,1-3-.65,5.9,5.9,0,0,1-2.29-1.89v2.37h-2.59V125.64h2.71v8.24a5.65,5.65,0,0,1,2.26-1.79,7.06,7.06,0,0,1,3-.61A7.82,7.82,0,0,1,772.26,132.44Zm-1.53,11.28a4.81,4.81,0,0,0,1.8-1.86,6,6,0,0,0,0-5.51,4.71,4.71,0,0,0-1.8-1.85,5.21,5.21,0,0,0-2.59-.65,5.16,5.16,0,0,0-2.56.65,4.54,4.54,0,0,0-1.81,1.85,6.16,6.16,0,0,0,0,5.51,4.63,4.63,0,0,0,1.81,1.86,5.06,5.06,0,0,0,2.56.66A5.12,5.12,0,0,0,770.73,143.72Z"/><path class="cls-9" d="M793.35,131.62l-7.25,16.46a7.43,7.43,0,0,1-2.25,3.22,5.12,5.12,0,0,1-3.09.93,6.7,6.7,0,0,1-2.13-.35,4.42,4.42,0,0,1-1.71-1l1.16-2a3.73,3.73,0,0,0,2.68,1.1,2.56,2.56,0,0,0,1.65-.52,4.48,4.48,0,0,0,1.2-1.79l.48-1-6.6-14.93h2.82l5.22,12,5.17-12Z"/><path class="cls-9" d="M811.57,136.55v-4h0v-7.49h6.89v-5.54h-6.89v-8.65l-6.89,4.49V132.6h0v4.12c0,6.16,4,10.22,11,10.22a16.86,16.86,0,0,0,2.8-.23V141a10.27,10.27,0,0,1-1.78.14c-3.84,0-5.14-1.87-5.14-4.58"/><polygon class="cls-9" points="911.05 146.88 911.17 146.81 918.01 142.36 918.01 119.58 911.05 119.58 911.05 146.88"/><path class="cls-9" d="M829.89,130.17c.74-4.06,3.39-6.15,6.84-6.15s5.75,1.92,6.32,6.15Zm6.78-11.46c-7.91,0-13.66,5.82-13.66,14.17,0,8.19,5.13,14.06,13.6,14.06,7.73,0,11.58-4.08,12.73-8.69h-6.56c-.64,1.55-2.26,3.21-5.89,3.21-3.95,0-6.6-2.54-7.11-7.05H849.6V133c0-8.64-4.74-14.29-12.93-14.29"/><path class="cls-9" d="M861.4,126.62c0-1.75,1.47-2.88,4.68-2.88,2.94,0,4.69,1.18,4.86,3.61h6c-.11-5.48-3.89-8.64-10.84-8.64s-11.41,3.11-11.41,8.08c0,11.06,16,6.72,16,12.31,0,1.75-1.52,2.82-5.08,2.82-3.78,0-5.36-1.3-5.53-3.67l-6-.06c.06,5.59,3.84,8.75,11.52,8.75,7.34,0,11.8-3.05,11.75-8,0-11.41-16-6.84-16-12.31"/><path class="cls-9" d="M889.18,126.62c0-1.75,1.46-2.88,4.68-2.88,2.94,0,4.69,1.18,4.86,3.61h6c-.11-5.48-3.9-8.64-10.84-8.64s-11.41,3.11-11.41,8.08c0,11.06,16,6.72,16,12.31,0,1.75-1.52,2.82-5.08,2.82-3.78,0-5.36-1.3-5.53-3.67l-6-.06c.06,5.59,3.84,8.75,11.52,8.75,7.34,0,11.8-3.05,11.74-8,0-11.41-16-6.84-16-12.31"/><rect class="cls-9" x="911.14" y="110.51" width="6.95" height="5.18"/></svg>