 <svg
    viewBox="0 0 12 18"
    fill="black"
    xmlns="http://www.w3.org/2000/svg">
    <path
        d="M9.5 0.000488281H2.5C1.8372 0.00128221 1.20178 0.264929 0.73311 0.733598C0.264441 1.20227 0.000793929 1.83769 0 2.50049V9.50049C0.000793929 10.1633 0.264441 10.7987 0.73311 11.2674C1.20178 11.736 1.8372 11.9997 2.5 12.0005H9.5C10.1628 11.9997 10.7982 11.736 11.2669 11.2674C11.7356 10.7987 11.9992 10.1633 12 9.50049V2.50049C11.9992 1.83769 11.7356 1.20227 11.2669 0.733598C10.7982 0.264929 10.1628 0.00128221 9.5 0.000488281ZM11 9.50049C11 9.89831 10.842 10.2798 10.5607 10.5611C10.2794 10.8425 9.89782 11.0005 9.5 11.0005H2.5C2.10218 11.0005 1.72064 10.8425 1.43934 10.5611C1.15804 10.2798 1 9.89831 1 9.50049V2.50049C1 2.10266 1.15804 1.72113 1.43934 1.43983C1.72064 1.15852 2.10218 1.00049 2.5 1.00049H9.5C9.89782 1.00049 10.2794 1.15852 10.5607 1.43983C10.842 1.72113 11 2.10266 11 2.50049V9.50049Z"
        fill="black"
    />
    <path
        d="M4.8001 9.00049C4.17391 9.00049 3.80012 8.35295 3.80012 7.26835C3.80012 6.45454 4.07212 5.63486 4.60211 5.08467C4.43231 4.88869 4.25691 4.78382 4.12151 4.78382C3.16493 4.78382 2.78434 5.82919 2.78054 5.83964C2.71254 6.03232 2.48695 6.13774 2.27675 6.07541C2.06655 6.01307 1.95156 5.80627 2.01955 5.61359C2.04215 5.54979 2.58994 4.05049 4.12151 4.05049C4.53151 4.05049 4.9159 4.26719 5.22889 4.62909C5.51189 4.49379 5.83588 4.41716 6.20007 4.41716C6.55447 4.41716 6.91926 4.55135 7.21065 4.81077C7.51885 4.57775 7.89884 4.55117 8.19983 4.69325C8.43603 4.11814 8.88942 3.50049 9.60001 3.50049C9.8208 3.50049 10 3.66476 10 3.86716C10 4.06956 9.8208 4.23382 9.60001 4.23382C9.17821 4.23382 8.80002 5.22107 8.80002 5.51716C8.80002 5.71956 8.62083 5.88382 8.40003 5.88382C8.17923 5.88382 8.00004 5.71956 8.00004 5.51716C7.98844 5.45501 7.86104 5.33382 7.80004 5.33382C7.76804 5.33382 7.71084 5.36756 7.64945 5.43741C7.74484 5.67061 7.80004 5.94212 7.80004 6.25049C7.80004 6.57957 7.80004 7.35049 7.20005 7.35049C6.60006 7.35049 6.60007 6.55134 6.60007 6.25049C6.60007 5.93736 6.65606 5.66254 6.75066 5.43154C6.60007 5.24564 6.39947 5.15049 6.20007 5.15049C5.98808 5.15049 5.80048 5.19192 5.63528 5.26452C5.86368 5.74742 6.00008 6.33831 6.00008 6.96787C6.00008 8.37202 5.39729 9.00049 4.8001 9.00049ZM5.0093 5.81177C4.7205 6.24627 4.6001 6.81589 4.6001 7.26835C4.6001 7.9146 4.7507 8.18887 4.8169 8.25891C4.9057 8.20446 5.20009 7.88509 5.20009 6.96787C5.20009 6.52182 5.12449 6.13279 5.0093 5.81177Z"
        fill="black"
    />
</svg>