<svg version="1.1" id="Layer_1" xmlns="http://www.w3.org/2000/svg" xmlns:xlink="http://www.w3.org/1999/xlink" x="0px" y="0px"
	 width="100%" viewBox="0 0 929 140" enable-background="new 0 0 929 140" xml:space="preserve">
<path fill="#FCFCFC" opacity="1.000000" stroke="none"
	d="
M710.000000,141.000000
	C473.388519,141.000000 237.277054,141.000000 1.082792,141.000000
	C1.082792,94.399567 1.082792,47.798935 1.082792,1.099151
	C310.666656,1.099151 620.333313,1.099151 929.974121,1.099151
	C929.974121,47.722980 929.974121,94.361504 929.974121,141.000000
	C856.798828,141.000000 783.649414,141.000000 710.000000,141.000000
M330.701843,93.118774
	C331.426208,92.384399 332.150604,91.650024 332.944916,90.978828
	C332.944916,90.978828 332.929718,90.885818 333.712799,90.985649
	C334.028503,91.061745 334.506622,91.031769 334.635864,91.229637
	C337.036835,94.905617 345.085480,97.111206 349.155487,95.037209
	C349.585388,94.818146 349.520477,93.628036 349.828766,91.975441
	C349.771576,79.354614 349.714417,66.733795 349.869537,53.341789
	C348.502167,49.071213 347.880157,44.322876 342.388489,41.994293
	C341.980011,41.957996 341.571503,41.921703 340.912201,41.233097
	C337.911957,39.903690 334.911713,38.574284 330.993134,37.115215
	C321.864471,36.280792 312.961792,37.144455 304.258575,40.223312
	C300.909698,41.408016 300.297546,43.461464 301.487396,46.344566
	C302.167877,47.993454 303.136902,49.588840 304.275208,50.959900
	C305.021362,51.858608 306.369598,52.942116 307.330627,52.839714
	C309.545380,52.603725 311.651886,51.385090 313.868195,51.123436
	C318.559540,50.569588 323.405548,49.584316 327.979492,50.237354
	C333.209900,50.984116 335.432739,55.672459 334.578308,60.264240
	C327.855804,59.795609 321.110504,58.312698 314.692841,59.199886
	C309.600586,59.903847 303.743835,62.411205 300.295807,66.068642
	C294.117096,72.622566 297.909729,87.938614 305.948456,93.803185
	C306.960724,94.251419 307.973022,94.699654 309.593842,95.239990
	C309.999481,95.291718 310.405151,95.343437 311.076385,96.062225
	C316.040833,98.788681 320.970428,98.555962 324.806366,95.333603
	C325.210449,95.283035 325.614532,95.232475 326.428589,95.605812
	C327.650757,94.785164 328.872894,93.964516 330.106628,93.036423
	C330.106628,93.036423 330.003326,93.004669 330.701843,93.118774
M699.068726,83.881523
	C699.068726,83.881523 699.172729,83.798904 699.214905,83.131912
	C697.567932,80.728561 695.894043,78.694000 693.015137,82.769073
	C691.747681,82.763756 690.480286,82.758430 689.066772,82.134331
	C688.362854,81.773804 687.658875,81.413277 686.542725,80.361969
	C685.978333,79.578972 684.933838,78.802444 684.923157,78.011993
	C684.805969,69.300972 684.849548,60.587784 684.849548,51.648739
	C687.784058,51.648739 690.264099,51.676479 692.743408,51.643738
	C701.461914,51.528595 701.691101,53.730003 701.690796,42.311253
	C701.690735,38.907661 700.354797,37.427990 696.963684,37.511833
	C692.893066,37.612480 688.818054,37.535622 684.355835,37.535622
	C684.355835,31.928061 684.355835,27.153801 684.355835,22.115520
	C679.391235,22.115520 674.835205,22.115520 669.729614,22.115520
	C669.729614,27.283707 669.729614,32.183205 669.729614,37.537125
	C666.725769,37.537125 664.207336,37.250732 661.803833,37.652306
	C660.511963,37.868160 658.503235,39.165253 658.396362,40.146404
	C657.992126,43.857727 658.233765,47.639397 658.233765,51.854309
	C662.577515,51.854309 665.987000,51.854309 669.777283,51.854309
	C669.777283,60.775116 669.593018,69.234474 669.871460,77.678589
	C669.977173,80.884727 670.483826,84.407127 671.951355,87.180122
	C677.431458,97.534874 692.896912,98.458481 702.502625,92.848351
	C702.871216,92.469650 703.239868,92.090942 703.608459,91.712227
	C703.075500,91.471329 702.542603,91.230438 701.877197,90.390900
	C701.814636,89.987274 701.752075,89.583656 701.895386,88.482086
	C700.995911,86.936943 700.096375,85.391808 699.068726,83.881523
M368.183136,36.970222
	C366.370911,36.956047 364.542938,37.089214 362.749695,36.897549
	C358.809326,36.476398 357.566803,38.274059 357.658173,42.035522
	C357.937012,53.513439 356.390106,52.036274 367.582001,52.117790
	C368.071747,52.121357 368.562317,52.013371 369.774841,52.656883
	C369.864746,59.938549 369.909302,67.221138 370.057129,74.501617
	C370.208252,81.946594 372.858185,88.611359 378.719482,93.052376
	C385.491486,98.183395 396.057892,97.245567 403.576416,91.754829
	C402.067413,88.873222 400.531250,85.939728 399.112671,82.301933
	C397.509125,79.393646 396.972900,79.447052 394.083282,82.821899
	C392.338348,82.604317 390.593414,82.386734 389.004669,81.455307
	C388.249115,81.050377 387.493530,80.645454 386.367676,79.765579
	C386.239624,79.177841 386.111572,78.590103 386.474579,77.488319
	C386.323914,69.001717 386.173248,60.515110 386.002441,51.998890
	C386.002441,51.998890 386.029327,52.025993 386.950317,52.183846
	C390.759003,52.170540 394.581696,51.948597 398.372406,52.202854
	C402.130798,52.454945 403.444092,50.537079 403.619263,47.271286
	C403.716705,45.455242 403.728455,43.624882 403.624115,41.809868
	C403.436615,38.550327 402.108978,36.621632 398.358124,36.873085
	C394.239197,37.149208 390.092010,37.003059 385.997559,36.999134
	C385.997559,36.999134 385.962067,37.043125 386.084747,36.111038
	C386.098572,34.617123 386.123169,33.123219 386.124512,31.629292
	C386.135559,19.343603 385.892151,19.187786 373.540894,20.007084
	C370.369781,20.217438 369.051239,21.711380 369.044342,24.666277
	C369.034698,28.815790 369.086853,32.965446 369.000000,36.999847
	C369.000000,36.999847 369.110992,37.116169 368.183136,36.970222
M728.358765,41.594933
	C727.231262,40.115322 726.123352,37.395405 724.972778,37.377216
	C720.675842,37.309315 716.364258,38.121944 712.066711,38.671474
	C712.016968,38.677841 712.081482,39.578007 712.010071,40.987358
	C712.010071,58.898304 712.010071,76.809250 712.010071,94.770622
	C717.672852,94.770622 722.569763,94.770622 727.468628,94.770622
	C727.642700,93.976143 727.834778,93.503845 727.836853,93.030701
	C727.881226,82.877937 727.908447,72.725098 727.930420,62.572254
	C727.952698,52.314945 736.949463,46.817142 746.319275,51.389942
	C747.792542,47.987190 749.569214,44.670261 750.542969,41.132317
	C750.817871,40.133316 748.888306,37.472786 747.721802,37.305740
	C740.938171,36.334286 734.184021,36.276180 728.358765,41.594933
M888.341003,22.243557
	C887.695374,26.963223 887.049683,31.682890 886.392151,36.489403
	C883.000916,38.259724 876.047607,34.054806 876.313599,42.225815
	C876.404114,45.005962 875.763000,49.009102 877.274231,50.263966
	C879.564697,52.165813 883.444397,52.153664 887.076538,53.061588
	C887.076538,54.664055 887.076477,56.461876 887.076477,58.259697
	C887.076538,69.366089 887.020630,80.473198 887.160828,91.577820
	C887.175293,92.724182 888.359375,93.855782 889.623047,95.332352
	C890.090332,95.306267 890.557617,95.280174 891.429810,95.647690
	C892.309204,94.800446 893.188599,93.953201 894.768127,92.900192
	C895.430725,92.273392 895.989929,91.319618 896.772461,91.072136
	C902.447266,89.277466 903.848572,85.379807 903.587402,79.731567
	C903.161438,70.520264 903.472351,61.274883 903.472351,51.645008
	C908.034973,51.645008 911.992249,51.506294 915.935730,51.680584
	C920.721680,51.892109 921.622864,49.139828 921.651001,45.157188
	C921.680176,41.029591 921.493835,37.408257 915.940430,37.527988
	C911.875183,37.615635 907.806458,37.545151 903.333862,37.545151
	C903.333862,31.958773 903.333862,27.195135 903.333862,22.130684
	C898.328918,22.130684 893.738098,22.130684 888.341003,22.243557
M835.789001,95.104851
	C837.104980,95.262444 838.421021,95.420036 839.908569,96.295326
	C844.068237,98.766365 850.952087,98.404037 854.930542,95.384590
	C855.625793,95.315041 856.320984,95.245491 857.457336,95.593376
	C858.682800,94.804214 859.908325,94.015053 861.838562,93.047989
	C864.469299,90.136566 867.540833,87.509346 869.639038,84.254608
	C874.011108,77.472511 869.180298,65.660316 861.483948,63.527378
	C855.857117,61.967983 850.249512,60.317608 844.568237,58.985138
	C841.677734,58.307186 838.902161,57.218220 839.998535,54.021164
	C840.631714,52.174896 843.613647,49.821823 845.409485,49.925762
	C851.471741,50.276665 857.476379,51.624443 864.068909,52.681812
	C865.508301,50.369755 867.677490,46.885292 869.826660,43.433113
	C859.580383,36.051998 848.860168,35.268429 837.397339,38.697628
	C827.834656,41.558392 824.915955,45.168911 825.016174,55.208027
	C825.026123,56.205959 825.097290,57.203892 825.087402,58.201302
	C825.047729,62.210476 827.171143,65.222290 830.531982,66.597305
	C837.211365,69.330017 844.228455,71.231461 850.940552,73.893524
	C853.171021,74.778137 854.895264,76.939354 856.850952,78.516899
	C854.830750,80.008057 852.997864,82.335205 850.756165,82.837585
	C843.283875,84.512077 836.526733,82.333366 830.870789,77.230186
	C828.520386,75.109512 827.362488,75.951584 826.088440,78.216034
	C824.724976,80.639252 823.182129,82.961494 821.199707,86.164764
	C824.113586,88.259834 827.511047,90.702583 831.091370,93.733734
	C832.395020,94.149376 833.698730,94.565018 835.789001,95.104851
M444.691467,76.852715
	C444.755066,77.235542 444.818665,77.618370 444.553833,78.435165
	C445.312469,79.340660 446.071075,80.246147 446.931824,81.873367
	C448.182953,83.274017 449.485138,84.632751 450.676361,86.082649
	C455.656830,92.144600 462.065979,95.253929 469.857483,96.083557
	C483.169373,97.500977 495.037750,90.784088 501.059448,78.640320
	C504.595856,71.508598 504.546051,63.912289 502.276123,57.113049
	C500.416748,51.543613 496.156311,46.110153 491.571655,42.277443
	C485.230255,36.976097 476.945221,35.949188 468.715424,37.066383
	C459.049316,38.378551 451.334198,42.789371 446.135101,51.938690
	C445.808197,52.664852 445.481323,53.391018 444.903625,54.734962
	C444.805695,55.394314 444.707764,56.053665 443.950653,57.032635
	C440.943512,61.964520 441.319733,72.245300 444.691467,76.852715
M606.446289,8.932708
	C590.484741,9.580320 580.517578,23.016691 585.262329,38.023014
	C586.120789,40.738098 589.009766,42.795685 590.902588,45.203014
	C593.411560,48.394035 594.296753,51.317852 590.514465,54.530640
	C587.303406,57.258148 584.519348,60.529942 581.773743,63.754475
	C577.298218,69.010681 577.123474,77.882088 581.000122,83.209679
	C593.914612,100.958008 615.370483,97.950821 628.755310,90.317345
	C631.116516,88.970718 632.081299,84.428665 635.795837,86.432610
	C638.463440,87.871742 640.539551,90.416504 642.846863,92.504120
	C643.196777,92.820694 643.297791,93.404121 643.634766,93.744469
	C646.854187,96.996704 648.424622,96.732002 650.773621,92.690018
	C652.302673,90.059029 653.938049,87.489830 655.192566,85.437973
	C651.127441,81.844284 647.425232,78.679512 643.892639,75.335556
	C643.342102,74.814461 643.247803,73.388802 643.484558,72.531029
	C644.570557,68.596169 645.670105,64.647705 647.094604,60.827110
	C650.400757,51.959637 647.837952,47.916866 638.715820,47.946411
	C638.382751,47.947491 638.044556,47.985474 637.717346,47.941956
	C633.512939,47.382877 631.504517,48.843288 632.018677,53.429817
	C632.373352,56.593525 632.086731,59.829121 632.086731,63.032585
	C631.506409,63.234917 630.926147,63.437244 630.345825,63.639576
	C625.742615,59.664127 621.139465,55.688679 616.256226,51.471378
	C620.093262,47.850658 623.246033,45.243599 625.952209,42.234829
	C629.899170,37.846516 632.326782,32.284309 630.245911,26.735275
	C625.954468,15.290855 619.694214,10.767370 606.446289,8.932708
M226.209991,84.729446
	C227.104126,83.817184 228.195084,83.029274 228.862015,81.973503
	C235.726562,71.106667 235.075119,56.198193 224.701767,45.247261
	C215.588379,35.626465 198.556213,34.355179 187.531647,40.355145
	C177.504761,45.812141 173.024628,54.418507 172.489578,65.471695
	C172.103668,73.443420 174.564056,80.178680 180.113937,86.149269
	C184.429672,90.792137 189.024826,94.243454 195.347900,95.449623
	C207.468369,97.761719 217.843399,95.050079 226.209991,84.729446
M162.478088,55.922588
	C162.391586,49.213608 159.593567,43.847015 153.825241,40.511562
	C144.035065,34.850529 134.395721,35.119110 125.120468,43.366207
	C124.094757,34.769356 118.249214,38.037148 114.143982,37.587978
	C111.371178,37.284599 110.011963,38.841305 110.028473,41.853889
	C110.120575,58.665081 110.077377,75.476990 110.114342,92.288582
	C110.116043,93.064148 110.443405,93.838989 110.670441,94.840721
	C115.289604,94.840721 119.706726,94.840721 124.528206,94.840721
	C124.622673,92.837555 124.775185,91.047485 124.780052,89.257019
	C124.804955,80.102097 124.778824,70.947052 124.796402,61.792095
	C124.808441,55.521320 130.008209,50.131256 136.201950,49.921230
	C142.406754,49.710827 146.374954,53.693306 146.603531,60.837948
	C146.826981,67.821983 146.567749,74.820618 146.744278,81.807175
	C147.145279,97.675720 143.349686,94.895088 161.024948,95.057732
	C161.324280,95.060493 161.625900,94.812943 162.545242,94.413002
	C162.545242,82.070946 162.545242,69.452675 162.478088,55.922588
M785.194885,82.854347
	C783.018921,82.361259 780.658752,82.248848 778.702393,81.302025
	C773.343506,78.708458 773.307922,73.263664 773.061584,68.488319
	C772.633545,60.191143 772.850769,51.854752 772.977478,43.537544
	C773.035950,39.695328 772.477417,37.248940 767.601196,37.420769
	C759.561035,37.704086 758.939819,37.751167 758.886902,43.380058
	C758.788269,53.861282 758.919189,64.344574 758.837158,74.826080
	C758.776184,82.619637 762.838745,88.423058 768.267517,93.132118
	C774.023621,98.125084 785.937866,97.107727 791.962585,91.841408
	C793.155457,90.798698 794.415771,89.833130 795.880066,88.640503
	C796.409973,91.125488 796.811096,93.006783 797.260681,95.115013
	C799.353760,95.115013 801.172974,95.113373 802.992188,95.115303
	C810.441040,95.123192 810.444824,95.123596 810.446411,87.676041
	C810.449280,73.866226 810.344971,60.055378 810.485107,46.246990
	C810.570618,37.824406 809.426880,37.350922 801.457825,37.406506
	C797.004395,37.437565 795.623596,39.099533 795.700073,43.279148
	C795.864380,52.260841 795.753967,61.247623 795.749268,70.232323
	C795.745789,76.964989 792.870911,80.681381 785.194885,82.854347
M555.023254,39.359791
	C545.890808,34.599064 537.463013,35.807293 529.923157,42.915932
	C529.300720,42.036579 528.944580,41.688416 528.771362,41.265377
	C526.368347,35.397598 521.181213,37.438446 517.152222,37.721191
	C513.108704,38.004951 514.425964,41.999035 514.408752,44.570698
	C514.309204,59.398731 514.344177,74.227814 514.379944,89.056427
	C514.384583,90.978813 514.656860,92.900566 514.799255,94.745819
	C519.737427,94.745819 524.147766,94.745819 529.056702,94.745819
	C529.056702,83.413284 529.040955,72.450172 529.063049,61.487137
	C529.075134,55.485012 534.364624,49.933201 539.969727,49.921963
	C545.456421,49.910965 551.343201,54.710182 551.077881,60.963840
	C550.675598,70.443214 550.976807,79.953133 551.015930,89.449928
	C551.023193,91.212410 551.204041,92.974182 551.312073,94.863815
	C556.307312,94.863815 560.740967,94.863815 565.574219,94.863815
	C565.670410,92.836235 565.823730,91.044510 565.828735,89.252373
	C565.853882,80.255257 565.555786,71.246536 565.918579,62.264004
	C566.297485,52.881863 564.593628,44.729656 555.023254,39.359791
M97.031754,72.500252
	C97.031754,69.502991 97.335220,66.467842 96.966751,63.516582
	C96.262703,57.877468 96.400970,51.680763 93.990135,46.802464
	C89.146851,37.002106 73.435745,32.812618 64.061470,40.487503
	C62.771671,41.543484 61.091724,42.122929 59.492329,42.976398
	C57.826347,37.338776 55.662361,36.378765 48.500313,37.522335
	C44.182220,38.211815 45.910141,41.625938 45.887119,43.869549
	C45.731636,59.020817 45.796417,74.174461 45.818130,89.327293
	C45.820858,91.229782 45.988697,93.132042 46.084133,95.119820
	C48.950741,95.119820 51.113194,95.121674 53.275646,95.119476
	C60.129475,95.112511 60.202770,95.045258 60.209606,88.067192
	C60.218414,79.075394 60.420048,70.077225 60.143932,61.093929
	C59.949013,54.752663 64.797440,51.311214 68.779976,50.136051
	C73.499718,48.743359 78.822418,51.223324 80.428635,56.447845
	C81.980652,61.496075 82.028931,67.083351 82.226501,72.452652
	C82.500023,79.885666 82.295181,87.336288 82.295181,95.116699
	C86.414604,95.116699 89.731354,95.009750 93.037849,95.148056
	C96.085388,95.275528 97.136246,93.932007 97.069206,90.983208
	C96.936775,85.158203 97.031158,79.328056 97.031754,72.500252
M259.741608,87.977043
	C260.917786,90.811417 262.093964,93.645790 263.270142,96.480164
	C267.954132,90.690895 271.382324,85.328949 274.243011,79.679642
	C279.862793,68.581688 284.961609,57.217892 290.666931,46.165936
	C295.207062,37.371109 295.447083,37.865257 285.281555,37.355782
	C280.502136,37.116241 278.431976,39.520298 276.721436,42.941757
	C273.572906,49.239548 270.720062,55.685947 267.528503,61.960819
	C266.882935,63.230019 265.218231,64.867973 264.139191,64.787292
	C262.993713,64.701637 261.576508,62.949776 260.998230,61.613785
	C259.510803,58.177505 258.489380,54.543209 257.161530,51.033524
	C252.385315,38.409351 249.706940,36.559135 238.661896,37.459827
	C235.803696,37.692905 234.952652,39.152119 235.839981,41.332108
	C237.827698,46.215565 240.004272,51.046864 242.468414,55.706669
	C248.054794,66.270851 253.861359,76.718590 259.741608,87.977043
M12.774467,73.499802
	C12.774467,80.590965 12.774467,87.682129 12.774467,95.079514
	C15.996168,95.079514 18.462009,95.080399 20.927851,95.079338
	C27.424358,95.076530 27.435944,95.076195 27.437361,88.584152
	C27.442514,64.962898 27.439228,41.341648 27.439125,17.720394
	C27.439116,15.931725 27.439123,14.143055 27.439123,11.173916
	C22.700243,14.162170 18.763533,16.314659 15.257045,19.023960
	C13.921868,20.055592 12.900868,22.358128 12.881699,24.094086
	C12.703542,40.227772 12.775239,56.364216 12.774467,73.499802
M417.717712,95.068848
	C421.651917,95.068848 425.586121,95.068848 430.125275,95.068848
	C430.125275,76.456467 430.169250,58.402020 429.998840,40.349613
	C429.990082,39.422150 428.276215,38.019730 427.122253,37.709881
	C425.415771,37.251656 423.472046,37.774078 421.677704,37.527237
	C417.051422,36.890800 415.609039,38.773312 415.678314,43.372681
	C415.910919,58.817493 415.734985,74.268135 415.810822,89.716095
	C415.819305,91.446358 416.437317,93.173630 417.717712,95.068848
M414.795715,23.024956
	C416.649323,28.894930 419.967987,30.256346 427.138641,28.088411
	C432.068146,26.598049 433.975067,21.872986 432.119385,15.746748
	C430.702118,11.067875 425.112976,9.029851 418.696136,10.852083
	C415.313904,11.812558 413.180847,17.735912 414.795715,23.024956
z"/>
<path fill="#E9507F" opacity="1.000000" stroke="none"
	d="
M606.894104,8.932316
	C619.694214,10.767370 625.954468,15.290855 630.245911,26.735275
	C632.326782,32.284309 629.899170,37.846516 625.952209,42.234829
	C623.246033,45.243599 620.093262,47.850658 616.256226,51.471378
	C621.139465,55.688679 625.742615,59.664127 630.345825,63.639576
	C630.926147,63.437244 631.506409,63.234917 632.086731,63.032585
	C632.086731,59.829121 632.373352,56.593525 632.018677,53.429817
	C631.504517,48.843288 633.512939,47.382877 637.717346,47.941956
	C638.044556,47.985474 638.382751,47.947491 638.715820,47.946411
	C647.837952,47.916866 650.400757,51.959637 647.094604,60.827110
	C645.670105,64.647705 644.570557,68.596169 643.484558,72.531029
	C643.247803,73.388802 643.342102,74.814461 643.892639,75.335556
	C647.425232,78.679512 651.127441,81.844284 655.192566,85.437973
	C653.938049,87.489830 652.302673,90.059029 650.773621,92.690018
	C648.424622,96.732002 646.854187,96.996704 643.634766,93.744469
	C643.297791,93.404121 643.196777,92.820694 642.846863,92.504120
	C640.539551,90.416504 638.463440,87.871742 635.795837,86.432610
	C632.081299,84.428665 631.116516,88.970718 628.755310,90.317345
	C615.370483,97.950821 593.914612,100.958008 581.000122,83.209679
	C577.123474,77.882088 577.298218,69.010681 581.773743,63.754475
	C584.519348,60.529942 587.303406,57.258148 590.514465,54.530640
	C594.296753,51.317852 593.411560,48.394035 590.902588,45.203014
	C589.009766,42.795685 586.120789,40.738098 585.262329,38.023014
	C580.517578,23.016691 590.484741,9.580320 606.894104,8.932316
M595.799255,67.321823
	C591.340088,73.460373 592.263794,77.451363 599.016113,81.220848
	C605.386963,84.777374 618.533020,82.850945 623.011414,77.506386
	C623.497559,76.926163 623.181641,74.868988 622.528503,74.268730
	C618.072144,70.173378 613.549316,66.124290 608.757202,62.438240
	C607.506897,61.476505 604.879822,61.118431 603.495422,61.773342
	C600.907227,62.997738 598.765808,65.166481 595.799255,67.321823
M597.949890,32.972214
	C600.090576,35.599834 602.037720,38.429955 604.468750,40.753853
	C605.420166,41.663273 607.646912,42.028927 608.962402,41.608501
	C612.047546,40.622509 615.665771,30.688921 614.350830,27.724100
	C612.531006,23.620789 608.816528,21.945671 603.643372,23.188967
	C598.978760,24.310041 597.416199,27.638697 597.949890,32.972214
z"/>
<path fill="#0C0C0C" opacity="1.000000" stroke="none"
	d="
M226.126907,85.100655
	C217.843399,95.050079 207.468369,97.761719 195.347900,95.449623
	C189.024826,94.243454 184.429672,90.792137 180.113937,86.149269
	C174.564056,80.178680 172.103668,73.443420 172.489578,65.471695
	C173.024628,54.418507 177.504761,45.812141 187.531647,40.355145
	C198.556213,34.355179 215.588379,35.626465 224.701767,45.247261
	C235.075119,56.198193 235.726562,71.106667 228.862015,81.973503
	C228.195084,83.029274 227.104126,83.817184 226.126907,85.100655
M188.433960,59.268620
	C188.108047,62.543934 187.254517,65.867897 187.551224,69.085800
	C188.610352,80.572563 200.963303,86.559105 210.818146,80.579506
	C216.239197,77.290199 219.460175,69.707260 218.232834,63.123520
	C217.091461,57.000916 210.446228,50.706409 204.501602,49.912300
	C199.496414,49.243690 191.991425,52.540562 188.433960,59.268620
z"/>
<path fill="#0B0B0B" opacity="1.000000" stroke="none"
	d="
M444.882263,78.001198
	C444.818665,77.618370 444.755066,77.235542 444.777618,76.123497
	C444.779114,69.167191 444.694458,62.940105 444.609802,56.713017
	C444.707764,56.053665 444.805695,55.394314 445.388153,54.451103
	C446.189728,53.392235 446.506775,52.617226 446.823822,51.842216
	C451.334198,42.789371 459.049316,38.378551 468.715424,37.066383
	C476.945221,35.949188 485.230255,36.976097 491.571655,42.277443
	C496.156311,46.110153 500.416748,51.543613 502.276123,57.113049
	C504.546051,63.912289 504.595856,71.508598 501.059448,78.640320
	C495.037750,90.784088 483.169373,97.500977 469.857483,96.083557
	C462.065979,95.253929 455.656830,92.144600 450.676361,86.082649
	C449.485138,84.632751 448.182953,83.274017 446.958130,81.153870
	C446.283722,79.623322 445.582977,78.812263 444.882263,78.001198
M459.503906,74.245140
	C462.230927,78.591248 465.621887,82.052895 471.011108,82.818886
	C480.261047,84.133629 489.721344,77.152115 488.478088,64.266533
	C487.831329,57.563316 483.657990,52.786880 476.958160,50.288288
	C472.336151,48.564610 465.682129,51.126320 461.148743,55.929707
	C460.575684,57.011425 460.002625,58.093143 459.159729,59.746120
	C459.093964,60.161636 459.028198,60.577156 458.238251,60.997349
	C457.953918,62.049915 457.669617,63.102478 457.257416,64.827461
	C457.277405,65.509750 457.297394,66.192032 457.089691,67.624680
	C457.849548,69.590858 458.609406,71.557037 459.503906,74.245140
z"/>
<path fill="#101010" opacity="1.000000" stroke="none"
	d="
M162.511658,56.378494
	C162.545242,69.452675 162.545242,82.070946 162.545242,94.413002
	C161.625900,94.812943 161.324280,95.060493 161.024948,95.057732
	C143.349686,94.895088 147.145279,97.675720 146.744278,81.807175
	C146.567749,74.820618 146.826981,67.821983 146.603531,60.837948
	C146.374954,53.693306 142.406754,49.710827 136.201950,49.921230
	C130.008209,50.131256 124.808441,55.521320 124.796402,61.792095
	C124.778824,70.947052 124.804955,80.102097 124.780052,89.257019
	C124.775185,91.047485 124.622673,92.837555 124.528206,94.840721
	C119.706726,94.840721 115.289604,94.840721 110.670441,94.840721
	C110.443405,93.838989 110.116043,93.064148 110.114342,92.288582
	C110.077377,75.476990 110.120575,58.665081 110.028473,41.853889
	C110.011963,38.841305 111.371178,37.284599 114.143982,37.587978
	C118.249214,38.037148 124.094757,34.769356 125.120468,43.366207
	C134.395721,35.119110 144.035065,34.850529 153.825241,40.511562
	C159.593567,43.847015 162.391586,49.213608 162.511658,56.378494
z"/>
<path fill="#090909" opacity="1.000000" stroke="none"
	d="
M305.888947,93.194954
	C297.909729,87.938614 294.117096,72.622566 300.295807,66.068642
	C303.743835,62.411205 309.600586,59.903847 314.692841,59.199886
	C321.110504,58.312698 327.855804,59.795609 334.578308,60.264240
	C335.432739,55.672459 333.209900,50.984116 327.979492,50.237354
	C323.405548,49.584316 318.559540,50.569588 313.868195,51.123436
	C311.651886,51.385090 309.545380,52.603725 307.330627,52.839714
	C306.369598,52.942116 305.021362,51.858608 304.275208,50.959900
	C303.136902,49.588840 302.167877,47.993454 301.487396,46.344566
	C300.297546,43.461464 300.909698,41.408016 304.258575,40.223312
	C312.961792,37.144455 321.864471,36.280792 331.540710,37.520790
	C335.113220,39.246040 338.138123,40.565720 341.163025,41.885403
	C341.571503,41.921703 341.980011,41.957996 342.654602,42.537399
	C345.166229,46.757996 347.411713,50.435482 349.657227,54.112968
	C349.714417,66.733795 349.771576,79.354614 349.317139,92.465790
	C344.179199,92.454117 338.035828,96.159103 336.241486,87.268036
	C334.720581,88.929466 333.825134,89.907646 332.929718,90.885818
	C332.929718,90.885818 332.944916,90.978828 332.563721,90.891724
	C331.456116,91.537964 330.729706,92.271317 330.003326,93.004669
	C330.003326,93.004669 330.106628,93.036423 329.734680,93.019470
	C328.248016,93.728981 327.133331,94.455437 326.018616,95.181908
	C325.614532,95.232475 325.210449,95.283035 324.041687,95.263504
	C319.121613,95.260658 314.966187,95.327911 310.810791,95.395157
	C310.405151,95.343437 309.999481,95.291718 309.183777,94.857941
	C307.812103,94.048920 306.850525,93.621933 305.888947,93.194954
M314.490479,71.170761
	C314.087250,71.833626 313.684021,72.496483 313.137054,73.587364
	C313.137054,73.587364 313.019348,74.023262 312.292694,74.175697
	C310.627075,76.349014 309.961609,78.393532 313.136963,80.403809
	C313.136963,80.403809 313.317230,80.825424 313.182068,81.507034
	C313.843964,81.906639 314.505859,82.306252 315.940216,82.952553
	C321.844421,84.007782 327.635529,84.779770 332.658508,80.143257
	C336.356842,76.729469 336.218353,71.908516 331.631439,70.592880
	C327.359222,69.367516 322.656799,69.642166 317.461731,69.115868
	C316.753082,69.819809 316.044434,70.523750 315.237030,71.221230
	C315.237030,71.221230 315.176392,71.299500 314.490479,71.170761
z"/>
<path fill="#0E0E0E" opacity="1.000000" stroke="none"
	d="
M785.604614,82.846603
	C792.870911,80.681381 795.745789,76.964989 795.749268,70.232323
	C795.753967,61.247623 795.864380,52.260841 795.700073,43.279148
	C795.623596,39.099533 797.004395,37.437565 801.457825,37.406506
	C809.426880,37.350922 810.570618,37.824406 810.485107,46.246990
	C810.344971,60.055378 810.449280,73.866226 810.446411,87.676041
	C810.444824,95.123596 810.441040,95.123192 802.992188,95.115303
	C801.172974,95.113373 799.353760,95.115013 797.260681,95.115013
	C796.811096,93.006783 796.409973,91.125488 795.880066,88.640503
	C794.415771,89.833130 793.155457,90.798698 791.962585,91.841408
	C785.937866,97.107727 774.023621,98.125084 768.267517,93.132118
	C762.838745,88.423058 758.776184,82.619637 758.837158,74.826080
	C758.919189,64.344574 758.788269,53.861282 758.886902,43.380058
	C758.939819,37.751167 759.561035,37.704086 767.601196,37.420769
	C772.477417,37.248940 773.035950,39.695328 772.977478,43.537544
	C772.850769,51.854752 772.633545,60.191143 773.061584,68.488319
	C773.307922,73.263664 773.343506,78.708458 778.702393,81.302025
	C780.658752,82.248848 783.018921,82.361259 785.604614,82.846603
z"/>
<path fill="#0F0F0F" opacity="1.000000" stroke="none"
	d="
M555.391235,39.489964
	C564.593628,44.729656 566.297485,52.881863 565.918579,62.264004
	C565.555786,71.246536 565.853882,80.255257 565.828735,89.252373
	C565.823730,91.044510 565.670410,92.836235 565.574219,94.863815
	C560.740967,94.863815 556.307312,94.863815 551.312073,94.863815
	C551.204041,92.974182 551.023193,91.212410 551.015930,89.449928
	C550.976807,79.953133 550.675598,70.443214 551.077881,60.963840
	C551.343201,54.710182 545.456421,49.910965 539.969727,49.921963
	C534.364624,49.933201 529.075134,55.485012 529.063049,61.487137
	C529.040955,72.450172 529.056702,83.413284 529.056702,94.745819
	C524.147766,94.745819 519.737427,94.745819 514.799255,94.745819
	C514.656860,92.900566 514.384583,90.978813 514.379944,89.056427
	C514.344177,74.227814 514.309204,59.398731 514.408752,44.570698
	C514.425964,41.999035 513.108704,38.004951 517.152222,37.721191
	C521.181213,37.438446 526.368347,35.397598 528.771362,41.265377
	C528.944580,41.688416 529.300720,42.036579 529.923157,42.915932
	C537.463013,35.807293 545.890808,34.599064 555.391235,39.489964
z"/>
<path fill="#0F0F0F" opacity="1.000000" stroke="none"
	d="
M97.031754,73.000137
	C97.031158,79.328056 96.936775,85.158203 97.069206,90.983208
	C97.136246,93.932007 96.085388,95.275528 93.037849,95.148056
	C89.731354,95.009750 86.414604,95.116699 82.295181,95.116699
	C82.295181,87.336288 82.500023,79.885666 82.226501,72.452652
	C82.028931,67.083351 81.980652,61.496075 80.428635,56.447845
	C78.822418,51.223324 73.499718,48.743359 68.779976,50.136051
	C64.797440,51.311214 59.949013,54.752663 60.143932,61.093929
	C60.420048,70.077225 60.218414,79.075394 60.209606,88.067192
	C60.202770,95.045258 60.129475,95.112511 53.275646,95.119476
	C51.113194,95.121674 48.950741,95.119820 46.084133,95.119820
	C45.988697,93.132042 45.820858,91.229782 45.818130,89.327293
	C45.796417,74.174461 45.731636,59.020817 45.887119,43.869549
	C45.910141,41.625938 44.182220,38.211815 48.500313,37.522335
	C55.662361,36.378765 57.826347,37.338776 59.492329,42.976398
	C61.091724,42.122929 62.771671,41.543484 64.061470,40.487503
	C73.435745,32.812618 89.146851,37.002106 93.990135,46.802464
	C96.400970,51.680763 96.262703,57.877468 96.966751,63.516582
	C97.335220,66.467842 97.031754,69.502991 97.031754,73.000137
z"/>
<path fill="#0D0D0D" opacity="1.000000" stroke="none"
	d="
M839.737000,95.577629
	C838.421021,95.420036 837.104980,95.262444 835.361023,94.673416
	C833.591553,93.876434 832.250000,93.510880 830.908508,93.145332
	C827.511047,90.702583 824.113586,88.259834 821.199707,86.164764
	C823.182129,82.961494 824.724976,80.639252 826.088440,78.216034
	C827.362488,75.951584 828.520386,75.109512 830.870789,77.230186
	C836.526733,82.333366 843.283875,84.512077 850.756165,82.837585
	C852.997864,82.335205 854.830750,80.008057 856.850952,78.516922
	C854.895264,76.939354 853.171021,74.778137 850.940552,73.893524
	C844.228455,71.231461 837.211365,69.330017 830.531982,66.597305
	C827.171143,65.222290 825.047729,62.210476 825.087402,58.201302
	C825.097290,57.203892 825.026123,56.205959 825.016174,55.208027
	C824.915955,45.168911 827.834656,41.558392 837.397339,38.697628
	C848.860168,35.268429 859.580383,36.051998 869.826660,43.433113
	C867.677490,46.885292 865.508301,50.369755 864.068909,52.681812
	C857.476379,51.624443 851.471741,50.276665 845.409485,49.925762
	C843.613647,49.821823 840.631714,52.174896 839.998535,54.021164
	C838.902161,57.218220 841.677734,58.307186 844.568237,58.985138
	C850.249512,60.317608 855.857117,61.967983 861.483948,63.527378
	C869.180298,65.660316 874.011108,77.472511 869.639038,84.254608
	C867.540833,87.509346 864.469299,90.136566 861.121216,93.051636
	C859.274597,93.762169 858.145447,94.469048 857.016235,95.175934
	C856.320984,95.245491 855.625793,95.315041 854.128662,95.309250
	C848.796875,95.348488 844.266968,95.463058 839.737000,95.577629
z"/>
<path fill="#0C0C0C" opacity="1.000000" stroke="none"
	d="
M701.689514,89.180023
	C701.752075,89.583656 701.814636,89.987274 701.823120,90.984009
	C701.806091,91.995094 701.843079,92.413071 701.880066,92.831047
	C692.896912,98.458481 677.431458,97.534874 671.951355,87.180122
	C670.483826,84.407127 669.977173,80.884727 669.871460,77.678589
	C669.593018,69.234474 669.777283,60.775116 669.777283,51.854309
	C665.987000,51.854309 662.577515,51.854309 658.233765,51.854309
	C658.233765,47.639397 657.992126,43.857727 658.396362,40.146404
	C658.503235,39.165253 660.511963,37.868160 661.803833,37.652306
	C664.207336,37.250732 666.725769,37.537125 669.729614,37.537125
	C669.729614,32.183205 669.729614,27.283707 669.729614,22.115520
	C674.835205,22.115520 679.391235,22.115520 684.355835,22.115520
	C684.355835,27.153801 684.355835,31.928061 684.355835,37.535622
	C688.818054,37.535622 692.893066,37.612480 696.963684,37.511833
	C700.354797,37.427990 701.690735,38.907661 701.690796,42.311253
	C701.691101,53.730003 701.461914,51.528595 692.743408,51.643738
	C690.264099,51.676479 687.784058,51.648739 684.849548,51.648739
	C684.849548,60.587784 684.805969,69.300972 684.923157,78.011993
	C684.933838,78.802444 685.978333,79.578972 686.697266,81.077110
	C687.638794,82.112534 688.425842,82.432823 689.212830,82.753113
	C690.480286,82.758430 691.747681,82.763756 693.781555,82.862923
	C696.089539,83.237488 697.631165,83.518196 699.172729,83.798904
	C699.172729,83.798904 699.068726,83.881523 699.058960,84.230865
	C699.929382,86.113472 700.809448,87.646744 701.689514,89.180023
z"/>
<path fill="#0D0D0D" opacity="1.000000" stroke="none"
	d="
M385.983521,78.002365
	C386.111572,78.590103 386.239624,79.177841 386.577820,80.322220
	C387.474823,81.308960 388.161652,81.739052 388.848480,82.169144
	C390.593414,82.386734 392.338348,82.604317 394.884827,82.845123
	C396.789276,82.914314 397.892181,82.960281 398.995087,83.006241
	C400.531250,85.939728 402.067413,88.873222 403.576416,91.754829
	C396.057892,97.245567 385.491486,98.183395 378.719482,93.052376
	C372.858185,88.611359 370.208252,81.946594 370.057129,74.501617
	C369.909302,67.221138 369.864746,59.938549 369.321594,51.920692
	C367.165466,50.881119 365.436340,50.219116 363.764496,50.341225
	C358.639160,50.715576 359.888458,47.093880 359.774414,44.327187
	C359.657166,41.482426 359.184753,38.531178 363.791168,38.806496
	C365.524567,38.910099 367.335449,37.717724 369.110992,37.116165
	C369.110992,37.116169 369.000000,36.999847 369.492188,37.066090
	C370.374390,35.632221 371.075500,34.138176 371.104858,32.631031
	C371.322083,21.484755 371.280182,21.481470 382.646393,22.287691
	C382.946320,22.308966 383.232086,22.530491 384.100830,22.911243
	C384.100830,26.432547 383.968445,30.218134 384.186096,33.983501
	C384.246826,35.034084 385.341644,36.024902 385.962036,37.043129
	C385.962067,37.043125 385.997559,36.999134 386.025146,37.429195
	C390.962677,38.423161 395.872650,38.987064 401.147400,39.592861
	C401.147400,41.365612 401.179657,42.996452 401.138641,44.625450
	C401.094391,46.383656 400.981659,48.140141 400.880951,50.276421
	C396.936371,50.276421 393.481903,50.113567 390.056152,50.356373
	C388.681335,50.453815 387.369720,51.442795 386.029327,52.025990
	C386.029327,52.025993 386.002441,51.998890 385.581055,51.954300
	C384.844818,52.236809 384.258179,52.561378 384.255066,52.891388
	C384.184296,60.486923 384.123749,68.083855 384.238098,75.677864
	C384.249908,76.461281 385.375000,77.227936 385.983521,78.002365
z"/>
<path fill="#0F0F0F" opacity="1.000000" stroke="none"
	d="
M259.660004,87.595360
	C253.861359,76.718590 248.054794,66.270851 242.468414,55.706669
	C240.004272,51.046864 237.827698,46.215565 235.839981,41.332108
	C234.952652,39.152119 235.803696,37.692905 238.661896,37.459827
	C249.706940,36.559135 252.385315,38.409351 257.161530,51.033524
	C258.489380,54.543209 259.510803,58.177505 260.998230,61.613785
	C261.576508,62.949776 262.993713,64.701637 264.139191,64.787292
	C265.218231,64.867973 266.882935,63.230019 267.528503,61.960819
	C270.720062,55.685947 273.572906,49.239548 276.721436,42.941757
	C278.431976,39.520298 280.502136,37.116241 285.281555,37.355782
	C295.447083,37.865257 295.207062,37.371109 290.666931,46.165936
	C284.961609,57.217892 279.862793,68.581688 274.243011,79.679642
	C271.382324,85.328949 267.954132,90.690895 263.270142,96.480164
	C262.093964,93.645790 260.917786,90.811417 259.660004,87.595360
z"/>
<path fill="#0B0B0B" opacity="1.000000" stroke="none"
	d="
M891.024902,95.254082
	C890.557617,95.280174 890.090332,95.306267 889.361572,94.697220
	C889.093506,82.740768 889.084961,71.419441 889.081116,60.098110
	C889.077942,50.969006 889.079956,50.973392 879.946899,49.987221
	C879.683228,49.958744 879.454773,49.604103 879.255615,49.439384
	C879.255615,46.001511 879.255615,42.629089 879.255615,39.164764
	C880.859009,39.079365 882.028259,38.859901 883.159607,38.984554
	C887.612244,39.475174 889.611511,37.852879 889.154297,33.109367
	C888.804810,29.483267 889.124939,25.792620 889.147217,22.130684
	C893.738098,22.130684 898.328918,22.130684 903.333862,22.130684
	C903.333862,27.195135 903.333862,31.958773 903.333862,37.545151
	C907.806458,37.545151 911.875183,37.615635 915.940430,37.527988
	C921.493835,37.408257 921.680176,41.029591 921.651001,45.157188
	C921.622864,49.139828 920.721680,51.892109 915.935730,51.680584
	C911.992249,51.506294 908.034973,51.645008 903.472351,51.645008
	C903.472351,61.274883 903.161438,70.520264 903.587402,79.731567
	C903.848572,85.379807 902.447266,89.277466 896.772461,91.072136
	C895.989929,91.319618 895.430725,92.273392 894.060059,92.954483
	C892.576355,93.757210 891.800598,94.505646 891.024902,95.254082
z"/>
<path fill="#0C0C0C" opacity="1.000000" stroke="none"
	d="
M729.008606,42.014397
	C734.184021,36.276180 740.938171,36.334286 747.721802,37.305740
	C748.888306,37.472786 750.817871,40.133316 750.542969,41.132317
	C749.569214,44.670261 747.792542,47.987190 746.319275,51.389942
	C736.949463,46.817142 727.952698,52.314945 727.930420,62.572254
	C727.908447,72.725098 727.881226,82.877937 727.836853,93.030701
	C727.834778,93.503845 727.642700,93.976143 727.468628,94.770622
	C722.569763,94.770622 717.672852,94.770622 712.010071,94.770622
	C712.010071,76.809250 712.010071,58.898304 712.447876,40.428097
	C717.855835,39.700142 723.505859,36.317856 727.124390,42.839867
	C727.155518,42.895935 728.354736,42.303856 729.008606,42.014397
z"/>
<path fill="#050505" opacity="1.000000" stroke="none"
	d="
M12.774466,72.999832
	C12.775239,56.364216 12.703542,40.227772 12.881699,24.094086
	C12.900868,22.358128 13.921868,20.055592 15.257045,19.023960
	C18.763533,16.314659 22.700243,14.162170 27.439123,11.173916
	C27.439123,14.143055 27.439116,15.931725 27.439125,17.720394
	C27.439228,41.341648 27.442514,64.962898 27.437361,88.584152
	C27.435944,95.076195 27.424358,95.076530 20.927851,95.079338
	C18.462009,95.080399 15.996168,95.079514 12.774467,95.079514
	C12.774467,87.682129 12.774467,80.590965 12.774466,72.999832
z"/>
<path fill="#090909" opacity="1.000000" stroke="none"
	d="
M417.245178,94.985565
	C416.437317,93.173630 415.819305,91.446358 415.810822,89.716095
	C415.734985,74.268135 415.910919,58.817493 415.678314,43.372681
	C415.609039,38.773312 417.051422,36.890800 421.677704,37.527237
	C423.472046,37.774078 425.415771,37.251656 427.122253,37.709881
	C428.276215,38.019730 429.990082,39.422150 429.998840,40.349613
	C430.169250,58.402020 430.125275,76.456467 430.125275,95.068848
	C425.586121,95.068848 421.651917,95.068848 417.245178,94.985565
z"/>
<path fill="#111111" opacity="1.000000" stroke="none"
	d="
M414.683716,22.665087
	C413.180847,17.735912 415.313904,11.812558 418.696136,10.852083
	C425.112976,9.029851 430.702118,11.067875 432.119385,15.746748
	C433.975067,21.872986 432.068146,26.598049 427.138641,28.088411
	C419.967987,30.256346 416.649323,28.894930 414.683716,22.665087
z"/>
<path fill="#9B9B9B" opacity="1.000000" stroke="none"
	d="
M888.744141,22.187120
	C889.124939,25.792620 888.804810,29.483267 889.154297,33.109367
	C889.611511,37.852879 887.612244,39.475174 883.159607,38.984554
	C882.028259,38.859901 880.859009,39.079365 879.255615,39.164764
	C879.255615,42.629089 879.255615,46.001511 879.255615,49.439384
	C879.454773,49.604103 879.683228,49.958744 879.946899,49.987221
	C889.079956,50.973392 889.077942,50.969006 889.081116,60.098110
	C889.084961,71.419441 889.093506,82.740768 889.050415,94.528160
	C888.359375,93.855782 887.175293,92.724182 887.160828,91.577820
	C887.020630,80.473198 887.076538,69.366089 887.076477,58.259697
	C887.076477,56.461876 887.076538,54.664055 887.076538,53.061588
	C883.444397,52.153664 879.564697,52.165813 877.274231,50.263966
	C875.763000,49.009102 876.404114,45.005962 876.313599,42.225815
	C876.047607,34.054806 883.000916,38.259724 886.392151,36.489403
	C887.049683,31.682890 887.695374,26.963223 888.744141,22.187120
z"/>
<path fill="#A0A0A0" opacity="1.000000" stroke="none"
	d="
M386.489807,52.104916
	C387.369720,51.442795 388.681335,50.453815 390.056152,50.356373
	C393.481903,50.113567 396.936371,50.276421 400.880951,50.276421
	C400.981659,48.140141 401.094391,46.383656 401.138641,44.625450
	C401.179657,42.996452 401.147400,41.365612 401.147400,39.592861
	C395.872650,38.987064 390.962677,38.423161 386.004913,37.450081
	C390.092010,37.003059 394.239197,37.149208 398.358124,36.873085
	C402.108978,36.621632 403.436615,38.550327 403.624115,41.809868
	C403.728455,43.624882 403.716705,45.455242 403.619263,47.271286
	C403.444092,50.537079 402.130798,52.454945 398.372406,52.202854
	C394.581696,51.948597 390.759003,52.170540 386.489807,52.104916
z"/>
<path fill="#A0A0A0" opacity="1.000000" stroke="none"
	d="
M386.023376,36.577087
	C385.341644,36.024902 384.246826,35.034084 384.186096,33.983501
	C383.968445,30.218134 384.100830,26.432547 384.100830,22.911243
	C383.232086,22.530491 382.946320,22.308966 382.646393,22.287691
	C371.280182,21.481470 371.322083,21.484755 371.104858,32.631031
	C371.075500,34.138176 370.374390,35.632221 369.548462,37.123688
	C369.086853,32.965446 369.034698,28.815790 369.044342,24.666277
	C369.051239,21.711380 370.369781,20.217438 373.540894,20.007084
	C385.892151,19.187786 386.135559,19.343603 386.124512,31.629292
	C386.123169,33.123219 386.098572,34.617123 386.023376,36.577087
z"/>
<path fill="#A0A0A0" opacity="1.000000" stroke="none"
	d="
M368.647064,37.043194
	C367.335449,37.717724 365.524567,38.910099 363.791168,38.806496
	C359.184753,38.531178 359.657166,41.482426 359.774414,44.327187
	C359.888458,47.093880 358.639160,50.715576 363.764496,50.341225
	C365.436340,50.219116 367.165466,50.881119 368.960449,51.570927
	C368.562317,52.013371 368.071747,52.121357 367.582001,52.117790
	C356.390106,52.036274 357.937012,53.513439 357.658173,42.035522
	C357.566803,38.274059 358.809326,36.476398 362.749695,36.897549
	C364.542938,37.089214 366.370911,36.956047 368.647064,37.043194
z"/>
<path fill="#4D4D4D" opacity="1.000000" stroke="none"
	d="
M333.321259,90.935730
	C333.825134,89.907646 334.720581,88.929466 336.241486,87.268036
	C338.035828,96.159103 344.179199,92.454117 349.245300,92.922287
	C349.520477,93.628036 349.585388,94.818146 349.155487,95.037209
	C345.085480,97.111206 337.036835,94.905617 334.635864,91.229637
	C334.506622,91.031769 334.028503,91.061745 333.321259,90.935730
z"/>
<path fill="#A0A0A0" opacity="1.000000" stroke="none"
	d="
M386.229065,77.745346
	C385.375000,77.227936 384.249908,76.461281 384.238098,75.677864
	C384.123749,68.083855 384.184296,60.486923 384.255066,52.891388
	C384.258179,52.561378 384.844818,52.236809 385.591125,51.969109
	C386.173248,60.515110 386.323914,69.001717 386.229065,77.745346
z"/>
<path fill="#6F6F6F" opacity="1.000000" stroke="none"
	d="
M728.683716,41.804665
	C728.354736,42.303856 727.155518,42.895935 727.124390,42.839867
	C723.505859,36.317856 717.855835,39.700142 712.489136,39.964890
	C712.081482,39.578007 712.016968,38.677841 712.066711,38.671474
	C716.364258,38.121944 720.675842,37.309315 724.972778,37.377216
	C726.123352,37.395405 727.231262,40.115322 728.683716,41.804665
z"/>
<path fill="#787878" opacity="1.000000" stroke="none"
	d="
M444.280212,56.872826
	C444.694458,62.940105 444.779114,69.167191 444.759155,75.830849
	C441.319733,72.245300 440.943512,61.964520 444.280212,56.872826
z"/>
<path fill="#989898" opacity="1.000000" stroke="none"
	d="
M839.822754,95.936478
	C844.266968,95.463058 848.796875,95.348488 853.787720,95.387238
	C850.952087,98.404037 844.068237,98.766365 839.822754,95.936478
z"/>
<path fill="#9C9C9C" opacity="1.000000" stroke="none"
	d="
M310.943604,95.728691
	C314.966187,95.327911 319.121613,95.260658 323.741028,95.317924
	C320.970428,98.555962 316.040833,98.788681 310.943604,95.728691
z"/>
<path fill="#4D4D4D" opacity="1.000000" stroke="none"
	d="
M349.763367,53.727379
	C347.411713,50.435482 345.166229,46.757996 342.887421,42.739033
	C347.880157,44.322876 348.502167,49.071213 349.763367,53.727379
z"/>
<path fill="#4D4D4D" opacity="1.000000" stroke="none"
	d="
M341.037598,41.559250
	C338.138123,40.565720 335.113220,39.246040 331.999878,37.585617
	C334.911713,38.574284 337.911957,39.903690 341.037598,41.559250
z"/>
<path fill="#757575" opacity="1.000000" stroke="none"
	d="
M699.193848,83.465408
	C697.631165,83.518196 696.089539,83.237488 694.161987,82.845505
	C695.894043,78.694000 697.567932,80.728561 699.193848,83.465408
z"/>
<path fill="#757575" opacity="1.000000" stroke="none"
	d="
M701.792480,88.831055
	C700.809448,87.646744 699.929382,86.113472 699.123047,84.213440
	C700.096375,85.391808 700.995911,86.936943 701.792480,88.831055
z"/>
<path fill="#989898" opacity="1.000000" stroke="none"
	d="
M857.236816,95.384651
	C858.145447,94.469048 859.274597,93.762169 860.768799,93.140587
	C859.908325,94.015053 858.682800,94.804214 857.236816,95.384651
z"/>
<path fill="#A0A0A0" opacity="1.000000" stroke="none"
	d="
M399.053894,82.654083
	C397.892181,82.960281 396.789276,82.914314 395.272644,82.796982
	C396.972900,79.447052 397.509125,79.393646 399.053894,82.654083
z"/>
<path fill="#989898" opacity="1.000000" stroke="none"
	d="
M830.999939,93.439529
	C832.250000,93.510880 833.591553,93.876434 834.967712,94.611328
	C833.698730,94.565018 832.395020,94.149376 830.999939,93.439529
z"/>
<path fill="#9C9C9C" opacity="1.000000" stroke="none"
	d="
M326.223602,95.393860
	C327.133331,94.455437 328.248016,93.728981 329.728882,93.073196
	C328.872894,93.964516 327.650757,94.785164 326.223602,95.393860
z"/>
<path fill="#9B9B9B" opacity="1.000000" stroke="none"
	d="
M891.227356,95.450882
	C891.800598,94.505646 892.576355,93.757210 893.709961,93.057373
	C893.188599,93.953201 892.309204,94.800446 891.227356,95.450882
z"/>
<path fill="#9C9C9C" opacity="1.000000" stroke="none"
	d="
M305.918701,93.499069
	C306.850525,93.621933 307.812103,94.048920 308.879486,94.811890
	C307.973022,94.699654 306.960724,94.251419 305.918701,93.499069
z"/>
<path fill="#787878" opacity="1.000000" stroke="none"
	d="
M444.718048,78.218185
	C445.582977,78.812263 446.283722,79.623322 446.907074,80.793015
	C446.071075,80.246147 445.312469,79.340660 444.718048,78.218185
z"/>
<path fill="#4D4D4D" opacity="1.000000" stroke="none"
	d="
M330.352600,93.061722
	C330.729706,92.271317 331.456116,91.537964 332.528748,90.860138
	C332.150604,91.650024 331.426208,92.384399 330.352600,93.061722
z"/>
<path fill="#757575" opacity="1.000000" stroke="none"
	d="
M702.191345,92.839699
	C701.843079,92.413071 701.806091,91.995094 701.889404,91.283333
	C702.542603,91.230438 703.075500,91.471329 703.608459,91.712234
	C703.239868,92.090942 702.871216,92.469650 702.191345,92.839699
z"/>
<path fill="#787878" opacity="1.000000" stroke="none"
	d="
M446.479462,51.890450
	C446.506775,52.617226 446.189728,53.392235 445.513550,54.142212
	C445.481323,53.391018 445.808197,52.664852 446.479462,51.890450
z"/>
<path fill="#757575" opacity="1.000000" stroke="none"
	d="
M689.139771,82.443718
	C688.425842,82.432823 687.638794,82.112534 686.903381,81.422501
	C687.658875,81.413277 688.362854,81.773804 689.139771,82.443718
z"/>
<path fill="#A0A0A0" opacity="1.000000" stroke="none"
	d="
M388.926575,81.812225
	C388.161652,81.739052 387.474823,81.308960 386.763000,80.559692
	C387.493530,80.645454 388.249115,81.050377 388.926575,81.812225
z"/>
<path fill="#FCF3F6" opacity="1.000000" stroke="none"
	d="
M596.118896,67.132065
	C598.765808,65.166481 600.907227,62.997738 603.495422,61.773342
	C604.879822,61.118431 607.506897,61.476505 608.757202,62.438240
	C613.549316,66.124290 618.072144,70.173378 622.528503,74.268730
	C623.181641,74.868988 623.497559,76.926163 623.011414,77.506386
	C618.533020,82.850945 605.386963,84.777374 599.016113,81.220848
	C592.263794,77.451363 591.340088,73.460373 596.118896,67.132065
z"/>
<path fill="#FCF2F6" opacity="1.000000" stroke="none"
	d="
M597.907471,32.566261
	C597.416199,27.638697 598.978760,24.310041 603.643372,23.188967
	C608.816528,21.945671 612.531006,23.620789 614.350830,27.724100
	C615.665771,30.688921 612.047546,40.622509 608.962402,41.608501
	C607.646912,42.028927 605.420166,41.663273 604.468750,40.753853
	C602.037720,38.429955 600.090576,35.599834 597.907471,32.566261
z"/>
<path fill="#F4F4F4" opacity="1.000000" stroke="none"
	d="
M188.774078,59.070908
	C191.991425,52.540562 199.496414,49.243690 204.501602,49.912300
	C210.446228,50.706409 217.091461,57.000916 218.232834,63.123520
	C219.460175,69.707260 216.239197,77.290199 210.818146,80.579506
	C200.963303,86.559105 188.610352,80.572563 187.551224,69.085800
	C187.254517,65.867897 188.108047,62.543934 188.774078,59.070908
z"/>
<path fill="#F7F7F7" opacity="1.000000" stroke="none"
	d="
M458.962433,60.992668
	C459.028198,60.577156 459.093964,60.161636 459.615723,59.380188
	C460.650146,57.932419 461.228577,56.850582 461.807007,55.768753
	C465.682129,51.126320 472.336151,48.564610 476.958160,50.288288
	C483.657990,52.786880 487.831329,57.563316 488.478088,64.266533
	C489.721344,77.152115 480.261047,84.133629 471.011108,82.818886
	C465.621887,82.052895 462.230927,78.591248 459.621948,73.515869
	C458.932434,70.815842 458.124878,68.845078 457.317383,66.874321
	C457.297394,66.192032 457.277405,65.509750 457.629761,64.480835
	C458.322174,63.087032 458.642303,62.039852 458.962433,60.992668
z"/>
<path fill="#AAAAAA" opacity="1.000000" stroke="none"
	d="
M457.203522,67.249496
	C458.124878,68.845078 458.932434,70.815842 459.554596,73.154907
	C458.609406,71.557037 457.849548,69.590858 457.203522,67.249496
z"/>
<path fill="#AAAAAA" opacity="1.000000" stroke="none"
	d="
M458.600342,60.995010
	C458.642303,62.039852 458.322174,63.087032 457.693695,64.144630
	C457.669617,63.102478 457.953918,62.049915 458.600342,60.995010
z"/>
<path fill="#AAAAAA" opacity="1.000000" stroke="none"
	d="
M461.477875,55.849228
	C461.228577,56.850582 460.650146,57.932419 459.750671,59.094559
	C460.002625,58.093143 460.575684,57.011425 461.477875,55.849228
z"/>
<path fill="#F2F2F2" opacity="1.000000" stroke="none"
	d="
M313.317230,80.825424
	C313.317230,80.825424 313.136963,80.403809 313.194702,79.765701
	C313.174774,77.426147 313.097046,75.724701 313.019348,74.023262
	C313.019348,74.023262 313.137054,73.587364 313.497437,73.333847
	C314.297333,72.486725 314.736847,71.893112 315.176392,71.299500
	C315.176392,71.299500 315.237030,71.221230 315.617035,71.279816
	C316.712616,70.644440 317.428192,69.950462 318.143738,69.256485
	C322.656799,69.642166 327.359222,69.367516 331.631439,70.592880
	C336.218353,71.908516 336.356842,76.729469 332.658508,80.143257
	C327.635529,84.779770 321.844421,84.007782 315.546570,82.527359
	C314.541046,81.676590 313.929138,81.251007 313.317230,80.825424
z"/>
<path fill="#929292" opacity="1.000000" stroke="none"
	d="
M312.656006,74.099480
	C313.097046,75.724701 313.174774,77.426147 313.144806,79.541931
	C309.961609,78.393532 310.627075,76.349014 312.656006,74.099480
z"/>
<path fill="#929292" opacity="1.000000" stroke="none"
	d="
M317.802734,69.186180
	C317.428192,69.950462 316.712616,70.644440 315.666412,71.283051
	C316.044434,70.523750 316.753082,69.819809 317.802734,69.186180
z"/>
<path fill="#929292" opacity="1.000000" stroke="none"
	d="
M313.249634,81.166229
	C313.929138,81.251007 314.541046,81.676590 315.160339,82.404022
	C314.505859,82.306252 313.843964,81.906639 313.249634,81.166229
z"/>
<path fill="red" opacity="1.000000" stroke="none"
	d="
M314.833435,71.235130
	C314.736847,71.893112 314.297333,72.486725 313.569305,73.119843
	C313.684021,72.496483 314.087250,71.833626 314.833435,71.235130
z"/>
</svg>
