<svg xmlns="http://www.w3.org/2000/svg" width="66.523" height="62.089" viewBox="0 0 66.523 62.089">
  <g id="Groupe_162" data-name="Groupe 162" transform="translate(-168.052 -239)">
    <path id="envelope-letter" d="M54.344,19.341V6.146a2.775,2.775,0,0,0-2.771-2.771H17.2A2.775,2.775,0,0,0,14.43,6.146V19.341l-13.3,9.5v36.62H67.648V28.843ZM61.783,30.1l-7.439,4.863V24.789ZM18.865,7.81H49.909V37.869l-7.922,5.18L35.532,39.7,28.5,43.1,18.865,37.25ZM35.459,44.659,63.214,59.05v1.979H5.56V59.1ZM5.56,34.36,23.735,45.4,5.56,54.169ZM46.507,45.392,63.214,34.467V54.055ZM14.43,24.791v9.767L7.038,30.069Z" transform="translate(166.927 235.625)" fill="#1a214d"/>
    <text id="AR" transform="translate(201.221 262)" fill="#1a214d" font-size="22" font-family="Rubik" font-weight="500"><tspan x="-15.026" y="0">AR</tspan></text>
  </g>
</svg>
