<svg xmlns="http://www.w3.org/2000/svg" width="62.089" height="53.219" viewBox="0 0 62.089 53.219">
  <g id="file-text" transform="translate(-2.25 57.719) rotate(-90)">
    <path id="Tracé_195" data-name="Tracé 195" d="M13.37,2.25H48.849a8.87,8.87,0,0,1,8.87,8.87V55.469a8.87,8.87,0,0,1-8.87,8.87H13.37a8.87,8.87,0,0,1-8.87-8.87V11.12a8.87,8.87,0,0,1,8.87-8.87Zm0,4.435A4.435,4.435,0,0,0,8.935,11.12V55.469A4.435,4.435,0,0,0,13.37,59.9H48.849a4.435,4.435,0,0,0,4.435-4.435V11.12a4.435,4.435,0,0,0-4.435-4.435Z" transform="translate(0 0)" fill="#1a214d" fill-rule="evenodd"/>
    <path id="Tracé_196" data-name="Tracé 196" d="M10.125,37.827a2.217,2.217,0,0,1,2.217-2.217h13.3a2.217,2.217,0,1,1,0,4.435h-13.3A2.217,2.217,0,0,1,10.125,37.827Zm0-8.87a2.217,2.217,0,0,1,2.217-2.217H38.952a2.217,2.217,0,1,1,0,4.435H12.342A2.217,2.217,0,0,1,10.125,28.957Zm0-8.87a2.217,2.217,0,0,1,2.217-2.217H38.952a2.217,2.217,0,1,1,0,4.435H12.342A2.217,2.217,0,0,1,10.125,20.087Zm0-8.87A2.217,2.217,0,0,1,12.342,9H38.952a2.217,2.217,0,1,1,0,4.435H12.342A2.217,2.217,0,0,1,10.125,11.217Z" transform="translate(55.631 5.429) rotate(90)" fill="#1a214d" fill-rule="evenodd"/>
  </g>
</svg>
