<svg xmlns="http://www.w3.org/2000/svg" width="9.72" height="11.621" viewBox="0 0 9.72 11.621">
  <g id="collapse-categories" transform="translate(-5.153)">
    <path id="Tracé_80" data-name="Tracé 80" d="M15.75,28.125h5.811v.83H15.75Z" transform="translate(-6.688 -18.579)" fill="#fff"/>
    <path id="Tracé_81" data-name="Tracé 81" d="M6.228,26.41,5.157,27.481l.585.59L7.4,26.41l-1.66-1.66-.589.585Z" transform="translate(0 -16.449)" fill="#fff"/>
    <path id="Tracé_82" data-name="Tracé 82" d="M15.75,16.875h5.811v.83H15.75Z" transform="translate(-6.688 -11.48)" fill="#fff"/>
    <path id="Tracé_83" data-name="Tracé 83" d="M6.228,15.16,5.157,16.231l.585.59L7.4,15.16,5.742,13.5l-.589.585Z" transform="translate(0 -9.35)" fill="#fff"/>
    <path id="Tracé_84" data-name="Tracé 84" d="M15.75,5.625h5.811v.83H15.75Z" transform="translate(-6.688 -4.38)" fill="#fff"/>
    <path id="Tracé_85" data-name="Tracé 85" d="M6.228,3.91,5.157,4.981l.585.59L7.4,3.91,5.742,2.25l-.589.585Z" transform="translate(0 -2.25)" fill="#fff"/>
  </g>
</svg>
