<svg xmlns="http://www.w3.org/2000/svg" width="19.906" height="23.799" viewBox="0 0 19.906 23.799">
  <g id="collapse-categories" transform="translate(-5.153)">
    <path id="Tracé_80" data-name="Tracé 80" d="M15.75,28.125h11.9v1.7H15.75Z" transform="translate(-2.591 -8.576)" fill="#2e2e2e"/>
    <path id="Tracé_81" data-name="Tracé 81" d="M7.354,28.15,5.161,30.342l1.2,1.207,3.4-3.4-3.4-3.4-1.207,1.2Z" transform="translate(0 -7.751)" fill="#2e2e2e"/>
    <path id="Tracé_82" data-name="Tracé 82" d="M15.75,16.875h11.9v1.7H15.75Z" transform="translate(-2.591 -5.826)" fill="#2e2e2e"/>
    <path id="Tracé_83" data-name="Tracé 83" d="M7.354,16.9,5.161,19.092,6.36,20.3l3.4-3.4-3.4-3.4L5.153,14.7Z" transform="translate(0 -5)" fill="#2e2e2e"/>
    <path id="Tracé_84" data-name="Tracé 84" d="M15.75,5.625h11.9v1.7H15.75Z" transform="translate(-2.591 -3.075)" fill="#2e2e2e"/>
    <path id="Tracé_85" data-name="Tracé 85" d="M7.354,5.65,5.161,7.842,6.36,9.05l3.4-3.4-3.4-3.4-1.207,1.2Z" transform="translate(0 -2.25)" fill="#2e2e2e"/>
  </g>
</svg>
