<svg id="icon" xmlns="http://www.w3.org/2000/svg" width="37.165" height="51.136" viewBox="0 0 37.165 51.136">
  <g id="file-earmark-ruled">
    <path id="Tracé_32" data-name="Tracé 32" d="M12.944,21.1H6.75V18H37.721v3.1H16.041v6.194h21.68v3.1H16.041v6.194h-3.1V30.388H6.75v-3.1h6.194Z" transform="translate(-3.653 3.68)" fill="#3b82f6" fill-rule="evenodd"/>
    <path id="Tracé_33" data-name="Tracé 33" d="M10.694,2.25H26.18v3.1H10.694a3.1,3.1,0,0,0-3.1,3.1V39.415a3.1,3.1,0,0,0,3.1,3.1H35.471a3.1,3.1,0,0,0,3.1-3.1V17.735h3.1v21.68a6.194,6.194,0,0,1-6.194,6.194H10.694A6.194,6.194,0,0,1,4.5,39.415V8.444A6.194,6.194,0,0,1,10.694,2.25Z" transform="translate(-4.5 -2.25)" fill="#3b82f6"/>
    <path id="Tracé_34" data-name="Tracé 34" d="M20.25,13.09V2.25L35.735,17.735H24.9A4.646,4.646,0,0,1,20.25,13.09Z" transform="translate(1.43 -2.25)" fill="#3b82f6"/>
  </g>
  <text id="CSV" transform="translate(13.155 50.136)" fill="#3b82f6" font-size="5" font-family="Rubik"><tspan x="0" y="0">CSV</tspan></text>
</svg>
