<svg xmlns="http://www.w3.org/2000/svg" width="15.395" height="12.508" viewBox="0 0 15.395 12.508">
  <g id="download" transform="translate(0 -2.25)">
    <path id="Tracé_21" data-name="Tracé 21" d="M.481,18a.481.481,0,0,1,.481.481v3.368a.962.962,0,0,0,.962.962H13.471a.962.962,0,0,0,.962-.962V18.481a.481.481,0,0,1,.962,0v3.368a1.924,1.924,0,0,1-1.924,1.924H1.924A1.924,1.924,0,0,1,0,21.849V18.481A.481.481,0,0,1,.481,18Z" transform="translate(0 -9.015)" fill="#65666e" fill-rule="evenodd"/>
    <path id="Tracé_22" data-name="Tracé 22" d="M11.061,16.686a.481.481,0,0,1,.68,0l2.206,2.206,2.206-2.206a.481.481,0,1,1,.68.68l-2.546,2.547a.481.481,0,0,1-.681,0l-2.546-2.547a.481.481,0,0,1,0-.68Z" transform="translate(-6.25 -8.182)" fill="#65666e" fill-rule="evenodd"/>
    <path id="Tracé_23" data-name="Tracé 23" d="M17.356,2.25a.481.481,0,0,1,.481.481v7.7a.481.481,0,0,1-.962,0v-7.7A.481.481,0,0,1,17.356,2.25Z" transform="translate(-9.659 0)" fill="#65666e" fill-rule="evenodd"/>
  </g>
</svg>
