<svg xmlns="http://www.w3.org/2000/svg" width="14.306" height="11.291" viewBox="0 0 14.306 11.291">
  <path id="edit" d="M11.29,7.458V8.981a2.314,2.314,0,0,1-2.309,2.31H2.31a2.224,2.224,0,0,1-1.632-.678A2.226,2.226,0,0,1,0,8.981V2.31A2.224,2.224,0,0,1,.678.678,2.226,2.226,0,0,1,2.31,0H8.981a2.2,2.2,0,0,1,.938.2.244.244,0,0,1,.144.184.25.25,0,0,1-.072.233L9.6,1.01a.235.235,0,0,1-.257.064,1.421,1.421,0,0,0-.361-.048H2.31A1.235,1.235,0,0,0,1.4,1.4a1.235,1.235,0,0,0-.377.906V8.981a1.235,1.235,0,0,0,.377.906,1.235,1.235,0,0,0,.906.377H8.981a1.287,1.287,0,0,0,1.283-1.283V7.971a.24.24,0,0,1,.072-.176l.513-.513a.241.241,0,0,1,.281-.056.232.232,0,0,1,.16.233ZM10.52,1.54l2.31,2.31L7.441,9.238H5.132V6.928ZM14.081,2.6l-.738.738-2.31-2.31.738-.738a.774.774,0,0,1,1.091,0l1.219,1.219a.742.742,0,0,1,.225.545A.742.742,0,0,1,14.081,2.6Z" fill="#65666e"/>
</svg>
