<svg id="export-svg" xmlns="http://www.w3.org/2000/svg" width="23.799" height="23.799" viewBox="0 0 23.799 23.799">
  <g id="Groupe_65" data-name="Groupe 65">
    <g id="Groupe_64" data-name="Groupe 64">
      <path id="Tracé_78" data-name="Tracé 78" d="M225.57,1.665h4.394l-10.045,10.05a.832.832,0,1,0,1.175,1.18l10.05-10.05V7.239a.833.833,0,1,0,1.665,0V.835A.835.835,0,0,0,231.974,0h-6.4a.833.833,0,1,0,0,1.665Z" transform="translate(-209.01 0)" fill="#3B82F6"/>
      <path id="Tracé_79" data-name="Tracé 79" d="M5,23.8H18.8a5,5,0,0,0,5-5V12.3a.833.833,0,0,0-1.665,0v6.5a3.336,3.336,0,0,1-3.33,3.33H5a3.336,3.336,0,0,1-3.33-3.33V5A3.336,3.336,0,0,1,5,1.67h6.442a.835.835,0,0,0,0-1.67H5A5,5,0,0,0,0,5V18.8A5,5,0,0,0,5,23.8Z" fill="#3B82F6"/>
    </g>
  </g>
</svg>
