<svg xmlns="http://www.w3.org/2000/svg" width="33.964" height="34.001" viewBox="0 0 33.964 34.001">
  <g id="password" transform="translate(33.964 3.714) rotate(97)">
    <path id="Tracé_197" data-name="Tracé 197" d="M20.677,0a9.8,9.8,0,0,0-9.795,9.795,9.653,9.653,0,0,0,.425,2.84L0,23.942v6.53H6.53L17.837,19.165A9.795,9.795,0,0,0,30.472,10.6a9.544,9.544,0,0,0-1.8-6.53,9.8,9.8,0,0,0-8-4.07Zm0,17.413a7.618,7.618,0,0,1-2.177-.326l-1.252-.381-.925.925-3.461,3.461-1.534-1.5L9.795,21.124l1.5,1.5L9.565,24.356l-1.5-1.5L6.53,24.388l1.5,1.5L5.626,28.3H2.177v-3.45l10.665-10.7.925-.925-.315-1.034A7.77,7.77,0,0,1,17.151,3,7.618,7.618,0,0,1,28.3,9.534a7.28,7.28,0,0,1-1.186,4.353A7.618,7.618,0,0,1,20.677,17.413Z" transform="translate(0 0)" fill="#3b82f6"/>
    <path id="Tracé_198" data-name="Tracé 198" d="M4.353,2.177A2.177,2.177,0,1,1,2.177,0,2.177,2.177,0,0,1,4.353,2.177Z" transform="translate(19.589 6.53)" fill="#3b82f6"/>
  </g>
</svg>
