<svg xmlns="http://www.w3.org/2000/svg" width="10.945" height="10.945" viewBox="0 0 10.945 10.945">
  <path id="step-backward" d="M9.365,11.8V5.716H5.108a.608.608,0,1,1,0-1.216h9.729a.608.608,0,1,1,0,1.216H10.581V11.8h1.362a.481.481,0,0,1,.256.073.419.419,0,0,1,.129.6l-1.97,2.779a.45.45,0,0,1-.128.121.48.48,0,0,1-.641-.12l-1.97-2.779a.417.417,0,0,1-.078-.242A.449.449,0,0,1,8,11.8H9.365Zm5.473-3.648a.608.608,0,1,1,0,1.216H11.8V8.148Zm-7.3,0h.608V9.365H5.108a.608.608,0,1,1,0-1.216Z" transform="translate(-4.5 -4.5)" fill="#fff"/>
</svg>
