<svg xmlns="http://www.w3.org/2000/svg" width="12.833" height="13.999" viewBox="0 0 12.833 13.999">
  <g id="ios-stats" transform="translate(-5.625 -4.5)">
    <path id="Tracé_88" data-name="Tracé 88" d="M12.667,18.5h1.75a.293.293,0,0,0,.292-.292V4.792a.293.293,0,0,0-.292-.292h-1.75a.293.293,0,0,0-.292.292V18.208a.293.293,0,0,0,.292.292Z" transform="translate(-3.25)" fill="#fff"/>
    <path id="Tracé_89" data-name="Tracé 89" d="M5.917,26.083h1.75a.293.293,0,0,0,.292-.292V20.542a.293.293,0,0,0-.292-.292H5.917a.293.293,0,0,0-.292.292v5.25a.293.293,0,0,0,.292.292Z" transform="translate(0 -7.584)" fill="#fff"/>
    <path id="Tracé_90" data-name="Tracé 90" d="M19.421,23.916h1.743a.294.294,0,0,0,.3-.3V16.046a.294.294,0,0,0-.3-.3H19.421a.294.294,0,0,0-.3.3v7.575a.294.294,0,0,0,.3.3Z" transform="translate(-6.501 -5.417)" fill="#fff"/>
    <path id="Tracé_91" data-name="Tracé 91" d="M25.875,9.3V20.371a.294.294,0,0,0,.3.3h1.743a.294.294,0,0,0,.3-.3V9.3a.294.294,0,0,0-.3-.3H26.171A.294.294,0,0,0,25.875,9.3Z" transform="translate(-9.751 -2.167)" fill="#fff"/>
  </g>
</svg>
