<svg xmlns="http://www.w3.org/2000/svg" xmlns:xlink="http://www.w3.org/1999/xlink" version="1.1" width="1000" height="1000" viewBox="0 0 1000 1000" xml:space="preserve">
<desc>Created with Fabric.js 3.5.0</desc>
<defs>
</defs>
<rect x="0" y="0" width="100%" height="100%" fill="rgba(255,255,255,0)"/>
<g transform="matrix(31.0726 0 0 31.0726 500 500)" id="648891">
<g style="" vector-effect="non-scaling-stroke">
		<g transform="matrix(1 0 0 1 0.0005 0.0006)" id="Trac&#xE9;_35">
<path style="stroke: none; stroke-width: 1; stroke-dasharray: none; stroke-linecap: butt; stroke-dashoffset: 0; stroke-linejoin: miter; stroke-miterlimit: 4; is-custom-font: none; font-file-url: none; fill: rgb(162,190,246); fill-rule: evenodd; opacity: 1;" transform=" translate(-14.629, -14.607)" d="M 0.914 15.2 a 0.914 0.914 0 0 1 0.914 0.914 v 6.4 a 1.829 1.829 0 0 0 1.829 1.829 H 25.6 a 1.829 1.829 0 0 0 1.829 -1.829 v -6.4 a 0.914 0.914 0 1 1 1.829 0 v 6.4 A 3.657 3.657 0 0 1 25.6 26.17 H 3.657 A 3.657 3.657 0 0 1 0 22.513 v -6.4 A 0.914 0.914 0 0 1 0.914 15.2 Z M 9.143 9.446 a 0.914 0.914 0 0 0 1.293 0 l 4.193 -4.194 l 4.193 4.193 a 0.914 0.914 0 1 0 1.293 -1.292 L 15.275 3.313 a 0.914 0.914 0 0 0 -1.295 0 L 9.143 8.152 a 0.914 0.914 0 0 0 0 1.295 Z" stroke-linecap="round"/>
</g>
		<g transform="matrix(1 0 0 1 -0.001 -2.1507)" id="Trac&#xE9;_36">
<path style="stroke: none; stroke-width: 1; stroke-dasharray: none; stroke-linecap: butt; stroke-dashoffset: 0; stroke-linejoin: miter; stroke-miterlimit: 4; is-custom-font: none; font-file-url: none; fill: rgb(162,190,246); fill-rule: evenodd; opacity: 1;" transform=" translate(-17.7885, -12.7287)" d="M 17.789 4.5 a 0.914 0.914 0 0 1 0.914 0.914 V 20.043 a 0.914 0.914 0 1 1 -1.829 0 V 5.414 A 0.914 0.914 0 0 1 17.789 4.5 Z" stroke-linecap="round"/>
</g>
</g>
</g>
</svg>