<svg xmlns="http://www.w3.org/2000/svg" width="15.253" height="16.947" viewBox="0 0 15.253 16.947">
  <g id="bx-user-pin" transform="translate(-4.5 -3)">
    <path id="Tracé_92" data-name="Tracé 92" d="M15.389,12.389a1.695,1.695,0,1,0-1.695-1.695A1.646,1.646,0,0,0,15.389,12.389Zm0,.847A3.233,3.233,0,0,0,12,16.287v.327h6.779v-.327A3.233,3.233,0,0,0,15.389,13.237Z" transform="translate(-3.263 -2.611)" fill="#fff"/>
    <path id="Tracé_93" data-name="Tracé 93" d="M18.058,3H6.195A1.7,1.7,0,0,0,4.5,4.695V15.71a1.7,1.7,0,0,0,1.695,1.695H9.584l2.542,2.542,2.542-2.542h3.389a1.7,1.7,0,0,0,1.695-1.695V4.695A1.7,1.7,0,0,0,18.058,3ZM13.821,15.71l-1.695,1.695L10.432,15.71H6.195V4.695H18.058l0,11.016Z" fill="#fff"/>
  </g>
</svg>
