<?xml version="1.0" encoding="utf-8"?>
<!-- Generator: Adobe Illustrator 26.4.0, SVG Export Plug-In . SVG Version: 6.00 Build 0)  -->
<svg version="1.1" id="Calque_1" xmlns="http://www.w3.org/2000/svg" xmlns:xlink="http://www.w3.org/1999/xlink" x="0px" y="0px"
	 viewBox="0 0 923.2 174.9" style="enable-background:new 0 0 923.2 174.9;" xml:space="preserve">
<style type="text/css">
	.st0{fill:#FFFFFF;}
	.st1{enable-background:new    ;}
	.st2{fill:url(#SVGID_1_);}
</style>
<path class="st0" d="M54.9,11.4v78.1h-5.2v-13c-2.2,4.3-5.2,7.6-9.2,9.9c-3.9,2.3-8.4,3.5-13.4,3.5c-5.1,0-9.8-1.2-13.9-3.6
	c-4.1-2.4-7.4-5.7-9.7-9.9C1.2,72.2,0,67.4,0,62c0-5.4,1.2-10.2,3.5-14.5c2.4-4.2,5.6-7.5,9.7-9.9c4.1-2.4,8.8-3.5,13.9-3.5
	c4.9,0,9.3,1.2,13.2,3.5c3.9,2.3,7,5.5,9.2,9.7V11.4H54.9z M38.8,82.2c3.3-2,6-4.7,7.9-8.2c1.9-3.5,2.9-7.5,2.9-12
	c0-4.5-1-8.5-2.9-12c-1.9-3.5-4.6-6.2-7.9-8.2c-3.3-2-7.1-2.9-11.3-2.9s-8,1-11.3,2.9c-3.3,2-6,4.7-7.9,8.2c-1.9,3.5-2.9,7.5-2.9,12
	c0,4.5,1,8.5,2.9,12c1.9,3.5,4.6,6.2,7.9,8.2c3.3,2,7.1,2.9,11.3,2.9S35.5,84.2,38.8,82.2z"/>
<path class="st0" d="M76.7,20c-0.8-0.8-1.3-1.8-1.3-3c0-1.2,0.4-2.2,1.3-3.1c0.8-0.8,1.9-1.3,3.1-1.3c1.2,0,2.2,0.4,3.1,1.2
	c0.8,0.8,1.3,1.8,1.3,3c0,1.2-0.4,2.2-1.3,3.1c-0.8,0.8-1.9,1.3-3.1,1.3C78.5,21.2,77.5,20.8,76.7,20z M77.1,34.5h5.3v55h-5.3V34.5z
	"/>
<path class="st0" d="M154.1,34.5v49.1c0,9.1-2.2,15.9-6.6,20.2c-4.4,4.4-11.1,6.5-20,6.5c-5.1,0-9.8-0.8-14.3-2.3
	c-4.5-1.5-8.1-3.7-10.8-6.4l2.8-4c2.7,2.5,6,4.5,9.9,5.9c3.9,1.4,8,2.1,12.3,2.1c7.3,0,12.7-1.7,16.2-5.2c3.5-3.5,5.3-8.9,5.3-16.2
	V75c-2.2,4-5.4,7.1-9.4,9.3c-4,2.2-8.5,3.3-13.5,3.3c-5.1,0-9.8-1.1-14-3.4c-4.2-2.3-7.5-5.5-9.8-9.5c-2.4-4.1-3.6-8.7-3.6-13.8
	c0-5.1,1.2-9.7,3.6-13.8c2.4-4.1,5.7-7.2,9.8-9.5c4.2-2.2,8.8-3.4,14-3.4c5.1,0,9.6,1.1,13.7,3.4c4.1,2.2,7.2,5.4,9.4,9.5V34.5
	H154.1z M138,80c3.4-1.9,6.1-4.5,8.1-7.8c1.9-3.3,2.9-7.1,2.9-11.4c0-4.3-1-8.1-2.9-11.4c-1.9-3.3-4.6-5.9-8.1-7.7
	c-3.4-1.9-7.3-2.8-11.6-2.8c-4.3,0-8.1,0.9-11.5,2.8c-3.4,1.9-6.1,4.4-8,7.7c-1.9,3.3-2.9,7.1-2.9,11.4c0,4.3,1,8.1,2.9,11.4
	c1.9,3.3,4.6,5.9,8,7.8c3.4,1.9,7.2,2.8,11.5,2.8C130.7,82.8,134.5,81.8,138,80z"/>
<path class="st0" d="M176,20c-0.8-0.8-1.3-1.8-1.3-3c0-1.2,0.4-2.2,1.3-3.1c0.8-0.8,1.9-1.3,3.1-1.3c1.2,0,2.2,0.4,3.1,1.2
	c0.8,0.8,1.3,1.8,1.3,3c0,1.2-0.4,2.2-1.3,3.1c-0.8,0.8-1.9,1.3-3.1,1.3C177.8,21.2,176.8,20.8,176,20z M176.4,34.5h5.3v55h-5.3
	V34.5z"/>
<path class="st0" d="M231.2,86c-1.3,1.3-3,2.2-5,2.9c-2,0.7-4.1,1-6.3,1c-4.8,0-8.5-1.3-11.1-3.9c-2.6-2.6-3.9-6.3-3.9-11V39.1
	h-10.1v-4.5h10.1v-12h5.3v12h17.5v4.5h-17.5v35.4c0,3.6,0.9,6.3,2.6,8.2c1.7,1.9,4.3,2.8,7.6,2.8c3.4,0,6.3-1,8.5-3.1L231.2,86z"/>
<path class="st0" d="M280,39.3c3.6,3.5,5.5,8.6,5.5,15.3v34.9h-5.1v-9.8c-1.8,3.2-4.3,5.7-7.7,7.5c-3.4,1.8-7.4,2.7-12.1,2.7
	c-6.1,0-10.9-1.4-14.5-4.3c-3.5-2.9-5.3-6.7-5.3-11.4c0-4.6,1.6-8.3,4.9-11.1c3.3-2.8,8.5-4.3,15.6-4.3h18.9v-4.4
	c0-5.1-1.4-9-4.2-11.7c-2.8-2.7-6.8-4-12.2-4c-3.7,0-7.1,0.6-10.5,1.9c-3.3,1.3-6.2,2.9-8.5,5.1l-2.6-3.8c2.7-2.5,6-4.4,9.9-5.7
	c3.9-1.4,7.9-2.1,12.1-2.1C271.1,34.1,276.4,35.9,280,39.3z M273,82.5c3.2-2.1,5.6-5.2,7.2-9.2V63h-18.7c-5.4,0-9.3,1-11.7,2.9
	c-2.4,2-3.6,4.7-3.6,8.1c0,3.6,1.3,6.4,4,8.5c2.7,2.1,6.4,3.1,11.3,3.1C265.9,85.6,269.8,84.6,273,82.5z"/>
<path class="st0" d="M307.2,11.4h5.3v78.1h-5.3V11.4z"/>
<g class="st1">
	<path class="st0" d="M384.8,65.6h-44.1c0.8,4.1,2.8,7.4,6.1,9.8c3.3,2.4,7.3,3.6,12.2,3.6c6.2,0,11.3-2,15.3-6.1l7.1,8.1
		c-2.5,3-5.7,5.3-9.6,6.8c-3.9,1.5-8.2,2.3-13.1,2.3c-6.2,0-11.6-1.2-16.3-3.7c-4.7-2.5-8.3-5.9-10.9-10.3
		c-2.6-4.4-3.8-9.4-3.8-14.9c0-5.5,1.2-10.4,3.7-14.8c2.5-4.4,6-7.8,10.4-10.3c4.4-2.5,9.4-3.7,15-3.7c5.5,0,10.4,1.2,14.7,3.6
		c4.3,2.4,7.7,5.8,10.1,10.2c2.4,4.4,3.6,9.5,3.6,15.2C385,62.6,384.9,63.9,384.8,65.6z M345.9,46.9c-2.9,2.5-4.7,5.8-5.3,10h31.9
		c-0.6-4.1-2.3-7.4-5.2-9.9c-2.9-2.5-6.5-3.8-10.7-3.8C352.4,43.2,348.8,44.4,345.9,46.9z"/>
</g>
<path class="st0" d="M431.9,89.5L417.4,70l-14.5,19.5h-14.5L410.3,61l-21-27.7H404l13.8,18.4l13.8-18.4h14.2l-21.1,27.5l22,28.8
	H431.9z"/>
<path class="st0" d="M502.3,36.2c4.3,2.4,7.7,5.8,10.2,10.1c2.5,4.4,3.7,9.4,3.7,15.1c0,5.7-1.2,10.7-3.7,15.1
	c-2.5,4.4-5.8,7.8-10.2,10.2c-4.3,2.4-9.2,3.6-14.7,3.6c-7.6,0-13.6-2.5-18-7.6v27.3h-13.2V33.3h12.5v7.4c2.2-2.7,4.9-4.7,8.1-6
	c3.2-1.3,6.7-2,10.6-2C493,32.6,497.9,33.8,502.3,36.2z M498,74.1c3.1-3.2,4.7-7.5,4.7-12.7c0-5.3-1.6-9.5-4.7-12.7
	c-3.1-3.2-7.1-4.8-12-4.8c-3.2,0-6,0.7-8.5,2.2c-2.5,1.4-4.5,3.5-6,6.2c-1.5,2.7-2.2,5.8-2.2,9.3c0,3.5,0.7,6.6,2.2,9.3
	c1.5,2.7,3.5,4.7,6,6.2c2.5,1.4,5.4,2.2,8.5,2.2C490.9,79,494.9,77.4,498,74.1z"/>
<path class="st0" d="M581.3,65.6h-44.1c0.8,4.1,2.8,7.4,6.1,9.8c3.3,2.4,7.3,3.6,12.2,3.6c6.2,0,11.3-2,15.3-6.1l7.1,8.1
	c-2.5,3-5.7,5.3-9.6,6.8c-3.9,1.5-8.2,2.3-13.1,2.3c-6.2,0-11.6-1.2-16.3-3.7c-4.7-2.5-8.3-5.9-10.9-10.3c-2.6-4.4-3.8-9.4-3.8-14.9
	c0-5.5,1.2-10.4,3.7-14.8c2.5-4.4,6-7.8,10.4-10.3c4.4-2.5,9.4-3.7,15-3.7c5.5,0,10.4,1.2,14.7,3.6c4.3,2.4,7.7,5.8,10.1,10.2
	c2.4,4.4,3.6,9.5,3.6,15.2C581.5,62.6,581.4,63.9,581.3,65.6z M542.4,46.9c-2.9,2.5-4.7,5.8-5.3,10H569c-0.6-4.1-2.3-7.4-5.2-9.9
	c-2.9-2.5-6.5-3.8-10.7-3.8C548.9,43.2,545.3,44.4,542.4,46.9z"/>
<g class="st1">
	<path class="st0" d="M626.7,32.6v12.5c-1.1-0.2-2.1-0.3-3.1-0.3c-5.1,0-9.1,1.5-12,4.5c-2.9,3-4.3,7.3-4.3,12.9v27.3h-13.2V33.3
		h12.5v8.2C610.5,35.6,617.1,32.6,626.7,32.6z"/>
</g>
<path class="st0" d="M638.5,21.7c-1.6-1.5-2.4-3.4-2.4-5.6c0-2.2,0.8-4.1,2.4-5.6c1.6-1.5,3.6-2.3,6-2.3c2.4,0,4.4,0.7,6,2.2
	c1.6,1.4,2.4,3.2,2.4,5.4c0,2.3-0.8,4.3-2.4,5.8c-1.6,1.6-3.6,2.4-6.1,2.4C642.1,24,640.1,23.3,638.5,21.7z M637.8,33.3H651v56.2
	h-13.2V33.3z"/>
<path class="st0" d="M720.9,65.6h-44.1c0.8,4.1,2.8,7.4,6.1,9.8c3.3,2.4,7.3,3.6,12.2,3.6c6.2,0,11.3-2,15.3-6.1l7.1,8.1
	c-2.5,3-5.7,5.3-9.6,6.8c-3.9,1.5-8.2,2.3-13.1,2.3c-6.2,0-11.6-1.2-16.3-3.7c-4.7-2.5-8.3-5.9-10.9-10.3c-2.6-4.4-3.8-9.4-3.8-14.9
	c0-5.5,1.2-10.4,3.7-14.8c2.5-4.4,6-7.8,10.4-10.3c4.4-2.5,9.4-3.7,15-3.7c5.5,0,10.4,1.2,14.7,3.6c4.3,2.4,7.7,5.8,10.1,10.2
	c2.4,4.4,3.6,9.5,3.6,15.2C721.1,62.6,721.1,63.9,720.9,65.6z M682,46.9c-2.9,2.5-4.7,5.8-5.3,10h31.9c-0.6-4.1-2.3-7.4-5.2-9.9
	c-2.9-2.5-6.5-3.8-10.7-3.8C688.5,43.2,684.9,44.4,682,46.9z"/>
<g class="st1">
	<path class="st0" d="M782.7,38.9c4.3,4.1,6.4,10.3,6.4,18.4v32.2H776V59c0-4.9-1.2-8.6-3.5-11.1c-2.3-2.5-5.6-3.7-9.9-3.7
		c-4.8,0-8.7,1.5-11.5,4.4c-2.8,2.9-4.2,7.1-4.2,12.6v28.4h-13.2V33.3h12.5v7.3c2.2-2.6,4.9-4.6,8.2-5.9c3.3-1.3,7-2,11.2-2
		C772.8,32.6,778.5,34.7,782.7,38.9z"/>
</g>
<g class="st1">
	<path class="st0" d="M816.5,86.6c-4.6-2.5-8.2-5.9-10.8-10.3c-2.6-4.4-3.9-9.4-3.9-14.9c0-5.5,1.3-10.5,3.9-14.8
		c2.6-4.4,6.2-7.8,10.8-10.2c4.6-2.5,9.8-3.7,15.7-3.7c5.5,0,10.4,1.1,14.6,3.4c4.2,2.2,7.3,5.5,9.4,9.7l-10.1,5.9
		c-1.6-2.6-3.6-4.5-6.1-5.8c-2.4-1.3-5.1-1.9-8-1.9c-4.9,0-9,1.6-12.2,4.8c-3.2,3.2-4.8,7.5-4.8,12.8c0,5.3,1.6,9.6,4.8,12.8
		c3.2,3.2,7.3,4.8,12.3,4.8c2.9,0,5.5-0.6,8-1.9c2.4-1.3,4.4-3.2,6.1-5.8l10.1,5.9c-2.2,4.2-5.4,7.5-9.5,9.7
		c-4.2,2.3-9,3.4-14.5,3.4C826.4,90.2,821.2,89,816.5,86.6z"/>
</g>
<g class="st1">
	<path class="st0" d="M919.4,65.6h-44.1c0.8,4.1,2.8,7.4,6.1,9.8c3.3,2.4,7.3,3.6,12.2,3.6c6.2,0,11.3-2,15.3-6.1l7.1,8.1
		c-2.5,3-5.7,5.3-9.6,6.8c-3.9,1.5-8.2,2.3-13.1,2.3c-6.2,0-11.6-1.2-16.3-3.7c-4.7-2.5-8.3-5.9-10.9-10.3
		c-2.6-4.4-3.8-9.4-3.8-14.9c0-5.5,1.2-10.4,3.7-14.8c2.5-4.4,6-7.8,10.4-10.3c4.4-2.5,9.4-3.7,15-3.7c5.5,0,10.4,1.2,14.7,3.6
		c4.3,2.4,7.7,5.8,10.1,10.2c2.4,4.4,3.6,9.5,3.6,15.2C919.6,62.6,919.6,63.9,919.4,65.6z M880.5,46.9c-2.9,2.5-4.7,5.8-5.3,10h31.9
		c-0.6-4.1-2.3-7.4-5.2-9.9c-2.9-2.5-6.5-3.8-10.7-3.8C887,43.2,883.4,44.4,880.5,46.9z"/>
</g>
<linearGradient id="SVGID_1_" gradientUnits="userSpaceOnUse" x1="806.7" y1="1070.25" x2="918.1" y2="1070.25" gradientTransform="matrix(1 0 0 1 0 -904)">
	<stop  offset="0" style="stop-color:#3564AC"/>
	<stop  offset="0.2" style="stop-color:#327BBF"/>
	<stop  offset="0.4" style="stop-color:#954C97"/>
	<stop  offset="0.75" style="stop-color:#EA537E"/>
	<stop  offset="1" style="stop-color:#EF848F"/>
</linearGradient>
<rect x="806.7" y="162.4" class="st2" width="111.4" height="7.7"/>
<g>
	<path class="st0" d="M772.3,132.4c1.1,0.6,2.1,1.6,2.7,2.7c1.3,2.5,1.3,5.5,0,8c-0.6,1.1-1.6,2.1-2.7,2.7c-1.2,0.7-2.5,1-3.9,1
		c-1,0-2.1-0.2-3-0.6c-0.9-0.4-1.7-1.1-2.3-1.9v2.4h-2.6v-21h2.7v8.2c0.6-0.8,1.4-1.4,2.3-1.8c0.9-0.4,2-0.6,3-0.6
		C769.8,131.5,771.1,131.8,772.3,132.4z M770.7,143.7c0.8-0.4,1.4-1.1,1.8-1.9c0.9-1.7,0.9-3.8,0-5.5c-0.4-0.8-1-1.4-1.8-1.9
		c-0.8-0.4-1.7-0.7-2.6-0.6c-0.9,0-1.8,0.2-2.6,0.6c-0.8,0.4-1.4,1.1-1.8,1.9c-0.9,1.7-0.9,3.8,0,5.5c0.4,0.8,1,1.4,1.8,1.9
		c0.8,0.4,1.7,0.7,2.6,0.7S769.9,144.2,770.7,143.7z"/>
</g>
<g>
	<path class="st0" d="M793.3,131.6l-7.2,16.5c-0.4,1.3-1.2,2.4-2.2,3.2c-0.9,0.6-2,1-3.1,0.9c-0.7,0-1.4-0.1-2.1-0.4
		c-0.6-0.2-1.2-0.5-1.7-1l1.2-2c0.7,0.7,1.7,1.1,2.7,1.1c0.6,0,1.2-0.2,1.7-0.5c0.5-0.5,1-1.1,1.2-1.8l0.5-1l-6.6-14.9h2.8l5.2,12
		l5.2-12L793.3,131.6z"/>
</g>
<g>
	<path class="st0" d="M811.6,136.6v-4l0,0v-7.5h6.9v-5.5h-6.9v-8.7l-6.9,4.5v17.2l0,0v4.1c0,6.2,4,10.2,11,10.2
		c0.9,0,1.9-0.1,2.8-0.2V141c-0.6,0.1-1.2,0.1-1.8,0.1C812.9,141.1,811.6,139.3,811.6,136.6"/>
</g>
<g>
	<polygon class="st0" points="911,146.9 911.2,146.8 918,142.4 918,119.6 911,119.6 	"/>
</g>
<g>
	<path class="st0" d="M829.9,130.2c0.7-4.1,3.4-6.2,6.8-6.2s5.8,1.9,6.3,6.2H829.9z M836.7,118.7c-7.9,0-13.7,5.8-13.7,14.2
		c0,8.2,5.1,14.1,13.6,14.1c7.7,0,11.6-4.1,12.7-8.7h-6.6c-0.6,1.6-2.3,3.2-5.9,3.2c-4,0-6.6-2.5-7.1-7.1h19.8V133
		C849.6,124.4,844.9,118.7,836.7,118.7"/>
</g>
<g>
	<path class="st0" d="M861.4,126.6c0-1.8,1.5-2.9,4.7-2.9c2.9,0,4.7,1.2,4.9,3.6h6c-0.1-5.5-3.9-8.6-10.8-8.6s-11.4,3.1-11.4,8.1
		c0,11.1,16,6.7,16,12.3c0,1.8-1.5,2.8-5.1,2.8c-3.8,0-5.4-1.3-5.5-3.7l-6-0.1c0.1,5.6,3.8,8.8,11.5,8.8c7.3,0,11.8-3.1,11.8-8
		C877.3,127.5,861.3,132.1,861.4,126.6"/>
</g>
<g>
	<path class="st0" d="M889.2,126.6c0-1.8,1.5-2.9,4.7-2.9c2.9,0,4.7,1.2,4.9,3.6h6c-0.1-5.5-3.9-8.6-10.8-8.6s-11.4,3.1-11.4,8.1
		c0,11.1,16,6.7,16,12.3c0,1.8-1.5,2.8-5.1,2.8c-3.8,0-5.4-1.3-5.5-3.7l-6-0.1c0.1,5.6,3.8,8.8,11.5,8.8c7.3,0,11.8-3.1,11.7-8
		C905.1,127.5,889.1,132.1,889.2,126.6"/>
</g>
<g>
	<rect x="911.1" y="110.5" class="st0" width="7" height="5.2"/>
</g>
</svg>
