<svg width="1384" height="156" viewBox="0 0 1384 156" fill="none" xmlns="http://www.w3.org/2000/svg">
    <g clip-path="url(#clip0_2362_270583)">
        <rect width="1384" height="156" fill="#0040BD"/>
        <mask id="path-1-inside-1_2362_270583" fill="white">
            <path d="M0 0H1384V156H0V0Z"/>
        </mask>
        <path d="M0 0H1384V156H0V0Z" fill="white" fill-opacity="0.98"/>
        <path d="M1384 155H0V157H1384V155Z" fill="#E9E9E9" mask="url(#path-1-inside-1_2362_270583)"/>
        <path d="M1368.92 -1163.9C1368.92 -1123.18 1402.06 -1090.04 1442.78 -1090.04C1792.84 -1090.04 2077.56 -805.321 2077.56 -455.264V-151.293C2077.56 198.763 1792.84 483.48 1442.78 483.48C1092.72 483.48 808.006 198.763 808.006 -151.293V-455.264C808.006 -495.983 774.863 -529.127 734.144 -529.127C693.425 -529.127 660.281 -495.983 660.281 -455.264V-151.293C660.281 280.201 1011.29 631.205 1442.78 631.205C1874.28 631.205 2225.28 280.201 2225.28 -151.293V-455.264C2225.28 -886.759 1874.28 -1237.76 1442.78 -1237.76C1402.06 -1237.76 1368.92 -1204.62 1368.92 -1163.9Z" fill="#0040BD"/>
        <path d="M990.143 -454.013V-152.567C990.143 97.1131 1193.11 300.076 1442.79 300.076C1668.48 300.076 1855.97 134.36 1889.75 -81.8609L1898.27 -73.6539C1920.37 -51.5584 1956.35 -51.5584 1978.45 -73.6539C2000.54 -95.7494 2000.54 -131.734 1978.45 -153.829L1885.96 -246.315L1805.79 -326.806L1725.61 -246.63L1633.12 -153.829C1611.03 -131.734 1611.03 -95.7494 1633.12 -73.6539C1655.22 -51.5584 1691.2 -51.5584 1713.3 -73.6539L1743.6 -103.956C1720.24 41.2428 1594.61 152.352 1443.1 152.352C1274.86 152.352 1138.18 15.6752 1138.18 -152.567V-454.013C1138.18 -622.255 1274.86 -758.931 1443.1 -758.931C1593.67 -758.931 1723.4 -646.875 1744.86 -498.204C1750.86 -457.801 1788.42 -430.023 1828.51 -435.705C1868.92 -441.702 1896.69 -478.949 1891.01 -519.353C1859.13 -739.992 1666.58 -906.656 1443.1 -906.656C1193.42 -906.656 990.458 -703.692 990.458 -454.013" fill="#0040BD"/>
        <path d="M1368.92 -1163.9C1368.92 -1123.18 1402.06 -1090.04 1442.78 -1090.04C1792.84 -1090.04 2077.56 -805.321 2077.56 -455.264V-151.293C2077.56 198.763 1792.84 483.48 1442.78 483.48C1092.72 483.48 808.006 198.763 808.006 -151.293V-455.264C808.006 -495.983 774.863 -529.127 734.144 -529.127C693.425 -529.127 660.281 -495.983 660.281 -455.264V-151.293C660.281 280.201 1011.29 631.205 1442.78 631.205C1874.28 631.205 2225.28 280.201 2225.28 -151.293V-455.264C2225.28 -886.759 1874.28 -1237.76 1442.78 -1237.76C1402.06 -1237.76 1368.92 -1204.62 1368.92 -1163.9Z" fill="white" fill-opacity="0.93"/>
        <path d="M990.143 -454.013V-152.567C990.143 97.1131 1193.11 300.076 1442.79 300.076C1668.48 300.076 1855.97 134.36 1889.75 -81.8609L1898.27 -73.6539C1920.37 -51.5584 1956.35 -51.5584 1978.45 -73.6539C2000.54 -95.7494 2000.54 -131.734 1978.45 -153.829L1885.96 -246.315L1805.79 -326.806L1725.61 -246.63L1633.12 -153.829C1611.03 -131.734 1611.03 -95.7494 1633.12 -73.6539C1655.22 -51.5584 1691.2 -51.5584 1713.3 -73.6539L1743.6 -103.956C1720.24 41.2428 1594.61 152.352 1443.1 152.352C1274.86 152.352 1138.18 15.6752 1138.18 -152.567V-454.013C1138.18 -622.255 1274.86 -758.931 1443.1 -758.931C1593.67 -758.931 1723.4 -646.875 1744.86 -498.204C1750.86 -457.801 1788.42 -430.023 1828.51 -435.705C1868.92 -441.702 1896.69 -478.949 1891.01 -519.353C1859.13 -739.992 1666.58 -906.656 1443.1 -906.656C1193.42 -906.656 990.458 -703.692 990.458 -454.013" fill="white" fill-opacity="0.93"/>
    </g>
    <defs>
        <clipPath id="clip0_2362_270583">
            <rect width="1384" height="156" fill="white"/>
        </clipPath>
    </defs>
</svg>
