<svg width="904" height="867" viewBox="0 0 904 867" fill="none" xmlns="http://www.w3.org/2000/svg">
    <g clip-path="url(#clip0_554_50918)">
        <rect width="904" height="867" fill="#0040BD"/>
        <rect width="904" height="867" fill="white" fill-opacity="0.98"/>
        <path d="M-60.5226 -67.7098C-60.5226 -22.0123 -23.327 15.1833 22.3705 15.1833C415.228 15.1833 734.756 334.711 734.756 727.567V1068.7C734.756 1461.56 415.228 1781.09 22.3705 1781.09C-370.487 1781.09 -690.015 1461.56 -690.015 1068.7V727.567C-690.015 681.87 -727.211 644.674 -772.908 644.674C-818.606 644.674 -855.802 681.87 -855.802 727.567V1068.7C-855.802 1552.96 -461.882 1946.87 22.3705 1946.87C506.623 1946.87 900.543 1552.96 900.543 1068.7V727.567C900.543 243.316 506.623 -150.603 22.3705 -150.603C-23.327 -150.603 -60.5226 -113.407 -60.5226 -67.7098Z" fill="#0040BD"/>
        <path d="M-485.61 728.981V1067.28C-485.61 1347.49 -257.831 1575.27 22.3769 1575.27C275.662 1575.27 486.083 1389.29 523.987 1146.63L533.552 1155.84C558.349 1180.64 598.732 1180.64 623.53 1155.84C648.327 1131.05 648.327 1090.66 623.53 1065.87L519.736 962.073L429.758 871.741L339.78 961.719L235.986 1065.87C211.189 1090.66 211.189 1131.05 235.986 1155.84C260.783 1180.64 301.167 1180.64 325.964 1155.84L359.972 1121.84C333.758 1284.79 192.768 1409.48 22.731 1409.48C-166.081 1409.48 -319.469 1256.1 -319.469 1067.28V728.981C-319.469 540.169 -166.081 386.782 22.731 386.782C191.706 386.782 337.3 512.538 361.389 679.387C368.119 724.73 410.274 755.904 455.263 749.527C500.607 742.797 531.78 700.996 525.404 655.653C489.625 408.036 273.536 220.996 22.731 220.996C-257.476 220.996 -485.256 448.774 -485.256 728.981" fill="#0040BD"/>
        <path d="M135.026 899.381C135.026 958.894 86.8483 1007.07 27.3353 1007.07C-32.1778 1007.07 -80.3551 958.894 -80.3551 899.381C-80.3551 839.868 -32.1778 791.691 27.3353 791.691C86.8483 791.691 135.026 839.868 135.026 899.381Z" fill="#0040BD"/>
        <path d="M-60.5226 -67.7098C-60.5226 -22.0123 -23.327 15.1833 22.3705 15.1833C415.228 15.1833 734.756 334.711 734.756 727.567V1068.7C734.756 1461.56 415.228 1781.09 22.3705 1781.09C-370.487 1781.09 -690.015 1461.56 -690.015 1068.7V727.567C-690.015 681.87 -727.211 644.674 -772.908 644.674C-818.606 644.674 -855.802 681.87 -855.802 727.567V1068.7C-855.802 1552.96 -461.882 1946.87 22.3705 1946.87C506.623 1946.87 900.543 1552.96 900.543 1068.7V727.567C900.543 243.316 506.623 -150.603 22.3705 -150.603C-23.327 -150.603 -60.5226 -113.407 -60.5226 -67.7098Z" fill="white" fill-opacity="0.93"/>
        <path d="M-485.61 728.981V1067.28C-485.61 1347.49 -257.831 1575.27 22.3769 1575.27C275.662 1575.27 486.083 1389.29 523.987 1146.63L533.552 1155.84C558.349 1180.64 598.732 1180.64 623.53 1155.84C648.327 1131.05 648.327 1090.66 623.53 1065.87L519.736 962.073L429.758 871.741L339.78 961.719L235.986 1065.87C211.189 1090.66 211.189 1131.05 235.986 1155.84C260.783 1180.64 301.167 1180.64 325.964 1155.84L359.972 1121.84C333.758 1284.79 192.768 1409.48 22.731 1409.48C-166.081 1409.48 -319.469 1256.1 -319.469 1067.28V728.981C-319.469 540.169 -166.081 386.782 22.731 386.782C191.706 386.782 337.3 512.538 361.389 679.387C368.119 724.73 410.274 755.904 455.263 749.527C500.607 742.797 531.78 700.996 525.404 655.653C489.625 408.036 273.536 220.996 22.731 220.996C-257.476 220.996 -485.256 448.774 -485.256 728.981" fill="white" fill-opacity="0.93"/>
        <path d="M135.026 899.381C135.026 958.894 86.8483 1007.07 27.3353 1007.07C-32.1778 1007.07 -80.3551 958.894 -80.3551 899.381C-80.3551 839.868 -32.1778 791.691 27.3353 791.691C86.8483 791.691 135.026 839.868 135.026 899.381Z" fill="white" fill-opacity="0.93"/>
                 </g>
    <defs>
        <clipPath id="clip0_554_50918">
            <rect width="904" height="867" fill="white"/>
        </clipPath>
    </defs>
</svg>
