<svg id="SvgjsSvg1001" width="288" height="288" xmlns="http://www.w3.org/2000/svg" version="1.1" xmlns:xlink="http://www.w3.org/1999/xlink" xmlns:svgjs="http://svgjs.com/svgjs"><defs id="SvgjsDefs1002"></defs><g id="SvgjsG1008"><svg xmlns="http://www.w3.org/2000/svg" viewBox="0 0 512 512" width="288" height="288"><path fill="#ffffff" d="M233 0.424377C188.139 6.33191 147.828 19.1693 110 44.6697C83.4376 62.5761 60.4116 86.3928 42.6667 113C-26.608 216.872 -10.0537 361.668 83 445.83C112.028 472.085 146.554 491.121 184 502.279C219.058 512.725 256.875 514.584 293 509.718C328.874 504.885 364.839 491.736 395 471.667C427.522 450.027 455.291 422.582 475.55 389C542.612 277.836 514.102 129.934 411 51.2346C385.953 32.1156 357.256 17.9775 327 9.29089C297.604 0.851318 263.531 -3.59613 233 0.424377z" class="color01ab95 svgShape"></path><path fill="#000000" d="M184 9L185 10L184 9M345 15L346 16L345 15M364 23L365 24L364 23M378 30L379 31L378 30M390 37L391 38L390 37M74 74L75 75L74 74M448 86L449 87L448 86z" class="color06faf9 svgShape"></path><path fill="#000000" d="M185.667 92.3333L186.333 92.6667L185.667 92.3333z" class="color5cc9bb svgShape"></path><path fill="#000000" d="M169 126C148.919 126 127.637 124.395 115.468 144C104.782 161.215 109 185.584 109 205L109 341C109 360.052 104.127 386.877 116.529 403C133.065 424.496 161.026 420 185 420C243.607 420 302.412 421.421 361 419.985C365.94 419.864 371.326 419.1 376 417.452C408.754 405.9 403 369.59 403 342L403 202C403 182.318 407.344 157.627 394.471 141.001C381.468 124.208 361.939 126 343 126C343 118.919 344.267 110.524 341 104C334.099 90.2203 313.879 88.1639 304.853 101.04C299.782 108.275 301 117.661 301 126L211 126C211 117.224 212.236 107.432 206.442 100.043C197.066 88.088 177.651 90.7193 171 104C167.733 110.524 169 118.919 169 126z" class="colorfbfefd svgShape"></path><path fill="#000000" d="M193.667 92.3333L194.333 92.6667L193.667 92.3333M317.667 92.3333L318.333 92.6667L317.667 92.3333M325.667 92.3333L326.333 92.6667L325.667 92.3333M182 93L183 94L182 93M197 93L198 94L197 93M314 93L315 94L314 93M329 93L330 94L329 93z" class="color5cc9bb svgShape"></path><path fill="#000000" d="M454 93L455 94L454 93M56 94L57 95L56 94z" class="color06faf9 svgShape"></path><path fill="#000000" d="M180 94L181 95L180 94M199 94L200 95L199 94M312 94L313 95L312 94M331 94L332 95L331 94M178 95L179 96L178 95M201 95L202 96L201 95M310 95L311 96L310 95M333 95L334 96L333 95M309 96L310 97L309 96M175 97L176 98L175 97M174 98L175 99L174 98M337 98L338 99L337 98M172 101L173 102L172 101M207 101L208 102L207 101M304 101L305 102L304 101M339 101L340 102L339 101M171 102L172 103L171 102M340 102L341 103L340 102M170 104L171 105L170 104M209.333 104.667L209.667 105.333L209.333 104.667M302.333 104.667L302.667 105.333L302.333 104.667M341 104L342 105L341 104M169 107L170 108L169 107M187 107L188 108L187 107z" class="color5cc9bb svgShape"></path><path fill="#ffffff" d="M188.058 107.786C183.35 109.443 184.002 114.999 184 119C183.995 129.915 182.406 142.211 184.148 152.981C184.752 156.713 188.055 159.288 191.891 158.012C196.502 156.479 195.993 150.889 196 147C196.018 136.206 197.107 124.728 195.891 114.004C195.44 110.02 192.528 106.213 188.058 107.786z" class="color01ab95 svgShape"></path><path fill="#000000" d="M192 107L193 108L192 107M210.333 107.667L210.667 108.333L210.333 107.667M301.333 107.667L301.667 108.333L301.333 107.667M319 107L320 108L319 107z" class="color5cc9bb svgShape"></path><path fill="#ffffff" d="M320.109 107.786C315.532 109.436 316.007 115.081 316 119C315.982 129.795 314.218 142.376 316.228 152.981C316.931 156.687 320.082 159.266 323.942 158.012C328.682 156.473 327.998 150.971 328 147C328.005 136.078 329.583 123.795 327.852 113.015C327.259 109.323 324.004 106.382 320.109 107.786z" class="color01ab95 svgShape"></path><path fill="#000000" d="M324 107L325 108L324 107M342 107L343 108L342 107M185 108L186 109L185 108M317 108L318 109L317 108M326 108L327 109L326 108M184 109L185 110L184 109M327 109L328 110L327 109M195 110L196 111L195 110M316 110L317 111L316 110M183 111L183 155L184 155C184 142.52 187.81 122.463 183 111M328 111L328 155L329 155C329 142.52 332.81 122.463 328 111M168 112L168 125L145 125L145 126L169 126L168 112M343 112L343 126L367 126L367 125L344 125L343 112z" class="color5cc9bb svgShape"></path><path fill="#000000" d="M42 113L43 114L42 113z" class="color06faf9 svgShape"></path><path fill="#000000" d="M196 113L196 153L197 153C197 141.566 200.411 123.512 196 113M315 113L315 153L316 153C316 141.566 319.411 123.512 315 113z" class="color5cc9bb svgShape"></path><path fill="#000000" d="M472 118L473 119L472 118z" class="color06faf9 svgShape"></path><path fill="#000000" d="M211 125L211 126L301 126L273 125L211 125M139 126L139 127L142 127L139 126M370 126L370 127L373 127L370 126M136.667 127.333L137.333 127.667L136.667 127.333M374.667 127.333L375.333 127.667L374.667 127.333M133.667 128.333L134.333 128.667L133.667 128.333M377.667 128.333L378.333 128.667L377.667 128.333M131 129L132 130L131 129M380 129L381 130L380 129M129 130L130 131L129 130M382 130L383 131L382 130M128 131L129 132L128 131M383 131L384 132L383 131M126 132L127 133L126 132M385 132L386 133L385 132M125 133L126 134L125 133M386 133L387 134L386 133M389 135L390 136L389 135M121 136L122 137L121 136M390 136L391 137L390 136M120 137L121 138L120 137M391 137L392 138L391 137z" class="color5cc9bb svgShape"></path><path fill="#000000" d="M483 137L484 138L483 137z" class="color06faf9 svgShape"></path><path fill="#000000" d="M119 138L120 139L119 138M392 138L393 139L392 138M393 139L394 140L393 139M145 140L145 141L168 141L168 154L169 154L169 140L145 140M211 140L211 141L301 141L273 140L211 140M343 140L343 154L344 154L344 141L367 141L343 140M141.667 141.333L142.333 141.667L141.667 141.333z" class="color5cc9bb svgShape"></path><path fill="#ffffff" d="M124 182L388 182C388 175.16 388.806 167.741 387.532 161C383.357 138.908 361.185 141 344 141C344 148.834 344.353 157.377 339.442 163.999C329.351 177.607 310.602 176.523 302.84 161C299.861 155.044 301 147.469 301 141L211 141C211 147.469 212.139 155.044 209.16 161C201.398 176.523 182.649 177.607 172.558 163.999C167.647 157.377 168 148.835 168 141C151.167 141 129.409 138.741 124.529 160C122.943 166.909 124 174.939 124 182z" class="color01ab95 svgShape"></path><path fill="#000000" d="M369.667 141.333L370.333 141.667L369.667 141.333M116 142L117 143L116 142M139 142L140 143L139 142M372 142L373 143L372 142M395 142L396 143L395 142M115 143L116 144L115 143M137 143L138 144L137 143M374 143L375 144L374 143M396 143L397 144L396 143M135 144L136 145L135 144M376 144L377 145L376 144M114 145L115 146L114 145M397 145L398 146L397 145z" class="color5cc9bb svgShape"></path><path fill="#000000" d="M487 145L488 146L487 145z" class="color06faf9 svgShape"></path><path fill="#000000" d="M132 146L133 147L132 146M379 146L380 147L379 146M113 147L114 148L113 147M131 147L132 148L131 147M380 147L381 148L380 147M398 147L399 148L398 147M130 148L131 149L130 148M381 148L382 149L381 148M112 149L113 150L112 149M129 149L130 150L129 149M399 149L400 150L399 149M111 151L112 152L111 151M383 151L384 152L383 151M400 151L401 152L400 151M127 152L128 153L127 152M384 152L385 153L384 152M110 154L111 155L110 154M126 154L127 155L126 154M385 154L386 155L385 154M401 154L402 155L401 154M195 155L196 156L195 155M316 155L317 156L316 155M125 156L126 157L125 156M184 156L185 157L184 156M386 156L387 157L386 156M109 157L109 160L110 160L109 157M169.333 157.667L169.667 158.333L169.333 157.667M185 157L186 158L185 157M210.333 157.667L210.667 158.333L210.333 157.667M301.333 157.667L301.667 158.333L301.333 157.667M326 157L327 158L326 157M342.333 157.667L342.667 158.333L342.333 157.667M402 157L402 160L403 160L402 157M124.333 158.667L124.667 159.333L124.333 158.667M187.667 158.333L188.333 158.667L187.667 158.333M191.667 158.333L192.333 158.667L191.667 158.333M319.667 158.333L320.333 158.667L319.667 158.333M323.667 158.333L324.333 158.667L323.667 158.333M387.333 159.667L387.667 160.333L387.333 159.667M170.333 160.667L170.667 161.333L170.333 160.667M209 160L210 161L209 160M302 160L303 161L302 160M341.333 160.667L341.667 161.333L341.333 160.667M208 162L209 163L208 162M303 162L304 163L303 162M123 163L123 183L388 183L388 182L124 182L123 163M172 164L173 165L172 164M207 164L208 165L207 164M304 164L305 165L304 164M339 164L340 165L339 164M206 165L207 166L206 165M305 165L306 166L305 165M388 165L388 182L389 182L388 165M177 169L178 170L177 169M202 169L203 170L202 169M309 169L310 170L309 169M334 169L335 170L334 169M178 170L179 171L178 170M201 170L202 171L201 170M310 170L311 171L310 170M333 170L334 171L333 170M180 171L181 172L180 171M199 171L200 172L199 171M312 171L313 172L312 171M331 171L332 172L331 171M182 172L183 173L182 172M196.667 172.333L197.333 172.667L196.667 172.333M314.667 172.333L315.333 172.667L314.667 172.333M329 172L330 173L329 172M185 173L185 174L189 174L185 173M191 173L191 174L195 174L191 173M317 173L317 174L321 174L317 173M323 173L323 174L327 174L323 173z" class="color5cc9bb svgShape"></path><path fill="#000000" d="M500 178L501 179L500 178M9 184L10 185L9 184z" class="color06faf9 svgShape"></path><path fill="#000000" d="M123 383L124 383L124 198L388 198L388 380C392.607 369.02 389 349.944 389 338L389 241L389 209C389 206.02 390.073 200.147 387.397 198.028C384.948 196.088 379.91 197 377 197L351 197L248 197L155 197C149.059 197 127.853 193.773 124.028 198.603C121.699 201.543 123 208.469 123 212L123 247L123 383z" class="color5cc9bb svgShape"></path><path fill="#ffffff" d="M124 198L124 339C124 354.259 118.845 381.123 128.305 393.961C140.036 409.881 164.747 405 182 405L328 405C345.763 405 372.771 410.461 384.031 393C392.991 379.106 388 352.994 388 337L388 198L124 198z" class="color01ab95 svgShape"></path><path fill="#000000" d="M508 211L509 212L508 211M1 223L2 224L1 223z" class="color06faf9 svgShape"></path><path fill="#000000" d="M252 223L253 224L252 223z" class="color5cc9bb svgShape"></path><path fill="#000000" d="M249 256L237 256C237 249.723 239.117 238.565 235.142 233.279C232.118 229.258 225.951 229.804 223.573 234.133C220.319 240.057 222 249.463 222 256C192.267 257.277 195 282.242 195 305C189.776 305 184.131 304.405 179 305.519C151.448 311.496 161.991 341.675 158.852 360.981C158.085 365.697 134.823 370.779 149.109 378.821C153.592 381.345 161.027 380 166 380L207 380C257.006 380 308.104 383.083 358 379.956C363.209 379.63 368.329 375.884 366.091 370.059C363.776 364.034 355.957 368.242 353.603 362.852C345.26 343.742 364.198 312.691 333 305.529C327.9 304.359 322.203 305 317 305C317 282.242 319.733 257.277 290 256C290 249.463 291.681 240.057 288.427 234.133C286.049 229.804 279.882 229.258 276.858 233.279C272.883 238.565 275 249.723 275 256L263 256C263 247.486 264.955 236.231 262.566 228.044C261.218 223.425 255.191 221.554 251.434 224.742C245.648 229.65 249 248.936 249 256z" class="colorfbfefd svgShape"></path><path fill="#000000" d="M259 223L260 224L259 223M249 226L250 227L249 226M262 226L263 227L262 226M248 228L248 256L249 256L248 228M263 228L263 256L264 256L263 228M226.667 230.333L227.333 230.667L226.667 230.333M231.667 230.333L232.333 230.667L231.667 230.333M279.667 230.333L280.333 230.667L279.667 230.333M284.667 230.333L285.333 230.667L284.667 230.333M235 232L236 233L235 232M223 233L224 234L223 233M288 233L289 234L288 233M236.333 234.667L236.667 235.333L236.333 234.667M275.333 234.667L275.667 235.333L275.333 234.667M222.333 235.667L222.667 236.333L222.333 235.667M289.333 235.667L289.667 236.333L289.333 235.667M213 256L213 257L217 257L213 256M295 256L295 257L299 257L295 256M209.667 257.333L210.333 257.667L209.667 257.333M301 257L302 258L301 257M207 258L208 259L207 258M304 258L305 259L304 258M204 260L205 261L204 260M307 260L308 261L307 260M199 265L200 266L199 265M312 265L313 266L312 265M198 266L199 267L198 266M313 266L314 267L313 266M197 268L198 269L197 268M314 268L315 269L314 268M196 270L197 271L196 270M315 270L316 271L315 270M215 271L216 272L215 271z" class="color5cc9bb svgShape"></path><path fill="#ffffff" d="M210 304L302 304C302 296.691 305.168 279.183 299.436 273.728C295.152 269.651 286.368 271 281 271L232 271C226.315 271 216.98 269.271 212.514 273.653C206.815 279.243 210 296.556 210 304z" class="color01ab95 svgShape"></path><path fill="#000000" d="M294 271L294 272L297 272L294 271M213 272L214 273L213 272M298 272L299 273L298 272M195.333 273.667L195.667 274.333L195.333 273.667M316.333 273.667L316.667 274.333L316.333 273.667M210.333 275.667L210.667 276.333L210.333 275.667M301.333 276.667L301.667 277.333L301.333 276.667z" class="color5cc9bb svgShape"></path><path fill="#000000" d="M511 276L512 277 511 276zM510 286L511 287 510 286M2 295L3 296 2 295M3 301L4 302 3 301z" class="color06faf9 svgShape"></path><path fill="#000000" d="M181 304L181 305L195 305L181 304M210 304L210 305L302 305L274 304L210 304M317 304L317 305L331 305L317 304M177.667 305.333L178.333 305.667L177.667 305.333M333.667 305.333L334.333 305.667L333.667 305.333M175 306L176 307L175 306M336 306L337 307L336 306M338 307L339 308L338 307M171 308L172 309L171 308M340 308L341 309L340 308M169 309L170 310L169 309M168 310L169 311L168 310M343 310L344 311L343 310z" class="color5cc9bb svgShape"></path><path fill="#000000" d="M5 311L6 312L5 311z" class="color06faf9 svgShape"></path><path fill="#000000" d="M167 311L168 312L167 311M344 311L345 312L344 311M166 312L167 313L166 312M345 312L346 313L345 312M165 313L166 314L165 313M346 313L347 314L346 313M164 314L165 315L164 314M347 314L348 315L347 314M162 317L163 318L162 317M349 317L350 318L349 317M161 319L162 320L161 319M182.667 319.333L183.333 319.667L182.667 319.333z" class="color5cc9bb svgShape"></path><path fill="#ffffff" d="M174 365L338 365C338 354.727 342.373 330.937 334.772 323.225C327.134 315.476 308.954 319 299 319L212 319C202.441 319 185.91 315.824 178.109 322.419C169.444 329.744 174 354.501 174 365z" class="color01ab95 svgShape"></path><path fill="#000000" d="M328.667 319.333L329.333 319.667L328.667 319.333M350 319L351 320L350 319M180 320L181 321L180 320M331 320L332 321L331 320M160 321L161 322L160 321M178 321L179 322L178 321M333 321L334 322L333 321M351.333 321.667L351.667 322.333L351.333 321.667M177 322L178 323L177 322M334 322L335 323L334 322M176 323L177 324L176 323M335 323L336 324L335 323M159.333 324.667L159.667 325.333L159.333 324.667M175 324L176 325L175 324M336 324L337 325L336 324M352 324L352 327L353 327L352 324M174 326L175 327L174 326M337 326L338 327L337 326M158 330L158 365L159 365L158 330M173 330L173 365L174 365L173 330M338 330L338 365L339 365L338 330z" class="color5cc9bb svgShape"></path><path fill="#000000" d="M15 345L16 346L15 345z" class="color06faf9 svgShape"></path><path fill="#000000" d="M149 365L149 366L158 366L149 365M174 365L174 366L338 366C325.355 360.694 302.777 365 289 365L174 365M354 365L354 366L362 366L354 365M146 367L147 368L146 367M145 369L146 370L145 369M366.333 369.667L366.667 370.333L366.333 369.667M145 375L146 376L145 375M366 375L367 376L366 375M146 377L147 378L146 377M365 377L366 378L365 377M147 378L148 379L147 378M364 378L365 379L364 378M149 379L150 380L149 379M362 379L363 380L362 379M109 385L109 388L110 388L109 385M124.333 385.667L124.667 386.333L124.333 385.667M387 385L388 386L387 385M402 385L402 388L403 388L402 385M386 388L387 389L386 388M125 389L126 390L125 389z" class="color5cc9bb svgShape"></path><path fill="#000000" d="M37 390L38 391L37 390z" class="color06faf9 svgShape"></path><path fill="#000000" d="M110.333 390.667L110.667 391.333L110.333 390.667M385 390L386 391L385 390M401.333 390.667L401.667 391.333L401.333 390.667M126 391L127 392L126 391M384 392L385 393L384 392M111 393L112 394L111 393M400 393L401 394L400 393M128 394L129 395L128 394M383 394L384 395L383 394M129 395L130 396L129 395M382 395L383 396L382 395M112 396L113 397L112 396M130 396L131 397L130 396M381 396L382 397L381 396M399 396L400 397L399 396M380 397L381 398L380 397M113 398L114 399L113 398M132 398L133 399L132 398M379 398L380 399L379 398M398 398L399 399L398 398M133 399L134 400L133 399M378 399L379 400L378 399z" class="color5cc9bb svgShape"></path><path fill="#000000" d="M468 399L469 400L468 399z" class="color06faf9 svgShape"></path><path fill="#000000" d="M134 400L135 401L134 400M115 401L116 402L115 401M136 401L137 402L136 401M375 401L376 402L375 401M396 401L397 402L396 401M138 402L139 403L138 402M373 402L374 403L373 402M140 403L141 404L140 403M371 403L372 404L371 403M117 404L118 405L117 404M143 404L143 405L146 405L143 404M366 404L366 405L369 405L366 404M394 404L395 405L394 404M118 405L119 406L118 405M393 405L394 406L393 405M119 406L120 407L119 406M392 406L393 407L392 406M120 407L121 408L120 407M391 407L392 408L391 407M121 408L122 409L121 408M390 408L391 409L390 408M122 409L123 410L122 409M389 409L390 410L389 409M123 410L124 411L123 410M388 410L389 411L388 410M124 411L125 412L124 411M387 411L388 412L387 411M127 413L128 414L127 413M384 413L385 414L384 413M129 414L130 415L129 414M382 414L383 415L382 414M131 415L132 416L131 415M380 415L381 416L380 415M133 416L134 417L133 416M378 416L379 417L378 416M135.667 417.333L136.333 417.667L135.667 417.333M376 417L377 418L376 417M138.667 418.333L139.333 418.667L138.667 418.333M372.667 418.333L373.333 418.667L372.667 418.333M142 419L142 420L146 420L142 419M366 419L366 420L370 420L366 419z" class="color5cc9bb svgShape"></path><path fill="#000000" d="M453 419L454 420L453 419M63 425L64 426L63 425M86 448L87 449L86 448M419 453L420 454L419 453M102 461L103 462L102 461M109 466L110 467L109 466M399 468L400 469L399 468M383 478L384 479L383 478M137 483L138 484L137 483M310 506L311 507L310 506M235 511L236 512L235 511z" class="color06faf9 svgShape"></path></svg></g></svg>