<svg id="calendar" xmlns="http://www.w3.org/2000/svg" width="15.183" height="15.183" viewBox="0 0 15.183 15.183">
  <path id="Tracé_42" data-name="Tracé 42" d="M.949,5.1v9.489a.949.949,0,0,0,.949.949H13.285a.949.949,0,0,0,.949-.949V5.1ZM1.9,2.25A1.9,1.9,0,0,0,0,4.148V14.586a1.9,1.9,0,0,0,1.9,1.9H13.285a1.9,1.9,0,0,0,1.9-1.9V4.148a1.9,1.9,0,0,0-1.9-1.9Z" transform="translate(0 -1.301)" fill="#fff" fill-rule="evenodd"/>
  <path id="Tracé_43" data-name="Tracé 43" d="M7.224,0A.474.474,0,0,1,7.7.474V.949a.474.474,0,1,1-.949,0V.474A.474.474,0,0,1,7.224,0Zm8.54,0a.474.474,0,0,1,.474.474V.949a.474.474,0,1,1-.949,0V.474A.474.474,0,0,1,15.765,0Z" transform="translate(-3.903 0)" fill="#fff" fill-rule="evenodd"/>
</svg>
