<svg id="SvgjsSvg1001" width="15.679" height="15.459" xmlns="http://www.w3.org/2000/svg">
  <defs id="SvgjsDefs1002"></defs>
  <g id="SvgjsG1008">
    <svg xmlns="http://www.w3.org/2000/svg" viewBox="0 0 512 512" width="15.679" height="15.459">
      <path d="M4625 4805 c-5 -2 -23 -6 -40 -10 -23 -5 -273 -249 -1027 -1003l-998 -997 -992 992 c-752 751 -1000 993 -1023 998 -16 4 -36 9 -44 11 -27 8
-96 -19 -127 -50 -42 -42 -59 -102 -44 -158 10 -39 114 -146 1003 -1036 l992
-992 -992 -993 c-545 -545 -996 -1002 -1002 -1014 -6 -12 -11 -46 -11 -75 0
-97 61 -158 158 -158 29 0 63 5 75 11 12 6 469 457 1015 1003 l992 991 993
-991 c545 -546 1002 -997 1014 -1003 12 -6 46 -11 76 -11 63 0 110 26 140 78
22 38 26 116 7 153 -7 13 -458 471 -1004 1017 l-991 992 991 993 c546 545 997
1002 1003 1014 20 39 14 126 -12 163 -32 48 -111 87 -152 75z" transform="matrix(.1 0 0 -.1 0 512)" fill="#e23109"
            class="color000 svgShape"></path>
    </svg>
  </g>
</svg>
