<svg id="SvgjsSvg1001" width="288" height="288" xmlns="http://www.w3.org/2000/svg" version="1.1" xmlns:xlink="http://www.w3.org/1999/xlink" xmlns:svgjs="http://svgjs.com/svgjs"><defs id="SvgjsDefs1002"></defs><g id="SvgjsG1008"><svg xmlns="http://www.w3.org/2000/svg" viewBox="0 0 512 512" width="288" height="288"><path fill="#151313" d="M1 382L2 382C11.1135 369.062 24.8116 358.188 36 347C40.4001 342.6 48.1071 337.282 49.6821 331C52.9613 317.92 50 300.499 50 287L50 186C50 147.608 50.0819 110.312 79.0147 81.0038C109.809 49.8092 148.213 50 189 50L286 50C299.801 50 317.629 53.0344 331 49.6821C337.282 48.1071 342.6 40.4001 347 36C358.188 24.8116 369.062 11.1135 382 2C373.085 -3.33923 355.193 0 345 0L252 0L173 0C140.39 0 109.58 0.414154 80 16.3094C68.0199 22.7471 56.8531 30.4762 47.0394 39.9143C-15.4354 99.9984 0 189.194 0 268L0 341C0 354.363 -1.43768 368.839 1 382z" class="color2089f6 svgShape"></path><path fill="#151313" d="M372 0L373 1 372 0zM333 50C352.319 50 372.363 49.1218 391 55.0286 400.187 57.9401 409.018 62.2933 417 67.6713 464.163 99.4468 462 150.537 462 201L462 284C462 334.375 471.052 392.94 431.996 431.996 392.92 471.072 334.392 462 284 462L201 462C150.771 462 100.533 464.179 68.2083 418 62.5204 409.874 58.0235 400.45 55.0285 391 49.135 372.405 50 352.284 50 333 36.6959 342.372 25.5059 356.494 14 368 9.94414 372.056 2.73486 377.08 1.52315 383-.36331 392.217 6.00664 406.424 9 415 22.6083 453.99 54.4035 485.115 92 501.128 127.038 516.052 165.825 512 203 512L318 512C337.415 512 357.676 513.67 377 511.83 411.58 508.537 444.041 493.11 468.576 468.576 493.119 444.032 508.536 411.592 511.83 377 513.67 357.676 512 337.415 512 318L512 204C512 167.062 516.322 127.857 501.572 93 486.047 56.3115 457.705 27.0609 421 11.2809 411.529 7.20914 393.487-.62323 383 1.52313 377.08 2.73483 372.056 9.94412 368 14 356.494 25.5059 342.372 36.696 333 50z" class="color1065d1 svgShape"></path><path fill="#151313" d="M386 1L387 2L386 1M395.667 3.33334L396.333 3.66666L395.667 3.33334M398 4L399 5L398 4M400 4L401 5L400 4M407 6L408 7L407 6M410 7L411 8L410 7z" class="color2089f6 svgShape"></path><path fill="#151313" d="M423 12L424 13L423 12z" class="color010cec svgShape"></path><path fill="#151313" d="M433 17L434 18L433 17M440 21L441 22L440 21z" class="color2089f6 svgShape"></path><path fill="#151313" d="M54 33L55 34L54 33z" class="color01ffff svgShape"></path><path fill="#151313" d="M457 33L458 34L457 33z" class="color2089f6 svgShape"></path><path fill="#151313" d="M44 42L45 43L44 42z" class="color01ffff svgShape"></path><path fill="#151313" d="M467 42L468 43L467 42z" class="color010cec svgShape"></path><path fill="#151313" d="M468 43L469 44L468 43z" class="color2089f6 svgShape"></path><path fill="#151313" d="M42 44L43 45L42 44z" class="color01ffff svgShape"></path><path fill="#151313" d="M469 44L470 45L469 44z" class="color010cec svgShape"></path><path fill="#ffffff" d="M149 50.4244C134.528 52.3245 121.505 53.4053 108 59.7809C99.6365 63.7292 92.0712 68.6317 85 74.5903C47.8906 105.861 50 150.951 50 195L50 292C50 335.105 42.6187 385.475 70.5031 422C101.091 462.065 145.272 462 191 462L293 462C320.276 462 348.968 464.444 376 460.572C414.036 455.123 446.938 427.107 457.573 390C464.078 367.301 462 342.379 462 319L462 206C462 167.121 466.734 125.474 442.961 92C413.393 50.3679 367.98 50 322 50L229 50C202.93 50 174.838 47.0318 149 50.4244z" class="color010101 svgShape"></path><path fill="#151313" d="M33 54L34 55L33 54z" class="color01ffff svgShape"></path><path fill="#151313" d="M478 54L479 55L478 54z" class="color010cec svgShape"></path><path fill="#151313" d="M484 62L485 63L484 62z" class="color2089f6 svgShape"></path><path fill="#151313" d="M426 74L427 75L426 74z" class="color010cec svgShape"></path><path fill="#151313" d="M74 85L75 86L74 85z" class="color01ffff svgShape"></path><path fill="#151313" d="M437 85L438 86L437 85z" class="color010cec svgShape"></path><path fill="#151313" d="M498 86L499 87L498 86M504 101L505 102L504 101z" class="color2089f6 svgShape"></path><path fill="#151313" d="M212 111L213 112L212 111z" class="color1065d1 svgShape"></path><path fill="#151313" d="M177 216L178 216C178 200.096 191.367 191.633 202 181C224.295 158.705 252.861 136.751 271 111C251.623 111 226.536 106.805 208 112.746C166.043 126.195 177 181.99 177 216z" class="color2089f6 svgShape"></path><path fill="#151313" d="M271 112.028C262.744 116.156 255.486 126.514 249 133L202 180C195.141 186.859 181.999 195.791 178.603 205C172.726 220.937 177 245.168 177 262C177 281.413 174.255 302.906 187.468 318.996C200.439 334.793 219.319 335 238 335L331 335C346.021 335 363.105 337.12 377 330.19C410.944 313.26 401 266.253 401 235L401 174C401 149.091 400.669 123.72 373 113.439C356.3 107.233 333.633 111 316 111C304.05 111 281.706 106.675 271 112.028z" class="color1065d1 svgShape"></path><path fill="#151313" d="M366 111L367 112L366 111z" class="color010cec svgShape"></path><path fill="#151313" d="M208 112L209 113L208 112M203 114L204 115L203 114z" class="color1065d1 svgShape"></path><path fill="#151313" d="M375 114L376 115L375 114z" class="color2089f6 svgShape"></path><path fill="#151313" d="M199 116L200 117L199 116z" class="color1065d1 svgShape"></path><path fill="#151313" d="M193 120L194 121L193 120z" class="color010cec svgShape"></path><path fill="#151313" d="M192 121L193 122L192 121M191 122L192 123L191 122z" class="color1065d1 svgShape"></path><path fill="#151313" d="M387 122L388 123L387 122M389 124L390 125L389 124z" class="color2089f6 svgShape"></path><path fill="#151313" d="M187 126L188 127L187 126z" class="color1065d1 svgShape"></path><path fill="#151313" d="M184 130L185 131L184 130M395 132L396 133L395 132z" class="color010cec svgShape"></path><path fill="#151313" d="M286 140L287 141L286 140z" class="color2089f6 svgShape"></path><path fill="#ffffff" d="M268 201C253.98 201 231.678 196.79 219 203.442C202.578 212.059 203.895 235.731 221 242.521C233.995 247.679 254.116 244 268 244C268 257.884 264.321 278.005 269.479 291C276.269 308.105 299.941 309.422 308.558 293C315.21 280.322 311 258.02 311 244C324.774 244 345.154 247.767 358 242.517C374.348 235.836 376.168 213.274 360.999 204.225C348.299 196.648 325.356 201 311 201C311 186.644 315.352 163.701 307.775 151.001C298.726 135.832 276.164 137.652 269.483 154C264.233 166.846 268 187.226 268 201z" class="color010101 svgShape"></path><path fill="#151313" d="M282 141L283 142L282 141z" class="color2089f6 svgShape"></path><path fill="#151313" d="M400 145L401 146L400 145M274 146L275 147L274 146M307 150L308 151L307 150z" class="color010cec svgShape"></path><path fill="#151313" d="M177 151L178 152L177 151z" class="color1065d1 svgShape"></path><path fill="#151313" d="M309 154L310 155L309 154M111 271C123.205 262.403 133.447 249.553 144 239C148.251 234.749 154.383 230.414 154.941 224C156.041 211.371 158.551 188.707 153.637 177C148.302 164.292 131.709 158.767 120.17 167.109C109.54 174.793 111 186.415 111 198L111 271z" class="color2089f6 svgShape"></path><path fill="#151313" d="M117 169L118 170L117 169M116 170L117 171L116 170M115 171L116 172L115 171M150 171L151 172L150 171M152 174L153 175L152 174M112 176L113 177L112 176M153 176L154 177L153 176z" class="color1065d1 svgShape"></path><path fill="#151313" d="M357 202L358 203L357 202z" class="color2089f6 svgShape"></path><path fill="#151313" d="M361 204L362 205L361 204z" class="color010cec svgShape"></path><path fill="#151313" d="M215 205L216 206L215 205z" class="color2089f6 svgShape"></path><path fill="#151313" d="M213 207L214 208L213 207z" class="color010cec svgShape"></path><path fill="#151313" d="M212 208L213 209L212 208M211 209L212 210L211 209M207 218L208 219L207 218z" class="color2089f6 svgShape"></path><path fill="#151313" d="M154 228L124 258C117.404 264.596 111.02 269.159 111 279C110.967 295.204 109.434 312.164 113.375 328C122.323 363.958 151.622 392.232 188 399.551C205.947 403.162 225.747 401 244 401L303 401C312.472 401 323.761 402.669 333 400.468C345.431 397.506 351.076 383.522 347.696 372C342.12 352.991 320.311 357 305 357L237 357C220.366 357 202.997 357.574 188 349.124C153.512 329.692 155 294.457 155 260C155 250.678 157.607 236.596 154 228z" class="color1065d1 svgShape"></path><path fill="#151313" d="M370 229L371 230L370 229M211 235L212 236L211 235M366 236L367 237L366 236z" class="color2089f6 svgShape"></path><path fill="#151313" d="M365 237L366 238L365 237z" class="color010cec svgShape"></path><path fill="#151313" d="M215 239L216 240L215 239M155 297L156 298L155 297z" class="color2089f6 svgShape"></path><path fill="#151313" d="M304 298L305 299L304 298M293 304L294 305L293 304z" class="color010cec svgShape"></path><path fill="#151313" d="M156 306L157 307L156 306z" class="color2089f6 svgShape"></path><path fill="#151313" d="M186 317L187 318L186 317M391 318L392 319L391 318M160 319L161 320L160 319M163 325L164 326L163 325M381 327L382 328L381 327z" class="color010cec svgShape"></path><path fill="#151313" d="M117 340L118 341L117 340M175 340L176 341L175 340M186 348L187 349L186 348z" class="color2089f6 svgShape"></path><path fill="#151313" d="M192 351L193 352L192 351z" class="color010cec svgShape"></path><path fill="#151313" d="M205 355L206 356L205 355z" class="color2089f6 svgShape"></path><path fill="#151313" d="M130 363L131 364L130 363z" class="color010cec svgShape"></path><path fill="#151313" d="M0 369L1 370L0 369z" class="color1065d1 svgShape"></path><path fill="#151313" d="M135 369L136 370L135 369M136 370L137 371L136 370M137 371L138 372L137 371z" class="color2089f6 svgShape"></path><path fill="#151313" d="M0 372L1 373L0 372z" class="color1065d1 svgShape"></path><path fill="#151313" d="M141 375L142 376L141 375z" class="color2089f6 svgShape"></path><path fill="#151313" d="M348 375L349 376L348 375z" class="color010cec svgShape"></path><path fill="#151313" d="M142 376L143 377L142 376z" class="color2089f6 svgShape"></path><path fill="#151313" d="M148 381L149 382L148 381M348 382L349 383L348 382z" class="color010cec svgShape"></path><path fill="#151313" d="M1 386L2 387L1 386M3 396L4 397L3 396M4 398L5 399L4 398M4 400L5 401L4 400z" class="color2089f6 svgShape"></path><path fill="#151313" d="M505 407L506 408L505 407z" class="color010cec svgShape"></path><path fill="#151313" d="M7 410L8 411L7 410M8 413L9 414L8 413M67 417L68 418L67 417z" class="color2089f6 svgShape"></path><path fill="#151313" d="M441 421L442 422L441 421z" class="color010cec svgShape"></path><path fill="#151313" d="M74 426L75 427L74 426z" class="color2089f6 svgShape"></path><path fill="#151313" d="M437 426L438 427L437 426z" class="color010cec svgShape"></path><path fill="#151313" d="M16 431L17 432L16 431M17 433L18 434L17 433z" class="color2089f6 svgShape"></path><path fill="#151313" d="M494 433L495 434L494 433z" class="color010cec svgShape"></path><path fill="#151313" d="M85 437L86 438L85 437z" class="color2089f6 svgShape"></path><path fill="#151313" d="M426 437L427 438L426 437z" class="color010cec svgShape"></path><path fill="#151313" d="M21 440L22 441L21 440z" class="color2089f6 svgShape"></path><path fill="#151313" d="M90 441L91 442L90 441M421 441L422 442L421 441z" class="color010cec svgShape"></path><path fill="#151313" d="M27 449L28 450L27 449z" class="color2089f6 svgShape"></path><path fill="#151313" d="M33 457L34 458L33 457M42 467L43 468L42 467M469 467L470 468L469 467z" class="color010cec svgShape"></path><path fill="#151313" d="M43 468L44 469L43 468z" class="color2089f6 svgShape"></path><path fill="#151313" d="M44 469L45 470L44 469M467 469L468 470L467 469M457 478L458 479L457 478z" class="color010cec svgShape"></path><path fill="#151313" d="M62 484L63 485L62 484z" class="color2089f6 svgShape"></path><path fill="#151313" d="M449 484L450 485L449 484z" class="color010cec svgShape"></path><path fill="#151313" d="M71 490L72 491L71 490M86 498L87 499L86 498M98 503L99 504L98 503z" class="color2089f6 svgShape"></path><path fill="#151313" d="M410 504L411 505L410 504M407 505L408 506L407 505z" class="color010cec svgShape"></path></svg></g></svg>