<svg id="SvgjsSvg1179" width="288" height="288" xmlns="http://www.w3.org/2000/svg" version="1.1" xmlns:xlink="http://www.w3.org/1999/xlink" xmlns:svgjs="http://svgjs.com/svgjs"><defs id="SvgjsDefs1180"></defs><g id="SvgjsG1181"><svg xmlns="http://www.w3.org/2000/svg" viewBox="0 0 512 512" width="288" height="288"><path fill="#ffffff" d="M19 17L20 18L19 17z" class="colorf79617 svgShape"></path><path fill="#ffffff" d="M24 111L24 34L164 34C155.676 30.1237 150.279 20.656 142 17.6034C133.003 14.2862 118.567 17 109 17L47 17C38.2352 17 26.262 14.9079 18 18.1482C0.960411 24.8308 8 62.2072 8 77C8 82.5794 6.47638 90.8972 9.02778 96C11.9003 101.745 18.8324 107.36 24 111z" class="colorf06220 svgShape"></path><path fill="#ffffff" d="M143 17C156.666 36.4003 172.672 34 194 34L277 34C277 45.7263 271.846 74.0925 281.225 82.581C290.466 90.946 317.164 86 329 86L329 166C329 176.512 332.6 191.18 318 191C327.705 211.811 352.252 203.651 371 206.427C398.148 210.448 423.947 223.412 444 242.09C465.354 261.978 480.911 290.117 485.562 319C488.627 338.037 479.901 364.161 501 374C516.969 307.695 481.777 236.005 422 204.944C398.253 192.605 372.513 188 346 188L346 111C346 100.173 348.631 85.3053 345.146 75C341.624 64.5874 328.576 55.576 321 48C312.034 39.0337 300.946 22.8254 289 18.1482C276.733 13.3452 257.102 17 244 17L143 17M9 25L10 26L9 25z" class="coloreb3827 svgShape"></path><path fill="#010101" d="M24 34L24 434L228 434C212.739 409.271 198.083 383.059 198 353C185.703 353 173.284 353.513 161 352.981C156.486 352.785 151.457 350.234 151.457 345C151.457 340.333 155.811 337.424 160 337.059C172.143 336 184.808 337 197 337L199 318C186.409 318 173.565 318.742 161 317.956C156.579 317.679 151.457 315.139 151.457 309.999C151.457 304.516 157.282 301.506 162 301.094C175.464 299.919 189.483 301 203 301L220 260L192 260C182.004 260 166.3 262.968 157.043 258.991C150.152 256.03 149.807 246.607 157.019 243.742C161.884 241.809 168.845 243 174 243L214 243C219.429 243 226.853 244.297 232 242.397C238.236 240.094 246.16 230.339 250 225L209 225C193.863 225 173.581 228.576 159.001 224.566C151.155 222.409 148.485 212.106 157.015 208.742C168.853 204.074 189.283 208 202 208C224.497 208 252.041 212.356 274 207.61C281.9 205.902 289.361 200.47 297 197.695C304.186 195.085 311.517 192.796 319 191.211C321.611 190.658 326.191 190.691 327.972 188.4C331.899 183.349 329 167.286 329 161L329 86C316.894 86 290.288 90.9871 281.225 81.7863C272.058 72.4803 277 46.2197 277 34L24 34M294 46L294 69L317 69L294 46z" class="color010101 svgShape"></path><path fill="#ffffff" d="M343 71L344 72L343 71M286 85L287 86L286 85z" class="colorf06220 svgShape"></path><path fill="#ffffff" d="M8 96L8 282L8 319L8.6034 336L24 352L24 166L24 129L23.3966 112L8 96z" class="colorf79617 svgShape"></path><path fill="#ffffff" d="M84 172L80 172C88.9702 175.764 118.005 176.023 123.442 166.907C128.14 159.03 126 146.792 126 138C126 129.434 128.273 116.649 120.891 110.419C116.649 106.839 111.22 107.002 106 107C94.7328 106.996 80.9663 104.863 70 107.533C65.5718 108.611 62.0412 111.596 60.6528 116.001C58.4949 122.847 57.8012 141.547 61.0278 148C65.5195 156.983 76.9278 164.928 84 172z" class="colorf06220 svgShape"></path><path fill="#ffffff" d="M61 113L62 114L61 113z" class="coloreb3827 svgShape"></path><path fill="#ffffff" d="M256 131L241 115L245 115C238.081 112.097 227.48 114 220 114L166 114C158.988 114.003 146.924 116.939 152.319 126.891C156.124 133.912 171.299 131 178 131L256 131z" class="colorf06220 svgShape"></path><path fill="#ffffff" d="M241 115C251.669 130.146 260.898 131 278 131C284.398 131 293.414 131.745 293.847 122.999C294.207 115.738 287.943 114.077 282 114.004C268.387 113.836 254.503 113.294 241 115z" class="coloreb3827 svgShape"></path><path fill="#ffffff" d="M60 115L61 116L60 115z" class="colorf79617 svgShape"></path><path fill="#ffffff" d="M76 124L76 156L77 156L76 124z" class="coloreb3827 svgShape"></path><path fill="#010101" d="M77 124L77 156L109 156L109 124L77 124z" class="color010101 svgShape"></path><path fill="#ffffff" d="M151 125L152 126L151 125M60 148C60 166.766 64.062 174.52 84 172L60 148z" class="colorf79617 svgShape"></path><path fill="#ffffff" d="M291 165C286.457 160.086 280.37 151.952 274 149.603C266.536 146.852 254.917 149 247 149L187 149C178.326 149 152.779 144.514 151.272 157.001C149.667 170.304 175.174 166 183 166L252 166C264.785 166 278.402 167.339 291 165z" class="colorf06220 svgShape"></path><path fill="#ffffff" d="M275 149C279.055 154.757 285.052 162.05 292 164C293.793 159.079 294.063 155.876 292 151L275 149z" class="coloreb3827 svgShape"></path><path fill="#ffffff" d="M285 149L286 150L285 149z" class="colorf06220 svgShape"></path><path fill="#ffffff" d="M287 149L288 150L287 149z" class="colorf79617 svgShape"></path><path fill="#ffffff" d="M290 151L291 152L290 151z" class="colorf06220 svgShape"></path><path fill="#ffffff" d="M292 152L293 153L292 152M76 156L77 157L76 156z" class="colorf79617 svgShape"></path><path fill="#ffffff" d="M293 160L294 161L293 160z" class="colorf06220 svgShape"></path><path fill="#ffffff" d="M125 161L126 162L125 161M293 161L294 162L293 161z" class="colorf79617 svgShape"></path><path fill="#ffffff" d="M292 162L293 163L292 162M60 164L61 165L60 164z" class="colorf06220 svgShape"></path><path fill="#ffffff" d="M124 165L125 166L124 165M288.667 165.333L289.333 165.667L288.667 165.333z" class="coloreb3827 svgShape"></path><path fill="#ffffff" d="M61 166L62 167L61 166z" class="colorf06220 svgShape"></path><path fill="#ffffff" d="M122 168L123 169L122 168z" class="colorf79617 svgShape"></path><path fill="#ffffff" d="M63 169L64 170L63 169z" class="colorf06220 svgShape"></path><path fill="#ffffff" d="M120 170L121 171L120 170z" class="colorf79617 svgShape"></path><path fill="#ffffff" d="M364 188L365 189L364 188M322 190L323 191L322 190z" class="colorf06220 svgShape"></path><path fill="#ffffff" d="M317 191L318 192L317 191z" class="colorf79617 svgShape"></path><path fill="#ffffff" d="M319 191L320 192L319 191M250 225L231 242.397L207 243L156 243C159.855 248.472 166.555 257.02 173 259.397C185.572 264.032 206.579 260 220 260C212.076 275.06 196.89 294.689 219 305C224.966 291.156 229.57 277.691 238.09 265C259.721 232.777 293.684 213.698 331 206C326.812 200.054 320.123 191.104 312 192.674C298.235 195.334 286.355 205.143 273 207.725C249.482 212.272 220.988 208 197 208L166 208C161.982 208 156.704 207.202 153.653 210.434C148.652 215.729 152.372 223.557 159.001 224.772C174.314 227.577 192.421 225 208 225L250 225M388 192L389 193L388 192z" class="colorf06220 svgShape"></path><path fill="#ffffff" d="M294 198L295 199L294 198M125 210C120.088 208.623 117.795 203.371 113 201.603C109.157 200.187 104.034 201 100 201C89.5095 201 68.3182 196.787 61.7423 207.019C57.1917 214.099 60 228.821 60 237C60 244.079 57.6945 256.066 62.4336 261.892C66.1017 266.401 71.5947 266.973 77 266.999C88.9081 267.057 102.239 268.642 114 266.786C118.123 266.136 121.81 263.642 123.86 259.985C130.85 247.513 125.61 223.75 125 210z" class="colorf79617 svgShape"></path><path fill="#ffffff" d="M114 201L124 211C123.756 205.464 119.208 202.053 114 201z" class="colorf06220 svgShape"></path><path fill="#ffffff" d="M285 202L286 203L285 202z" class="coloreb3827 svgShape"></path><path fill="#ffffff" d="M119 203L120 204L119 203z" class="colorf79617 svgShape"></path><path fill="#ffffff" d="M418 203L419 204L418 203z" class="colorf06220 svgShape"></path><path fill="#ffffff" d="M121 204L122 205L121 204z" class="colorf79617 svgShape"></path><path fill="#ffffff" d="M122 205L123 206L122 205z" class="coloreb3827 svgShape"></path><path fill="#ffffff" d="M334 205L334 206L338 206L334 205z" class="colorf06220 svgShape"></path><path fill="#010101" d="M338 205.424C315.491 208.416 293.992 214.848 275 227.746C259.542 238.244 246.567 251.369 236.344 267C227.342 280.765 220.968 295.932 217.424 312C197.076 404.26 277.867 489.919 371 476.715C389.762 474.054 408.024 467.065 424 456.947C438.13 447.997 450.786 436.603 460.572 423C515.406 346.777 479.5 236.234 388 210C372.209 205.473 354.377 203.248 338 205.424z" class="color010101 svgShape"></path><path fill="#ffffff" d="M328.667 206.333L329.333 206.667L328.667 206.333M275 207L276 208L275 207z" class="coloreb3827 svgShape"></path><path fill="#ffffff" d="M377 207L378 208L377 207z" class="colorf06220 svgShape"></path><path fill="#ffffff" d="M319 208L320 209L319 208M315 209L316 210L315 209z" class="coloreb3827 svgShape"></path><path fill="#ffffff" d="M389 210L390 211L389 210z" class="colorf79617 svgShape"></path><path fill="#ffffff" d="M124 211L125 212L124 211z" class="colorf06220 svgShape"></path><path fill="#ffffff" d="M152 211L153 212L152 211z" class="colorf79617 svgShape"></path><path fill="#ffffff" d="M125 212L126 213L125 212z" class="colorf06220 svgShape"></path><path fill="#ffffff" d="M151 213L152 214L151 213z" class="colorf79617 svgShape"></path><path fill="#ffffff" d="M398 213L399 214L398 213M125 214L125 218L126 218L125 214z" class="colorf06220 svgShape"></path><path fill="#ffffff" d="M403 215L404 216L403 215z" class="colorf79617 svgShape"></path><path fill="#ffffff" d="M76 218L76 250L77 250L76 218z" class="colorfcc90e svgShape"></path><path fill="#010101" d="M77 218L77 250L109 250L109 218L77 218z" class="color010101 svgShape"></path><path fill="#ffffff" d="M289 219L290 220L289 219z" class="coloreb3827 svgShape"></path><path fill="#ffffff" d="M280 224L281 225L280 224M271 230L272 231L271 230z" class="colorf79617 svgShape"></path><path fill="#ffffff" d="M243 231L244 232L243 231M242 232L243 233L242 232z" class="coloreb3827 svgShape"></path><path fill="#ffffff" d="M241 233L242 234L241 233z" class="colorf79617 svgShape"></path><path fill="#ffffff" d="M267 233L268 234L267 233M240 234L241 235L240 234z" class="coloreb3827 svgShape"></path><path fill="#ffffff" d="M262 237L263 238L262 237z" class="colorf79617 svgShape"></path><path fill="#ffffff" d="M302 272L261 272C253.613 272 246.577 271.933 242.228 279.04C237.608 286.592 240 299.467 240 308C240 313.789 238.375 322.792 241.078 328.09C246.903 339.506 264.308 345.676 268 358L274 358L287.039 362.64L324 367C327.017 387.128 351.892 396.624 367.91 384.072C372.923 380.143 374.903 369.966 380.225 367.603C385.076 365.449 392.709 366.304 398 365.575C410.99 363.786 423.527 361.057 436 357L436 397C436 401.99 437.161 408.726 433.566 412.772C428.058 418.972 412.55 416 405 416L324 416L324 417C334.169 417.767 337.163 429.138 346 432.397C352.952 434.96 363.634 433 371 433L423 433C433.671 432.999 444.34 431.332 449.954 420.996C455.13 411.465 453 398.466 453 388C453 375.511 450.572 360.181 453.303 348C454.479 342.756 458.767 337.914 461 333L446 321C439.634 351.354 398.129 344.459 376 351C366.184 330.37 335.46 329.493 326 351C306.505 345.238 269.392 351.39 258.179 329C253.272 319.201 257 299.889 257 289L289 289C289 297.834 286.83 309.48 292.789 316.815C298.509 323.854 306.862 323 315 323L367 323C382.242 323 410.401 328.588 412.826 307C413.431 301.609 414.342 292.672 412.258 287.576C407.712 276.465 391.448 265.448 383 257C377.895 251.895 371.25 242.136 364 240.318C358.361 238.904 351.782 240.306 346 239.91C329.157 238.757 308.456 237.592 302.927 258C301.694 262.554 302 267.329 302 272z" class="colorf06220 svgShape"></path><path fill="#ffffff" d="M342 239L342 240C348.559 240 357.807 238.32 364 240.603C374.865 244.609 385.874 260.874 394 269C399.488 274.489 409.743 281.466 412 289L445 289L445 324L446 324L446 321L460 334C464.693 321.315 464.062 298.272 461.671 285C460.837 280.371 458.094 276.098 453.91 273.84C448.628 270.989 441.791 272 436 272L399 272C399 266.845 399.769 260.962 398.15 256C390.831 233.574 360.214 239 342 239z" class="coloreb3827 svgShape"></path><path fill="#ffffff" d="M375 239L376 240L375 239M441 239L442 240L441 239z" class="colorf06220 svgShape"></path><path fill="#ffffff" d="M319 240L320 241L319 240z" class="colorf79617 svgShape"></path><path fill="#ffffff" d="M384 241L385 242L384 241z" class="colorf06220 svgShape"></path><path fill="#ffffff" d="M157 243L158 244L157 243M172 260C169.227 256.064 160.677 244.156 155.214 244.921C149.328 245.746 151.268 254.935 154.228 257.566C158.621 261.471 166.564 260 172 260z" class="colorf79617 svgShape"></path><path fill="#ffffff" d="M310 245L311 246L310 245z" class="coloreb3827 svgShape"></path><path fill="#ffffff" d="M152 246L153 247L152 246z" class="colorf06220 svgShape"></path><path fill="#ffffff" d="M308 247L309 248L308 247M395 250L396 251L395 250z" class="colorf79617 svgShape"></path><path fill="#ffffff" d="M396 252L397 253L396 252z" class="colorf06220 svgShape"></path><path fill="#ffffff" d="M246 253L247 254L246 253z" class="colorf79617 svgShape"></path><path fill="#ffffff" d="M304 253L305 254L304 253z" class="coloreb3827 svgShape"></path><path fill="#ffffff" d="M477 254L478 255L477 254z" class="colorf06220 svgShape"></path><path fill="#010101" d="M319 272L382 272C382 267.808 383.012 261.841 379.566 258.703C376.044 255.494 370.391 256.002 366 256L336 256C331.468 256 325.941 255.337 322.228 258.514C318.302 261.874 319.001 267.356 319 272z" class="color010101 svgShape"></path><path fill="#ffffff" d="M375 256L376 257L375 256z" class="coloreb3827 svgShape"></path><path fill="#ffffff" d="M153 257L154 258L153 257M479 257L480 258L479 257z" class="colorf06220 svgShape"></path><path fill="#ffffff" d="M381.333 259.667L381.667 260.333L381.333 259.667z" class="coloreb3827 svgShape"></path><path fill="#ffffff" d="M239 262L240 263L239 262z" class="colorf79617 svgShape"></path><path fill="#ffffff" d="M382 263L383 264L382 263M237 265L238 266L237 265M214 270L215 271L214 270z" class="coloreb3827 svgShape"></path><path fill="#ffffff" d="M213 272L214 273L213 272M232 273L233 274L232 273M453 273L454 274L453 273M246 274L247 275L246 274z" class="colorf79617 svgShape"></path><path fill="#ffffff" d="M457 276L458 277L457 276z" class="colorf06220 svgShape"></path><path fill="#ffffff" d="M242 278L243 279L242 278z" class="colorf79617 svgShape"></path><path fill="#ffffff" d="M473 281L474 282L473 281z" class="colorf06220 svgShape"></path><path fill="#ffffff" d="M240 282L241 283L240 282z" class="colorf79617 svgShape"></path><path fill="#ffffff" d="M461 283L462 284L461 283z" class="colorf06220 svgShape"></path><path fill="#010101" d="M257 289C257 300.111 253.155 320.061 258.318 329.996C269.188 350.912 307.065 346.492 326 351C339.353 329.989 362.383 331.063 376 351C394.709 346.546 434.265 350.788 443.91 328.985C448.502 318.606 445 300.289 445 289L413 289C413 300.268 414.956 311.826 404.996 319.606C398.082 325.007 387.257 323 379 323L321 323C312.372 323 302.152 324.722 295.105 318.61C286.732 311.347 289 298.891 289 289L257 289M306 289L306 306L396 306L396 289L306 289z" class="color010101 svgShape"></path><path fill="#ffffff" d="M477 290L478 291L477 290M205 291L203 301C190.003 301 176.996 300.843 164 301.004C158.799 301.068 152.908 302.086 151.449 308.005C150.143 313.302 153.955 317.324 159.001 317.891C172.006 319.352 185.909 318 199 318L197 337C184.454 337 170.388 335.195 158.004 337.148C152.932 337.948 149.863 343.085 151.746 347.981C153.808 353.339 159.208 352.998 164 353L198 353C198.019 381.393 210.533 411.975 228 434L106 434L121 450L117 450L117 451L201 451C213.291 451 229.087 448.331 241 451.318C247.549 452.96 253.625 461.08 259 465.105C269.443 472.925 280.957 479.176 293 484.139C314.582 493.033 339.709 497.048 363 494.83C375.238 493.665 386.96 489.299 399 488C396.772 483.222 391.353 476.235 386 474.773C378.67 472.771 367.609 477.389 360 477.91C344.131 478.997 328.259 476.927 313 472.573C244.021 452.888 197.613 374.771 219 305L205 291z" class="colorf79617 svgShape"></path><path fill="#ffffff" d="M496 292L497 293L496 292z" class="colorf06220 svgShape"></path><path fill="#ffffff" d="M71 294.479C54.1285 297.964 60 326.216 60 339C60 344.451 58.9503 351.244 62.6528 355.786C66.2735 360.229 71.806 359.998 77 360C89.1846 360.005 104.123 362.348 115.999 359.606C120.877 358.48 124.049 354.726 125.291 350C128.083 339.373 126.004 325.95 126 315C125.998 310 126.237 304.372 123.272 300.044C120.456 295.933 115.76 294.441 111 294.09C98.8058 293.191 82.9775 292.005 71 294.479z" class="colorf79617 svgShape"></path><path fill="#ffffff" d="M204 295L205 296L204 295M497 295L498 296L497 295z" class="colorf06220 svgShape"></path><path fill="#ffffff" d="M221 297L222 298L221 297z" class="colorf79617 svgShape"></path><path fill="#ffffff" d="M481 301L482 302L481 301M499 302L500 303L499 302M218.333 306.667L218.667 307.333L218.333 306.667M217 309L218 310L217 309z" class="colorf06220 svgShape"></path><path fill="#ffffff" d="M412 309L413 310L412 309z" class="coloreb3827 svgShape"></path><path fill="#ffffff" d="M76 311L76 344L77 344L76 311z" class="colorfcc90e svgShape"></path><path fill="#010101" d="M77 311L77 344L109 344L109 311L77 311z" class="color010101 svgShape"></path><path fill="#ffffff" d="M217 311L218 312L217 311z" class="colorf06220 svgShape"></path><path fill="#ffffff" d="M410 314L411 315L410 314z" class="colorf79617 svgShape"></path><path fill="#ffffff" d="M216 316L217 317L216 316z" class="colorf06220 svgShape"></path><path fill="#ffffff" d="M292 316L293 317L292 316z" class="coloreb3827 svgShape"></path><path fill="#ffffff" d="M485 318L486 319L485 318z" class="colorf06220 svgShape"></path><path fill="#ffffff" d="M295 319L296 320L295 319M400 322L401 323L400 322z" class="coloreb3827 svgShape"></path><path fill="#ffffff" d="M240 324L241 325L240 324z" class="colorf79617 svgShape"></path><path fill="#ffffff" d="M461 326L462 327L461 326z" class="colorf06220 svgShape"></path><path fill="#ffffff" d="M240 328C240.985 336.041 247.773 341.458 248.856 349C251.243 365.627 249 384.191 249 401C249 410.857 248.657 420.705 257.04 427.61C265.206 434.335 276.154 433 286 433L345 433C331.526 413.872 316.062 416 295 416C287.953 416 272.606 418.912 267.742 412.656C263.22 406.839 266 392.075 266 385C266 378.267 262.917 360.944 269 357C261.763 346.726 250.274 335.237 240 328z" class="colorf79617 svgShape"></path><path fill="#ffffff" d="M461 329L462 330L461 329z" class="colorf06220 svgShape"></path><path fill="#ffffff" d="M258 330L259 331L258 330z" class="colorf79617 svgShape"></path><path fill="#ffffff" d="M197 331L198 332L197 331z" class="colorfcc90e svgShape"></path><path fill="#ffffff" d="M241.333 333.667L241.667 334.333L241.333 333.667z" class="colorf06220 svgShape"></path><path fill="#ffffff" d="M439 334L440 335L439 334z" class="coloreb3827 svgShape"></path><path fill="#ffffff" d="M356 335L357 336L356 335z" class="colorf79617 svgShape"></path><path fill="#ffffff" d="M438 335L439 336L438 335z" class="coloreb3827 svgShape"></path><path fill="#ffffff" d="M264 336L265 337L264 336M341 336L342 337L341 336z" class="colorf79617 svgShape"></path><path fill="#ffffff" d="M8 337L8 415C8 423.833 5.31044 437.694 11.3943 444.906C18.4555 453.277 31.2611 451 41 451C67.3214 451 94.893 453.299 121 450L105 434.603L80 434L24 434L24 378L23.3966 353L8 337z" class="colorfcc90e svgShape"></path><path fill="#ffffff" d="M458 337L459 338L458 337z" class="coloreb3827 svgShape"></path><path fill="#ffffff" d="M267 338L268 339L267 338M364 338L365 339L364 338z" class="colorf79617 svgShape"></path><path fill="#ffffff" d="M487.333 338.667L487.667 339.333L487.333 338.667z" class="colorf06220 svgShape"></path><path fill="#ffffff" d="M269 339L270 340L269 339z" class="colorf79617 svgShape"></path><path fill="#ffffff" d="M244 340L245 341L244 340z" class="coloreb3827 svgShape"></path><path fill="#ffffff" d="M271 340L272 341L271 340z" class="colorf79617 svgShape"></path><path fill="#ffffff" d="M245 341L246 342L245 341z" class="colorf06220 svgShape"></path><path fill="#ffffff" d="M487 341L488 342L487 341z" class="colorf79617 svgShape"></path><path fill="#ffffff" d="M487.333 343.667L487.667 344.333L487.333 343.667z" class="colorf06220 svgShape"></path><path fill="#ffffff" d="M292 346L293 347L292 346z" class="colorf79617 svgShape"></path><path fill="#ffffff" d="M487 346L488 347L487 346z" class="colorf06220 svgShape"></path><path fill="#ffffff" d="M403 347L404 348L403 347z" class="colorf79617 svgShape"></path><path fill="#ffffff" d="M487 351L488 352L487 351z" class="colorf06220 svgShape"></path><path fill="#010101" d="M348.004 352.657C335.929 356.325 341.007 375.476 352.999 372.307C366.051 368.858 360.64 348.817 348.004 352.657z" class="color010101 svgShape"></path><path fill="#ffffff" d="M345 353L346 354L345 353z" class="colorf79617 svgShape"></path><path fill="#ffffff" d="M123 354L124 355L123 354z" class="colorfcc90e svgShape"></path><path fill="#ffffff" d="M357 354L358 355L357 354z" class="colorf79617 svgShape"></path><path fill="#ffffff" d="M358 355L359 356L358 355z" class="coloreb3827 svgShape"></path><path fill="#010101" d="M266 357L266 398C266 402.671 264.616 409.977 268.318 413.566C274.468 419.529 293.902 416 302 416L397 416C405.468 416 427.269 419.864 433.566 413.566C437.275 409.858 436 402.758 436 398L436 357C424.6 359.637 413.657 363.231 402 364.87C395.571 365.773 385.166 364.786 379.419 367.603C374.398 370.064 372.15 380.222 366.985 384.072C350.423 396.417 328.583 386.285 324 367C303.807 367 285.412 361.491 266 357z" class="color010101 svgShape"></path><path fill="#ffffff" d="M273 358L274 359L273 358z" class="colorf79617 svgShape"></path><path fill="#ffffff" d="M486 358L487 359L486 358M503 358L504 359L503 358z" class="colorf06220 svgShape"></path><path fill="#ffffff" d="M117 359L118 360L117 359z" class="colorfcc90e svgShape"></path><path fill="#ffffff" d="M486 360C479.738 409.289 437.859 465.341 386 473C389.074 477.364 394.547 484.882 400 486.211C409.606 488.554 428.382 474.64 436 469.656C470.203 447.276 491.376 413.046 501 374L486 360z" class="colorf06220 svgShape"></path><path fill="#ffffff" d="M282 361L283 362L282 361M340 361L341 362L340 361M286 362L287 363L286 362z" class="colorf79617 svgShape"></path><path fill="#ffffff" d="M296 364L297 365L296 364z" class="coloreb3827 svgShape"></path><path fill="#ffffff" d="M502 365L503 366L502 365z" class="colorf06220 svgShape"></path><path fill="#ffffff" d="M343 369L344 370L343 369z" class="coloreb3827 svgShape"></path><path fill="#ffffff" d="M355 371L356 372L355 371z" class="colorf79617 svgShape"></path><path fill="#ffffff" d="M200 373L201 374L200 373z" class="colorfcc90e svgShape"></path><path fill="#ffffff" d="M375 374L376 375L375 374z" class="colorf79617 svgShape"></path><path fill="#ffffff" d="M483 374L484 375L483 374M500 375L501 376L500 375M371 380L372 381L371 380M334 384L335 385L334 384M479 387L480 388L479 387z" class="coloreb3827 svgShape"></path><path fill="#ffffff" d="M342 388L343 389L342 388z" class="colorf79617 svgShape"></path><path fill="#ffffff" d="M354 389L355 390L354 389M477 392L478 393L477 392M495 393L496 394L495 393z" class="coloreb3827 svgShape"></path><path fill="#ffffff" d="M491 403L492 404L491 403z" class="colorf79617 svgShape"></path><path fill="#ffffff" d="M211 406L212 407L211 406M232 409L233 410L232 409M267 413L268 414L267 413M270 415L271 416L270 415z" class="colorfcc90e svgShape"></path><path fill="#ffffff" d="M465 415L466 416L465 415M451 417L452 418L451 417z" class="colorf79617 svgShape"></path><path fill="#ffffff" d="M463 418L464 419L463 418M481 422L482 423L481 422z" class="coloreb3827 svgShape"></path><path fill="#ffffff" d="M447 424L448 425L447 424M444 427L445 428L444 427z" class="colorf79617 svgShape"></path><path fill="#ffffff" d="M477 428L478 429L477 428z" class="coloreb3827 svgShape"></path><path fill="#ffffff" d="M225 430L226 431L225 430z" class="colorfcc90e svgShape"></path><path fill="#ffffff" d="M433 432L434 433L433 432z" class="colorf79617 svgShape"></path><path fill="#ffffff" d="M452 432L453 433L452 432z" class="coloreb3827 svgShape"></path><path fill="#ffffff" d="M467 441L468 442L467 441z" class="colorf79617 svgShape"></path><path fill="#ffffff" d="M435 448L436 449L435 448z" class="coloreb3827 svgShape"></path><path fill="#ffffff" d="M243 451L244 452L243 451z" class="colorfcc90e svgShape"></path><path fill="#ffffff" d="M424 456L425 457L424 456z" class="colorf79617 svgShape"></path><path fill="#ffffff" d="M450 458L451 459L450 458z" class="coloreb3827 svgShape"></path><path fill="#ffffff" d="M253 460L254 461L253 460z" class="colorfcc90e svgShape"></path><path fill="#ffffff" d="M445 462L446 463L445 462z" class="colorf79617 svgShape"></path><path fill="#ffffff" d="M403 467L404 468L403 467z" class="coloreb3827 svgShape"></path><path fill="#ffffff" d="M398 469L399 470L398 469M389 472L390 473L389 472M429 473L430 474L429 473z" class="colorf79617 svgShape"></path><path fill="#ffffff" d="M382.667 474.333L383.333 474.667L382.667 474.333z" class="colorf06220 svgShape"></path><path fill="#ffffff" d="M275 475L276 476L275 475z" class="colorfcc90e svgShape"></path><path fill="#ffffff" d="M372 476L373 477L372 476z" class="colorf06220 svgShape"></path><path fill="#ffffff" d="M422 477L423 478L422 477z" class="coloreb3827 svgShape"></path><path fill="#ffffff" d="M420 478L421 479L420 478M409 483L410 484L409 483z" class="colorf79617 svgShape"></path><path fill="#ffffff" d="M397 487L398 488L397 487M388 490L389 491L388 490z" class="colorf06220 svgShape"></path><path fill="#ffffff" d="M373 493L374 494L373 493z" class="colorfcc90e svgShape"></path></svg></g></svg>