<svg id="SvgjsSvg1001" width="288" height="288" xmlns="http://www.w3.org/2000/svg" version="1.1" xmlns:xlink="http://www.w3.org/1999/xlink" xmlns:svgjs="http://svgjs.com/svgjs"><defs id="SvgjsDefs1002"></defs><g id="SvgjsG1008"><svg xmlns="http://www.w3.org/2000/svg" viewBox="0 0 512 512" width="288" height="288"><path fill="#161517" d="M19 15L20 16L19 15z" class="color483858 svgShape"></path><path fill="#161517" d="M20 15L21 16L20 15z" class="color735a8c svgShape"></path><path fill="#161517" d="M253 361C239.018 362.562 222.589 357.461 210 351.691C203.189 348.57 197.219 345.326 199 337C194.134 334.228 190.055 329.668 185 327.353C179.316 324.75 175.337 327.397 170.439 321.956C112.662 257.773 155.071 137.877 246 136C243.742 125.059 242.719 117.059 245 106C226.5 106.794 207.386 112.691 191 121.108C183.23 125.099 176.031 131.275 168 134.518C160.163 137.682 150.878 135.02 145.213 128.906C132.666 115.362 143.468 104.545 151.487 93C155.194 87.6623 154.008 80.3102 147.981 77.179C136.569 71.2492 128.925 87.1803 119 89.4707C103.332 93.0865 91.5944 75.5981 82 66C78.0994 62.0979 72.4684 57.7613 71.4344 52C70.2196 45.2305 76.0152 39.6083 82 37.8002C94.0548 34.1582 107.95 39.9077 119.996 36.5663C128.792 34.1265 129.72 22.6404 122.945 17.5139C117.119 13.1057 106.881 15 100 15L42 15C35.4275 15 22.7274 12.5781 17.6528 17.6528C11.6181 23.6874 15.0005 42.0362 15 50C14.9998 53.5305 15.5333 57.7121 13.8218 60.946C11.6819 64.989 8.24148 65.9559 8.01929 71.0046C7.85876 74.6523 7.08531 80.2285 8.60262 83.625C10.8179 88.584 14.7901 89.804 14.9846 96C15.2466 104.351 12.4296 117.026 18.419 123.856C24.0495 130.276 35.208 127.535 36.7716 118.999C38.9618 107.043 34.384 93.7631 37.7894 82C39.6331 75.631 45.8883 69.6261 53 71.6674C58.6772 73.297 62.9925 78.9927 67 83C76.4155 92.4149 93.0118 103.656 89.4707 119C87.1872 128.895 69.1239 138.731 78.4336 149.867C86.5157 159.534 95.2739 148.802 102 143.928C109.814 138.266 119.037 137.906 126.996 143.638C135.133 149.498 139.646 159.352 136.049 169C131.821 180.339 124.732 190.425 120.695 202C111.944 227.093 110.766 255.22 116.884 281C125.847 318.765 149.563 351.655 183 371.547C193.629 377.871 205.216 382.369 217 385.975C228.092 389.369 238.675 390.789 243.521 403C248.908 416.576 241.53 433.135 227 436.471C218.329 438.461 202.965 434.579 204.124 449C204.491 453.565 207.624 457.165 212.001 458.427C222.299 461.397 231.431 457.5 239.61 467.093C246.724 475.439 241.215 495.265 255 496.576C270.285 498.03 265.714 473.096 274.105 465.213C282.737 457.103 302.304 463.539 306.991 452.907C315.435 433.749 282.414 438.593 274.105 430.787C267.745 424.812 269.395 417.889 265.973 411C257.508 393.957 245.394 381.869 253 361z" class="color9774bc svgShape"></path><path fill="#161517" d="M119 15L120 16L119 15z" class="color735a8c svgShape"></path><path fill="#161517" d="M120 15L121 16L120 15M391 15L392 16L391 15z" class="color483858 svgShape"></path><path fill="#161517" d="M392 15L393 16L392 15z" class="color735a8c svgShape"></path><path fill="#161517" d="M393 15L394 16L393 15z" class="color9774bc svgShape"></path><path fill="#161517" d="M246 136C260.272 133.35 276.334 136.172 290 140.671C359.022 163.389 390.588 246.054 351.935 308C337.375 331.335 314.214 348.86 288 356.975C279.764 359.524 271.474 360.308 263 361.424C260.166 361.798 255.045 361.165 252.742 363.028C249.862 365.359 250.999 371.757 251 375C251.005 388.669 255.398 402.758 267 411C268.104 386.891 295.745 386.952 313 379.573C340.409 367.851 363.195 347.454 378.55 322C398.663 288.66 403.981 247.434 393.576 210C390.684 199.596 386.846 189.51 381.691 180C378.352 173.839 373.44 167.45 374.507 160C375.794 151.016 382.954 145.046 389 139L424 104C433.126 94.8737 446.362 75.295 459 71.6674C465.667 69.7538 471.811 75.0471 473.891 81.0008C477.844 92.3118 473.791 106.226 475.109 118C475.945 125.47 484.34 129.966 490.981 126.061C498.988 121.352 497 109.829 497 102L497 43C497 36.2705 499.09 25.188 495.543 19.2137C491.46 12.3351 477.728 15 471 15L410 15C402.462 15 391.772 13.2026 386.564 20.108C381.998 26.1623 385.564 35.4093 393.001 36.7716C405.38 39.0394 420.107 33.5844 431.996 38.3441C438.93 41.12 442.996 49.2526 438.991 56C432.659 66.6672 416.62 82.834 406 89.2538C402.372 91.4466 399.681 89.3015 396 89.9784C392.445 90.6321 389.363 94.4642 387.059 97C382.377 102.155 386.277 105.663 383.802 111C379.842 119.543 365.291 133.258 356 135.468C345.369 137.996 337.444 130.476 329 125.453C310.234 114.289 287.01 106.266 265 106.004C260.476 105.95 248.336 103.892 245.14 107.603C239.431 114.231 243.969 128.791 246 136z" class="colorb08bd8 svgShape"></path><path fill="#161517" d="M491 15L492 16L491 15z" class="color9774bc svgShape"></path><path fill="#161517" d="M492 15L493 16L492 15z" class="color483858 svgShape"></path><path fill="#161517" d="M18 16L19 17L18 16z" class="color735a8c svgShape"></path><path fill="#161517" d="M122 16L123 17L122 16M389 16L390 17L389 16z" class="color483858 svgShape"></path><path fill="#161517" d="M390 16L391 17L390 16M493 16L494 17L493 16z" class="color9774bc svgShape"></path><path fill="#161517" d="M123 17L124 18L123 17M388 17L389 18L388 17M16 18L17 19L16 18M124 18L125 19L124 18M387 18L388 19L387 18z" class="color735a8c svgShape"></path><path fill="#161517" d="M495 18L496 19L495 18z" class="color9774bc svgShape"></path><path fill="#161517" d="M15 19L16 20L15 19z" class="color483858 svgShape"></path><path fill="#161517" d="M125 19L126 20L125 19M386 19L387 20L386 19z" class="color735a8c svgShape"></path><path fill="#161517" d="M496 19L497 20L496 19z" class="color483858 svgShape"></path><path fill="#161517" d="M15 20L16 21L15 20z" class="color735a8c svgShape"></path><path fill="#161517" d="M126 20L127 21L126 20M385 20L386 21L385 20z" class="color483858 svgShape"></path><path fill="#161517" d="M496 20L497 21L496 20z" class="color9774bc svgShape"></path><path fill="#161517" d="M127 22L128 23L127 22M384 22L385 23L384 22z" class="color483858 svgShape"></path><path fill="#161517" d="M127 23L128 24L127 23M384 23L385 24L384 23z" class="color735a8c svgShape"></path><path fill="#161517" d="M384 24L385 25L384 24z" class="color9774bc svgShape"></path><path fill="#161517" d="M127 28L128 29L127 28z" class="color735a8c svgShape"></path><path fill="#161517" d="M384 28L385 29L384 28z" class="color9774bc svgShape"></path><path fill="#161517" d="M127 29L128 30L127 29z" class="color483858 svgShape"></path><path fill="#161517" d="M384 29L385 30L384 29z" class="color735a8c svgShape"></path><path fill="#161517" d="M384 30L385 31L384 30z" class="color483858 svgShape"></path><path fill="#161517" d="M126 31L127 32L126 31z" class="color735a8c svgShape"></path><path fill="#161517" d="M385 31L386 32L385 31z" class="color9774bc svgShape"></path><path fill="#161517" d="M125 33L126 34L125 33M386 33L387 34L386 33M124 34L125 35L124 34M387 34L388 35L387 34M123 35L124 36L123 35M388 35L389 36L388 35M121 36L122 37L121 36z" class="color483858 svgShape"></path><path fill="#161517" d="M390 36L391 37L390 36M82 37L82 38L118 38C108.44 33.9886 92.387 37 82 37z" class="color735a8c svgShape"></path><path fill="#161517" d="M118.667 37.3333L119.333 37.6667L118.667 37.3333M392.667 37.3333L393.333 37.6667L392.667 37.3333z" class="color483858 svgShape"></path><path fill="#161517" d="M394 37L394 38L429 38L394 37z" class="color735a8c svgShape"></path><path fill="#161517" d="M429 37L430 38L429 37z" class="color9774bc svgShape"></path><path fill="#161517" d="M79 38L80 39L79 38M432 38L433 39L432 38z" class="color483858 svgShape"></path><path fill="#161517" d="M433 38L434 39L433 38z" class="color9774bc svgShape"></path><path fill="#161517" d="M77 39L78 40L77 39M434 39L435 40L434 39z" class="color483858 svgShape"></path><path fill="#161517" d="M436 40L437 41L436 40z" class="color9774bc svgShape"></path><path fill="#161517" d="M74 41L75 42L74 41z" class="color735a8c svgShape"></path><path fill="#161517" d="M437 41L438 42L437 41z" class="color9774bc svgShape"></path><path fill="#161517" d="M73 43L74 44L73 43M438 43L439 44L438 43z" class="color483858 svgShape"></path><path fill="#161517" d="M72 44L73 45L72 44z" class="color735a8c svgShape"></path><path fill="#161517" d="M439 44L440 45L439 44z" class="color9774bc svgShape"></path><path fill="#161517" d="M72 45L73 46L72 45M439 45L440 46L439 45z" class="color483858 svgShape"></path><path fill="#161517" d="M71 47L72 48L71 47M440.333 47.6667L440.667 48.3333L440.333 47.6667z" class="color735a8c svgShape"></path><path fill="#161517" d="M71 48L71 53L72 53L71 48M440 49L440 52L441 52L440 49z" class="color483858 svgShape"></path><path fill="#161517" d="M440 52L441 53L440 52M71 53L72 54L71 53z" class="color735a8c svgShape"></path><path fill="#161517" d="M440 53L441 54L440 53z" class="color9774bc svgShape"></path><path fill="#161517" d="M72 55L73 56L72 55z" class="color483858 svgShape"></path><path fill="#161517" d="M439 55L440 56L439 55M73 57L74 58L73 57z" class="color735a8c svgShape"></path><path fill="#161517" d="M438 57L439 58L438 57z" class="color9774bc svgShape"></path><path fill="#161517" d="M74 58L75 59L74 58M437 58L438 59L437 58z" class="color735a8c svgShape"></path><path fill="#161517" d="M75 59L76 60L75 59z" class="color483858 svgShape"></path><path fill="#161517" d="M436 59L437 60L436 59z" class="color735a8c svgShape"></path><path fill="#161517" d="M14 60L15 61L14 60M76 60L77 61L76 60z" class="color483858 svgShape"></path><path fill="#161517" d="M435 60L436 61L435 60z" class="color735a8c svgShape"></path><path fill="#161517" d="M77 61L78 62L77 61z" class="color483858 svgShape"></path><path fill="#161517" d="M434 61L435 62L434 61z" class="color735a8c svgShape"></path><path fill="#161517" d="M13 62L14 63L13 62M78 62L79 63L78 62z" class="color483858 svgShape"></path><path fill="#161517" d="M433 62L434 63L433 62z" class="color735a8c svgShape"></path><path fill="#161517" d="M12 63L13 64L12 63M79 63L80 64L79 63z" class="color483858 svgShape"></path><path fill="#161517" d="M432 63L433 64L432 63M11 64L12 65L11 64z" class="color735a8c svgShape"></path><path fill="#161517" d="M80 64L81 65L80 64z" class="color483858 svgShape"></path><path fill="#161517" d="M431 64L432 65L431 64z" class="color735a8c svgShape"></path><path fill="#161517" d="M7 65L8 66L7 65z" class="color483858 svgShape"></path><path fill="#161517" d="M8 65L9 66L8 65z" class="color735a8c svgShape"></path><path fill="#161517" d="M81 65L82 66L81 65z" class="color483858 svgShape"></path><path fill="#161517" d="M430 65L431 66L430 65z" class="color735a8c svgShape"></path><path fill="#161517" d="M7 66L7 85L8 85L7 66z" class="colorb08bd8 svgShape"></path><path fill="#161517" d="M82 66L83 67L82 66z" class="color483858 svgShape"></path><path fill="#161517" d="M429 66L430 67L429 66z" class="color735a8c svgShape"></path><path fill="#161517" d="M83 67L84 68L83 67z" class="color483858 svgShape"></path><path fill="#161517" d="M428 67L429 68L428 67z" class="color735a8c svgShape"></path><path fill="#161517" d="M84 68L85 69L84 68z" class="color483858 svgShape"></path><path fill="#161517" d="M427 68L428 69L427 68z" class="color735a8c svgShape"></path><path fill="#161517" d="M85 69L86 70L85 69z" class="color483858 svgShape"></path><path fill="#161517" d="M426 69L427 70L426 69z" class="color735a8c svgShape"></path><path fill="#161517" d="M86 70L87 71L86 70z" class="color483858 svgShape"></path><path fill="#161517" d="M425 70L426 71L425 70M47 71L48 72L47 71z" class="color735a8c svgShape"></path><path fill="#161517" d="M48 71L48 72L53 72L48 71z" class="color483858 svgShape"></path><path fill="#161517" d="M53 71L54 72L53 71z" class="color735a8c svgShape"></path><path fill="#161517" d="M87 71L88 72L87 71z" class="color483858 svgShape"></path><path fill="#161517" d="M424 71L425 72L424 71z" class="color735a8c svgShape"></path><path fill="#161517" d="M458 71L459 72L458 71z" class="color9774bc svgShape"></path><path fill="#161517" d="M459 71L460 72L459 71z" class="color735a8c svgShape"></path><path fill="#161517" d="M460 71L460 72L464 72L460 71z" class="color483858 svgShape"></path><path fill="#161517" d="M464 71L465 72L464 71M44 72L45 73L44 72z" class="color735a8c svgShape"></path><path fill="#161517" d="M45 72L46 73L45 72M55 72L56 73L55 72M88 72L89 73L88 72z" class="color483858 svgShape"></path><path fill="#161517" d="M423 72L424 73L423 72M456 72L457 73L456 72z" class="color735a8c svgShape"></path><path fill="#161517" d="M466 72L467 73L466 72z" class="color483858 svgShape"></path><path fill="#161517" d="M467 72L468 73L467 72z" class="color9774bc svgShape"></path><path fill="#161517" d="M43 73L44 74L43 73z" class="color483858 svgShape"></path><path fill="#161517" d="M57 73L58 74L57 73z" class="color735a8c svgShape"></path><path fill="#161517" d="M89 73L90 74L89 73z" class="color483858 svgShape"></path><path fill="#161517" d="M422 73L423 74L422 73z" class="color735a8c svgShape"></path><path fill="#161517" d="M454 73L455 74L454 73z" class="color9774bc svgShape"></path><path fill="#161517" d="M468 73L469 74L468 73z" class="color483858 svgShape"></path><path fill="#161517" d="M41 74L42 75L41 74M58 74L59 75L58 74z" class="color735a8c svgShape"></path><path fill="#161517" d="M90 74L91 75L90 74z" class="color483858 svgShape"></path><path fill="#161517" d="M421 74L422 75L421 74M453 74L454 75L453 74z" class="color735a8c svgShape"></path><path fill="#161517" d="M470 74L471 75L470 74z" class="color9774bc svgShape"></path><path fill="#161517" d="M40 75L41 76L40 75z" class="color735a8c svgShape"></path><path fill="#161517" d="M59 75L60 76L59 75M91 75L92 76L91 75M140.667 75.3333L141.333 75.6667L140.667 75.3333z" class="color483858 svgShape"></path><path fill="#161517" d="M142.667 75.3333L143.333 75.6667L142.667 75.3333z" class="color735a8c svgShape"></path><path fill="#161517" d="M144.667 75.3333L145.333 75.6667L144.667 75.3333z" class="color483858 svgShape"></path><path fill="#161517" d="M420 75L421 76L420 75M452 75L453 76L452 75z" class="color735a8c svgShape"></path><path fill="#161517" d="M471 75L472 76L471 75z" class="color9774bc svgShape"></path><path fill="#161517" d="M60 76L61 77L60 76M92 76L93 77L92 76M137 76L138 77L137 76z" class="color483858 svgShape"></path><path fill="#161517" d="M138 76L139 77L138 76M147 76L148 77L147 76M419 76L420 77L419 76M451 76L452 77L451 76z" class="color735a8c svgShape"></path><path fill="#161517" d="M39 77L40 78L39 77M61 77L62 78L61 77M93 77L94 78L93 77z" class="color483858 svgShape"></path><path fill="#161517" d="M136 77L137 78L136 77z" class="color735a8c svgShape"></path><path fill="#161517" d="M149 77L150 78L149 77z" class="color483858 svgShape"></path><path fill="#161517" d="M418 77L419 78L418 77M450 77L451 78L450 77z" class="color735a8c svgShape"></path><path fill="#161517" d="M472 77L473 78L472 77M62 78L63 79L62 78M94 78L95 79L94 78z" class="color483858 svgShape"></path><path fill="#161517" d="M150 78L151 79L150 78M417 78L418 79L417 78M449 78L450 79L449 78z" class="color735a8c svgShape"></path><path fill="#161517" d="M38 79L39 80L38 79M63 79L64 80L63 79M95 79L96 80L95 79M133 79L134 80L133 79M151 79L152 80L151 79z" class="color483858 svgShape"></path><path fill="#161517" d="M416 79L417 80L416 79M448 79L449 80L448 79z" class="color735a8c svgShape"></path><path fill="#161517" d="M473 79L474 80L473 79M64 80L65 81L64 80M96 80L97 81L96 80M132 80L133 81L132 80M152 80L153 81L152 80z" class="color483858 svgShape"></path><path fill="#161517" d="M415 80L416 81L415 80M447 80L448 81L447 80z" class="color735a8c svgShape"></path><path fill="#161517" d="M65 81L66 82L65 81M97 81L98 82L97 81M131 81L132 82L131 81z" class="color483858 svgShape"></path><path fill="#161517" d="M414 81L415 82L414 81M446 81L447 82L446 81M37 82L37 117L38 117L37 82z" class="color735a8c svgShape"></path><path fill="#161517" d="M66 82L67 83L66 82M98 82L99 83L98 82M130 82L131 83L130 82M153 82L154 83L153 82z" class="color483858 svgShape"></path><path fill="#161517" d="M413 82L414 83L413 82M445 82L446 83L445 82z" class="color735a8c svgShape"></path><path fill="#161517" d="M474.333 82.6667L474.667 83.3333L474.333 82.6667z" class="color9774bc svgShape"></path><path fill="#161517" d="M67 83L68 84L67 83M99 83L100 84L99 83M129 83L130 84L129 83z" class="color483858 svgShape"></path><path fill="#161517" d="M153 83L154 84L153 83M412 83L413 84L412 83M444 83L445 84L444 83z" class="color735a8c svgShape"></path><path fill="#161517" d="M68 84L69 85L68 84z" class="color483858 svgShape"></path><path fill="#161517" d="M100 84L101 85L100 84z" class="color735a8c svgShape"></path><path fill="#161517" d="M128 84L129 85L128 84z" class="color483858 svgShape"></path><path fill="#161517" d="M411 84L412 85L411 84M443 84L444 85L443 84M474 84L474 118L475 118L474 84z" class="color735a8c svgShape"></path><path fill="#161517" d="M7 85L8 86L7 85z" class="color483858 svgShape"></path><path fill="#161517" d="M8.66667 85.3333L9.33333 85.6667L8.66667 85.3333z" class="color735a8c svgShape"></path><path fill="#161517" d="M69 85L70 86L69 85z" class="color483858 svgShape"></path><path fill="#161517" d="M101 85L102 86L101 85z" class="color735a8c svgShape"></path><path fill="#161517" d="M127 85L128 86L127 85z" class="color483858 svgShape"></path><path fill="#161517" d="M410 85L411 86L410 85M442 85L443 86L442 85M11 86L12 87L11 86z" class="color735a8c svgShape"></path><path fill="#161517" d="M70 86L71 87L70 86M103 86L104 87L103 86z" class="color483858 svgShape"></path><path fill="#161517" d="M126 86L127 87L126 86M409 86L410 87L409 86M441 86L442 87L441 86z" class="color735a8c svgShape"></path><path fill="#161517" d="M12 87L13 88L12 87M71 87L72 88L71 87z" class="color483858 svgShape"></path><path fill="#161517" d="M104 87L105 88L104 87z" class="color735a8c svgShape"></path><path fill="#161517" d="M105 87L106 88L105 87M124 87L125 88L124 87z" class="color483858 svgShape"></path><path fill="#161517" d="M408 87L409 88L408 87M440 87L441 88L440 87z" class="color735a8c svgShape"></path><path fill="#161517" d="M13 88L14 89L13 88M72 88L73 89L72 88z" class="color483858 svgShape"></path><path fill="#161517" d="M106 88L107 89L106 88z" class="color735a8c svgShape"></path><path fill="#161517" d="M107 88L108 89L107 88M121 88L122 89L121 88z" class="color483858 svgShape"></path><path fill="#161517" d="M122 88L123 89L122 88z" class="color735a8c svgShape"></path><path fill="#161517" d="M396 88L397 89L396 88z" class="color483858 svgShape"></path><path fill="#161517" d="M407 88L408 89L407 88M439 88L440 89L439 88z" class="color735a8c svgShape"></path><path fill="#161517" d="M73 89L74 90L73 89z" class="color483858 svgShape"></path><path fill="#161517" d="M109 89L110 90L109 89z" class="color735a8c svgShape"></path><path fill="#161517" d="M110 89L110 90L113 90L110 89M117.667 89.3333L118.333 89.6667L117.667 89.3333z" class="color483858 svgShape"></path><path fill="#161517" d="M119 89L120 90L119 89M153 89L154 90L153 89M397 89L398 90L397 89M406 89L407 90L406 89M438 89L439 90L438 89z" class="color735a8c svgShape"></path><path fill="#161517" d="M14 90L15 91L14 90M74 90L75 91L74 90M153 90L154 91L153 90z" class="color483858 svgShape"></path><path fill="#161517" d="M399 90L400 91L399 90z" class="color735a8c svgShape"></path><path fill="#161517" d="M400 90L401 91L400 90M403 90L404 91L403 90z" class="color483858 svgShape"></path><path fill="#161517" d="M404 90L405 91L404 90M437 90L438 91L437 90z" class="color735a8c svgShape"></path><path fill="#161517" d="M75 91L76 92L75 91z" class="color483858 svgShape"></path><path fill="#161517" d="M436 91L437 92L436 91z" class="color735a8c svgShape"></path><path fill="#161517" d="M76 92L77 93L76 92M152 92L153 93L152 92z" class="color483858 svgShape"></path><path fill="#161517" d="M435 92L436 93L435 92z" class="color735a8c svgShape"></path><path fill="#161517" d="M77 93L78 94L77 93z" class="color483858 svgShape"></path><path fill="#161517" d="M151 93L152 94L151 93M434 93L435 94L434 93z" class="color735a8c svgShape"></path><path fill="#161517" d="M78 94L79 95L78 94z" class="color483858 svgShape"></path><path fill="#161517" d="M150 94L151 95L150 94M433 94L434 95L433 94z" class="color735a8c svgShape"></path><path fill="#161517" d="M79 95L80 96L79 95z" class="color483858 svgShape"></path><path fill="#161517" d="M149 95L150 96L149 95M432 95L433 96L432 95z" class="color735a8c svgShape"></path><path fill="#161517" d="M80 96L81 97L80 96z" class="color483858 svgShape"></path><path fill="#161517" d="M148 96L149 97L148 96M431 96L432 97L431 96z" class="color735a8c svgShape"></path><path fill="#161517" d="M81 97L82 98L81 97z" class="color483858 svgShape"></path><path fill="#161517" d="M147 97L148 98L147 97M430 97L431 98L430 97z" class="color735a8c svgShape"></path><path fill="#161517" d="M82 98L83 99L82 98z" class="color483858 svgShape"></path><path fill="#161517" d="M146 98L147 99L146 98M429 98L430 99L429 98z" class="color735a8c svgShape"></path><path fill="#161517" d="M83 99L84 100L83 99z" class="color483858 svgShape"></path><path fill="#161517" d="M145 99L146 100L145 99M428 99L429 100L428 99z" class="color735a8c svgShape"></path><path fill="#161517" d="M84 100L85 101L84 100z" class="color483858 svgShape"></path><path fill="#161517" d="M427 100L428 101L427 100M85 101L86 102L85 101M426 101L427 102L426 101z" class="color735a8c svgShape"></path><path fill="#161517" d="M143 102L144 103L143 102M382 102L383 103L382 102z" class="color483858 svgShape"></path><path fill="#161517" d="M425 102L426 103L425 102z" class="color735a8c svgShape"></path><path fill="#161517" d="M86 103L87 104L86 103z" class="color483858 svgShape"></path><path fill="#161517" d="M142 103L143 104L142 103M424 103L425 104L424 103M87 104L88 105L87 104z" class="color735a8c svgShape"></path><path fill="#161517" d="M383 104L384 105L383 104z" class="color483858 svgShape"></path><path fill="#161517" d="M423 104L424 105L423 104z" class="color735a8c svgShape"></path><path fill="#161517" d="M141 105L142 106L141 105M245 105L245 106L249 106L245 105z" class="color483858 svgShape"></path><path fill="#161517" d="M249 105L249 106L263 106L249 105z" class="color735a8c svgShape"></path><path fill="#161517" d="M263 105L263 106L268 106L263 105z" class="color483858 svgShape"></path><path fill="#161517" d="M384 105L385 106L384 105z" class="color9774bc svgShape"></path><path fill="#161517" d="M422 105L423 106L422 105M88 106L89 107L88 106z" class="color735a8c svgShape"></path><path fill="#161517" d="M236.667 106.333L237.333 106.667L236.667 106.333z" class="color483858 svgShape"></path><path fill="#161517" d="M238.667 106.333L239.333 106.667L238.667 106.333z" class="color735a8c svgShape"></path><path fill="#161517" d="M271.667 106.333L272.333 106.667L271.667 106.333z" class="color9774bc svgShape"></path><path fill="#161517" d="M273 106L274 107L273 106z" class="color735a8c svgShape"></path><path fill="#161517" d="M274.667 106.333L275.333 106.667L274.667 106.333M384 106L384 110L385 110L384 106z" class="color483858 svgShape"></path><path fill="#161517" d="M421 106L422 107L421 106z" class="color735a8c svgShape"></path><path fill="#161517" d="M88 107L89 108L88 107z" class="color483858 svgShape"></path><path fill="#161517" d="M140 107L141 108L140 107z" class="color735a8c svgShape"></path><path fill="#161517" d="M230.667 107.333L231.333 107.667L230.667 107.333z" class="color483858 svgShape"></path><path fill="#161517" d="M232 107L233 108L232 107z" class="color735a8c svgShape"></path><path fill="#161517" d="M279 107L280 108L279 107z" class="color9774bc svgShape"></path><path fill="#161517" d="M280 107L281 108L280 107z" class="color735a8c svgShape"></path><path fill="#161517" d="M281.667 107.333L282.333 107.667L281.667 107.333z" class="color483858 svgShape"></path><path fill="#161517" d="M420 107L421 108L420 107z" class="color735a8c svgShape"></path><path fill="#161517" d="M140 108L141 109L140 108M225 108L226 109L225 108z" class="color483858 svgShape"></path><path fill="#161517" d="M226.667 108.333L227.333 108.667L226.667 108.333z" class="color735a8c svgShape"></path><path fill="#161517" d="M284 108L285 109L284 108z" class="color9774bc svgShape"></path><path fill="#161517" d="M285 108L286 109L285 108z" class="color735a8c svgShape"></path><path fill="#161517" d="M286 108L287 109L286 108z" class="color483858 svgShape"></path><path fill="#161517" d="M419 108L420 109L419 108M89 109L90 110L89 109z" class="color735a8c svgShape"></path><path fill="#161517" d="M221 109L222 110L221 109z" class="color483858 svgShape"></path><path fill="#161517" d="M222 109L223 110L222 109z" class="color735a8c svgShape"></path><path fill="#161517" d="M289 109L290 110L289 109z" class="color9774bc svgShape"></path><path fill="#161517" d="M290 109L291 110L290 109z" class="color483858 svgShape"></path><path fill="#161517" d="M418 109L419 110L418 109z" class="color735a8c svgShape"></path><path fill="#161517" d="M89 110L89 113L90 113L89 110M217 110L218 111L217 110z" class="color483858 svgShape"></path><path fill="#161517" d="M218 110L219 111L218 110M293 110L294 111L293 110z" class="color735a8c svgShape"></path><path fill="#161517" d="M294 110L295 111L294 110z" class="color483858 svgShape"></path><path fill="#161517" d="M384 110L385 111L384 110M417 110L418 111L417 110M139.333 111.667L139.667 112.333L139.333 111.667z" class="color735a8c svgShape"></path><path fill="#161517" d="M214 111L215 112L214 111z" class="color483858 svgShape"></path><path fill="#161517" d="M215 111L216 112L215 111z" class="color735a8c svgShape"></path><path fill="#161517" d="M296 111L297 112L296 111z" class="color9774bc svgShape"></path><path fill="#161517" d="M297 111L298 112L297 111z" class="color735a8c svgShape"></path><path fill="#161517" d="M298 111L299 112L298 111z" class="color483858 svgShape"></path><path fill="#161517" d="M416 111L417 112L416 111z" class="color735a8c svgShape"></path><path fill="#161517" d="M210.667 112.333L211.333 112.667L210.667 112.333z" class="color483858 svgShape"></path><path fill="#161517" d="M300 112L301 113L300 112z" class="color735a8c svgShape"></path><path fill="#161517" d="M301 112L302 113L301 112z" class="color483858 svgShape"></path><path fill="#161517" d="M383 112L384 113L383 112z" class="color9774bc svgShape"></path><path fill="#161517" d="M415 112L416 113L415 112z" class="color735a8c svgShape"></path><path fill="#161517" d="M139 113L139 116L140 116L139 113M208 113L209 114L208 113z" class="color483858 svgShape"></path><path fill="#161517" d="M303 113L304 114L303 113z" class="color735a8c svgShape"></path><path fill="#161517" d="M304 113L305 114L304 113z" class="color483858 svgShape"></path><path fill="#161517" d="M382 113L383 114L382 113M414 113L415 114L414 113z" class="color735a8c svgShape"></path><path fill="#161517" d="M205 114L206 115L205 114z" class="color483858 svgShape"></path><path fill="#161517" d="M305 114L306 115L305 114z" class="color9774bc svgShape"></path><path fill="#161517" d="M306 114L307 115L306 114z" class="color483858 svgShape"></path><path fill="#161517" d="M381 114L382 115L381 114M413 114L414 115L413 114z" class="color735a8c svgShape"></path><path fill="#161517" d="M202 115L203 116L202 115z" class="color483858 svgShape"></path><path fill="#161517" d="M203 115L204 116L203 115z" class="color735a8c svgShape"></path><path fill="#161517" d="M308 115L309 116L308 115z" class="color9774bc svgShape"></path><path fill="#161517" d="M309 115L310 116L309 115z" class="color483858 svgShape"></path><path fill="#161517" d="M380 115L381 116L380 115M412 115L413 116L412 115M139.333 116.667L139.667 117.333L139.333 116.667z" class="color735a8c svgShape"></path><path fill="#161517" d="M200 116L201 117L200 116M311 116L312 117L311 116z" class="color483858 svgShape"></path><path fill="#161517" d="M379 116L380 117L379 116M411 116L412 117L411 116z" class="color735a8c svgShape"></path><path fill="#161517" d="M37 117L37 120L38 120L37 117M89.3333 117.667L89.6667 118.333L89.3333 117.667z" class="color483858 svgShape"></path><path fill="#161517" d="M198 117L199 118L198 117M313 117L314 118L313 117M378 117L379 118L378 117M410 117L411 118L410 117M15 118L16 119L15 118z" class="color735a8c svgShape"></path><path fill="#161517" d="M195 118L196 119L195 118z" class="color483858 svgShape"></path><path fill="#161517" d="M196 118L197 119L196 118z" class="color735a8c svgShape"></path><path fill="#161517" d="M315 118L316 119L315 118z" class="color9774bc svgShape"></path><path fill="#161517" d="M316 118L317 119L316 118z" class="color483858 svgShape"></path><path fill="#161517" d="M377 118L378 119L377 118M409 118L410 119L409 118z" class="color735a8c svgShape"></path><path fill="#161517" d="M474.333 118.667L474.667 119.333L474.333 118.667z" class="color483858 svgShape"></path><path fill="#161517" d="M496 118L497 119L496 118z" class="color9774bc svgShape"></path><path fill="#161517" d="M15 119L16 120L15 119z" class="color483858 svgShape"></path><path fill="#161517" d="M89 119L90 120L89 119z" class="color735a8c svgShape"></path><path fill="#161517" d="M193 119L194 120L193 119z" class="color483858 svgShape"></path><path fill="#161517" d="M194 119L195 120L194 119z" class="color735a8c svgShape"></path><path fill="#161517" d="M317 119L318 120L317 119z" class="color9774bc svgShape"></path><path fill="#161517" d="M318 119L319 120L318 119z" class="color483858 svgShape"></path><path fill="#161517" d="M376 119L377 120L376 119M408 119L409 120L408 119M496 119L497 120L496 119z" class="color735a8c svgShape"></path><path fill="#161517" d="M140 120L141 121L140 120M191 120L192 121L191 120z" class="color483858 svgShape"></path><path fill="#161517" d="M319 120L320 121L319 120z" class="color9774bc svgShape"></path><path fill="#161517" d="M320 120L321 121L320 120z" class="color483858 svgShape"></path><path fill="#161517" d="M375 120L376 121L375 120M407 120L408 121L407 120z" class="color735a8c svgShape"></path><path fill="#161517" d="M496 120L497 121L496 120z" class="color483858 svgShape"></path><path fill="#161517" d="M16 121L17 122L16 121z" class="color735a8c svgShape"></path><path fill="#161517" d="M36 121L37 122L36 121M88 121L89 122L88 121z" class="color483858 svgShape"></path><path fill="#161517" d="M140 121L141 122L140 121z" class="color735a8c svgShape"></path><path fill="#161517" d="M189 121L190 122L189 121z" class="color483858 svgShape"></path><path fill="#161517" d="M190 121L191 122L190 121z" class="color735a8c svgShape"></path><path fill="#161517" d="M321 121L322 122L321 121z" class="color9774bc svgShape"></path><path fill="#161517" d="M322 121L323 122L322 121z" class="color483858 svgShape"></path><path fill="#161517" d="M374 121L375 122L374 121M406 121L407 122L406 121M475 121L476 122L475 121M88 122L89 123L88 122M188 122L189 123L188 122z" class="color735a8c svgShape"></path><path fill="#161517" d="M323 122L324 123L323 122z" class="color9774bc svgShape"></path><path fill="#161517" d="M324 122L325 123L324 122z" class="color483858 svgShape"></path><path fill="#161517" d="M373 122L374 123L373 122M405 122L406 123L405 122z" class="color735a8c svgShape"></path><path fill="#161517" d="M495 122L496 123L495 122M17 123L18 124L17 123M35 123L36 124L35 123M141 123L142 124L141 123z" class="color483858 svgShape"></path><path fill="#161517" d="M186 123L187 124L186 123M325 123L326 124L325 123M372 123L373 124L372 123M404 123L405 124L404 123z" class="color735a8c svgShape"></path><path fill="#161517" d="M476 123L477 124L476 123z" class="color483858 svgShape"></path><path fill="#161517" d="M494 123L495 124L494 123M18 124L19 125L18 124z" class="color735a8c svgShape"></path><path fill="#161517" d="M34 124L35 125L34 124M87 124L88 125L87 124M184 124L185 125L184 124z" class="color483858 svgShape"></path><path fill="#161517" d="M327 124L328 125L327 124M371 124L372 125L371 124M403 124L404 125L403 124z" class="color735a8c svgShape"></path><path fill="#161517" d="M477 124L478 125L477 124z" class="color483858 svgShape"></path><path fill="#161517" d="M493 124L494 125L493 124z" class="color9774bc svgShape"></path><path fill="#161517" d="M19 125L20 126L19 125M33 125L34 126L33 125M142 125L143 126L142 125M182 125L183 126L182 125M329 125L330 126L329 125z" class="color483858 svgShape"></path><path fill="#161517" d="M370 125L371 126L370 125M402 125L403 126L402 125z" class="color735a8c svgShape"></path><path fill="#161517" d="M478 125L479 126L478 125z" class="color483858 svgShape"></path><path fill="#161517" d="M492 125L493 126L492 125z" class="color735a8c svgShape"></path><path fill="#161517" d="M20 126L21 127L20 126z" class="color483858 svgShape"></path><path fill="#161517" d="M31 126L32 127L31 126M86 126L87 127L86 126M181 126L182 127L181 126z" class="color735a8c svgShape"></path><path fill="#161517" d="M330 126L331 127L330 126z" class="color9774bc svgShape"></path><path fill="#161517" d="M369 126L370 127L369 126M401 126L402 127L401 126z" class="color735a8c svgShape"></path><path fill="#161517" d="M480 126L481 127L480 126z" class="color9774bc svgShape"></path><path fill="#161517" d="M491 126L492 127L491 126M22 127L23 128L22 127z" class="color483858 svgShape"></path><path fill="#161517" d="M23.6667 127.333L24.3333 127.667L23.6667 127.333M28 127L29 128L28 127z" class="color735a8c svgShape"></path><path fill="#161517" d="M29 127L30 128L29 127M85 127L86 128L85 127z" class="color483858 svgShape"></path><path fill="#161517" d="M143 127L144 128L143 127z" class="color735a8c svgShape"></path><path fill="#161517" d="M179 127L180 128L179 127z" class="color483858 svgShape"></path><path fill="#161517" d="M332 127L333 128L332 127M368 127L369 128L368 127M400 127L401 128L400 127M482 127L483 128L482 127z" class="color735a8c svgShape"></path><path fill="#161517" d="M483 127L484 128L483 127M487 127L488 128L487 127z" class="color9774bc svgShape"></path><path fill="#161517" d="M488 127L489 128L488 127z" class="color735a8c svgShape"></path><path fill="#161517" d="M489 127L490 128L489 127M84 128L85 129L84 128z" class="color483858 svgShape"></path><path fill="#161517" d="M144 128L145 129L144 128z" class="color735a8c svgShape"></path><path fill="#161517" d="M333 128L334 129L333 128z" class="color9774bc svgShape"></path><path fill="#161517" d="M334 128L335 129L334 128z" class="color483858 svgShape"></path><path fill="#161517" d="M367 128L368 129L367 128M399 128L400 129L399 128z" class="color735a8c svgShape"></path><path fill="#161517" d="M83 129L84 130L83 129M145 129L146 130L145 129M176 129L177 130L176 129z" class="color483858 svgShape"></path><path fill="#161517" d="M335 129L336 130L335 129M366 129L367 130L366 129M398 129L399 130L398 129z" class="color735a8c svgShape"></path><path fill="#161517" d="M82 130L83 131L82 130z" class="color483858 svgShape"></path><path fill="#161517" d="M146 130L147 131L146 130z" class="color735a8c svgShape"></path><path fill="#161517" d="M336 130L337 131L336 130z" class="color9774bc svgShape"></path><path fill="#161517" d="M365 130L366 131L365 130M397 130L398 131L397 130z" class="color735a8c svgShape"></path><path fill="#161517" d="M81 131L82 132L81 131z" class="color483858 svgShape"></path><path fill="#161517" d="M147 131L148 132L147 131z" class="color735a8c svgShape"></path><path fill="#161517" d="M173 131L174 132L173 131M338 131L339 132L338 131z" class="color483858 svgShape"></path><path fill="#161517" d="M364 131L365 132L364 131z" class="color9774bc svgShape"></path><path fill="#161517" d="M396 131L397 132L396 131z" class="color735a8c svgShape"></path><path fill="#161517" d="M80 132L81 133L80 132M149 132L150 133L149 132z" class="color483858 svgShape"></path><path fill="#161517" d="M172 132L173 133L172 132z" class="color735a8c svgShape"></path><path fill="#161517" d="M339 132L340 133L339 132z" class="color9774bc svgShape"></path><path fill="#161517" d="M362 132L363 133L362 132z" class="color483858 svgShape"></path><path fill="#161517" d="M395 132L396 133L395 132z" class="color735a8c svgShape"></path><path fill="#161517" d="M79 133L80 134L79 133z" class="color483858 svgShape"></path><path fill="#161517" d="M150 133L151 134L150 133z" class="color735a8c svgShape"></path><path fill="#161517" d="M151 133L152 134L151 133z" class="color483858 svgShape"></path><path fill="#161517" d="M170 133L171 134L170 133M341 133L342 134L341 133z" class="color735a8c svgShape"></path><path fill="#161517" d="M360 133L361 134L360 133z" class="color483858 svgShape"></path><path fill="#161517" d="M361 133L362 134L361 133z" class="color9774bc svgShape"></path><path fill="#161517" d="M394 133L395 134L394 133z" class="color735a8c svgShape"></path><path fill="#161517" d="M153 134L154 135L153 134M167 134L168 135L167 134z" class="color483858 svgShape"></path><path fill="#161517" d="M168 134L169 135L168 134M343 134L344 135L343 134z" class="color735a8c svgShape"></path><path fill="#161517" d="M344 134L345 135L344 134M358 134L359 135L358 134z" class="color483858 svgShape"></path><path fill="#161517" d="M359 134L360 135L359 134z" class="color9774bc svgShape"></path><path fill="#161517" d="M393 134L394 135L393 134M156 135L157 136L156 135z" class="color735a8c svgShape"></path><path fill="#161517" d="M157.667 135.333L158.333 135.667L157.667 135.333M162 135L162 136L165 136L162 135z" class="color483858 svgShape"></path><path fill="#161517" d="M165 135L166 136L165 135z" class="color735a8c svgShape"></path><path fill="#161517" d="M248.667 135.333L249.333 135.667L248.667 135.333z" class="color9774bc svgShape"></path><path fill="#161517" d="M250 135L250 136L262 136L250 135z" class="color735a8c svgShape"></path><path fill="#161517" d="M262.667 135.333L263.333 135.667L262.667 135.333M346 135L347 136L346 135z" class="color9774bc svgShape"></path><path fill="#161517" d="M347 135L348 136L347 135z" class="color735a8c svgShape"></path><path fill="#161517" d="M348.667 135.333L349.333 135.667L348.667 135.333M352 135L352 136L355 136L352 135z" class="color483858 svgShape"></path><path fill="#161517" d="M355 135L356 136L355 135z" class="color735a8c svgShape"></path><path fill="#161517" d="M356 135L357 136L356 135z" class="color9774bc svgShape"></path><path fill="#161517" d="M392 135L393 136L392 135M77 136L78 137L77 136M239.667 136.333L240.333 136.667L239.667 136.333z" class="color735a8c svgShape"></path><path fill="#161517" d="M241 136L241 137L244 137L241 136z" class="color483858 svgShape"></path>d="M183 324C187.358 328.17 193.802 331.558 197.397 336.325C200.035 339.824 198.473 344.261 202.148 347.362C211.596 355.335 229.056 358.705 241 360.05C261.569 362.367 281.869 360.043 301 351.85C315.461 345.656 328.118 336.357 338.961 325C348.444 315.066 355.752 302.733 360.796 290C392.629 209.648 322.066 123.164 237 137.435C223.696 139.667 210.658 144.187 199 151.012C183.885 159.86 170.895 172.325 161.345 187C141.55 217.418 138.163 256.301 151.065 290C155.165 300.709 161.276 311.199 168.616 319.995C172.56 324.722 177.534 328.688 183 324z"/&gt;<path fill="#161517" d="M268.667 136.333L269.333 136.667L268.667 136.333z" class="color483858 svgShape"></path><path fill="#161517" d="M270.667 136.333L271.333 136.667L270.667 136.333z" class="color735a8c svgShape"></path><path fill="#161517" d="M272 136L273 137L272 136z" class="color9774bc svgShape"></path><path fill="#161517" d="M391 136L392 137L391 136z" class="color735a8c svgShape"></path><path fill="#161517" d="M76 137L77 138L76 137z" class="color483858 svgShape"></path><path fill="#161517" d="M233.667 137.333L234.333 137.667L233.667 137.333z" class="color735a8c svgShape"></path><path fill="#161517" d="M235.667 137.333L236.333 137.667L235.667 137.333M275.667 137.333L276.333 137.667L275.667 137.333z" class="color483858 svgShape"></path><path fill="#161517" d="M277 137L278 138L277 137z" class="color735a8c svgShape"></path><path fill="#161517" d="M278 137L279 138L278 137z" class="color9774bc svgShape"></path><path fill="#161517" d="M390 137L391 138L390 137M76 138L77 139L76 138M229 138L230 139L229 138z" class="color735a8c svgShape"></path><path fill="#161517" d="M230.667 138.333L231.333 138.667L230.667 138.333M280.667 138.333L281.333 138.667L280.667 138.333z" class="color483858 svgShape"></path><path fill="#161517" d="M282 138L283 139L282 138M389 138L390 139L389 138M111.667 139.333L112.333 139.667L111.667 139.333z" class="color735a8c svgShape"></path><path fill="#161517" d="M113 139L113 140L117 140L113 139z" class="color483858 svgShape"></path><path fill="#161517" d="M117 139L118 140L117 139M225 139L226 140L225 139z" class="color735a8c svgShape"></path><path fill="#161517" d="M226 139L227 140L226 139M284.667 139.333L285.333 139.667L284.667 139.333z" class="color483858 svgShape"></path><path fill="#161517" d="M286 139L287 140L286 139z" class="color9774bc svgShape"></path><path fill="#161517" d="M388 139L389 140L388 139z" class="color735a8c svgShape"></path><path fill="#161517" d="M75.3333 140.667L75.6667 141.333L75.3333 140.667z" class="color483858 svgShape"></path><path fill="#161517" d="M107 140L108 141L107 140z" class="color735a8c svgShape"></path><path fill="#161517" d="M108 140L109 141L108 140M120 140L121 141L120 140z" class="color483858 svgShape"></path><path fill="#161517" d="M121 140L122 141L121 140M222 140L223 141L222 140z" class="color735a8c svgShape"></path><path fill="#161517" d="M223 140L224 141L223 140M288 140L289 141L288 140z" class="color483858 svgShape"></path><path fill="#161517" d="M289 140L290 141L289 140M387 140L388 141L387 140z" class="color735a8c svgShape"></path><path fill="#161517" d="M105 141L106 142L105 141M123 141L124 142L123 141z" class="color483858 svgShape"></path><path fill="#161517" d="M219 141L220 142L219 141z" class="color735a8c svgShape"></path><path fill="#161517" d="M220 141L221 142L220 141M291 141L292 142L291 141z" class="color483858 svgShape"></path><path fill="#161517" d="M292 141L293 142L292 141M386 141L387 142L386 141M75.3333 142.667L75.6667 143.333L75.3333 142.667M103 142L104 143L103 142z" class="color735a8c svgShape"></path><path fill="#161517" d="M125 142L126 143L125 142z" class="color483858 svgShape"></path><path fill="#161517" d="M216 142L217 143L216 142z" class="color735a8c svgShape"></path><path fill="#161517" d="M217 142L218 143L217 142M294 142L295 143L294 142z" class="color483858 svgShape"></path><path fill="#161517" d="M295 142L296 143L295 142z" class="color9774bc svgShape"></path><path fill="#161517" d="M385 142L386 143L385 142z" class="color735a8c svgShape"></path><path fill="#161517" d="M102 143L103 144L102 143z" class="color483858 svgShape"></path><path fill="#161517" d="M127 143L128 144L127 143z" class="color735a8c svgShape"></path><path fill="#161517" d="M214 143L215 144L214 143M297 143L298 144L297 143z" class="color483858 svgShape"></path><path fill="#161517" d="M384 143L385 144L384 143z" class="color735a8c svgShape"></path><path fill="#161517" d="M75.3333 144.667L75.6667 145.333L75.3333 144.667z" class="color483858 svgShape"></path><path fill="#161517" d="M128 144L129 145L128 144M211 144L212 145L211 144z" class="color735a8c svgShape"></path><path fill="#161517" d="M212 144L213 145L212 144M299 144L300 145L299 144z" class="color483858 svgShape"></path><path fill="#161517" d="M300 144L301 145L300 144z" class="color9774bc svgShape"></path><path fill="#161517" d="M383 144L384 145L383 144M99 145L100 146L99 145z" class="color735a8c svgShape"></path><path fill="#161517" d="M129 145L130 146L129 145z" class="color483858 svgShape"></path><path fill="#161517" d="M209 145L210 146L209 145M302 145L303 146L302 145M382 145L383 146L382 145M98 146L99 147L98 146z" class="color735a8c svgShape"></path><path fill="#161517" d="M130 146L131 147L130 146M207 146L208 147L207 146z" class="color483858 svgShape"></path><path fill="#161517" d="M304 146L305 147L304 146M381 146L382 147L381 146M76 147L77 148L76 147M97 147L98 148L97 147z" class="color735a8c svgShape"></path><path fill="#161517" d="M131 147L132 148L131 147M205 147L206 148L205 147M306 147L307 148L306 147z" class="color483858 svgShape"></path><path fill="#161517" d="M380 147L381 148L380 147M96 148L97 149L96 148M132 148L133 149L132 148z" class="color735a8c svgShape"></path><path fill="#161517" d="M203 148L204 149L203 148z" class="color483858 svgShape"></path><path fill="#161517" d="M308 148L309 149L308 148M379 148L380 149L379 148z" class="color735a8c svgShape"></path><path fill="#161517" d="M77 149L78 150L77 149z" class="color483858 svgShape"></path><path fill="#161517" d="M95 149L96 150L95 149M201 149L202 150L201 149M310 149L311 150L310 149z" class="color735a8c svgShape"></path><path fill="#161517" d="M378 149L379 150L378 149z" class="color9774bc svgShape"></path><path fill="#161517" d="M78 150L79 151L78 150M94 150L95 151L94 150M199 150L200 151L199 150z" class="color735a8c svgShape"></path><path fill="#161517" d="M311 150L312 151L311 150z" class="color483858 svgShape"></path><path fill="#161517" d="M312 150L313 151L312 150z" class="color9774bc svgShape"></path><path fill="#161517" d="M79 151L80 152L79 151z" class="color483858 svgShape"></path><path fill="#161517" d="M93 151L94 152L93 151z" class="color735a8c svgShape"></path><path fill="#161517" d="M134 151L135 152L134 151M198 151L199 152L198 151M313 151L314 152L313 151z" class="color483858 svgShape"></path><path fill="#161517" d="M377 151L378 152L377 151z" class="color735a8c svgShape"></path><path fill="#161517" d="M80 152L81 153L80 152M92 152L93 153L92 152M196 152L197 153L196 152z" class="color483858 svgShape"></path><path fill="#161517" d="M315 152L316 153L315 152z" class="color735a8c svgShape"></path><path fill="#161517" d="M82 153L83 154L82 153z" class="color483858 svgShape"></path><path fill="#161517" d="M83 153L84 154L83 153M89 153L90 154L89 153z" class="color735a8c svgShape"></path><path fill="#161517" d="M90 153L91 154L90 153M135 153L136 154L135 153z" class="color483858 svgShape"></path><path fill="#161517" d="M194 153L195 154L194 153z" class="color735a8c svgShape"></path><path fill="#161517" d="M316 153L317 154L316 153z" class="color483858 svgShape"></path><path fill="#161517" d="M317 153L318 154L317 153z" class="color9774bc svgShape"></path><path fill="#161517" d="M376 153L377 154L376 153z" class="color735a8c svgShape"></path><path fill="#161517" d="M193 154L194 155L193 154M318 154L319 155L318 154z" class="color483858 svgShape"></path><path fill="#161517" d="M136 155L137 156L136 155z" class="color735a8c svgShape"></path><path fill="#161517" d="M320 155L321 156L320 155M375 155L376 156L375 155z" class="color9774bc svgShape"></path><path fill="#161517" d="M136 156L137 157L136 156M190 156L191 157L190 156z" class="color483858 svgShape"></path><path fill="#161517" d="M321 156L322 157L321 156z" class="color735a8c svgShape"></path><path fill="#161517" d="M375 156L376 157L375 156M189 157L190 158L189 157M322 157L323 158L322 157z" class="color483858 svgShape"></path><path fill="#161517" d="M187 158L188 159L187 158z" class="color735a8c svgShape"></path><path fill="#161517" d="M324 158L325 159L324 158z" class="color9774bc svgShape"></path><path fill="#161517" d="M137 159L137 164L138 164L137 159M186 159L187 160L186 159M325 159L326 160L325 159z" class="color735a8c svgShape"></path><path fill="#161517" d="M374.333 159.667L374.667 160.333L374.333 159.667z" class="color9774bc svgShape"></path><path fill="#161517" d="M185 160L186 161L185 160M326 160L327 161L326 160z" class="color483858 svgShape"></path><path fill="#161517" d="M374 161L374 164L375 164L374 161M182 162L183 163L182 162z" class="color735a8c svgShape"></path><path fill="#161517" d="M329 162L330 163L329 162z" class="color9774bc svgShape"></path><path fill="#161517" d="M181 163L182 164L181 163z" class="color735a8c svgShape"></path><path fill="#161517" d="M330 163L331 164L330 163z" class="color9774bc svgShape"></path><path fill="#161517" d="M180 164L181 165L180 164z" class="color483858 svgShape"></path><path fill="#161517" d="M331 164L332 165L331 164z" class="color735a8c svgShape"></path><path fill="#161517" d="M374 164L375 165L374 164z" class="color9774bc svgShape"></path><path fill="#161517" d="M179 165L180 166L179 165z" class="color483858 svgShape"></path><path fill="#161517" d="M332 165L333 166L332 165z" class="color735a8c svgShape"></path><path fill="#161517" d="M178 166L179 167L178 166M333 166L334 167L333 166M136 167L137 168L136 167M177 167L178 168L177 167M334 167L335 168L334 167M375 167L376 168L375 167z" class="color483858 svgShape"></path><path fill="#161517" d="M136 168L137 169L136 168z" class="color735a8c svgShape"></path><path fill="#161517" d="M176 168L177 169L176 168M335 168L336 169L335 168z" class="color483858 svgShape"></path><path fill="#161517" d="M375 168L376 169L375 168z" class="color735a8c svgShape"></path><path fill="#161517" d="M175 169L176 170L175 169M336 169L337 170L336 169M135 170L136 171L135 170M174 170L175 171L174 170M337 170L338 171L337 170M376 170L377 171L376 170M173 171L174 172L173 171M338 171L339 172L338 171z" class="color483858 svgShape"></path><path fill="#161517" d="M376 171L377 172L376 171z" class="color9774bc svgShape"></path><path fill="#161517" d="M134 172L135 173L134 172M172 172L173 173L172 172z" class="color483858 svgShape"></path><path fill="#161517" d="M339 172L340 173L339 172z" class="color735a8c svgShape"></path><path fill="#161517" d="M377 172L378 173L377 172z" class="color483858 svgShape"></path><path fill="#161517" d="M171 173L172 174L171 173M340 173L341 174L340 173z" class="color735a8c svgShape"></path><path fill="#161517" d="M133 174L134 175L133 174z" class="color483858 svgShape"></path><path fill="#161517" d="M170 174L171 175L170 174z" class="color735a8c svgShape"></path><path fill="#161517" d="M341 174L342 175L341 174z" class="color9774bc svgShape"></path><path fill="#161517" d="M378 174L379 175L378 174M132 176L133 177L132 176z" class="color735a8c svgShape"></path><path fill="#161517" d="M379 176L380 177L379 176z" class="color9774bc svgShape"></path><path fill="#161517" d="M131 177L132 178L131 177M168 177L169 178L168 177M343 177L344 178L343 177M380 177L381 178L380 177M167 178L168 179L167 178M344 178L345 179L344 178M130 179L131 180L130 179z" class="color483858 svgShape"></path><path fill="#161517" d="M166 179L167 180L166 179M345 179L346 180L345 179z" class="color735a8c svgShape"></path><path fill="#161517" d="M381 179L382 180L381 179z" class="color483858 svgShape"></path><path fill="#161517" d="M346 180L347 181L346 180z" class="color9774bc svgShape"></path><path fill="#161517" d="M129 181L130 182L129 181z" class="color483858 svgShape"></path><path fill="#161517" d="M382 181L383 182L382 181z" class="color735a8c svgShape"></path><path fill="#161517" d="M164 182L165 183L164 182M347 182L348 183L347 182M128 183L129 184L128 183z" class="color483858 svgShape"></path><path fill="#161517" d="M163 183L164 184L163 183z" class="color735a8c svgShape"></path><path fill="#161517" d="M348 183L349 184L348 183z" class="color9774bc svgShape"></path><path fill="#161517" d="M383 183L384 184L383 183z" class="color735a8c svgShape"></path><path fill="#161517" d="M127 185L128 186L127 185M162 185L163 186L162 185M349 185L350 186L349 185z" class="color483858 svgShape"></path><path fill="#161517" d="M384 185L385 186L384 185M161 186L162 187L161 186M350 186L351 187L350 186z" class="color735a8c svgShape"></path><path fill="#161517" d="M126 187L127 188L126 187z" class="color483858 svgShape"></path><path fill="#161517" d="M385 187L386 188L385 187z" class="color735a8c svgShape"></path><path fill="#161517" d="M160 188L161 189L160 188M351 188L352 189L351 188M125 189L126 190L125 189z" class="color483858 svgShape"></path><path fill="#161517" d="M159 189L160 190L159 189z" class="color735a8c svgShape"></path><path fill="#161517" d="M352 189L353 190L352 189z" class="color9774bc svgShape"></path><path fill="#161517" d="M386 189L387 190L386 189M124 191L125 192L124 191M158 191L159 192L158 191z" class="color483858 svgShape"></path><path fill="#161517" d="M353 191L354 192L353 191z" class="color735a8c svgShape"></path><path fill="#161517" d="M387 191L388 192L387 191z" class="color483858 svgShape"></path><path fill="#161517" d="M124 192L125 193L124 192z" class="color735a8c svgShape"></path><path fill="#161517" d="M387 192L388 193L387 192z" class="color9774bc svgShape"></path><path fill="#161517" d="M157 193L158 194L157 193M354 193L355 194L354 193z" class="color483858 svgShape"></path><path fill="#161517" d="M123 194L124 195L123 194z" class="color735a8c svgShape"></path><path fill="#161517" d="M355 194L356 195L355 194z" class="color9774bc svgShape"></path><path fill="#161517" d="M388 194L389 195L388 194z" class="color735a8c svgShape"></path><path fill="#161517" d="M156 195L157 196L156 195M355 195L356 196L355 195M122 196L123 197L122 196z" class="color483858 svgShape"></path><path fill="#161517" d="M155 196L156 197L155 196z" class="color735a8c svgShape"></path><path fill="#161517" d="M356 196L357 197L356 196z" class="color9774bc svgShape"></path><path fill="#161517" d="M389 196L390 197L389 196z" class="color483858 svgShape"></path><path fill="#161517" d="M122 197L123 198L122 197z" class="color735a8c svgShape"></path><path fill="#161517" d="M155 197L156 198L155 197M356 197L357 198L356 197z" class="color483858 svgShape"></path><path fill="#161517" d="M389 197L390 198L389 197z" class="color9774bc svgShape"></path><path fill="#161517" d="M154 198L155 199L154 198z" class="color735a8c svgShape"></path><path fill="#161517" d="M357 198L358 199L357 198z" class="color9774bc svgShape"></path><path fill="#161517" d="M121 199L122 200L121 199M154 199L155 200L154 199M357 199L358 200L357 199z" class="color483858 svgShape"></path><path fill="#161517" d="M390 199L391 200L390 199M153 200L154 201L153 200z" class="color735a8c svgShape"></path><path fill="#161517" d="M358 200L359 201L358 200z" class="color9774bc svgShape"></path><path fill="#161517" d="M153 201L154 202L153 201M358 201L359 202L358 201M391 201L392 202L391 201M120 202L121 203L120 202z" class="color483858 svgShape"></path><path fill="#161517" d="M391 202L392 203L391 202z" class="color735a8c svgShape"></path><path fill="#161517" d="M152 203L153 204L152 203M359 203L360 204L359 203M119.333 204.667L119.667 205.333L119.333 204.667M392 204L393 205L392 204z" class="color483858 svgShape"></path><path fill="#161517" d="M151 205L152 206L151 205M360 205L361 206L360 205M392 205L393 206L392 205z" class="color735a8c svgShape"></path><path fill="#161517" d="M360 206L361 207L360 206z" class="color483858 svgShape"></path><path fill="#161517" d="M392 206L393 207L392 206z" class="color9774bc svgShape"></path><path fill="#161517" d="M150 207L151 208L150 207z" class="color735a8c svgShape"></path><path fill="#161517" d="M361 207L362 208L361 207z" class="color9774bc svgShape"></path><path fill="#161517" d="M118 208L119 209L118 208M150 208L151 209L150 208M361 208L362 209L361 208M393 208L394 209L393 208z" class="color483858 svgShape"></path><path fill="#161517" d="M118 209L119 210L118 209z" class="color735a8c svgShape"></path><path fill="#161517" d="M393 209L394 210L393 209z" class="color9774bc svgShape"></path><path fill="#161517" d="M149 210L150 211L149 210M362 210L363 211L362 210z" class="color735a8c svgShape"></path><path fill="#161517" d="M117.333 211.667L117.667 212.333L117.333 211.667M149 211L150 212L149 211M362 211L363 212L362 211M394 211L395 212L394 211z" class="color483858 svgShape"></path><path fill="#161517" d="M394 212L395 213L394 212M117 213L118 214L117 213M148 213L149 214L148 213M363 213L364 214L363 213z" class="color735a8c svgShape"></path><path fill="#161517" d="M394 213L395 214L394 213z" class="color9774bc svgShape"></path><path fill="#161517" d="M148 214L149 215L148 214M363 214L364 215L363 214M116.333 215.667L116.667 216.333L116.333 215.667M395 215L396 216L395 215z" class="color483858 svgShape"></path><path fill="#161517" d="M147 216L148 217L147 216z" class="color735a8c svgShape"></path><path fill="#161517" d="M364 216L365 217L364 216z" class="color9774bc svgShape"></path><path fill="#161517" d="M395 216L396 217L395 216M116 217L117 218L116 217z" class="color735a8c svgShape"></path><path fill="#161517" d="M147 217L148 218L147 217M364 217L365 218L364 217z" class="color483858 svgShape"></path><path fill="#161517" d="M395 217L396 218L395 217z" class="color9774bc svgShape"></path><path fill="#161517" d="M115.333 220.667L115.667 221.333L115.333 220.667z" class="color483858 svgShape"></path><path fill="#161517" d="M146 220L147 221L146 220M365 220L366 221L365 220z" class="color735a8c svgShape"></path><path fill="#161517" d="M396 220L397 221L396 220M146 221L147 222L146 221M365 221L366 222L365 221z" class="color483858 svgShape"></path><path fill="#161517" d="M396 221L397 222L396 221M115 222L116 223L115 222z" class="color735a8c svgShape"></path><path fill="#161517" d="M396 222L397 223L396 222z" class="color9774bc svgShape"></path><path fill="#161517" d="M145 224L146 225L145 224M366 224L367 225L366 224z" class="color735a8c svgShape"></path><path fill="#161517" d="M114 225L114 228L115 228L114 225M145.333 225.667L145.667 226.333L145.333 225.667M366.333 225.667L366.667 226.333L366.333 225.667M397.333 225.667L397.667 226.333L397.333 225.667z" class="color483858 svgShape"></path><path fill="#161517" d="M397 227L398 228L397 227M114 228L115 229L114 228z" class="color735a8c svgShape"></path><path fill="#161517" d="M397.333 228.667L397.667 229.333L397.333 228.667z" class="color9774bc svgShape"></path><path fill="#161517" d="M144 229L145 230L144 229z" class="color735a8c svgShape"></path><path fill="#161517" d="M367 229L368 230L367 229z" class="color9774bc svgShape"></path><path fill="#161517" d="M144.333 230.667L144.667 231.333L144.333 230.667z" class="color483858 svgShape"></path><path fill="#161517" d="M367 230L368 231L367 230z" class="color735a8c svgShape"></path><path fill="#161517" d="M367.333 231.667L367.667 232.333L367.333 231.667M398 232L398 235L399 235L398 232M113 233L113 236L114 236L113 233z" class="color483858 svgShape"></path><path fill="#161517" d="M398 235L398 238L399 238L398 235M113 236L113 239L114 239L113 236M143.333 236.667L143.667 237.333L143.333 236.667z" class="color735a8c svgShape"></path><path fill="#161517" d="M368 236L369 237L368 236z" class="color9774bc svgShape"></path><path fill="#161517" d="M368.333 237.667L368.667 238.333L368.333 237.667z" class="color735a8c svgShape"></path><path fill="#161517" d="M143 238L143 243L144 243L143 238z" class="color483858 svgShape"></path><path fill="#161517" d="M398.333 238.667L398.667 239.333L398.333 238.667z" class="color9774bc svgShape"></path><path fill="#161517" d="M368 239L368 244L369 244L368 239M368 253L368 258L369 258L368 253M143 254L143 259L144 259L143 254z" class="color483858 svgShape"></path><path fill="#161517" d="M113 257L113 261L114 261L113 257z" class="color735a8c svgShape"></path><path fill="#161517" d="M398.333 257.667L398.667 258.333L398.333 257.667z" class="color9774bc svgShape"></path><path fill="#161517" d="M368.333 258.667L368.667 259.333L368.333 258.667M143.333 259.667L143.667 260.333L143.333 259.667M398 259L398 262L399 262L398 259z" class="color735a8c svgShape"></path><path fill="#161517" d="M368 260L369 261L368 260z" class="color9774bc svgShape"></path><path fill="#161517" d="M113 261L113 264L114 264L113 261M398.333 262.667L398.667 263.333L398.333 262.667M367.333 264.667L367.667 265.333L367.333 264.667M144.333 265.667L144.667 266.333L144.333 265.667z" class="color483858 svgShape"></path><path fill="#161517" d="M367 266L368 267L367 266M144 267L145 268L144 267z" class="color735a8c svgShape"></path><path fill="#161517" d="M367 267L368 268L367 267M397 267L398 268L397 267z" class="color9774bc svgShape"></path><path fill="#161517" d="M114 268L115 269L114 268M397.333 268.667L397.667 269.333L397.333 268.667z" class="color735a8c svgShape"></path><path fill="#161517" d="M114.333 269.667L114.667 270.333L114.333 269.667M145.333 270.667L145.667 271.333L145.333 270.667M366.333 270.667L366.667 271.333L366.333 270.667M397.333 270.667L397.667 271.333L397.333 270.667z" class="color483858 svgShape"></path><path fill="#161517" d="M145 272L146 273L145 272z" class="color735a8c svgShape"></path><path fill="#161517" d="M366 272L367 273L366 272z" class="color9774bc svgShape"></path><path fill="#161517" d="M115 274L116 275L115 274M396 274L397 275L396 274z" class="color735a8c svgShape"></path><path fill="#161517" d="M115.333 275.667L115.667 276.333L115.333 275.667M146 275L147 276L146 275M365 275L366 276L365 275M396.333 275.667L396.667 276.333L396.333 275.667z" class="color483858 svgShape"></path><path fill="#161517" d="M146 276L147 277L146 276M365 276L366 277L365 276M116 279L117 280L116 279z" class="color735a8c svgShape"></path><path fill="#161517" d="M147 279L148 280L147 279M364 279L365 280L364 279z" class="color483858 svgShape"></path><path fill="#161517" d="M395 279L396 280L395 279z" class="color735a8c svgShape"></path><path fill="#161517" d="M116 280L117 281L116 280z" class="color483858 svgShape"></path><path fill="#161517" d="M147 280L148 281L147 280z" class="color735a8c svgShape"></path><path fill="#161517" d="M364 280L365 281L364 280z" class="color9774bc svgShape"></path><path fill="#161517" d="M395.333 280.667L395.667 281.333L395.333 280.667M148 282L149 283L148 282M363 282L364 283L363 282z" class="color483858 svgShape"></path><path fill="#161517" d="M117 283L118 284L117 283M148 283L149 284L148 283M363 283L364 284L363 283z" class="color735a8c svgShape"></path><path fill="#161517" d="M394 283L395 284L394 283z" class="color9774bc svgShape"></path><path fill="#161517" d="M117 284L118 285L117 284M394.333 284.667L394.667 285.333L394.333 284.667M149 285L150 286L149 285M362 285L363 286L362 285z" class="color483858 svgShape"></path><path fill="#161517" d="M149 286L150 287L149 286z" class="color735a8c svgShape"></path><path fill="#161517" d="M362 286L363 287L362 286z" class="color9774bc svgShape"></path><path fill="#161517" d="M118 287L119 288L118 287M393 287L394 288L393 287z" class="color735a8c svgShape"></path><path fill="#161517" d="M118 288L119 289L118 288M150 288L151 289L150 288M361 288L362 289L361 288M393 288L394 289L393 288z" class="color483858 svgShape"></path><path fill="#161517" d="M150 289L151 290L150 289z" class="color735a8c svgShape"></path><path fill="#161517" d="M361 289L362 290L361 289z" class="color9774bc svgShape"></path><path fill="#161517" d="M119 290L120 291L119 290z" class="color735a8c svgShape"></path><path fill="#161517" d="M360 290L361 291L360 290z" class="color483858 svgShape"></path><path fill="#161517" d="M392 290L393 291L392 290z" class="color9774bc svgShape"></path><path fill="#161517" d="M119 291L120 292L119 291z" class="color483858 svgShape"></path><path fill="#161517" d="M151 291L152 292L151 291M360 291L361 292L360 291z" class="color735a8c svgShape"></path><path fill="#161517" d="M392 291L393 292L392 291z" class="color483858 svgShape"></path><path fill="#161517" d="M120 293L121 294L120 293z" class="color735a8c svgShape"></path><path fill="#161517" d="M152 293L153 294L152 293M359 293L360 294L359 293z" class="color483858 svgShape"></path><path fill="#161517" d="M391 293L392 294L391 293z" class="color9774bc svgShape"></path><path fill="#161517" d="M120 294L121 295L120 294M391 294L392 295L391 294M153 295L154 296L153 295M358 295L359 296L358 295z" class="color483858 svgShape"></path><path fill="#161517" d="M121 296L122 297L121 296z" class="color735a8c svgShape"></path><path fill="#161517" d="M358 296L359 297L358 296M390 296L391 297L390 296z" class="color9774bc svgShape"></path><path fill="#161517" d="M121 297L122 298L121 297M154 297L155 298L154 297M357 297L358 298L357 297M390 297L391 298L390 297z" class="color483858 svgShape"></path><path fill="#161517" d="M154 298L155 299L154 298z" class="color735a8c svgShape"></path><path fill="#161517" d="M357 298L358 299L357 298z" class="color9774bc svgShape"></path><path fill="#161517" d="M122 299L123 300L122 299z" class="color735a8c svgShape"></path><path fill="#161517" d="M155 299L156 300L155 299M356 299L357 300L356 299z" class="color483858 svgShape"></path><path fill="#161517" d="M389 299L390 300L389 299z" class="color735a8c svgShape"></path><path fill="#161517" d="M122 300L123 301L122 300z" class="color483858 svgShape"></path><path fill="#161517" d="M155 300L156 301L155 300z" class="color735a8c svgShape"></path><path fill="#161517" d="M356 300L357 301L356 300z" class="color9774bc svgShape"></path><path fill="#161517" d="M389 300L390 301L389 300M156 301L157 302L156 301M355 301L356 302L355 301M123 302L124 303L123 302M388 302L389 303L388 302M157 303L158 304L157 303M354 303L355 304L354 303z" class="color483858 svgShape"></path><path fill="#161517" d="M124 304L125 305L124 304M387 304L388 305L387 304z" class="color735a8c svgShape"></path><path fill="#161517" d="M158 305L159 306L158 305z" class="color483858 svgShape"></path><path fill="#161517" d="M353 305L354 306L353 305M125 306L126 307L125 306z" class="color735a8c svgShape"></path><path fill="#161517" d="M352 306L353 307L352 306z" class="color483858 svgShape"></path><path fill="#161517" d="M386 306L387 307L386 306z" class="color9774bc svgShape"></path><path fill="#161517" d="M125 307L126 308L125 307z" class="color483858 svgShape"></path><path fill="#161517" d="M159 307L160 308L159 307z" class="color735a8c svgShape"></path><path fill="#161517" d="M352 307L353 308L352 307z" class="color9774bc svgShape"></path><path fill="#161517" d="M386 307L387 308L386 307M160 308L161 309L160 308M351 308L352 309L351 308z" class="color483858 svgShape"></path><path fill="#161517" d="M385 308L386 309L385 308z" class="color9774bc svgShape"></path><path fill="#161517" d="M126 309L127 310L126 309M385 309L386 310L385 309z" class="color483858 svgShape"></path><path fill="#161517" d="M161 310L162 311L161 310z" class="color735a8c svgShape"></path><path fill="#161517" d="M350 310L351 311L350 310z" class="color9774bc svgShape"></path><path fill="#161517" d="M127 311L128 312L127 311M162 311L163 312L162 311M349 311L350 312L349 311M384 311L385 312L384 311M128 313L129 314L128 313z" class="color483858 svgShape"></path><path fill="#161517" d="M163 313L164 314L163 313z" class="color735a8c svgShape"></path><path fill="#161517" d="M348 313L349 314L348 313z" class="color9774bc svgShape"></path><path fill="#161517" d="M383 313L384 314L383 313M164 314L165 315L164 314z" class="color483858 svgShape"></path><path fill="#161517" d="M347 314L348 315L347 314z" class="color735a8c svgShape"></path><path fill="#161517" d="M129 315L130 316L129 315M346 315L347 316L346 315M382 315L383 316L382 315z" class="color483858 svgShape"></path><path fill="#161517" d="M130 316L131 317L130 316z" class="color735a8c svgShape"></path><path fill="#161517" d="M381 316L382 317L381 316z" class="color9774bc svgShape"></path><path fill="#161517" d="M130 317L131 318L130 317z" class="color483858 svgShape"></path><path fill="#161517" d="M166 317L167 318L166 317z" class="color735a8c svgShape"></path><path fill="#161517" d="M345 317L346 318L345 317z" class="color9774bc svgShape"></path><path fill="#161517" d="M381 317L382 318L381 317z" class="color483858 svgShape"></path><path fill="#161517" d="M131 318L132 319L131 318z" class="color735a8c svgShape"></path><path fill="#161517" d="M167 318L168 319L167 318z" class="color483858 svgShape"></path><path fill="#161517" d="M344 318L345 319L344 318z" class="color735a8c svgShape"></path><path fill="#161517" d="M380 318L381 319L380 318z" class="color9774bc svgShape"></path><path fill="#161517" d="M168 319L169 320L168 319M343 319L344 320L343 319M132 320L133 321L132 320z" class="color483858 svgShape"></path><path fill="#161517" d="M379 320L380 321L379 320z" class="color735a8c svgShape"></path><path fill="#161517" d="M133 322L134 323L133 322z" class="color483858 svgShape"></path><path fill="#161517" d="M170 322L171 323L170 322z" class="color735a8c svgShape"></path><path fill="#161517" d="M341 322L342 323L341 322z" class="color9774bc svgShape"></path><path fill="#161517" d="M378 322L379 323L378 322z" class="color483858 svgShape"></path><path fill="#161517" d="M134 323L135 324L134 323M171 323L172 324L171 323z" class="color735a8c svgShape"></path><path fill="#161517" d="M340 323L341 324L340 323M377 323L378 324L377 323z" class="color9774bc svgShape"></path><path fill="#161517" d="M172 324L173 325L172 324M183 324L184 325L183 324z" class="color483858 svgShape"></path><path fill="#161517" d="M339 324L340 325L339 324z" class="color735a8c svgShape"></path><path fill="#161517" d="M135 325L136 326L135 325z" class="color483858 svgShape"></path><path fill="#161517" d="M173 325L174 326L173 325M182 325L183 326L182 325z" class="color735a8c svgShape"></path><path fill="#161517" d="M183 325L187 328L183 325z" class="colorb08bd8 svgShape"></path><path fill="#161517" d="M338 325L339 326L338 325z" class="color735a8c svgShape"></path><path fill="#161517" d="M376 325L377 326L376 325M175.667 326.333L176.333 326.667L175.667 326.333M179.667 326.333L180.333 326.667L179.667 326.333z" class="color483858 svgShape"></path><path fill="#161517" d="M337 326L338 327L337 326z" class="color735a8c svgShape"></path><path fill="#161517" d="M375 326L376 327L375 326z" class="color9774bc svgShape"></path><path fill="#161517" d="M336 327L337 328L336 327M375 327L376 328L375 327M137 328L138 329L137 328z" class="color483858 svgShape"></path><path fill="#161517" d="M187 328L188 329L187 328z" class="colorb08bd8 svgShape"></path><path fill="#161517" d="M335 328L336 329L335 328z" class="color483858 svgShape"></path><path fill="#161517" d="M374 328L375 329L374 328z" class="color735a8c svgShape"></path><path fill="#161517" d="M188 329L192 332L188 329z" class="colorb08bd8 svgShape"></path><path fill="#161517" d="M334 329L335 330L334 329z" class="color483858 svgShape"></path><path fill="#161517" d="M373 329L374 330L373 329z" class="color9774bc svgShape"></path><path fill="#161517" d="M333 330L334 331L333 330z" class="color735a8c svgShape"></path><path fill="#161517" d="M139 331L140 332L139 331z" class="color483858 svgShape"></path><path fill="#161517" d="M332 331L333 332L332 331z" class="color735a8c svgShape"></path><path fill="#161517" d="M372 331L373 332L372 331z" class="color483858 svgShape"></path><path fill="#161517" d="M140 332L141 333L140 332z" class="color735a8c svgShape"></path><path fill="#161517" d="M192 332L193 333L192 332z" class="colorb08bd8 svgShape"></path><path fill="#161517" d="M331 332L332 333L331 332z" class="color735a8c svgShape"></path><path fill="#161517" d="M371 332L372 333L371 332z" class="color9774bc svgShape"></path><path fill="#161517" d="M193 333L196 335L193 333z" class="colorb08bd8 svgShape"></path><path fill="#161517" d="M330 333L331 334L330 333z" class="color9774bc svgShape"></path><path fill="#161517" d="M141 334L142 335L141 334M370 334L371 335L370 334M142 335L143 336L142 335z" class="color483858 svgShape"></path><path fill="#161517" d="M196 335L199 337L196 335z" class="colorb08bd8 svgShape"></path><path fill="#161517" d="M327 335L328 336L327 335M369 335L370 336L369 335z" class="color483858 svgShape"></path><path fill="#161517" d="M143 336L144 337L143 336z" class="color735a8c svgShape"></path><path fill="#161517" d="M326 336L327 337L326 336z" class="color483858 svgShape"></path><path fill="#161517" d="M368 336L369 337L368 336z" class="color9774bc svgShape"></path><path fill="#161517" d="M325 337L326 338L325 337M198 338L199 339L198 338z" class="color735a8c svgShape"></path><path fill="#161517" d="M324 338L325 339L324 338z" class="color9774bc svgShape"></path><path fill="#161517" d="M145 339L146 340L145 339M198 339L198 343L199 343L198 339M322 339L323 340L322 339M366 339L367 340L366 339M146 340L147 341L146 340z" class="color483858 svgShape"></path><path fill="#161517" d="M321 340L322 341L321 340z" class="color735a8c svgShape"></path><path fill="#161517" d="M365 340L366 341L365 340z" class="color483858 svgShape"></path><path fill="#161517" d="M147 341L148 342L147 341z" class="color735a8c svgShape"></path><path fill="#161517" d="M319 341L320 342L319 341z" class="color483858 svgShape"></path><path fill="#161517" d="M364 341L365 342L364 341M148 342L149 343L148 342M318 342L319 343L318 342z" class="color735a8c svgShape"></path><path fill="#161517" d="M363 342L364 343L363 342z" class="color9774bc svgShape"></path><path fill="#161517" d="M198 343L199 344L198 343z" class="color735a8c svgShape"></path><path fill="#161517" d="M316 343L317 344L316 343z" class="color483858 svgShape"></path><path fill="#161517" d="M362 343L363 344L362 343z" class="color9774bc svgShape"></path><path fill="#161517" d="M315 344L316 345L315 344M199 345L200 346L199 345z" class="color735a8c svgShape"></path><path fill="#161517" d="M313 345L314 346L313 345M200 346L201 347L200 346M311 346L312 347L311 346z" class="color483858 svgShape"></path><path fill="#161517" d="M312 346L313 347L312 346z" class="color9774bc svgShape"></path><path fill="#161517" d="M360 346L361 347L360 346z" class="color483858 svgShape"></path><path fill="#161517" d="M201 347L202 348L201 347M310 347L311 348L310 347z" class="color735a8c svgShape"></path><path fill="#161517" d="M359 347L360 348L359 347M153 348L154 349L153 348z" class="color483858 svgShape"></path><path fill="#161517" d="M203 348L204 349L203 348M308 348L309 349L308 348z" class="color735a8c svgShape"></path><path fill="#161517" d="M358 348L359 349L358 348M154 349L155 350L154 349z" class="color483858 svgShape"></path><path fill="#161517" d="M205 349L206 350L205 349M306 349L307 350L306 349z" class="color735a8c svgShape"></path><path fill="#161517" d="M357 349L358 350L357 349M155 350L156 351L155 350M207 350L208 351L207 350z" class="color483858 svgShape"></path><path fill="#161517" d="M304 350L305 351L304 350z" class="color735a8c svgShape"></path><path fill="#161517" d="M356 350L357 351L356 350M156 351L157 352L156 351z" class="color483858 svgShape"></path><path fill="#161517" d="M209 351L210 352L209 351z" class="color735a8c svgShape"></path><path fill="#161517" d="M210 351L211 352L210 351M301 351L302 352L301 351z" class="color483858 svgShape"></path><path fill="#161517" d="M302 351L303 352L302 351z" class="color735a8c svgShape"></path><path fill="#161517" d="M355 351L356 352L355 351M157 352L158 353L157 352z" class="color483858 svgShape"></path><path fill="#161517" d="M211 352L212 353L211 352z" class="color735a8c svgShape"></path><path fill="#161517" d="M212 352L213 353L212 352M299 352L300 353L299 352z" class="color483858 svgShape"></path><path fill="#161517" d="M300 352L301 353L300 352z" class="color9774bc svgShape"></path><path fill="#161517" d="M354 352L355 353L354 352M214 353L215 354L214 353z" class="color483858 svgShape"></path><path fill="#161517" d="M297 353L298 354L297 353M216 354L217 355L216 354z" class="color735a8c svgShape"></path><path fill="#161517" d="M217 354L218 355L217 354M294 354L295 355L294 354z" class="color483858 svgShape"></path><path fill="#161517" d="M295 354L296 355L295 354z" class="color9774bc svgShape"></path><path fill="#161517" d="M161 355L162 356L161 355M219 355L220 356L219 355z" class="color735a8c svgShape"></path><path fill="#161517" d="M220 355L221 356L220 355M291 355L292 356L291 355z" class="color483858 svgShape"></path><path fill="#161517" d="M292 355L293 356L292 355M350 355L351 356L350 355z" class="color9774bc svgShape"></path><path fill="#161517" d="M162 356L163 357L162 356M222 356L223 357L222 356z" class="color735a8c svgShape"></path><path fill="#161517" d="M223 356L224 357L223 356M288 356L289 357L288 356z" class="color483858 svgShape"></path><path fill="#161517" d="M289 356L290 357L289 356M349 356L350 357L349 356z" class="color9774bc svgShape"></path><path fill="#161517" d="M163 357L164 358L163 357M226.667 357.333L227.333 357.667L226.667 357.333M284 357L285 358L284 357z" class="color483858 svgShape"></path><path fill="#161517" d="M285 357L286 358L285 357z" class="color735a8c svgShape"></path><path fill="#161517" d="M286 357L287 358L286 357z" class="color9774bc svgShape"></path><path fill="#161517" d="M348 357L349 358L348 357z" class="color735a8c svgShape"></path><path fill="#161517" d="M164 358L165 359L164 358z" class="color483858 svgShape"></path><path fill="#161517" d="M230 358L231 359L230 358z" class="color735a8c svgShape"></path><path fill="#161517" d="M231 358L232 359L231 358M280 358L281 359L280 358z" class="color483858 svgShape"></path><path fill="#161517" d="M281 358L282 359L281 358z" class="color735a8c svgShape"></path><path fill="#161517" d="M282 358L283 359L282 358z" class="color9774bc svgShape"></path><path fill="#161517" d="M347 358L348 359L347 358M165 359L166 360L165 359z" class="color483858 svgShape"></path><path fill="#161517" d="M234 359L235 360L234 359z" class="color735a8c svgShape"></path><path fill="#161517" d="M235.667 359.333L236.333 359.667L235.667 359.333M275 359L276 360L275 359z" class="color483858 svgShape"></path><path fill="#161517" d="M276 359L277 360L276 359z" class="color735a8c svgShape"></path><path fill="#161517" d="M277 359L278 360L277 359z" class="color9774bc svgShape"></path><path fill="#161517" d="M346 359L347 360L346 359z" class="color483858 svgShape"></path><path fill="#161517" d="M240 360L241 361L240 360z" class="color735a8c svgShape"></path><path fill="#161517" d="M241 360L241 361L245 361L241 360M267 360L267 361L270 361L267 360z" class="color483858 svgShape"></path><path fill="#161517" d="M270 360L271 361L270 360z" class="color735a8c svgShape"></path><path fill="#161517" d="M271.667 360.333L272.333 360.667L271.667 360.333M344 360L345 361L344 360z" class="color9774bc svgShape"></path><path fill="#161517" d="M168 361L169 362L168 361M249 361L249 362L252 362L249 361M253 361L253 362L259 362L253 361z" class="color735a8c svgShape"></path><path fill="#161517" d="M259 361L259 362L263 362L259 361z" class="color9774bc svgShape"></path><path fill="#161517" d="M343 361L344 362L343 361z" class="color735a8c svgShape"></path><path fill="#161517" d="M169 362L170 363L169 362M342 362L343 363L342 362M341 363L342 364L341 363z" class="color483858 svgShape"></path><path fill="#161517" d="M172 364L173 365L172 364M339 364L340 365L339 364z" class="color735a8c svgShape"></path><path fill="#161517" d="M173 365L174 366L173 365M338 365L339 366L338 365z" class="color483858 svgShape"></path><path fill="#161517" d="M175 366L176 367L175 366z" class="color735a8c svgShape"></path><path fill="#161517" d="M336 366L337 367L336 366z" class="color9774bc svgShape"></path><path fill="#161517" d="M176 367L177 368L176 367M335 367L336 368L335 367z" class="color483858 svgShape"></path><path fill="#161517" d="M178 368L179 369L178 368z" class="color735a8c svgShape"></path><path fill="#161517" d="M333 368L334 369L333 368z" class="color9774bc svgShape"></path><path fill="#161517" d="M179 369L180 370L179 369M332 369L333 370L332 369z" class="color483858 svgShape"></path><path fill="#161517" d="M181 370L182 371L181 370M330 370L331 371L330 370z" class="color735a8c svgShape"></path><path fill="#161517" d="M182 371L183 372L182 371z" class="color483858 svgShape"></path><path fill="#161517" d="M328 371L329 372L328 371z" class="color9774bc svgShape"></path><path fill="#161517" d="M329 371L330 372L329 371M184 372L185 373L184 372M327 372L328 373L327 372M186 373L187 374L186 373z" class="color483858 svgShape"></path><path fill="#161517" d="M325 373L326 374L325 373M188 374L189 375L188 374M323 374L324 375L323 374M190 375L191 376L190 375z" class="color735a8c svgShape"></path><path fill="#161517" d="M321 375L322 376L321 375z" class="color9774bc svgShape"></path><path fill="#161517" d="M322 375L323 376L322 375M191 376L192 377L191 376z" class="color483858 svgShape"></path><path fill="#161517" d="M192 376L193 377L192 376z" class="color735a8c svgShape"></path><path fill="#161517" d="M319 376L320 377L319 376z" class="color9774bc svgShape"></path><path fill="#161517" d="M320 376L321 377L320 376z" class="color483858 svgShape"></path><path fill="#161517" d="M194 377L195 378L194 377z" class="color735a8c svgShape"></path><path fill="#161517" d="M317 377L318 378L317 377z" class="color9774bc svgShape"></path><path fill="#161517" d="M318 377L319 378L318 377M196 378L197 379L196 378z" class="color483858 svgShape"></path><path fill="#161517" d="M315 378L316 379L315 378z" class="color735a8c svgShape"></path><path fill="#161517" d="M198 379L199 380L198 379z" class="color483858 svgShape"></path><path fill="#161517" d="M313 379L314 380L313 379z" class="color735a8c svgShape"></path><path fill="#161517" d="M200 380L201 381L200 380z" class="color483858 svgShape"></path><path fill="#161517" d="M201 380L202 381L201 380z" class="color735a8c svgShape"></path><path fill="#161517" d="M310 380L311 381L310 380z" class="color9774bc svgShape"></path><path fill="#161517" d="M311 380L312 381L311 380z" class="color483858 svgShape"></path><path fill="#161517" d="M203 381L204 382L203 381M308 381L309 382L308 381z" class="color735a8c svgShape"></path><path fill="#161517" d="M309 381L310 382L309 381M205 382L206 383L205 382z" class="color483858 svgShape"></path><path fill="#161517" d="M206 382L207 383L206 382z" class="color735a8c svgShape"></path><path fill="#161517" d="M305 382L306 383L305 382z" class="color9774bc svgShape"></path><path fill="#161517" d="M306 382L307 383L306 382M208 383L209 384L208 383z" class="color483858 svgShape"></path><path fill="#161517" d="M302 383L303 384L302 383z" class="color9774bc svgShape"></path><path fill="#161517" d="M303 383L304 384L303 383M211 384L212 385L211 384z" class="color483858 svgShape"></path><path fill="#161517" d="M212 384L213 385L212 384z" class="color735a8c svgShape"></path><path fill="#161517" d="M299 384L300 385L299 384z" class="color9774bc svgShape"></path><path fill="#161517" d="M300 384L301 385L300 384z" class="color735a8c svgShape"></path><path fill="#161517" d="M214 385L215 386L214 385z" class="color483858 svgShape"></path><path fill="#161517" d="M215 385L216 386L215 385z" class="color735a8c svgShape"></path><path fill="#161517" d="M296 385L297 386L296 385z" class="color9774bc svgShape"></path><path fill="#161517" d="M297 385L298 386L297 385M217 386L218 387L217 386z" class="color483858 svgShape"></path><path fill="#161517" d="M218 386L219 387L218 386M293 386L294 387L293 386z" class="color735a8c svgShape"></path><path fill="#161517" d="M294 386L295 387L294 386M221 387L222 388L221 387z" class="color483858 svgShape"></path><path fill="#161517" d="M222 387L223 388L222 387z" class="color735a8c svgShape"></path><path fill="#161517" d="M288 387L289 388L288 387z" class="color9774bc svgShape"></path><path fill="#161517" d="M289 387L290 388L289 387z" class="color735a8c svgShape"></path><path fill="#161517" d="M290 387L291 388L290 387M225.667 388.333L226.333 388.667L225.667 388.333z" class="color483858 svgShape"></path><path fill="#161517" d="M227 388L228 389L227 388z" class="color735a8c svgShape"></path><path fill="#161517" d="M284 388L285 389L284 388z" class="color9774bc svgShape"></path><path fill="#161517" d="M285 388L286 389L285 388z" class="color735a8c svgShape"></path><path fill="#161517" d="M286 388L287 389L286 388M229.667 389.333L230.333 389.667L229.667 389.333z" class="color483858 svgShape"></path><path fill="#161517" d="M281 389L282 390L281 389z" class="color735a8c svgShape"></path><path fill="#161517" d="M282 389L283 390L282 389M232 390L233 391L232 390M279 390L280 391L279 390M234 391L235 392L234 391M277 391L278 392L277 391z" class="color483858 svgShape"></path><path fill="#161517" d="M275 392L276 393L275 392z" class="color9774bc svgShape"></path><path fill="#161517" d="M237 393L238 394L237 393M274 393L275 394L274 393M238 394L239 395L238 394M273 394L274 395L273 394M239 395L240 396L239 395M272 395L273 396L272 395z" class="color735a8c svgShape"></path><path fill="#161517" d="M271 396L272 397L271 396z" class="color9774bc svgShape"></path><path fill="#161517" d="M271 397L272 398L271 397M241 398L242 399L241 398z" class="color483858 svgShape"></path><path fill="#161517" d="M270 398L271 399L270 398z" class="color735a8c svgShape"></path><path fill="#161517" d="M242 400L243 401L242 400M269 400L270 401L269 400M243.333 402.667L243.667 403.333L243.333 402.667z" class="color483858 svgShape"></path><path fill="#161517" d="M268 402L269 403L268 402z" class="color735a8c svgShape"></path><path fill="#161517" d="M268 403L269 404L268 403z" class="color483858 svgShape"></path><path fill="#161517" d="M244 405L245 406L244 405z" class="color735a8c svgShape"></path><path fill="#161517" d="M267 405L268 406L267 405z" class="color9774bc svgShape"></path><path fill="#161517" d="M244 406L244 419L245 419L244 406z" class="color483858 svgShape"></path><path fill="#161517" d="M267 406L268 407L267 406z" class="color735a8c svgShape"></path><path fill="#161517" d="M267 407L267 419L268 419L267 407z" class="color483858 svgShape"></path><path fill="#161517" d="M244 419L245 420L244 419M267 419L268 420L267 419z" class="color735a8c svgShape"></path><path fill="#161517" d="M243 422L244 423L243 422M268 422L269 423L268 422M242 424L243 425L242 424M269 424L270 425L269 424M241 426L242 427L241 426M270 426L271 427L270 426z" class="color483858 svgShape"></path><path fill="#161517" d="M240 428L241 429L240 428M271 428L272 429L271 428M239 429L240 430L239 429M272 429L273 430L272 429z" class="color735a8c svgShape"></path><path fill="#161517" d="M238 430L239 431L238 430M273 430L274 431L273 430z" class="color483858 svgShape"></path><path fill="#161517" d="M237 431L238 432L237 431M274 431L275 432L274 431M236 432L237 433L236 432M275 432L276 433L275 432z" class="color735a8c svgShape"></path><path fill="#161517" d="M234 433L235 434L234 433M277 433L278 434L277 433M232 434L233 435L232 434M279 434L280 435L279 434M230 435L231 436L230 435M281 435L282 436L281 435M214 436L214 437L227 437L214 436z" class="color483858 svgShape"></path><path fill="#161517" d="M227 436L228 437L227 436M284 436L285 437L284 436z" class="color735a8c svgShape"></path><path fill="#161517" d="M285 436L285 437L298 437L285 436M210 437L211 438L210 437z" class="color483858 svgShape"></path><path fill="#161517" d="M300 437L301 438L300 437z" class="color735a8c svgShape"></path><path fill="#161517" d="M301 437L302 438L301 437M208 438L209 439L208 438M303 438L304 439L303 438z" class="color483858 svgShape"></path><path fill="#161517" d="M207 439L208 440L207 439M304 439L305 440L304 439M206 440L207 441L206 440M305 440L306 441L305 440M205 441L206 442L205 441z" class="color735a8c svgShape"></path><path fill="#161517" d="M306 441L307 442L306 441M204 442L205 443L204 442z" class="color483858 svgShape"></path><path fill="#161517" d="M204 443L205 444L204 443M307 443L308 444L307 443z" class="color735a8c svgShape"></path><path fill="#161517" d="M203 445L204 446L203 445M308 445L309 446L308 445z" class="color483858 svgShape"></path><path fill="#161517" d="M203 446L203 450L204 450L203 446M308 446L308 450L309 450L308 446z" class="color735a8c svgShape"></path><path fill="#161517" d="M203 450L204 451L203 450M308 450L309 451L308 450z" class="color483858 svgShape"></path><path fill="#161517" d="M204 452L205 453L204 452M307 452L308 453L307 452z" class="color735a8c svgShape"></path><path fill="#161517" d="M307 453L308 454L307 453M205 454L206 455L205 454z" class="color483858 svgShape"></path><path fill="#161517" d="M306 454L307 455L306 454M206 455L207 456L206 455M207 456L208 457L207 456M304 456L305 457L304 456z" class="color735a8c svgShape"></path><path fill="#161517" d="M208 457L209 458L208 457M303 457L304 458L303 457M210 458L211 459L210 458z" class="color483858 svgShape"></path><path fill="#161517" d="M211 458L212 459L211 458z" class="color735a8c svgShape"></path><path fill="#161517" d="M301 458L302 459L301 458M214 459L214 460L226 460L214 459z" class="color483858 svgShape"></path><path fill="#161517" d="M226.667 459.333L227.333 459.667L226.667 459.333M284.667 459.333L285.333 459.667L284.667 459.333z" class="color735a8c svgShape"></path><path fill="#161517" d="M286 459L286 460L299 460L286 459M229.667 460.333L230.333 460.667L229.667 460.333M281 460L282 461L281 460M232 461L233 462L232 461M279 461L280 462L279 461M234 462L235 463L234 462M277 462L278 463L277 462z" class="color483858 svgShape"></path><path fill="#161517" d="M275 463L276 464L275 463M237 464L238 465L237 464M274 464L275 465L274 464M238 465L239 466L238 465M273 465L274 466L273 465M239 466L240 467L239 466M272 466L273 467L272 466M240 467L241 468L240 467M271 467L272 468L271 467z" class="color735a8c svgShape"></path><path fill="#161517" d="M241 469L242 470L241 469M270 469L271 470L270 469M242 471L243 472L242 471M269 471L270 472L269 471M243 473L244 474L243 473M268 473L269 474L268 473z" class="color483858 svgShape"></path><path fill="#161517" d="M244 476L245 477L244 476M267 476L268 477L267 476z" class="color735a8c svgShape"></path><path fill="#161517" d="M244 477L244 487L245 487L244 477M267 477L267 486L268 486L267 477z" class="color483858 svgShape"></path><path fill="#161517" d="M266 488L267 489L266 488M245 489L246 490L245 489z" class="color735a8c svgShape"></path><path fill="#161517" d="M266 489L267 490L266 489z" class="color483858 svgShape"></path><path fill="#161517" d="M246 491L247 492L246 491z" class="color735a8c svgShape"></path><path fill="#161517" d="M265 491L266 492L265 491z" class="color483858 svgShape"></path><path fill="#161517" d="M264 492L265 493L264 492M262 494L263 495L262 494z" class="color735a8c svgShape"></path><path fill="#161517" d="M250 495L251 496L250 495M261 495L262 496L261 495M252 496L253 497L252 496z" class="color483858 svgShape"></path><path fill="#161517" d="M253 496L254 497L253 496M258 496L259 497L258 496z" class="color735a8c svgShape"></path><path fill="#161517" d="M259 496L260 497L259 496z" class="color483858 svgShape"></path></svg></g></svg>