<svg id="SvgjsSvg1001" width="288" height="288" xmlns="http://www.w3.org/2000/svg" version="1.1" xmlns:xlink="http://www.w3.org/1999/xlink" xmlns:svgjs="http://svgjs.com/svgjs"><defs id="SvgjsDefs1002"></defs><g id="SvgjsG1008"><svg xmlns="http://www.w3.org/2000/svg" viewBox="0 0 512 512" width="288" height="288"><path fill="#161517" d="M77 12L78 13L77 12z" class="color0101ff svgShape"></path><path fill="#161517" d="M78 12.5324C65.5398 15.5009 62.0181 27.7582 62 39C61.9566 65.9999 62 93.0001 62 120L62 383L62 455C62 465.535 59.8015 479.358 64.9198 488.999C70.7564 499.993 81.0915 500 92 500L152 500L347 500L406 500C415.007 500 426.324 501.817 435 499.2C447.258 495.502 449.982 483.236 450 472C450.043 445.333 450 418.667 450 392L450 123L450 53C450 42.8044 451.872 29.9427 445.891 21.0146C439.41 11.3397 429.321 12 419 12L357 12L167 12L108 12C98.5282 12 87.2387 10.3314 78 12.5324z" class="color3f6acb svgShape"></path><path fill="#161517" d="M71 15L72 16L71 15M66 20L67 21L66 20z" class="color0101ff svgShape"></path><path fill="#161517" d="M81.6667 20.3333L82.3333 20.6667L81.6667 20.3333z" class="colora5c9fe svgShape"></path><path fill="#ffffff" d="M83 20.4684C69.9429 22.9998 71 35.5598 71 46L71 125L71 385L71 455C71 463.754 68.5065 477.175 73.0895 484.985C77.8501 493.097 87.9223 492 96 492L158 492L343 492L401 492C410.231 492 420.993 493.506 430 491.316C442.596 488.253 441 475.142 441 465L441 387L441 123L441 54C441 45.7198 443.33 33.1768 438.297 26.044C432.918 18.4214 422.123 20 414 20L352 20L171 20L113 20C103.347 20 92.4949 18.6275 83 20.4684z" class="colore1eafc svgShape"></path><path fill="#161517" d="M429.667 20.3333L430.333 20.6667L429.667 20.3333z" class="colora5c9fe svgShape"></path><path fill="#161517" d="M445 20L446 21L445 20z" class="color0101ff svgShape"></path><path fill="#161517" d="M78 21L79 22L78 21M433 21L434 22L433 21M76 22L77 23L76 22M435 22L436 23L435 22M75 23L76 24L75 23M436 23L437 24L436 23M74 24L75 25L74 24M437 24L438 25L437 24M73 25L74 26L73 25M438 25L439 26L438 25M72 27L73 28L72 27M439 27L440 28L439 27M71.3333 29.6667L71.6667 30.3333L71.3333 29.6667M440.333 29.6667L440.667 30.3333L440.333 29.6667z" class="colora5c9fe svgShape"></path><path fill="#161517" d="M449 31L450 32L449 31z" class="color0101ff svgShape"></path><path fill="#161517" d="M249.667 43.3333L250.333 43.6667L249.667 43.3333z" class="colora5c9fe svgShape"></path><path fill="#161517" d="M251 43.4684C225.762 48.0739 200.058 62.7772 176 71.6813C169.514 74.0819 154.396 76.8931 153.248 85.0046C151.39 98.1224 181.051 100.018 188.682 106.075C195.156 111.212 187.423 122.46 195.109 128.031C202.694 133.528 214.036 134.117 223 135.282C247.523 138.467 273.672 137.977 298 133.389C304.501 132.163 315.409 130.461 317.566 122.96C318.962 118.108 315.975 110.672 319.603 106.649C326.901 98.5569 354.326 99.881 355.547 86.9962C356.431 77.6723 340.461 74.7412 334 72.2029C315.401 64.8959 296.598 58.1049 278 50.7971C269.815 47.5809 260.054 41.8161 251 43.4684z" class="color3f6acb svgShape"></path><path fill="#161517" d="M258.667 43.3333L259.333 43.6667L258.667 43.3333M246 44L247 45L246 44M261 44L262 45L261 44M243.667 45.3333L244.333 45.6667L243.667 45.3333M264 45L265 46L264 45M241 46L242 47L241 46M267 46L268 47L267 46M238 47L239 48L238 47M269 47L270 48L269 47M236 48L237 49L236 48M272 48L273 49L272 48M233 49L234 50L233 49M274.667 49.3333L275.333 49.6667L274.667 49.3333M230.667 50.3333L231.333 50.6667L230.667 50.3333M277 50L278 51L277 50M228 51L229 52L228 51M279.667 51.3333L280.333 51.6667L279.667 51.3333M225 52L226 53L225 52M282 52L283 53L282 52M223 53L224 54L223 53M285 53L286 54L285 53M220 54L221 55L220 54M287.667 54.3333L288.333 54.6667L287.667 54.3333M217.667 55.3333L218.333 55.6667L217.667 55.3333M290 55L291 56L290 55M215 56L216 57L215 56M293 56L294 57L293 56M212 57L213 58L212 57M295 57L296 58L295 57M210 58L211 59L210 58M298 58L299 59L298 58M207 59L208 60L207 59M300.667 59.3333L301.333 59.6667L300.667 59.3333M204.667 60.3333L205.333 60.6667L204.667 60.3333M303 60L304 61L303 60M202 61L203 62L202 61M306 61L307 62L306 61M199 62L200 63L199 62M308 62L309 63L308 62M197 63L198 64L197 63M311 63L312 64L311 63M194 64L195 65L194 64M313.667 64.3333L314.333 64.6667L313.667 64.3333M191.667 65.3333L192.333 65.6667L191.667 65.3333M316 65L317 66L316 65M189 66L190 67L189 66M319 66L320 67L319 66M186 67L187 68L186 67M321 67L322 68L321 67M184 68L185 69L184 68M324 68L325 69L324 68M181 69L182 70L181 69M326.667 69.3333L327.333 69.6667L326.667 69.3333M178.667 70.3333L179.333 70.6667L178.667 70.3333M329 70L330 71L329 70M176 71L177 72L176 71M332 71L333 72L332 71M173 72L174 73L173 72M334 72L335 73L334 72M171 73L172 74L171 73M337 73L338 74L337 73M168 74L169 75L168 74M339.667 74.3333L340.333 74.6667L339.667 74.3333M165.667 75.3333L166.333 75.6667L165.667 75.3333M342 75L343 76L342 75M163 76L164 77L163 76M345 76L346 77L345 76M160 77L161 78L160 77M347 77L348 78L347 77M158 78L159 79L158 78M350 78L351 79L350 78M352 79L353 80L352 79M154 80L155 81L154 80M353 80L354 81L353 80M354 81L355 82L354 81M153 82L154 83L153 82M355 83L356 84L355 83M152 84L152 88L153 88L152 84M355.333 88.6667L355.667 89.3333L355.333 88.6667M153 90L154 91L153 90M154 91L155 92L154 91M155 92L156 93L155 92M157 93L158 94L157 93M351 93L352 94L351 93M159 94L160 95L159 94M348 94L349 95L348 94M162 95L163 96L162 95M346 95L347 96L346 95M164.667 96.3333L165.333 96.6667L164.667 96.3333M343 96L344 97L343 96M167 97L168 98L167 97M340.667 97.3333L341.333 97.6667L340.667 97.3333M170 98L171 99L170 98M338 98L339 99L338 98M172 99L173 100L172 99M335 99L336 100L335 99M175 100L176 101L175 100M333 100L334 101L333 100M177.667 101.333L178.333 101.667L177.667 101.333M330 101L331 102L330 101M180 102L181 103L180 102M327.667 102.333L328.333 102.667L327.667 102.333M183 103L184 104L183 103M325 103L326 104L325 103M185 104L186 105L185 104M322 104L323 105L322 104M188 105L189 106L188 105M320 105L321 106L320 105M190 106L190 123L191 123L190 106M318 106L319 107L318 106M191 124L192 125L191 124M317 124L318 125L317 124M314 127L315 128L314 127M195 128L196 129L195 128M313 128L314 129L313 128M197 129L198 130L197 129M311 129L312 130L311 129M199 130L200 131L199 130M309 130L310 131L309 130M202 131L203 132L202 131M306 131L307 132L306 131M205.667 132.333L206.333 132.667L205.667 132.333M302.667 132.333L303.333 132.667L302.667 132.333M209.667 133.333L210.333 133.667L209.667 133.333M297 133L297 134L300 134L297 133M214 134L214 135L217 135L214 134M291 134L291 135L294 135L291 134M221 135L221 136L225 136L221 135M283 135L283 136L287 136L283 135M232 136L232 137L239 137L232 136M270 136L270 137L277 137L270 136M363.044 156.742C355.428 159.846 355.204 189.766 359.742 195.772C364.158 201.614 389.582 200.866 395.891 197.991C403.455 194.543 400.012 174.978 400 168C399.995 164.969 400.455 161.094 398.258 158.653C393.617 153.498 369.188 154.239 363.044 156.742M119.005 167.742C109.834 171.307 110.523 184.937 120.004 187.566C134.266 191.521 154.184 188 169 188L275 188L310 188C314.765 188 320.909 188.997 324.772 185.566C330.125 180.811 328.772 170.419 321.985 167.742C313.358 164.34 299.226 167 290 167L170 167L135 167C130.09 167 123.655 165.935 119.005 167.742M363.044 212.742C355.428 215.846 355.204 245.766 359.742 251.772C364.158 257.614 389.582 256.866 395.891 253.991C403.455 250.543 400.012 230.978 400 224C399.995 220.969 400.455 217.094 398.258 214.653C393.617 209.498 369.188 210.239 363.044 212.742z" class="colora5c9fe svgShape"></path><path fill="#161517" d="M386 233C392.9 222.534 379.516 215.994 370.434 220.603C367.086 222.302 368.001 227.935 368 231C367.999 234.879 366.594 242.387 369.603 245.397C376.786 252.579 398.197 243.159 386 233z" class="color3f6acb svgShape"></path><path fill="#161517" d="M119.005 223.742C109.834 227.307 110.523 240.937 120.004 243.566C134.266 247.521 154.184 244 169 244L275 244L310 244C314.765 244 320.909 244.997 324.772 241.566C330.125 236.811 328.772 226.419 321.985 223.742C313.358 220.34 299.226 223 290 223L170 223L135 223C130.09 223 123.655 221.935 119.005 223.742M373 231C374.657 230.999 376.367 231.093 378.02 230.941C389.733 229.869 373.471 216.64 373 231M373 235C373.198 251.717 391.514 236.191 379 235.059C377.024 234.88 374.982 235 373 235M363.044 268.742C355.428 271.846 355.204 301.766 359.742 307.772C364.158 313.614 389.582 312.866 395.891 309.991C403.455 306.543 400.012 286.978 400 280C399.995 276.969 400.456 273.094 398.258 270.653C393.617 265.498 369.188 266.239 363.044 268.742z" class="colora5c9fe svgShape"></path><path fill="#ffffff" d="M389 292L387 292C385.734 293.642 384.539 295.409 382.885 296.702C373.148 304.316 367.077 281.789 379.001 280.662C383.039 280.28 386.235 284.907 390 286C389.051 268.717 364.544 276.04 367.214 293C369.335 306.473 392.661 305.91 389 292z" class="colore1eafc svgShape"></path><path fill="#161517" d="M119.005 279.742C109.834 283.307 110.523 296.937 120.004 299.566C134.266 303.521 154.184 300 169 300L275 300L310 300C314.765 300 320.909 300.997 324.772 297.566C330.125 292.811 328.772 282.419 321.985 279.742C313.358 276.34 299.226 279 290 279L170 279L135 279C130.09 279 123.655 277.935 119.005 279.742M363.044 324.742C355.428 327.846 355.204 357.766 359.742 363.772C364.158 369.614 389.582 368.866 395.891 365.991C403.455 362.543 400.012 342.978 400 336C399.995 332.969 400.456 329.094 398.258 326.653C393.617 321.498 369.188 322.239 363.044 324.742M119.005 335.742C109.834 339.307 110.523 352.937 120.004 355.566C134.266 359.521 154.184 356 169 356L275 356L310 356C314.765 356 320.909 356.997 324.772 353.566C330.125 348.811 328.772 338.419 321.985 335.742C313.358 332.34 299.226 335 290 335L170 335L135 335C130.09 335 123.655 333.935 119.005 335.742M130 394L130 395L134 395L130 394z" class="colora5c9fe svgShape"></path><path fill="#161517" d="M155 439C154.941 455.61 132.216 456.367 123.558 444.985C114.278 432.785 119.026 407.198 137 406.475C146.937 406.075 148.766 414.778 156.184 418.387C160.127 420.305 165.201 418.414 166.174 413.956C167.967 405.735 159.536 399.495 153 396.927C139.655 391.682 121.179 393.664 111.519 405.09C100.659 417.935 100.61 442.439 112.326 454.816C124.211 467.371 152.091 469.242 164.867 456.787C168.27 453.469 168.94 449.553 168.996 445C169.054 440.284 169.745 433.296 166.272 429.514C162.381 425.276 143.664 425.149 139.318 428.742C133.013 433.956 141.046 438.709 146 438.96C148.989 439.111 152.008 439 155 439z" class="color3f6acb svgShape"></path><path fill="#161517" d="M142 394L142 395L146 395L142 394M256 394L256 395L259 395L256 394z" class="colora5c9fe svgShape"></path><path fill="#161517" d="M259 394.576C252.426 395.471 249.975 401.585 247.8 407C242.724 419.637 237.634 432.267 232.808 445C231.055 449.624 227.071 457.168 230.604 461.772C233.131 465.064 237.615 465.347 240.606 462.566C244.338 459.095 244.075 452.997 247.699 449.603C251.166 446.357 267.801 446.637 271.775 449.028C277.561 452.507 276.579 466.022 285.985 464.319C294.403 462.794 291.212 453.244 289.189 448C283.766 433.941 278.098 419.948 272.397 406C269.988 400.109 266.525 393.552 259 394.576z" class="color3f6acb svgShape"></path><path fill="#161517" d="M262.667 394.333L263.333 394.667L262.667 394.333M126.667 395.333L127.333 395.667L126.667 395.333M148.667 395.333L149.333 395.667L148.667 395.333M186 395L186 396L189 396L186 395z" class="colora5c9fe svgShape"></path><path fill="#161517" d="M195 438C205.294 438 218.428 439.199 226.532 431.471C237.155 421.339 232.471 400.131 218 396.684C210.235 394.834 187.595 391.507 181.742 398.433C178.771 401.948 180 408.736 180 413L180 449C180 453.575 178.934 460.077 183.228 463.138C196.943 472.913 195 443.84 195 438z" class="color3f6acb svgShape"></path><path fill="#161517" d="M203 395L203 396L215 396L203 395M254 395L255 396L254 395M265 395L266 396L265 395M123.667 396.333L124.333 396.667L123.667 396.333M152 396L153 397L152 396M183 396L184 397L183 396M217.667 396.333L218.333 396.667L217.667 396.333M253 396L254 397L253 396M121 397L122 398L121 397M154 397L155 398L154 397M221 397L222 398L221 397M252 397L253 398L252 397M119 398L120 399L119 398M156 398L157 399L156 398M223 398L224 399L223 398M251 398L252 399L251 398M158 399L159 400L158 399M180 399L181 400L180 399M224 399L225 400L224 399M269 399L270 400L269 399M116 400L117 401L116 400M250 400L251 401L250 400M115 401L116 402L115 401M270 401L271 402L270 401M162 402L163 403L162 402M179 402L179 457L180 457L180 420L179 402M249 402L250 403L249 402M228 403L229 404L228 403M271 403L272 404L271 403M229 404L230 405L229 404M248.333 404.667L248.667 405.333L248.333 404.667M164 405L165 406L164 405M110 406L111 407L110 406M135 406L135 407L140 407L135 406M165.333 406.667L165.667 407.333L165.333 406.667M230 406L231 407L230 406M272 406L273 407L272 406M109 407L110 408L109 407M131.667 407.333L132.333 407.667L131.667 407.333M143 407L144 408L143 407M195 407L195 408L207 408L195 407M247 407L248 408L247 407M129 408L130 409L129 408M145.667 408.333L146.333 408.667L145.667 408.333z" class="colora5c9fe svgShape"></path><path fill="#ffffff" d="M195 408L195 425C200.05 425 207.376 426.321 211.941 423.821C217.309 420.881 217.363 412.208 211.941 409.318C207.225 406.803 200.173 408 195 408z" class="colore1eafc svgShape"></path><path fill="#161517" d="M210.667 408.333L211.333 408.667L210.667 408.333M273 408L274 409L273 408M327.001 408.653C315.573 412.255 314.628 445.646 324.105 451.772C329.627 455.34 337.745 454 344 454L382 454C387.99 454 395.32 455.106 400.996 452.852C412.561 448.26 413.023 416.247 402.956 409.858C397.628 406.477 389.029 408 383 408C366.407 408 342.814 403.669 327.001 408.653M108 409L109 410L108 409M127 409L128 410L127 409M147 409L148 410L147 409M166 409L166 412L167 412L166 409M213 409L214 410L213 409M231.333 409.667L231.667 410.333L231.333 409.667M107 410L108 411L107 410M126 410L127 411L126 410M148 410L149 411L148 410M214 410L215 411L214 410M246 410L247 411L246 410M125 411L126 412L125 411M149 411L150 412L149 411M215 411L216 412L215 411M274 411L275 412L274 411M106.333 412.667L106.667 413.333L106.333 412.667M124 412L125 413L124 412M150 412L151 413L150 412M245 412L246 413L245 412M123 413L124 414L123 413M151 413L152 414L151 413M260 413L259 415L260 413M275 413L276 414L275 413M166 414L167 415L166 414M216 414L216 419L217 419L216 414M232 414L232 419L233 419L232 414z" class="colora5c9fe svgShape"></path><path fill="#ffffff" d="M260 414L253 435L268 435L260 414z" class="colore1eafc svgShape"></path><path fill="#161517" d="M105 415L106 416L105 415M122 415L123 416L122 415M152 415L153 416L152 415M244 415L245 416L244 415M121.333 416.667L121.667 417.333L121.333 416.667M153 416L154 417L153 416M165 416L166 417L165 416M258.333 416.667L258.667 417.333L258.333 416.667M261 416L262 417L261 416M276 416L277 417L276 416M243 417L244 418L243 417M104.333 418.667L104.667 419.333L104.333 418.667M155 418L156 419L155 418M163 418L164 419L163 418M262.333 418.667L262.667 419.333L262.333 418.667M277 418L278 419L277 418M120 419L121 420L120 419M156 419L156 420L159 420L156 419M160.667 419.333L161.333 419.667L160.667 419.333M257.333 419.667L257.667 420.333L257.333 419.667M242 420L243 421L242 420M215 421L216 422L215 421M263 421L264 422L263 421M278 421L279 422L278 421M214 422L215 423L214 422M231.333 422.667L231.667 423.333L231.333 422.667M241 422L242 423L241 422M256 422L257 423L256 422M103 423L103 436L104 436L103 423M119 423L119 427L120 427L119 423M213 423L214 424L213 423M279 423L280 424L279 423M211 424L212 425L211 424M264 424L265 425L264 424M195 425L195 426L209 426L195 425M240 425L241 426L240 425M255 425L256 426L255 425M280.333 425.667L280.667 426.333L280.333 425.667M230 426L231 427L230 426M140 427L141 428L140 427M163.667 427.333L164.333 427.667L163.667 427.333M239 427L240 428L239 427M254.333 427.667L254.667 428.333L254.333 427.667M265 427L266 428L265 427M138 428L139 429L138 428M166 428L167 429L166 428M281 428L282 429L281 428M137 429L138 430L137 429M228 429L229 430L228 429M266.333 429.667L266.667 430.333L266.333 429.667M167 430L168 431L167 430M227 430L228 431L227 430M238 430L239 431L238 430M253.333 430.667L253.667 431.333L253.333 430.667M282.333 430.667L282.667 431.333L282.333 430.667M119 431L119 436L120 436L119 431M136 431L136 435L137 435L136 431M168 432L168 435L169 435L168 432M225 432L226 433L225 432M237 432L238 433L237 432M267 432L268 433L267 432M224 433L225 434L224 433M252 433C253.121 438.23 264.497 436 269 436L269 435L252 433M283 433L284 434L283 433M222 434L223 435L222 434M220 435L221 436L220 435M236 435L237 436L236 435M284.333 435.667L284.667 436.333L284.333 435.667M137 436L138 437L137 436M217.667 436.333L218.333 436.667L217.667 436.333M138 437L139 438L138 437M211 437L211 438L215 438L211 437M235 437L236 438L235 437M120.333 438.667L120.667 439.333L120.333 438.667M140.667 438.333L141.333 438.667L140.667 438.333M285 438L286 439L285 438M104.333 439.667L104.667 440.333L104.333 439.667M154 439L154 448L155 448L154 439M234 440L235 441L234 440M286.333 440.667L286.667 441.333L286.333 440.667M121.333 441.667L121.667 442.333L121.333 441.667M233.333 442.667L233.667 443.333L233.333 442.667M105 443L106 444L105 443M287 443L288 444L287 443M106.333 445.667L106.667 446.333L106.333 445.667M123 445L124 446L123 445M232 445L233 446L232 445M288.333 445.667L288.667 446.333L288.333 445.667M124 446L125 447L124 446M125 447L126 448L125 447M231.333 447.667L231.667 448.333L231.333 447.667M107 448L108 449L107 448M126 448L127 449L126 448M153 448L154 449L153 448M247 448L248 449L247 448M289 448L290 449L289 448M108 449L109 450L108 449M127 449L128 450L127 449M151 449L152 450L151 449M273 449L274 450L273 449M129 450L130 451L129 450M148.667 450.333L149.333 450.667L148.667 450.333M230.333 450.667L230.667 451.333L230.333 450.667M246 450L247 451L246 450M290.333 450.667L290.667 451.333L290.333 450.667M109 451L110 452L109 451M131.667 451.333L132.333 451.667L131.667 451.333M144 451L144 452L147 452L144 451M168.333 451.667L168.667 452.333L168.333 451.667M274.333 451.667L274.667 452.333L274.333 451.667M110 452L111 453L110 452M135 452L135 453L142 453L135 452M229.333 453.667L229.667 454.333L229.333 453.667M245 453L246 454L245 453M291.333 453.667L291.667 454.333L291.333 453.667M167 454L168 455L167 454M275 454L276 455L275 454M166 455L167 456L166 455M244.333 455.667L244.667 456.333L244.333 455.667M165 456L166 457L165 456M276.333 456.667L276.667 457.333L276.333 456.667M115 457L116 458L115 457M164 457L165 458L164 457M228 457L228 460L229 460L228 457M292.333 457.667L292.667 458.333L292.333 457.667M116 458L117 459L116 458M243 458L244 459L243 458M118 459L119 460L118 459M161 459L162 460L161 459M194.333 459.667L194.667 460.333L194.333 459.667M277 459L278 460L277 459M119 460L120 461L119 460M159 460L160 461L159 460M180 460L181 461L180 460M242 460L243 461L242 460M291 460L292 461L291 460M121 461L122 462L121 461M157 461L158 462L157 461M193 461L194 462L193 461M229 461L230 462L229 461M278 461L279 462L278 461M124 462L125 463L124 462M154 462L155 463L154 462M181 462L182 463L181 462M230 462L231 463L230 462M241 462L242 463L241 462M279 462L280 463L279 462M290 462L291 463L290 462M126.667 463.333L127.333 463.667L126.667 463.333M150.667 463.333L151.333 463.667L150.667 463.333M182 463L183 464L182 463M231 463L232 464L231 463M240 463L241 464L240 463M280 463L281 464L280 463M289 463L290 464L289 463M131 464L131 465L134 465L131 464M145 464L145 465L148 465L145 464M184.667 464.333L185.333 464.667L184.667 464.333M189.667 464.333L190.333 464.667L189.667 464.333M233 464L234 465L233 464M238.667 464.333L239.333 464.667L238.667 464.333M281.667 464.333L282.333 464.667L281.667 464.333M286.667 464.333L287.333 464.667L286.667 464.333z" class="colora5c9fe svgShape"></path><path fill="#161517" d="M62 480L63 481L62 480M449 480L450 481L449 480z" class="color0101ff svgShape"></path><path fill="#161517" d="M71.3333 481.667L71.6667 482.333L71.3333 481.667M440.333 481.667L440.667 482.333L440.333 481.667M72 484L73 485L72 484M439 484L440 485L439 484M73 486L74 487L73 486M438 486L439 487L438 486M74 487L75 488L74 487M437 487L438 488L437 487M75 488L76 489L75 488M436 488L437 489L436 488M76 489L77 490L76 489M435 489L436 490L435 489M78 490L79 491L78 490M433 490L434 491L433 490z" class="colora5c9fe svgShape"></path><path fill="#161517" d="M66 491L67 492L66 491z" class="color0101ff svgShape"></path><path fill="#161517" d="M81.6667 491.333L82.3333 491.667L81.6667 491.333M429.667 491.333L430.333 491.667L429.667 491.333z" class="colora5c9fe svgShape"></path><path fill="#161517" d="M445 491L446 492L445 491z" class="color0101ff svgShape"></path></svg></g></svg>