<svg id="SvgjsSvg1001" width="288" height="288" xmlns="http://www.w3.org/2000/svg" version="1.1" xmlns:xlink="http://www.w3.org/1999/xlink" xmlns:svgjs="http://svgjs.com/svgjs"><defs id="SvgjsDefs1002"></defs><g id="SvgjsG1008"><svg xmlns="http://www.w3.org/2000/svg" viewBox="0 0 512 512" width="288" height="288"><path fill="#ffffff" d="M97 55L98 96L98 175L99 175C103.92 145.186 135.022 150 158 150L252 150C263.763 150 281.963 153.466 293 149.397C300.304 146.704 308.614 136.227 313 130L308 134L308 5C252.125 -5.52734 194.437 1.05777 143 25.7839C126.449 33.7403 112.027 44.6489 97 55z" class="color1b9fda svgShape"></path><path fill="#ffffff" d="M213 3L214 4L213 3z" class="color02c3f3 svgShape"></path><path fill="#ffffff" d="M308 5L308 134C323.666 123.421 333.552 105.63 353 100.9C387.789 92.4374 421.934 127.51 410.971 162C405.396 179.543 389.595 191.405 377 204C371.881 209.119 362.731 215.276 362.059 223C358.52 263.649 362 306.179 362 347C362 361.787 366.211 384.373 360.095 398C351.118 418.001 325.904 414 308 414L308 508C360.695 494.361 407.264 471.417 444.91 431C528.137 341.649 535.029 197.885 460.765 101C435.237 67.6966 401.445 39.9824 363 22.8611C345.029 14.8577 326.647 10.7157 308 5z" class="color3c74bb svgShape"></path><path fill="#ffffff" d="M309 5L310 6L309 5z" class="color798989 svgShape"></path><path fill="#ffffff" d="M312 6L313 7L312 6M332 11L333 12L332 11M335 12L336 13L335 12M349 17L350 18L349 17z" class="color1b9fda svgShape"></path><path fill="#ffffff" d="M359 21L360 22L359 21M136 29L137 30L136 29M127 34L128 35L127 34M122 37L123 38L122 37M110 45L111 46L110 45M107 47L108 48L107 47z" class="color02c3f3 svgShape"></path><path fill="#ffffff" d="M406 48L407 49L406 48z" class="color1b9fda svgShape"></path><path fill="#ffffff" d="M102 51L103 52L102 51M99 53L100 54L99 53M91 62C84.4814 63.0623 77.9917 71.3833 73.3997 76.0008C59.0886 90.3912 46.6819 106.647 36.2037 124C-9.51407 199.711 -13.4378 301.36 30.4244 379C42.107 399.679 55.7836 419.866 72.9159 436.486C77.6751 441.103 84.2196 450.235 91 451L100 460C95.4771 449.326 98 434.463 98 423C98 395.632 99 368.392 99 341C99 245.941 98 151.037 98 56L91 62z" class="color02c3f3 svgShape"></path><path fill="#ffffff" d="M94 57L95 58L94 57M419 58L420 59L419 58M90 61L91 62L90 61M86 64L87 65L86 64M76 73L77 74L76 73M72 77L73 78L72 77M62 88L63 89L62 88M61 89L62 90L61 89z" class="color1b9fda svgShape"></path><path fill="#161517" d="M362 99.4637C339.324 101.485 326.244 116.756 311 132C305.675 137.325 299.198 146.743 292 149.397C280.963 153.466 262.763 150 251 150L157 150C141.459 150 118.031 145.654 106.185 158.093C94.117 170.766 99 195.938 99 212L99 354C99 371.314 93.4804 399.112 111.001 409.786C127.069 419.576 156.824 414 175 414L282 414C299.977 414 319.16 415.906 337 413.714C372.62 409.337 362 360.881 362 335L362 258C362 246.918 359.624 232.747 362.318 222C363.724 216.392 370.084 211.916 374 208C383.735 198.265 395.062 188.913 403.471 178C427.57 146.723 402.661 95.84 362 99.4637z" class="color010101 svgShape"></path><path fill="#ffffff" d="M347 102L348 103L347 102M337 107L338 108L337 107z" class="color1b9fda svgShape"></path><path fill="#ffffff" d="M474 121L475 122L474 121z" class="color798989 svgShape"></path><path fill="#ffffff" d="M318 124L319 125L318 124M316 126L317 127L316 126M315 127L316 128L315 127M314 128L315 129L314 128z" class="color1b9fda svgShape"></path><path fill="#ffffff" d="M481 133L482 134L481 133z" class="color798989 svgShape"></path><path fill="#ffffff" d="M325 144L309.013 162L308 190L341 159L325 144z" class="color3c74bb svgShape"></path><path fill="#ffffff" d="M323 146L324 147L323 146M322 147L323 148L322 147z" class="color1b9fda svgShape"></path><path fill="#ffffff" d="M489 149L490 150L489 149z" class="color798989 svgShape"></path><path fill="#ffffff" d="M22 150L23 151L22 150M317 152L318 153L317 152M312 157L313 158L312 157z" class="color1b9fda svgShape"></path><path fill="#ffffff" d="M105 158L106 159L105 158z" class="color02c3f3 svgShape"></path><path fill="#ffffff" d="M311 158L312 159L311 158M310 159L311 160L310 159M309 160L310 161L309 160z" class="color1b9fda svgShape"></path><path fill="#ffffff" d="M103 161L104 162L103 161z" class="color02c3f3 svgShape"></path><path fill="#ffffff" d="M308 161L309 162L308 161M307 162L263 206L234 235C223.631 245.369 206.668 257.127 199.662 270C196.972 274.943 206.989 285.793 212 285.793C215.503 285.793 218.773 281.222 221 279L241 259L286 214C292.565 207.435 302.824 200.213 307.227 192C310.197 186.46 309.404 167.73 307 162z" class="color1b9fda svgShape"></path><path fill="#ffffff" d="M101 164L102 165L101 164z" class="color02c3f3 svgShape"></path><path fill="#ffffff" d="M313 395L313 394L308 394L308 274L307 274C294.216 288.71 279.778 302.222 266 316C258.001 323.999 249.905 334.213 240 339.915C227.712 346.988 209.672 349.146 196 352.849C186.311 355.473 162.282 367.386 154.225 358.855C148.68 352.984 153.435 343.732 155.127 337C160.265 316.546 164.007 293.459 172.133 274C176.148 264.388 187.745 256.255 195 249L248 196C256.01 187.99 268.185 179.325 273 169L163 169L134 169C130.146 169 124.67 168.075 121.228 170.179C117.049 172.734 118 178.839 118 183L118 219L118 349L118 381C118 384.859 117.123 390.441 120.434 393.258C123.933 396.234 130.748 395 135 395L171 395L313 395z" class="color1b9fda svgShape"></path><path fill="#ffffff" d="M99 170L100 171L99 170M118 172L119 173L118 172z" class="color02c3f3 svgShape"></path><path fill="#ffffff" d="M308 247L309 247L369 187C366.24 183.082 359.291 173.207 354 173.207C349.626 173.207 344.803 180.197 342 183C334.022 190.978 325.881 198.826 318.09 206.985C315.019 210.201 309.935 213.792 308.313 218.004C305.399 225.573 308 238.834 308 247z" class="color3c74bb svgShape"></path><path fill="#ffffff" d="M313 185L314 186L313 185M312 186L313 187L312 186M311 187L312 188L311 187M310 188L311 189L310 188M309 189L310 190L309 189M314 211L315 212L314 211z" class="color1b9fda svgShape"></path><path fill="#ffffff" d="M509 215L510 216L509 215z" class="color798989 svgShape"></path><path fill="#ffffff" d="M308 219C299.815 222.817 293.333 231.667 287 238L247 278C241.417 283.583 229.778 291.446 227.176 299C225.565 303.677 234.245 311.462 238 313.248C244.481 316.332 258.714 297.286 263 293L294 262C298.285 257.715 305.25 252.823 307.397 247C310.247 239.27 308 227.211 308 219M339 243L344 240L339 243z" class="color1b9fda svgShape"></path><path fill="#ffffff" d="M311 273C305.408 273.703 308 295.79 308 301L308 394C316.062 394.636 335.25 398.883 341.566 392.566C348.188 385.945 344 361.961 344 353L344 240L320.155 261.715L311 273z" class="color3c74bb svgShape"></path><path fill="#ffffff" d="M311 243L312 244L311 243M337 244L338 245L337 244M309 245L310 246L309 245M335 246L336 247L335 246M334 247L335 248L334 247M333 248L334 249L333 248M331 250L332 251L331 250M330 251L331 252L330 251M329 252L330 253L329 252M328 253L329 254L328 253M327 254L328 255L327 254M326 255L327 256L326 255M324 257L325 258L324 257M323 258L324 259L323 258M322 259L323 260L322 259M321 260L322 261L321 260M320 261L321 262L320 261M319 262L320 263L319 262M317 264L318 265L317 264M316 265L317 266L316 265M315 266L316 267L315 266M312 270L313 271L312 270M310.333 271.667L310.667 272.333L310.333 271.667M309 273L310 274L309 273z" class="color1b9fda svgShape"></path><path fill="#ffffff" d="M305 276L306 277 305 276zM299 282L300 283 299 282zM295 286L296 287 295 286M292 289L293 290 292 289M291 290L292 291 291 290M290 291L291 292 290 291M289 292L290 293 289 292M288 293L289 294 288 293M287 294L288 295 287 294M286 295L287 296 286 295M285 296L286 297 285 296z" class="color3c74bb svgShape"></path><path fill="#ffffff" d="M165 297L166 298L165 297z" class="color02c3f3 svgShape"></path><path fill="#ffffff" d="M284 297L285 298L284 297z" class="color3c74bb svgShape"></path><path fill="#ffffff" d="M509 297L510 298L509 297z" class="color798989 svgShape"></path><path fill="#ffffff" d="M283 298L284 299L283 298M282 299L283 300L282 299M281 300L282 301L281 300M280 301L281 302L280 301M279 302L280 303L279 302M278 303L279 304L278 303M277 304L278 305L277 304M276 305L277 306L276 305M275 306L276 307L275 306M274 307L275 308L274 307M273 308L274 309L273 308M272 309L273 310L272 309M271 310L272 311L271 310M270 311L271 312L270 311z" class="color3c74bb svgShape"></path><path fill="#ffffff" d="M161 312L162 313L161 312z" class="color02c3f3 svgShape"></path><path fill="#ffffff" d="M269 312L270 313L269 312M268 313L269 314L268 313M267 314L268 315L267 314M266 315L267 316L266 315z" class="color3c74bb svgShape"></path><path fill="#ffffff" d="M160 316L161 317L160 316z" class="color02c3f3 svgShape"></path><path fill="#ffffff" d="M265 316L266 317L265 316M264 317L265 318L264 317M263 318L264 319L263 318M262 319L263 320L262 319M261 320L262 321L261 320M260 321L261 322L260 321M259 322L260 323L259 322M258 323L259 324L258 323M257 324L258 325L257 324M256 325L257 326L256 325M255 326L256 327L255 326M254 327L255 328L254 327M253 328L254 329L253 328M252 329L253 330L252 329M251 330L252 331L251 330z" class="color3c74bb svgShape"></path><path fill="#ffffff" d="M156 331L157 332L156 331z" class="color02c3f3 svgShape"></path><path fill="#ffffff" d="M250 331L251 332L250 331M249 332L250 333L249 332M248 333L249 334L248 333z" class="color3c74bb svgShape"></path><path fill="#ffffff" d="M208 349L209 350L208 349M151 350L152 351L151 350M172 359L173 360L172 359M165 361L166 362L165 361z" class="color02c3f3 svgShape"></path><path fill="#ffffff" d="M22 362L23 363L22 362z" class="color1b9fda svgShape"></path><path fill="#ffffff" d="M489 363L490 364L489 363M481 379L482 380L481 379M477 386L478 387L477 386z" class="color798989 svgShape"></path><path fill="#ffffff" d="M98 389L98 437C98 442.975 96.1989 452.553 99.0278 457.961C101.516 462.717 107.68 466.1 112 468.999C122.859 476.288 134.117 482.849 146 488.309C198.548 512.451 251.45 515.303 308 508L308 414L164 414C147.755 414 121.371 418.863 108.184 407.319C102.366 402.226 101.16 395.521 98 389z" class="color1b9fda svgShape"></path><path fill="#ffffff" d="M118 391L119 392L118 391M99.3333 392.667L99.6667 393.333L99.3333 392.667z" class="color02c3f3 svgShape"></path><path fill="#ffffff" d="M339 394L340 395L339 394z" class="color1b9fda svgShape"></path><path fill="#ffffff" d="M361 394L362 395L361 394M100 396L101 397L100 396z" class="color02c3f3 svgShape"></path><path fill="#ffffff" d="M356 404L357 405L356 404z" class="color1b9fda svgShape"></path><path fill="#ffffff" d="M355 405L356 406L355 405M106 406L107 407L106 406M354 406L355 407L354 406z" class="color02c3f3 svgShape"></path><path fill="#ffffff" d="M353 407L354 408L353 407z" class="color798989 svgShape"></path><path fill="#ffffff" d="M110 409L111 410L110 409z" class="color02c3f3 svgShape"></path><path fill="#ffffff" d="M461 410L462 411L461 410z" class="color798989 svgShape"></path><path fill="#ffffff" d="M114 411L115 412L114 411z" class="color02c3f3 svgShape"></path><path fill="#ffffff" d="M56 417L57 418L56 417M61 423L62 424L61 423M62 424L63 425L62 424M74 437L75 438L74 437M76 439L77 440L76 439M77 440L78 441L77 440M88 450L89 451L88 450M90 451L91 452L90 451M419 454L420 455L419 454M94.6667 455.333L95.3333 455.667L94.6667 455.333M96 456L97 457L96 456z" class="color1b9fda svgShape"></path><path fill="#ffffff" d="M103 462L104 463L103 462M127 478L128 479L127 478M144 487L145 488L144 487z" class="color02c3f3 svgShape"></path><path fill="#ffffff" d="M361 490L362 491L361 490M349 495L350 496L349 495z" class="color1b9fda svgShape"></path><path fill="#ffffff" d="M165 496L166 497L165 496M344 497L345 498L344 497z" class="color02c3f3 svgShape"></path><path fill="#ffffff" d="M338 499L339 500L338 499M332 501L333 502L332 501M321 504L322 505L321 504z" class="color1b9fda svgShape"></path><path fill="#ffffff" d="M194 505L195 506L194 505z" class="color02c3f3 svgShape"></path><path fill="#ffffff" d="M283 511L284 512L283 511z" class="color3c74bb svgShape"></path></svg></g></svg>