<svg id="SvgjsSvg1001" width="288" height="288" xmlns="http://www.w3.org/2000/svg" version="1.1" xmlns:xlink="http://www.w3.org/1999/xlink" xmlns:svgjs="http://svgjs.com/svgjs"><defs id="SvgjsDefs1002"></defs><g id="SvgjsG1008"><svg xmlns="http://www.w3.org/2000/svg" viewBox="0 0 512 512" width="288" height="288"><path fill="#ffffff" d="M144 299C98.6391 299 51.437 294.525 19.8079 334C13.9368 341.327 9.42791 349.338 5.86111 358C1.656 368.212 0 379.029 0 390L0 431C0 435.521 -1.47379 443.084 3.14815 445.821C8.49454 448.987 18.9618 447 25 447L80 447L281 447L281 446L276 446L276 434L83 434L83 376C83 370.561 85.0255 358.926 76.9853 358.337C68.1244 357.688 70 369.43 70 375L70 434L12 434C12 414.647 10.1702 393.955 14.6543 375C16.5765 366.875 19.7617 359.178 24.0147 352C50.6301 307.082 100.06 312 145 312C147.362 366.177 236.36 363.418 243 312L281 312L281 311L276 311L276 299L243 299C243.002 278.395 273.526 270.555 274 250L277 249L276 217L275 217C272.741 230.126 265.158 242.266 257.576 253C244.064 272.129 223.468 291.381 199 293.829C154.052 298.327 118.071 245.889 110.612 207C104.268 173.928 105.863 132.097 129.174 106C172.475 57.5223 251.821 75.1909 276 133C277.076 126.106 278.045 111.561 275.701 105C268.826 85.7487 240.124 72.5535 222 68.1296C179.236 57.6915 131.646 72.0143 108.453 111C97.094 130.094 96 149.437 96 171C96 199.545 98.1135 223.272 111.782 249C120.678 265.745 144 280.279 144 299z" class="colorff990d svgShape"></path><path fill="#ffffff" d="M158 70L159 71L158 70z" class="colorff6b20 svgShape"></path><path fill="#010101" d="M185 78.4244C165.8 80.9762 148.513 86.5775 134.001 100.09C111.643 120.908 109 146.366 109 175C109 197.207 110.657 216.759 120.753 237C135.37 266.305 164.9 298.413 201 293.711C226.886 290.338 248.277 269.247 261.388 248C294.53 194.293 291.029 92.3393 214 79.7538C204.636 78.2239 194.451 77.1683 185 78.4244z" class="color010101 svgShape"></path><path fill="#ffffff" d="M139 79L140 80L139 79z" class="colorfffe01 svgShape"></path><path fill="#ffffff" d="M171 80L172 81L171 80M136 81L137 82L136 81M167 81L168 82L167 81M253 82L254 83L253 82M256 84L257 85L256 84M257 85L258 86L257 85M150 88L151 89L150 88z" class="colorff6b20 svgShape"></path><path fill="#ffffff" d="M261 88L262 89L261 88z" class="colorfffe01 svgShape"></path><path fill="#ffffff" d="M263 90L264 91L263 90z" class="colorff6b20 svgShape"></path><path fill="#ffffff" d="M145 91L146 92L145 91M243 91L244 92L243 91z" class="colorfffe01 svgShape"></path><path fill="#ffffff" d="M142 93L143 94L142 93M246 93L247 94L246 93M266 93L267 94L266 93M269 96L270 97L269 96z" class="colorff6b20 svgShape"></path><path fill="#ffffff" d="M251 97L252 98L251 97z" class="colorfffe01 svgShape"></path><path fill="#ffffff" d="M272 100L273 101L272 100M273 101L274 102L273 101z" class="colorff6b20 svgShape"></path><path fill="#ffffff" d="M274 102L275 103L274 102z" class="colorfffe01 svgShape"></path><path fill="#ffffff" d="M111 106L112 107L111 106M260 106L261 107L260 106M276 106L280.151 158L276 247C283.766 241.355 287.382 224.968 289.625 216C295.771 191.424 296.566 157.515 289.848 133C287.4 124.068 283.135 112.186 276 106M189 107L190 108L189 107z" class="colorff6b20 svgShape"></path><path fill="#ffffff" d="M201 206C247.075 203.991 257.316 140.282 223 116.043C201.446 100.819 170.207 105.921 154.478 127.001C149.25 134.008 140.111 151.816 146.028 160.682C148.772 164.794 155.421 162.965 157.106 158.941C160.377 151.132 159.428 143.476 164.789 136C177.836 117.803 203.959 115.167 219.907 131.093C237.385 148.548 232.998 176.501 212 188.906C206.146 192.365 190.207 191.982 188.318 199.044C185.791 208.493 186.419 226.368 188.228 235.985C189.055 240.379 193.563 243.32 197.772 240.817C204.75 236.667 201 213.271 201 206z" class="colorff990d svgShape"></path><path fill="#ffffff" d="M209 109L210 110L209 109z" class="colorff6b20 svgShape"></path><path fill="#ffffff" d="M280 111L281 112L280 111z" class="colorfffe01 svgShape"></path><path fill="#ffffff" d="M280 112L281 113L280 112z" class="colorff990d svgShape"></path><path fill="#ffffff" d="M168 114L169 115L168 114z" class="colorff6b20 svgShape"></path><path fill="#ffffff" d="M220 114L221 115L220 114z" class="colorfffe01 svgShape"></path><path fill="#ffffff" d="M121 115L122 116L121 115M267 115L268 116L267 115z" class="colorff6b20 svgShape"></path><path fill="#ffffff" d="M223 116L224 117L223 116z" class="colorfffe01 svgShape"></path><path fill="#ffffff" d="M284 119L285 120L284 119z" class="colorff990d svgShape"></path><path fill="#ffffff" d="M118 120L119 121L118 120z" class="colorfffe01 svgShape"></path><path fill="#ffffff" d="M270 120L271 121L270 120z" class="colorff6b20 svgShape"></path><path fill="#ffffff" d="M229 121L230 122L229 121z" class="colorfffe01 svgShape"></path><path fill="#ffffff" d="M285 121L286 122L285 121z" class="colorff990d svgShape"></path><path fill="#ffffff" d="M157 123L158 124L157 123M179 123L180 124L179 123M209 123L210 124L209 123M272.333 123.667L272.667 124.333L272.333 123.667z" class="colorff6b20 svgShape"></path><path fill="#ffffff" d="M177 124L178 125L177 124z" class="colorfffe01 svgShape"></path><path fill="#ffffff" d="M115 126L116 127L115 126M153 128L154 129L153 128M217 128L218 129L217 128M274.333 128.667L274.667 129.333L274.333 128.667z" class="colorff6b20 svgShape"></path><path fill="#ffffff" d="M222 133L223 134L222 133z" class="colorfffe01 svgShape"></path><path fill="#ffffff" d="M165 134L166 135L165 134z" class="colorff6b20 svgShape"></path><path fill="#ffffff" d="M276 134L277 135L276 134M277.333 136.667L277.667 137.333L277.333 136.667z" class="colorff990d svgShape"></path><path fill="#ffffff" d="M111 137L112 138L111 137M148 137L149 138L148 137z" class="colorff6b20 svgShape"></path><path fill="#ffffff" d="M97 139L98 140L97 139z" class="colorfffe01 svgShape"></path><path fill="#ffffff" d="M278 141L279 142L278 141z" class="colorff990d svgShape"></path><path fill="#ffffff" d="M292 146L293 147L292 146z" class="colorff0101 svgShape"></path><path fill="#ffffff" d="M145 147L146 148L145 147z" class="colorff6b20 svgShape"></path><path fill="#ffffff" d="M243 148L244 149L243 148z" class="colorfffe01 svgShape"></path><path fill="#ffffff" d="M280.333 157.667L280.667 158.333L280.333 157.667z" class="colorff990d svgShape"></path><path fill="#ffffff" d="M230 164L231 165L230 164z" class="colorff6b20 svgShape"></path><path fill="#ffffff" d="M241 173L242 174L241 173z" class="colorfffe01 svgShape"></path><path fill="#ffffff" d="M225 176L226 177L225 176z" class="colorff6b20 svgShape"></path><path fill="#ffffff" d="M209 190L210 191L209 190M231 190L232 191L231 190z" class="colorfffe01 svgShape"></path><path fill="#ffffff" d="M230 191L231 192L230 191M191 194L192 195L191 194z" class="colorff6b20 svgShape"></path><path fill="#ffffff" d="M280 194L281 195L280 194z" class="colorff990d svgShape"></path><path fill="#ffffff" d="M220 199L221 200L220 199z" class="colorff6b20 svgShape"></path><path fill="#ffffff" d="M279 202L280 203L279 202M278 209L279 210L278 209M277 210L278 211L277 210z" class="colorff990d svgShape"></path><path fill="#ffffff" d="M111 211L112 212L111 211z" class="colorfffe01 svgShape"></path><path fill="#ffffff" d="M274 220L275 221L274 220M276 299L276 311L304 313C302.744 328.908 304.103 343.684 309 359C302.877 362.376 305 371.884 305 378L305 434L276 434L276 446C302.827 448.117 330.061 447 357 447C363.947 447 380.04 449.959 385.566 445.258C389.837 441.624 388 432.016 388 427C466.923 441.661 535.97 361.932 505.396 286C500.682 274.294 494.292 263.403 485.829 254C475.846 242.908 463.569 234.424 450 228.312C413.446 211.844 366.095 219.263 337 247.039C327.329 256.272 318.941 266.796 313.309 279C311.072 283.848 309.363 296.187 304.697 298.933C299.133 302.207 282.74 299 276 299z" class="colorff6b20 svgShape"></path><path fill="#ffffff" d="M388 221L389 222L388 221z" class="colorff0101 svgShape"></path><path fill="#ffffff" d="M271 228L271 231L272 231L271 228M270 231L271 232L270 231z" class="colorff6b20 svgShape"></path><path fill="#ffffff" d="M359 231L360 232L359 231z" class="colorff0101 svgShape"></path><path fill="#ffffff" d="M283 233L284 234L283 233z" class="colorff990d svgShape"></path><path fill="#010101" d="M396 233.428C382.811 235.318 370.324 239.793 359 246.814C349.377 252.781 340.869 260.896 334.156 270C286.943 334.022 342.346 426.177 421 414.869C433.853 413.021 446.011 408.433 457 401.575C466.986 395.342 475.089 387.413 482.104 378C528.839 315.29 473.459 222.332 396 233.428z" class="color010101 svgShape"></path><path fill="#ffffff" d="M268 235L269 236L268 235z" class="colorff6b20 svgShape"></path><path fill="#ffffff" d="M352 235L353 236L352 235z" class="colorff0101 svgShape"></path><path fill="#ffffff" d="M282 236L283 237L282 236z" class="colorff990d svgShape"></path><path fill="#ffffff" d="M267 237L268 238L267 237M188 238L189 239L188 238z" class="colorff6b20 svgShape"></path><path fill="#ffffff" d="M281 238L282 239L281 238z" class="colorff990d svgShape"></path><path fill="#ffffff" d="M191 241L192 242L191 241z" class="colorff6b20 svgShape"></path><path fill="#ffffff" d="M264 242L265 243L264 242z" class="colorfffe01 svgShape"></path><path fill="#ffffff" d="M279 242L280 243L279 242M278 244L279 245L278 244z" class="colorff990d svgShape"></path><path fill="#ffffff" d="M361 245L362 246L361 245z" class="colorff0101 svgShape"></path><path fill="#ffffff" d="M404.213 246.029C399.335 248.877 396.214 258.123 393.752 263C387.103 276.172 379.666 288.951 372.781 302C370.156 306.974 364.868 314.038 366.323 319.96C367.482 324.682 373.296 326.926 377 329.344C386.388 335.473 402.328 351.581 414 345.329C423.694 340.137 432.815 333.386 441.999 327.344C445.513 325.033 449.879 322.846 449.678 317.996C449.392 311.063 443.137 302.91 439.861 297C432.756 284.183 425.839 271.088 419.248 258C416.595 252.733 412.253 241.333 404.213 246.029z" class="colorff6b20 svgShape"></path><path fill="#ffffff" d="M261 247L262 248L261 247z" class="colorfffe01 svgShape"></path><path fill="#ffffff" d="M457 247L458 248L457 247z" class="colorff0101 svgShape"></path><path fill="#ffffff" d="M275 249L274 251L275 249z" class="colorff6b20 svgShape"></path><path fill="#ffffff" d="M191.228 251.029C184.836 254.885 188.893 269.2 196.892 264.957C204.593 260.871 199.798 245.858 191.228 251.029z" class="colorff990d svgShape"></path><path fill="#ffffff" d="M275 250L276 251L275 250z" class="colorfffe01 svgShape"></path><path fill="#ffffff" d="M464 252L465 253L464 252z" class="colorff0101 svgShape"></path><path fill="#ffffff" d="M257 253L258 254L257 253M116 256L117 257L116 256z" class="colorfffe01 svgShape"></path><path fill="#ffffff" d="M345 257L346 258L345 257M488 257L489 258L488 257z" class="colorff0101 svgShape"></path><path fill="#ffffff" d="M270 258L271 259L270 258z" class="colorff6b20 svgShape"></path><path fill="#ffffff" d="M344 258L345 259L344 258z" class="colorff0101 svgShape"></path><path fill="#ffffff" d="M252 260L253 261L252 260M251 261L252 262L251 261z" class="colorff6b20 svgShape"></path><path fill="#ffffff" d="M341 261L342 262L341 261z" class="colorff0101 svgShape"></path><path fill="#ffffff" d="M267 262L268 263L267 262M189 263L190 264L189 263z" class="colorff6b20 svgShape"></path><path fill="#ffffff" d="M198 264L199 265L198 264M265 265L266 266L265 265z" class="colorfffe01 svgShape"></path><path fill="#010101" d="M407 266L391 298L408 289.427L425 298L409 266L407 266z" class="color010101 svgShape"></path><path fill="#ffffff" d="M335 268L336 269L335 268z" class="colorff0101 svgShape"></path><path fill="#ffffff" d="M261 270L262 271L261 270z" class="colorfffe01 svgShape"></path><path fill="#ffffff" d="M404 271L405 272L404 271z" class="colorff0101 svgShape"></path><path fill="#ffffff" d="M129 273L130 274L129 273z" class="colorff6b20 svgShape"></path><path fill="#ffffff" d="M500 275L501 276L500 275z" class="colorff0101 svgShape"></path><path fill="#ffffff" d="M151 276L152 277L151 276z" class="colorfffe01 svgShape"></path><path fill="#ffffff" d="M235 277L236 278L235 277z" class="colorff6b20 svgShape"></path><path fill="#ffffff" d="M502 279L503 280L502 279z" class="colorff0101 svgShape"></path><path fill="#ffffff" d="M156 280L157 281L156 280M231 280L232 281L231 280z" class="colorff6b20 svgShape"></path><path fill="#ffffff" d="M431 281L432 282L431 281z" class="colorff0101 svgShape"></path><path fill="#ffffff" d="M159 282L160 283L159 282z" class="colorfffe01 svgShape"></path><path fill="#ffffff" d="M225 284L226 285L225 284z" class="colorff6b20 svgShape"></path><path fill="#ffffff" d="M382 284L383 285L382 284z" class="colorff0101 svgShape"></path><path fill="#ffffff" d="M246 285L247 286L246 285z" class="colorff6b20 svgShape"></path><path fill="#ffffff" d="M505 286L506 287L505 286M421 290L422 291L421 290M419 294L420 295L419 294M508 295L509 296L508 295M422 296L423 297L422 296z" class="colorff0101 svgShape"></path><path fill="#010101" d="M157 297C157 307.841 157.57 319.458 165.21 327.96C178.026 342.222 209.86 342.819 222.532 327.96C230.297 318.855 230 308.26 230 297C212.559 304.261 197.135 309.834 178 305.101C170.631 303.278 164.226 299.082 157 297z" class="color010101 svgShape"></path><path fill="#ffffff" d="M440 298L441 299L440 298z" class="colorff0101 svgShape"></path><path fill="#ffffff" d="M72 301L73 302L72 301z" class="colorfffe01 svgShape"></path><path fill="#ffffff" d="M215 303L216 304L215 303z" class="colorff6b20 svgShape"></path><path fill="#010101" d="M385 317L385 319L408 332.162L431 319C427.182 314.38 413.307 303.027 407 304.12C399.541 305.414 391.68 313.444 385 317z" class="color010101 svgShape"></path><path fill="#ffffff" d="M175 304L176 305L175 304z" class="colorfffe01 svgShape"></path><path fill="#ffffff" d="M208 305L209 306L208 305z" class="colorff6b20 svgShape"></path><path fill="#ffffff" d="M497 305L498 306L497 305M402 306L403 307L402 306z" class="colorff0101 svgShape"></path><path fill="#ffffff" d="M157 308L158 309L157 308z" class="colorff6b20 svgShape"></path><path fill="#ffffff" d="M419 310L420 311L419 310z" class="colorff0101 svgShape"></path><path fill="#010101" d="M12 434L70 434L70 376C70 370.81 68.1605 359.101 76.0008 358.546C84.5928 357.938 83 370.815 83 376L83 434L305 434L305 380C305 372.924 303.071 363.938 309 359C305.371 343.169 302.715 329.283 304 313L243 312C236.049 363.577 149.374 365.551 145 312C100.001 312 51.308 306.861 24.0648 351C19.6923 358.084 16.5694 365.904 14.6543 374C10.1055 393.229 12 414.36 12 434z" class="color010101 svgShape"></path><path fill="#ffffff" d="M79 313L80 314L79 313M41 314L42 315L41 314z" class="colorfffe01 svgShape"></path><path fill="#ffffff" d="M74 314L75 315L74 314z" class="colorff6b20 svgShape"></path><path fill="#ffffff" d="M242 315L243 316L242 315z" class="colorfffe01 svgShape"></path><path fill="#ffffff" d="M449 315L450 316L449 315z" class="colorff0101 svgShape"></path><path fill="#ffffff" d="M67 316L68 317L67 316z" class="colorff6b20 svgShape"></path><path fill="#ffffff" d="M303 317L304 318L303 317M386 319L387 320L386 319z" class="colorff0101 svgShape"></path><path fill="#ffffff" d="M161 322L162 323L161 322M50 324L51 325L50 324z" class="colorfffe01 svgShape"></path><path fill="#ffffff" d="M499 324L500 325L499 324M444 325L445 326L444 325M418 326L419 327L418 326z" class="colorff0101 svgShape"></path><path fill="#ffffff" d="M238 327L239 328L238 327z" class="colorff6b20 svgShape"></path><path fill="#ffffff" d="M400 328L401 329L400 328z" class="colorff0101 svgShape"></path><path fill="#ffffff" d="M151 331L152 332L151 331z" class="colorff6b20 svgShape"></path><path fill="#ffffff" d="M235 332L236 333L235 332M20 333L21 334L20 333z" class="colorfffe01 svgShape"></path><path fill="#ffffff" d="M209 336L210 337L209 336M369.148 337.029C362.434 340.964 368.948 349.738 371.692 354C380.285 367.35 389.135 380.555 397.576 394C400.36 398.434 404.494 406.174 410.907 402.816C416.209 400.04 419.761 391.905 422.808 387C429.917 375.557 437.41 364.335 444.692 353C447.442 348.72 453.851 339.681 445.941 336.607C432.561 331.407 420.027 356.339 407 354.587C396.47 353.171 380.016 330.659 369.148 337.029z" class="colorff6b20 svgShape"></path><path fill="#ffffff" d="M231 337L232 338L231 337z" class="colorfffe01 svgShape"></path><path fill="#ffffff" d="M367 337L368 338L367 337M498 337L499 338L498 337z" class="colorff0101 svgShape"></path><path fill="#ffffff" d="M230 338L231 339 230 338M229 339L230 340 229 339zM224 343L225 344 224 343z" class="colorfffe01 svgShape"></path><path fill="#ffffff" d="M390 345L391 346L390 345M402 345L403 346L402 345z" class="colorff0101 svgShape"></path><path fill="#ffffff" d="M219 346L220 347L219 346M26 347L27 348L26 347z" class="colorfffe01 svgShape"></path><path fill="#ffffff" d="M368 348L369 349L368 348M420 348L421 349L420 348M509 349L510 350L509 349z" class="colorff0101 svgShape"></path><path fill="#ffffff" d="M180 350L181 351L180 350M207 350L208 351L207 350z" class="colorff6b20 svgShape"></path><path fill="#ffffff" d="M7 354L8 355L7 354z" class="colorfffe01 svgShape"></path><path fill="#ffffff" d="M507 356L508 357L507 356z" class="colorff0101 svgShape"></path><path fill="#ffffff" d="M73 358L74 359L73 358z" class="colorfffe01 svgShape"></path><path fill="#010101" d="M395 364L407 384L409 384L421 364C409.306 369.531 406.698 370.226 395 364z" class="color010101 svgShape"></path><path fill="#ffffff" d="M488 367L489 368L488 367M432 371L433 372L432 371M413 376L414 377L413 376z" class="colorff0101 svgShape"></path><path fill="#010101" d="M318 379L318 434L375 434L375 423C348.529 416.712 336.414 395.875 318 379z" class="color010101 svgShape"></path><path fill="#ffffff" d="M407 384L408 385L407 384M423 385L424 386L423 385z" class="colorff0101 svgShape"></path><path fill="#ffffff" d="M12 392L13 393L12 392z" class="colorfffe01 svgShape"></path><path fill="#ffffff" d="M328 392L329 393L328 392M397 393L398 394L397 393M349 394L350 395L349 394M485 394L486 395L485 394M339 403L340 404L339 403M453 403L454 404L453 403M435 411L436 412L435 411M358 416L359 417L358 416M455 417L456 418L455 417z" class="colorff0101 svgShape"></path></svg></g></svg>