<svg xmlns="http://www.w3.org/2000/svg" width="25.809" height="23.799" viewBox="0 0 25.809 23.799">
  <g id="pencil-square" transform="translate(-2.25 -1.125)">
    <path id="Tracé_56" data-name="Tracé 56" d="M27.879,3.488a.821.821,0,0,1,0,1.158L26.167,6.361,22.885,3.078,24.6,1.365a.821.821,0,0,1,1.161,0l2.122,2.122ZM25.007,7.519,21.724,4.237,10.542,15.421a.821.821,0,0,0-.2.322L9.022,19.705a.411.411,0,0,0,.519.519L13.5,18.9a.821.821,0,0,0,.322-.2L25.007,7.522Z" transform="translate(-0.06)" fill="#4f84f0"/>
    <path id="Tracé_57" data-name="Tracé 57" d="M2.25,22.766A2.562,2.562,0,0,0,4.9,25.228H24.344A2.562,2.562,0,0,0,27,22.766V12.918a.886.886,0,0,0-1.767,0v9.848a.854.854,0,0,1-.884.821H4.9a.854.854,0,0,1-.884-.821V4.712A.854.854,0,0,1,4.9,3.891H16.39a.854.854,0,0,0,.884-.821.854.854,0,0,0-.884-.821H4.9A2.562,2.562,0,0,0,2.25,4.712Z" transform="translate(0 -0.304)" fill="#4f84f0" fill-rule="evenodd"/>
  </g>
</svg>
