<svg id="SvgjsSvg1001" width="288" height="288" xmlns="http://www.w3.org/2000/svg" version="1.1" xmlns:xlink="http://www.w3.org/1999/xlink" xmlns:svgjs="http://svgjs.com/svgjs"><defs id="SvgjsDefs1002"></defs><g id="SvgjsG1008"><svg xmlns="http://www.w3.org/2000/svg" viewBox="0 0 512 512" width="288" height="288"><path fill="#191515" d="M250 512L250 511C242.548 511 231.846 512.406 225 508.972C217.1 505.009 210.207 495.207 204 489L160 445C152.148 437.148 135.195 425.666 132 415C128.407 415 122.665 408.665 120 406C109.603 395.603 103.562 380.79 105 366C107.8 337.201 132.376 319 160 319L132 288C120.973 288 108.995 265.312 106.667 256C99.8681 228.806 119.13 193 150 193L150 192C143.354 190.135 133.002 180.681 131 174C124.161 174 114.749 160.674 111.833 155C100.591 133.123 103.799 106.326 124 90.3333C138.441 78.9008 157.68 75.3574 175 82.3333C180.566 84.5754 185.532 90.1627 191 91.8333C203.24 95.5734 222.137 92 235 92L267 92C270.891 92 277.473 90.7364 281 92.5C290.965 97.4825 300.307 111.973 308 120C309.806 121.885 316 127.421 316 130C316 132.775 310.404 136.574 309 139L317 131L318 131C328.947 146.54 346.516 159.516 360 173C391.515 204.515 423.486 235.486 455 267C465.22 277.22 475.087 288.095 486 297.576C491.243 302.13 501.033 308.925 503.508 315.576C505.392 320.638 500.284 331.084 498.645 336C492.039 355.817 482.885 375.576 471.333 393C424.365 463.834 345.939 511 260 511C266.345 513.662 275.319 511.881 282 511.166C297.288 509.529 312.197 506.959 327 502.709C396.495 482.757 454.618 433.727 486.752 369C557.436 226.627 475.443 48.2278 322 7.88428C285.882 -1.61194 246.74 -3.05084 210 3.57562C177.474 9.44217 145.75 21.2294 118 39.3441C90.6976 57.1665 66.4325 79.4059 47.4275 106C-25.0708 207.448 -13.0493 349.951 75 438C97.0486 460.049 122.592 477.499 151 490.306C182.044 504.3 215.953 512 250 512z" class="color7585f3 svgShape"></path><path fill="#ffffff" d="M146 79.4645C92.6873 89.0597 92.9827 165.475 143 179.572C150.167 181.592 158.676 181.702 166 180.384C172.888 179.145 179.194 176.54 185 172.641C231.189 141.623 199.751 69.7904 146 79.4645z" class="colorf0f2f8 svgShape"></path><path fill="#ffffff" d="M192 92C195.762 98.5394 200.941 103.898 203.792 111C211.589 130.417 207.059 153.062 191 167C197.678 169.802 207.784 168 215 168L260 168C266.262 168 275.076 169.581 281 167.397C287.217 165.104 291.885 157.735 296.17 153C300.292 148.444 317.252 135.712 315.658 129C314.1 122.438 304.509 115.675 300.039 111C294.556 105.265 288.698 95.4415 281 92.6034C273.536 89.8515 261.917 92 254 92L192 92z" class="colorfeae07 svgShape"></path><path fill="#191515" d="M148 119L148 130L165 130L165 97C151.395 97 146.809 99.1863 137 109C134.445 111.556 129.378 115.131 128.921 119C128.481 122.731 134.206 128.6 138 127.654C141.818 126.703 145.326 121.674 148 119z" class="color7585f3 svgShape"></path><path fill="#191515" d="M148 130L148 162L165 162L165 130L148 130M317 131C306.622 141.378 295.067 160.428 282 166.972C275.587 170.184 264.062 168 257 168C236.724 168 216.256 167.175 196 168.019C186.93 168.397 178.924 177.056 170 179.572C154.852 183.842 144.249 179.103 130 175C133.854 180.471 140.556 189.022 147 191.397C154.886 194.302 164.581 191.522 173 194.356C180.044 196.727 185.918 203.267 193 204.721C204.743 207.132 219.009 205 231 205L309 205L349 205C354.438 205 361.407 203.75 365.961 207.318C374.585 214.076 381.36 224.152 389.015 232C391.647 234.698 397.62 238.749 398.218 242.715C398.714 246.01 392.836 250.784 390.83 253C383.409 261.2 372.52 277.518 362 281.397C348.925 286.217 326.958 282 313 282C273.781 282 234.181 280.387 195 282.019C186.067 282.392 177.864 290.798 169 293.255C155.1 297.107 144.164 292.763 131 289C137.457 298.167 149.955 312.833 160 317.976C165.409 320.745 172.321 320.666 178 323.323C183.039 325.681 187.548 330.472 193 331.697C206.971 334.835 224.669 332 239 332L335 332L383 332C389.141 332 397.832 330.36 402.985 334.318C411.629 340.957 418.505 351.121 426.039 359C428.665 361.746 433.788 365.174 434.793 369C435.799 372.83 430.38 376.555 428.17 379C420.878 387.067 410.342 403.583 400 407.397C394.591 409.391 386.709 408 381 408L340 408L200 408C188.683 408.005 181.583 416.39 171 419.56C156.194 423.996 145.169 419.875 131 416C148.882 441.385 177.022 463.022 199 485C205.999 491.999 216.232 507.121 226 509.686C245.817 514.89 270.987 511.911 291 509.13C363.7 499.029 428.598 458.08 469.333 397C480.791 379.821 489.492 361.259 496.808 342C499.483 334.957 504.367 324.625 504.016 317C503.763 311.51 496.623 306.549 493 303.015C481.694 291.986 470.184 281.184 459 270C429.484 240.484 399.512 211.512 370 182C353.125 165.125 336.537 144.762 317 131z" class="color252d6a svgShape"></path><path fill="#191515" d="M304 144L305 145L304 144M303 145L304 146L303 145M302 146L303 147L302 146M301 147L302 148L301 147M300 148L301 149L300 148M299 149L300 150L299 149M298 150L299 151L298 150M297 151L298 152L297 151M296 152L297 153L296 152M295 153L296 154L295 153M294 154L295 155L294 154M289 160L290 161L289 160M288 161L289 162L288 161M148 162L148 163L164 163L148 162M287 162L288 163L287 162M286 163L287 164L286 163M285 164L286 165L285 164M284 165L285 166L284 165M283 166L284 167L283 166M282 167L283 168L282 167M190 168L191 169L190 168M189 169L190 170L189 169M188 170L189 171L188 170M186 171L187 172L186 171M185 172L186 173L185 172M183 173L184 174L183 173z" class="color7585f3 svgShape"></path><path fill="#191515" d="M129 174L130 175L129 174z" class="color252d6a svgShape"></path><path fill="#191515" d="M182 174L183 175L182 174M132 175L133 176L132 175M180 175L181 176L180 175M134 176L135 177L134 176M178 176L179 177L178 176M136 177L137 178L136 177M176 177L177 178L176 177M138.667 178.333L139.333 178.667L138.667 178.333M173 178L174 179L173 178M141.667 179.333L142.333 179.667L141.667 179.333M170 179L171 180L170 179M145.667 180.333L146.333 180.667L145.667 180.333M165.667 180.333L166.333 180.667L165.667 180.333M152 181L152 182L160 182L152 181M156 191L157 192L156 191z" class="color7585f3 svgShape"></path><path fill="#ffffff" d="M150 192.428C142.101 193.56 134.741 195.693 128 200.101C81.7403 230.351 111.839 301.906 165 293.866C172.138 292.786 179.065 290.069 185 285.96C227.676 256.413 203.012 184.834 150 192.428z" class="colorf0f2f8 svgShape"></path><path fill="#191515" d="M163 192L163 193L167 193L163 192M168 193L168 194L171 194L168 193M172.667 194.333L173.333 194.667L172.667 194.333M175.667 195.333L176.333 195.667L175.667 195.333M177.667 196.333L178.333 196.667L177.667 196.333M179.667 197.333L180.333 197.667L179.667 197.333M181.667 198.333L182.333 198.667L181.667 198.333M183 199L184 200L183 199M185 200L186 201L185 200M186 201L187 202L186 201M187 202L188 203L187 202M189 203L190 204L189 203M190 204L191 205L190 204z" class="color7585f3 svgShape"></path><path fill="#ffffff" d="M191 205L204.644 227L208.603 241.972L222 243L258 243L398 243C392.81 232.995 381.919 224.013 374.004 216C371.025 212.984 368.029 208.172 363.961 206.603C352.396 202.144 332.408 206 320 206L235 206C220.965 206 204.679 208.257 191 205z" class="colorfeae07 svgShape"></path><path fill="#ffffff" d="M192 205L192 206L364 206C350.879 200.494 327.3 205 313 205L192 205z" class="colorf95e10 svgShape"></path><path fill="#191515" d="M364 205L365 206L364 205M365 206L366 207L365 206M129 217L129 218L138 229L139 229C143.6 224.874 148.59 221.825 155 222.059C164.797 222.415 165.581 230.753 159.897 236.981C158.105 238.945 156.155 240.481 154 242C169.073 248.325 187.964 239.221 180.517 221C171.937 200.008 142.64 205.405 129 217M366 207L367 208L366 207M367 208L368 209L367 208M368 209L370 211L368 209z" class="color7585f3 svgShape"></path><path fill="#ffffff" d="M368 210L369 211L368 210M369 211L370 212L369 211M370 212L371 213L370 212M371 213L372 214L371 213M372 214L373 215L372 214z" class="colorf95e10 svgShape"></path><path fill="#191515" d="M373 215L374 216L373 215M374 216L375 217L374 216M375 217L376 218L375 217M376 218L377 219L376 218M377 219L378 220L377 219M378 220L379 221L378 220M379 221L380 222L379 221M380 222L381 223L380 222M381 223L382 224L381 223M382 224L383 225L382 224M383 225L384 226L383 225z" class="color7585f3 svgShape"></path><path fill="#ffffff" d="M383 226L384 227L383 226M384 227L385 228L384 227M385 228L386 229L385 228M386 229L387 230L386 229z" class="colorf95e10 svgShape"></path><path fill="#191515" d="M387 230L388 231L387 230M388 231L389 232L388 231M389 232L390 233L389 232M390 233L391 234L390 233M391 234L392 235L391 234M392 235L393 236L392 235M393 236L394 237L393 236M394 237L395 238L394 237M395 238L396 239L395 238M396 239L397 240L396 239M397 240L399 242L397 240z" class="color7585f3 svgShape"></path><path fill="#ffffff" d="M397 241L398 242L397 241M398 242C380.237 247.251 355.553 243 337 243L208 243C207.683 258.361 200.315 268.828 192 281L306 281C323.998 281 344.233 283.62 362 280.852C372.441 279.225 383.771 260.28 391.001 253C393.967 250.013 398.912 246.546 398 242z" class="colorf95e10 svgShape"></path><path fill="#191515" d="M131 273L182 273L182 259L159 259L176 243C155.319 243 131 248.034 131 273z" class="color252d6a svgShape"></path><path fill="#191515" d="M399 243L400 244L399 243M151 244L152 245L151 244M150 245L151 246L150 245M149 246L150 247L149 246z" class="color7585f3 svgShape"></path><path fill="#ffffff" d="M207 247L207 250L208 250L207 247z" class="colorfeae07 svgShape"></path><path fill="#191515" d="M146 248L147 249L146 248M145 249L146 250L145 249M143 250L144 251L143 250M168 250L169 251L168 250M142 251L143 252L142 251M167 251L168 252L167 251M392 251L393 252L392 251M141 252L142 253L141 252M166 252L167 253L166 252M391 252L392 253L391 252M139 253L140 254L139 253M390 253L391 254L390 253M138 254L139 255L138 254M163 254L164 255L163 254z" class="color7585f3 svgShape"></path><path fill="#ffffff" d="M206 254L207 255L206 254z" class="colorfeae07 svgShape"></path><path fill="#191515" d="M389 254L390 255L389 254M162 255L163 256L162 255M388 255L389 256L388 255M135 256L136 257L135 256M387 256L388 257L387 256M134 257L135 258L134 257M159 257C162.898 261.46 176.285 259 182 259L182 273L183 273L183 258L159 257M386 257L387 258L386 257z" class="color7585f3 svgShape"></path><path fill="#ffffff" d="M205 258L206 259L205 258z" class="colorfeae07 svgShape"></path><path fill="#191515" d="M385 258L386 259L385 258M131 259L132 260L131 259M384 259L385 260L384 259z" class="color7585f3 svgShape"></path><path fill="#ffffff" d="M204 261L205 262L204 261M203 263L204 264L203 263M202 265L203 266L202 265z" class="colorfeae07 svgShape"></path><path fill="#191515" d="M378 266L379 267L378 266z" class="color7585f3 svgShape"></path><path fill="#ffffff" d="M201 267L202 268L201 267z" class="colorfeae07 svgShape"></path><path fill="#191515" d="M377 267L378 268L377 267M376 268L377 269L376 268z" class="color7585f3 svgShape"></path><path fill="#ffffff" d="M200 269L201 270L200 269z" class="colorfeae07 svgShape"></path><path fill="#191515" d="M375 269L376 270L375 269M374 270L375 271L374 270M373 271L374 272L373 271z" class="color7585f3 svgShape"></path><path fill="#ffffff" d="M198 272L199 273L198 272z" class="colorfeae07 svgShape"></path><path fill="#191515" d="M372 272L373 273L372 272M371 273L372 274L371 273M370 274L371 275L370 274z" class="color7585f3 svgShape"></path><path fill="#ffffff" d="M196 275L197 276L196 275M195 276L196 277L195 276M194 277L195 278L194 277M193 278L194 279L193 278z" class="colorfeae07 svgShape"></path><path fill="#191515" d="M190 281L190 282L364 282L347 281L312 281L190 281M189 282L190 283L189 282M188 283L189 284L188 283M187 284L188 285L187 284M185 285L186 286L185 285M184 286L185 287L184 286M182 287L183 288L182 287z" class="color7585f3 svgShape"></path><path fill="#191515" d="M130 288L131 289L130 288z" class="color252d6a svgShape"></path><path fill="#191515" d="M181 288L182 289L181 288M133 289L134 290L133 289M179 289L180 290L179 289M135 290L136 291L135 290M176.667 290.333L177.333 290.667L176.667 290.333M137.667 291.333L138.333 291.667L137.667 291.333M174 291L175 292L174 291M140.667 292.333L141.333 292.667L140.667 292.333M171 292L172 293L171 292M144 293L145 294L144 293M167.667 293.333L168.333 293.667L167.667 293.333M149 294L149 295L153 295L149 294M160 294L160 295L164 295L160 294z" class="color7585f3 svgShape"></path><path fill="#ffffff" d="M148 319.439C97.1293 327.446 89.4345 401.96 139 418.644C147.085 421.366 156.541 421.908 165 420.7C218.663 413.033 220.621 334.774 170 320.745C162.995 318.804 155.197 318.306 148 319.439z" class="colorf0f2f8 svgShape"></path><path fill="#191515" d="M164 319L164 320L167 320L164 319M169.667 320.333L170.333 320.667L169.667 320.333M172.667 321.333L173.333 321.667L172.667 321.333M175.667 322.333L176.333 322.667L175.667 322.333M178 323L179 324L178 323M180 324L181 325L180 324M181.667 325.333L182.333 325.667L181.667 325.333M183 326L184 327L183 326M185 327L186 328L185 327M186 328L187 329L186 328M187.667 329.333L188.333 329.667L187.667 329.333M189 330L190 331L189 330M190 331L191 332L190 331z" class="color7585f3 svgShape"></path><path fill="#ffffff" d="M191 332L191 333C217.293 354.217 207.407 384.685 192 408C260.115 408 328.957 410.939 396.999 407.981C408.159 407.495 419.564 388.483 426.999 381C429.619 378.363 435.171 374.21 434.883 370C434.624 366.217 429.741 362.668 427.424 360C420.71 352.266 407.727 332.993 397 332.059C374.7 330.117 351.393 332 329 332L191 332z" class="colorf95e10 svgShape"></path><path fill="#191515" d="M401 332L402 333L401 332M136 354C143.072 352.383 148.323 348.349 156 349.105C160.475 349.546 167.635 354.285 160.877 357.86C156.502 360.174 149.804 359 145 359L145 370L176 370L176 369L169 366C172.107 364.698 175.288 363.337 177.606 360.787C183.806 353.963 181.269 342.779 173.985 337.97C165.118 332.116 150.629 332.41 141 336.066C137.489 337.399 131.542 339.701 130.907 344.015C130.398 347.466 134.303 351.272 136 354z" class="color7585f3 svgShape"></path><path fill="#ffffff" d="M192 333L193 334L192 333z" class="colorfeae07 svgShape"></path><path fill="#191515" d="M402 333L403 334L402 333z" class="color7585f3 svgShape"></path><path fill="#ffffff" d="M193 334L194 335L193 334z" class="colorfeae07 svgShape"></path><path fill="#191515" d="M403 334L404 335L403 334M404 335L405 336L404 335M405 336L406 337L405 336M406 337L407 338L406 337M407 338L408 339L407 338z" class="color7585f3 svgShape"></path><path fill="#ffffff" d="M197 339L198 340L197 339M198 340L199 341L198 340M199 342L200 343L199 342z" class="colorfeae07 svgShape"></path><path fill="#191515" d="M412 344L413 345L412 344z" class="color7585f3 svgShape"></path><path fill="#ffffff" d="M201 345L202 346L201 345z" class="colorfeae07 svgShape"></path><path fill="#191515" d="M413 345L414 346L413 345M414 346L415 347L414 346z" class="color7585f3 svgShape"></path><path fill="#ffffff" d="M202 347L203 348L202 347z" class="colorfeae07 svgShape"></path><path fill="#191515" d="M415 347L416 348L415 347M416 348L417 349L416 348z" class="color7585f3 svgShape"></path><path fill="#ffffff" d="M203 349L204 350L203 349z" class="colorfeae07 svgShape"></path><path fill="#191515" d="M417 349L418 350L417 349M418 350L419 351L418 350M419 351L420 352L419 351z" class="color7585f3 svgShape"></path><path fill="#ffffff" d="M204 352L205 353L204 352z" class="colorfeae07 svgShape"></path><path fill="#191515" d="M420 352L421 353L420 352M421 353L422 354L421 353z" class="color7585f3 svgShape"></path><path fill="#ffffff" d="M205 355L206 356L205 355M206.333 358.667L206.667 359.333L206.333 358.667z" class="colorfeae07 svgShape"></path><path fill="#191515" d="M427 360L428 361L427 360M428 361L429 362L428 361M429 362L430 363L429 362M430 363L431 364L430 363z" class="color7585f3 svgShape"></path><path fill="#ffffff" d="M207 364L207 370L208 370L207 364z" class="colorfeae07 svgShape"></path><path fill="#191515" d="M431 364L432 365L431 364M432 365L433 366L432 365M433 366L434 367L433 366M434 367L435 368L434 367M435 368L436 369L435 368M436.333 369.667L436.667 370.333L436.333 369.667z" class="color7585f3 svgShape"></path><path fill="#191515" d="M145 370L145 374C150.295 374 157.059 372.957 161.89 375.573C168.178 378.977 163.11 384.84 158 385.772C149.635 387.296 143.41 382.697 136 380L129 392C141.072 400.57 158.129 404.615 172 397.326C180.175 393.031 187.963 377.176 176.895 371.028C169.466 366.901 153.422 370 145 370z" class="color252d6a svgShape"></path><path fill="#191515" d="M177 370L178 371L177 370M178 371L179 372L178 371M435 371L436 372L435 371M434 372L435 373L434 372z" class="color7585f3 svgShape"></path><path fill="#ffffff" d="M207 373L207 376L208 376L207 373z" class="colorfeae07 svgShape"></path><path fill="#191515" d="M145 374L145 375L160 375L145 374M180 374L181 375L180 374M162 375L163 376L162 375M164 376L165 377L164 376M181 376L182 377L181 376M165 378L165 382L166 382L165 378M136.667 379.333L137.333 379.667L136.667 379.333M182 379L182 385L183 385L182 379M138 380L139 381L138 380M139 381L140 382L139 381z" class="color7585f3 svgShape"></path><path fill="#ffffff" d="M206 381L207 382L206 381z" class="colorfeae07 svgShape"></path><path fill="#191515" d="M134 382L135 383L134 382M141 382L142 383L141 382M425 382L426 383L425 382M133 383L134 384L133 383M143 383L144 384L143 383M424 383L425 384L424 383M145.667 384.333L146.333 384.667L145.667 384.333M162 384L163 385L162 384M423 384L424 385L423 384M148 385L148 386L151 386L148 385M159.667 385.333L160.333 385.667L159.667 385.333z" class="color7585f3 svgShape"></path><path fill="#ffffff" d="M205 385L206 386L205 385z" class="colorfeae07 svgShape"></path><path fill="#191515" d="M422 385L423 386L422 385M131 386L132 387L131 386M421 386L422 387L421 386M130 387L131 388L130 387M181 387L182 388L181 387M420 387L421 388L420 387M419 388L420 389L419 388M129 389L130 390L129 389M180 389L181 390L180 389M128 390L129 391L128 390z" class="color7585f3 svgShape"></path><path fill="#ffffff" d="M203 390L204 391L203 390z" class="colorfeae07 svgShape"></path><path fill="#191515" d="M179 391L180 392L179 391M178 392L179 393L178 392z" class="color7585f3 svgShape"></path><path fill="#ffffff" d="M202 392L203 393L202 392z" class="colorfeae07 svgShape"></path><path fill="#191515" d="M131 393L132 394L131 393M177 393L178 394L177 393M132 394L133 395L132 394M176 394L177 395L176 394z" class="color7585f3 svgShape"></path><path fill="#ffffff" d="M201 394L202 395L201 394z" class="colorfeae07 svgShape"></path><path fill="#191515" d="M133 395L134 396L133 395M175 395L176 396L175 395M135 396L136 397L135 396M173 396L174 397L173 396z" class="color7585f3 svgShape"></path><path fill="#ffffff" d="M200 396L201 397L200 396z" class="colorfeae07 svgShape"></path><path fill="#191515" d="M137 397L138 398L137 397M172 397L173 398L172 397M139.667 398.333L140.333 398.667L139.667 398.333M169.667 398.333L170.333 398.667L169.667 398.333M410 398L411 399L410 398M142.667 399.333L143.333 399.667L142.667 399.333M166.667 399.333L167.333 399.667L166.667 399.333z" class="color7585f3 svgShape"></path><path fill="#ffffff" d="M198 399L199 400L198 399z" class="colorfeae07 svgShape"></path><path fill="#191515" d="M409 399L410 400L409 399M146 400L146 401L150 401L146 400M161 400L161 401L164 401L161 400M408 400L409 401L408 400M407 401L408 402L407 401M406 402L407 403L406 402z" class="color7585f3 svgShape"></path><path fill="#ffffff" d="M195 403L196 404L195 403z" class="colorfeae07 svgShape"></path><path fill="#191515" d="M405 403L406 404L405 403z" class="color7585f3 svgShape"></path><path fill="#ffffff" d="M194 404L195 405L194 404z" class="colorfeae07 svgShape"></path><path fill="#191515" d="M404 404L405 405L404 404z" class="color7585f3 svgShape"></path><path fill="#ffffff" d="M193 405L194 406L193 405M192 406L193 407L192 406M191 407L192 408L191 407z" class="colorfeae07 svgShape"></path><path fill="#191515" d="M190 408L191 409L190 408M189 409L190 410L189 409M188 410L189 411L188 410M187 411L188 412L187 411M185 412L186 413L185 412M184 413L185 414L184 413M182 414L183 415L182 414z" class="color7585f3 svgShape"></path><path fill="#191515" d="M130 415L131 416L130 415z" class="color252d6a svgShape"></path><path fill="#191515" d="M180 415L181 416L180 415M133 416L134 417L133 416M178 416L179 417L178 416M135 417L136 418L135 417M176 417L177 418L176 417M138 418L139 419L138 418M174 418L175 419L174 418M140.667 419.333L141.333 419.667L140.667 419.333M170.667 419.333L171.333 419.667L170.667 419.333M144.667 420.333L145.333 420.667L144.667 420.333M166.667 420.333L167.333 420.667L166.667 420.333M150 421L150 422L163 422L150 421z" class="color7585f3 svgShape"></path></svg></g></svg>