<svg id="SvgjsSvg1001" width="288" height="288" xmlns="http://www.w3.org/2000/svg" version="1.1" xmlns:xlink="http://www.w3.org/1999/xlink" xmlns:svgjs="http://svgjs.com/svgjs"><defs id="SvgjsDefs1002"></defs><g id="SvgjsG1008"><svg xmlns="http://www.w3.org/2000/svg" viewBox="0 0 512 512" width="288" height="288"><path fill="#ffffff" d="M339 28C285.5 4.28494 214.877 9.35001 162 31.8719C149.161 37.3404 136.697 43.7085 125 51.3441C118.08 55.8615 111.397 62.6006 104 66L111 82L112 82C123.401 69.1551 141.839 60.3335 157 52.7531C208.656 26.9251 277.945 19.039 332 43C326.606 45.5234 300.665 55.2173 316.109 63.8202C322.253 67.2426 332.291 60.9711 338 58.5756C344.36 55.9067 358.691 52.9639 361.396 45.9568C364.827 37.0707 354.367 21.1334 351.011 13C349.624 9.6384 348.574 5.10654 345.606 2.74228C337.183 -3.97028 330.791 6.3429 333.616 14C335.349 18.6968 337.624 23.1865 339 28z" class="color27a6ca svgShape"></path><path fill="#ffffff" d="M351 14L352 15L351 14z" class="color03fdfd svgShape"></path><path fill="#ffffff" d="M193 21L194 22L193 21z" class="color4fb8c9 svgShape"></path><path fill="#ffffff" d="M322 22L323 23L322 22M338 25L339 26L338 25M156 34L157 35L156 34M138 43L139 44L138 43z" class="color03fdfd svgShape"></path><path fill="#ffffff" d="M177 43L178 44L177 43z" class="color4fb8c9 svgShape"></path><path fill="#ffffff" d="M131 47L132 48L131 47z" class="color03fdfd svgShape"></path><path fill="#ffffff" d="M167 47L168 48L167 47z" class="color4fb8c9 svgShape"></path><path fill="#ffffff" d="M120 54L121 55L120 54M342 56L343 57L342 56M143 59L144 60L143 59z" class="color03fdfd svgShape"></path><path fill="#ffffff" d="M469 332C466.477 326.606 456.783 300.665 448.18 316.109C444.757 322.253 451.029 332.291 453.424 338C456.093 344.36 459.036 358.691 466.043 361.396C474.929 364.827 490.867 354.367 499 351.011C502.362 349.624 506.893 348.573 509.258 345.606C515.97 337.183 505.657 330.791 498 333.616C493.303 335.349 488.814 337.624 484 339C512.954 273.68 499.612 188.333 463.189 129C449.617 106.891 432.731 87.2363 413 70.4275C408.195 66.3344 394.133 52.4584 388.179 62.2284C382.852 70.9707 395.728 77.9365 401 82.4275C420.163 98.7527 436.267 117.623 449.575 139C483.483 193.466 495.615 271.957 469 332z" class="color27a6ca svgShape"></path><path fill="#ffffff" d="M109 62L110 63L109 62M107 64L108 65L107 64z" class="color4fb8c9 svgShape"></path><path fill="#ffffff" d="M105 65L106 66L105 65z" class="color03fdfd svgShape"></path><path fill="#ffffff" d="M106 65L107 66L106 65M103 67C97.3163 74.7257 87.7598 80.006 81.0394 87.0008C77.0548 91.1479 73.2949 95.6013 69.5903 100C65.6275 104.705 49.9456 129.633 68.9853 124.562C73.8907 123.256 76.8758 117.662 79.9205 114C86.5465 106.031 93.4277 98.295 100.961 91.1698C103.935 88.3564 110.137 84.1257 110.983 79.9105C111.821 75.7372 107.15 70.259 105 67L103 67z" class="color4fb8c9 svgShape"></path><path fill="#ffffff" d="M130 67L131 68L130 67z" class="color03fdfd svgShape"></path><path fill="#ffffff" d="M229 67L230 68L229 67z" class="color4fb8c9 svgShape"></path><path fill="#ffffff" d="M125 120L131 114L132 114L139 126C142.211 123.992 146.999 118.429 151 118.921C157.097 119.669 163.594 129.944 168 133.816C177.835 142.457 190.29 145.496 203 142.711C217.651 139.5 230.267 126.265 230.961 111C231.276 104.074 228.553 92.2723 232.179 86.1481C234.42 82.3633 239.226 83.0017 243 83C252.459 82.9957 268.14 79.971 276.891 83.6034C284.524 86.7716 280.6 105.341 281.09 112C282.102 125.731 292.579 136.801 305 141.532C318.381 146.629 333.415 143.116 344 133.816C348.458 129.898 354.098 120.817 360 119.346C363.583 118.452 366.805 122.822 369 125.001C375.878 131.828 388.074 140.226 392.248 149C395.082 154.956 381.656 164.049 378.184 168C369.069 178.374 365.619 192.77 370.104 206C374.605 219.275 386.579 230.305 401 230.961C407.926 231.276 419.728 228.553 425.852 232.179C429.637 234.42 428.998 239.226 429 243C429.004 252.459 432.029 268.14 428.397 276.891C425.67 283.459 412.652 281 407 281C394.342 281.001 382.486 284.932 375.105 296C365.369 310.601 366.043 329.454 377.326 343C381.38 347.868 391.093 353.737 392.654 360C393.548 363.583 389.178 366.805 386.999 369C380.172 375.878 371.774 388.074 363 392.248C356.646 395.271 342.739 376.485 337 373.094C318.24 362.011 301.036 371.047 287 384L298 399C300.904 387.749 315.814 381.487 326 386.328C340.551 393.243 353.546 421.19 373 406.581C386.312 396.584 414.812 373.855 409.362 355C404.56 338.387 375.739 329.744 386.916 309C399.123 286.344 443.273 308.363 444.957 279C445.831 263.761 451.303 226.911 435.996 218.09C419.407 208.529 396.054 224.832 385.955 201C377.88 181.942 402.71 173.495 408.772 159C416.191 141.26 395.682 127.682 385 117C380.473 112.473 375.873 106.375 370 103.573C344.538 91.4229 335.478 136.417 311 126.045C288.616 116.56 302.567 93.9127 294.427 77.0008C292.255 72.4868 287.786 69.0215 283 67.6381C277.179 65.9556 270.012 67 264 67C253.266 67 240.478 65.1072 230 67.5293C202.813 73.814 227.307 114.106 202 125.647C175.291 137.828 162.43 82.6306 135 109.019C131.416 112.467 127.863 115.935 125 120M102 68L103 69L102 68z" class="color27a6ca svgShape"></path><path fill="#ffffff" d="M226 68L227 69L226 68M285 68L286 69L285 68z" class="color03fdfd svgShape"></path><path fill="#ffffff" d="M101 69L102 70L101 69z" class="color27a6ca svgShape"></path><path fill="#ffffff" d="M127 69L128 70L127 69z" class="color4fb8c9 svgShape"></path><path fill="#ffffff" d="M411 69L412 70L411 69z" class="color03fdfd svgShape"></path><path fill="#ffffff" d="M99 70L98 72L100 72L99 70M97 72L98 73L97 72z" class="color27a6ca svgShape"></path><path fill="#ffffff" d="M120 74L121 75L120 74M218 75L219 76L218 75z" class="color4fb8c9 svgShape"></path><path fill="#ffffff" d="M92 76L93 77L92 76M419 76L420 77L419 76z" class="color03fdfd svgShape"></path><path fill="#ffffff" d="M116 77L117 78L116 77z" class="color4fb8c9 svgShape"></path><path fill="#ffffff" d="M395 77L396 78L395 77z" class="color03fdfd svgShape"></path><path fill="#ffffff" d="M90 78L91 79L90 78M89 79L90 80L89 79z" class="color27a6ca svgShape"></path><path fill="#ffffff" d="M112 80L113 81L112 80z" class="color4fb8c9 svgShape"></path><path fill="#ffffff" d="M108 83L109 84L108 83z" class="color27a6ca svgShape"></path><path fill="#010101" d="M233.434 84.0278C228.209 87.6237 231.125 103.37 230.985 109C230.699 120.5 223.684 131.521 214 137.532C199.807 146.342 182.913 145.431 170 134.674C164.883 130.412 158.706 120.181 152 118.752C148.347 117.973 145.292 121.756 143 124.005C136.063 130.811 122.818 139.964 119.086 149C116.232 155.911 131.679 166.163 135.482 171C145.311 183.5 146.064 199.375 138.123 213C131.012 225.203 118.69 230.995 105 231C99.6665 231.002 85.2187 228.374 83.3179 235.109C80.5417 244.945 82.9993 258.775 83 269C83.0002 272.342 82.0687 277.653 85.3179 279.821C90.938 283.571 103.448 280.741 110 281.039C124.503 281.699 136.546 292.91 141.532 306C146.641 319.412 142.363 333.713 132.907 344C128.859 348.403 115.556 357.085 119.623 364C124.654 372.556 134.972 380.02 142 386.999C144.309 389.293 147.389 393.364 151 393.364C157.326 393.364 164.604 382.047 169 378.184C179.383 369.061 192.883 365.902 206 370.548C219.156 375.208 230.309 387.673 230.961 402C231.259 408.552 228.429 421.062 232.179 426.682C234.347 429.931 239.658 429 243 429C252.416 429.001 269.181 432.27 277.772 428.397C284.253 425.474 280.653 406.931 281.09 401C282.147 386.655 293.816 374.574 307 370.104C320.83 365.415 334.733 370.273 345 380.04C349.202 384.038 357.276 396.331 364 392.377C372.556 387.346 380.02 377.028 386.999 370C389.459 367.524 394.105 364.019 393.248 360C391.899 353.667 382.292 347.626 378.104 343C369.126 333.083 365.644 318.663 370.468 306C375.311 293.284 386.918 282.128 401 281.09C406.931 280.653 425.474 284.253 428.397 277.772C432.27 269.181 429.001 252.416 429 243C429 239.658 429.931 234.347 426.682 232.179C421.062 228.429 408.552 231.259 402 230.961C387.235 230.289 374.703 218.565 370.104 205C365.882 192.546 369.276 178.605 378.093 169C382.018 164.725 393.364 157.29 393.364 151C393.364 147.389 389.293 144.309 386.999 142C380.02 134.972 372.556 124.654 364 119.623C357.478 115.788 350.029 127.061 346 130.985C336.046 140.68 323.85 145.746 310 142.711C295.467 139.526 282.207 126.16 281.09 111C280.583 104.117 283.759 91.2192 279.821 85.3179C277.653 82.0687 272.342 83.0002 269 83C260.643 82.9995 240.359 79.2615 233.434 84.0278z" class="color010101 svgShape"></path><path fill="#ffffff" d="M107 84L108 85L107 84M106 85L107 86L106 85M105 86L106 87L105 86z" class="color27a6ca svgShape"></path><path fill="#ffffff" d="M215 86L215 106L216 106L215 86M102 89L103 90L102 89M76 92L77 93L76 92M435 92L436 93L435 92M69 100L70 101L69 100M144 102L145 103L144 102M367 102L368 103L367 102M422 102L423 103L422 102z" class="color03fdfd svgShape"></path><path fill="#ffffff" d="M142 103L143 104L142 103M159 103L160 104L159 103z" class="color4fb8c9 svgShape"></path><path fill="#ffffff" d="M446 105L447 106L446 105M214 112L215 113L214 112M297 112L298 113L297 112z" class="color03fdfd svgShape"></path><path fill="#ffffff" d="M131 114C119.479 125.283 96.3621 138.805 102.854 158C107.951 173.071 133.501 180.841 126.441 200C116.102 228.057 81.2039 203.44 69.4174 225.001C66.3848 230.548 67 236.906 67 243C67 257.479 61.0777 286.68 77.1736 294.467C93.9356 302.576 116.2 287.767 126.045 311C134.404 330.727 108.588 336.855 103.963 352C102.768 355.914 105.896 359.792 107.719 363C112.461 371.343 117.526 379.506 122 388L114 381C122.877 393.601 142.271 417.176 160 408.312C173.621 401.501 182.538 378.132 201 385.955C224.123 395.753 209.522 418.216 217.573 434.999C219.738 439.514 224.218 442.98 229 444.362C234.821 446.044 241.988 445 248 445C258.733 445 271.504 446.896 282 444.61C299.533 440.79 295.349 422.184 296.079 409.004C296.537 400.719 295.54 388.15 286 385C283.32 395.417 281 402.877 281 414C281 418.097 282.05 424.369 278.566 427.397C273.665 431.656 259.208 429 253 429C247.802 429 236.424 431.146 232.742 426.682C228.253 421.239 231.265 407.688 230.961 401C230.325 387.025 219.863 375.104 207 370.548C193.36 365.716 178.846 368.655 168 378.184C163.542 382.102 157.902 391.183 152 392.654C148.417 393.548 145.195 389.178 143 386.999C136.122 380.172 123.926 371.774 119.752 363C116.933 357.075 130.277 348.001 133.7 344C142.58 333.62 146.135 320.255 142.215 307C138.265 293.642 126.258 282.141 112 281.09C105.341 280.6 86.7716 284.524 83.6034 276.891C79.971 268.14 82.9957 252.459 83 243C83.0017 239.226 82.3633 234.42 86.1481 232.179C92.2724 228.553 104.074 231.276 111 230.961C125.146 230.317 136.658 219.796 141.532 207C146.739 193.33 142.809 178.923 133.675 168C130.205 163.85 119.207 156.751 119.207 151C119.207 147.483 123.779 144.26 125.985 142.001C131.881 135.964 139.115 129.814 144 123L139 126L131 114z" class="color4fb8c9 svgShape"></path><path fill="#ffffff" d="M77 116L78 117L77 116z" class="color03fdfd svgShape"></path><path fill="#ffffff" d="M148 118L149 119L148 118z" class="color4fb8c9 svgShape"></path><path fill="#ffffff" d="M211 118L212 119L211 118M300 118L301 119L300 118z" class="color03fdfd svgShape"></path><path fill="#ffffff" d="M147 119L148 120L147 119M146 120L147 121L146 120z" class="color4fb8c9 svgShape"></path><path fill="#ffffff" d="M457 120L458 121L457 120z" class="color03fdfd svgShape"></path><path fill="#ffffff" d="M145 121L146 122L145 121M144 122L145 123L144 122M206 123L207 124L206 123M184 125L185 126L184 125M190 127L191 128L190 127z" class="color4fb8c9 svgShape"></path><path fill="#ffffff" d="M137 129L138 130L137 129M135 131L136 132L135 131z" class="color27a6ca svgShape"></path><path fill="#ffffff" d="M464 131L465 132L464 131z" class="color03fdfd svgShape"></path><path fill="#ffffff" d="M133 133L134 134L133 133M131 135L132 136L131 135z" class="color27a6ca svgShape"></path><path fill="#ffffff" d="M452 143L453 144L452 143M102 144L103 145L102 144z" class="color03fdfd svgShape"></path><path fill="#ffffff" d="M28 173C24.081 181.841 16.473 199.224 19.2114 209.004C20.9578 215.241 25.9797 221.266 29 227L31 227L43 180C45.5308 185.41 55.2604 211.258 63.8202 195.891C67.2426 189.747 60.9711 179.709 58.5756 174C55.9067 167.64 52.9639 153.309 45.9568 150.604C36.9711 147.135 20.2046 157.91 12 161.421C8.72969 162.821 4.15588 164.141 2.17901 167.34C-2.7152 175.261 5.96474 181.247 13.0934 178.623C18.073 176.791 22.8996 174.458 28 173z" class="color4fb8c9 svgShape"></path><path fill="#ffffff" d="M477 156L478 157L477 156z" class="color03fdfd svgShape"></path><path fill="#ffffff" d="M179 195C188.526 217.107 203.332 238.165 215.424 259C221.428 269.345 229.965 279.68 230 292L231 292L231 220C249.865 231.546 271.948 248.336 293 255L293 257C277.366 261.949 262.242 274.021 248 282.15C244.162 284.341 234.968 287.448 235.797 293.015C236.547 298.053 241.231 303.688 243.799 308C249.511 317.591 254.972 327.345 260.576 337C262.573 340.441 269.459 348.712 266 352C272.938 354.489 284.398 349.744 291 347.189C315.872 337.562 336.359 317.776 346.396 293C375.407 221.384 310.589 144.292 235 160.662C210.599 165.946 197.496 180.087 179 195z" class="color27a6ca svgShape"></path><path fill="#ffffff" d="M7 163L8 164L7 163z" class="color62c2c9 svgShape"></path><path fill="#ffffff" d="M480 163L481 164L480 163z" class="color03fdfd svgShape"></path><path fill="#ffffff" d="M3 165L4 166L3 165z" class="color62c2c9 svgShape"></path><path fill="#ffffff" d="M56 169L57 170L56 169z" class="color03fdfd svgShape"></path><path fill="#ffffff" d="M135 170L136 171L135 170z" class="color27a6ca svgShape"></path><path fill="#ffffff" d="M375 171L376 172L375 171M205 172L206 173L205 172M306 172L307 173L306 172M25 173L26 174L25 173z" class="color03fdfd svgShape"></path><path fill="#ffffff" d="M137 173L138 174L137 173z" class="color27a6ca svgShape"></path><path fill="#ffffff" d="M373 174L374 175L373 174z" class="color03fdfd svgShape"></path><path fill="#ffffff" d="M15 177L16 178L15 177z" class="color62c2c9 svgShape"></path><path fill="#ffffff" d="M140 178L141 179L140 178z" class="color27a6ca svgShape"></path><path fill="#ffffff" d="M7 179L8 180L7 179M9 179L10 180L9 179z" class="color62c2c9 svgShape"></path><path fill="#ffffff" d="M43 180L44 181L43 180z" class="color03fdfd svgShape"></path><path fill="#ffffff" d="M23 186L24 187L23 186z" class="color62c2c9 svgShape"></path><path fill="#ffffff" d="M22 189L23 190L22 189z" class="color03fdfd svgShape"></path><path fill="#ffffff" d="M48 192L49 193L48 192z" class="color62c2c9 svgShape"></path><path fill="#ffffff" d="M181 193L182 194L181 193M180 194L181 195L180 194M179 196L178 200C161.349 209.818 159 241.047 159 258C159 315.344 212.236 360.964 269 352L235 290L230 292C229.992 279.415 222.214 269.562 216.011 259C204.194 238.88 194.291 213.599 179 196z" class="color4fb8c9 svgShape"></path><path fill="#ffffff" d="M176.667 199.333L177.333 199.667L176.667 199.333M175 201L176 202L175 201z" class="color27a6ca svgShape"></path><path fill="#ffffff" d="M19 202L20 203L19 202z" class="color62c2c9 svgShape"></path><path fill="#ffffff" d="M174 202L175 203L174 202z" class="color27a6ca svgShape"></path><path fill="#ffffff" d="M172 205L173 206L172 205M339 205L340 206L339 205z" class="color03fdfd svgShape"></path><path fill="#ffffff" d="M18.3333 206.667L18.6667 207.333L18.3333 206.667M34 207L35 208L34 207z" class="color62c2c9 svgShape"></path><path fill="#ffffff" d="M171 207L172 208L171 207z" class="color27a6ca svgShape"></path><path fill="#ffffff" d="M18 209C4.69108 272.392 19.5448 339.415 55.3333 393C68.1665 412.215 84.0059 429.518 102 443.999C107.035 448.051 120.133 459.464 124.393 447.981C127.209 440.39 117.791 435.287 113 431.389C97.5934 418.855 83.9751 404.159 72.4275 388C47.518 353.144 32.2755 311.907 29.9051 269.09C29.1494 255.439 27.7979 240.45 31 227L18 209z" class="color62c2c9 svgShape"></path><path fill="#ffffff" d="M170 209L171 210L170 209z" class="color27a6ca svgShape"></path><path fill="#ffffff" d="M393 211L394 212L393 211z" class="color03fdfd svgShape"></path><path fill="#ffffff" d="M17 212L18 213L17 212z" class="color4fb8c9 svgShape"></path><path fill="#ffffff" d="M33 212L34 213L33 212z" class="color62c2c9 svgShape"></path><path fill="#ffffff" d="M399 214L400 215L399 214z" class="color03fdfd svgShape"></path><path fill="#ffffff" d="M32 216L33 217L32 216z" class="color62c2c9 svgShape"></path><path fill="#010101" d="M231 220L231 292L293 257L293 255L231 220z" class="color010101 svgShape"></path><path fill="#ffffff" d="M31 223L32 224L31 223z" class="color62c2c9 svgShape"></path><path fill="#ffffff" d="M496 223L497 224L496 223z" class="color03fdfd svgShape"></path><path fill="#ffffff" d="M15 224L16 225L15 224z" class="color4fb8c9 svgShape"></path><path fill="#ffffff" d="M68 226L69 227L68 226M443 226L444 227L443 226z" class="color03fdfd svgShape"></path><path fill="#ffffff" d="M30 228L30 233L31 233L30 228z" class="color4fb8c9 svgShape"></path><path fill="#ffffff" d="M67 229L68 230L67 229z" class="color62c2c9 svgShape"></path><path fill="#ffffff" d="M249 230L250 231L249 230M481 233L482 234L481 233z" class="color03fdfd svgShape"></path><path fill="#ffffff" d="M256 234L257 235L256 234M29 242L30 243L29 242M29 244L29 247L30 247L29 244z" class="color4fb8c9 svgShape"></path><path fill="#ffffff" d="M13 247L14 248L13 247M482 247L483 248L482 247z" class="color03fdfd svgShape"></path><path fill="#ffffff" d="M13.3333 248.667L13.6667 249.333L13.3333 248.667M282 249L283 250L282 249M282 262L283 263L282 262M13 264L14 265L13 264z" class="color4fb8c9 svgShape"></path><path fill="#ffffff" d="M29 264L30 265L29 264M482 264L483 265L482 264z" class="color03fdfd svgShape"></path><path fill="#ffffff" d="M29 266L30 267L29 266M256 277L257 278L256 277z" class="color4fb8c9 svgShape"></path><path fill="#ffffff" d="M249 281L250 282L249 281z" class="color03fdfd svgShape"></path><path fill="#ffffff" d="M67 282L68 283L67 282z" class="color62c2c9 svgShape"></path><path fill="#ffffff" d="M68 285L69 286L68 285M443 285L444 286L443 285z" class="color03fdfd svgShape"></path><path fill="#ffffff" d="M31 287L32 288L31 287z" class="color4fb8c9 svgShape"></path><path fill="#ffffff" d="M15 288L16 289L15 288z" class="color03fdfd svgShape"></path><path fill="#ffffff" d="M71 289L72 290L71 289z" class="color62c2c9 svgShape"></path><path fill="#ffffff" d="M232 291L233 292L232 291z" class="color27a6ca svgShape"></path><path fill="#ffffff" d="M74 292L75 293L74 292z" class="color62c2c9 svgShape"></path><path fill="#ffffff" d="M32 293L33 294L32 293z" class="color4fb8c9 svgShape"></path><path fill="#ffffff" d="M106 296L107 297L106 296z" class="color62c2c9 svgShape"></path><path fill="#ffffff" d="M399 297L400 298L399 297z" class="color03fdfd svgShape"></path><path fill="#ffffff" d="M33 299L34 300L33 299z" class="color4fb8c9 svgShape"></path><path fill="#ffffff" d="M171 304L172 305L171 304z" class="color27a6ca svgShape"></path><path fill="#ffffff" d="M172 306L173 307L172 306z" class="color03fdfd svgShape"></path><path fill="#ffffff" d="M35 308L36 309L35 308M337 309L338 310L337 309z" class="color4fb8c9 svgShape"></path><path fill="#ffffff" d="M335 312L336 313L335 312M332 316L333 317L332 316M489 322L490 323L489 322M468 331L469 332L468 331M195 332L196 333L195 332M316 332L317 333L316 332z" class="color03fdfd svgShape"></path><path fill="#ffffff" d="M140 333L141 334L140 333z" class="color62c2c9 svgShape"></path><path fill="#ffffff" d="M312 335L313 336L312 335z" class="color03fdfd svgShape"></path><path fill="#ffffff" d="M309 337L310 338L309 337z" class="color4fb8c9 svgShape"></path><path fill="#ffffff" d="M486 338L487 339L486 338M45 339L46 340L45 339M306 339L307 340L306 339z" class="color03fdfd svgShape"></path><path fill="#ffffff" d="M28 340L29 341L28 340z" class="color4fb8c9 svgShape"></path><path fill="#ffffff" d="M207 340L208 341L207 340z" class="color27a6ca svgShape"></path><path fill="#ffffff" d="M375 340L376 341L375 340z" class="color03fdfd svgShape"></path><path fill="#ffffff" d="M135 341L136 342L135 341z" class="color62c2c9 svgShape"></path><path fill="#ffffff" d="M455 342L456 343L455 342z" class="color03fdfd svgShape"></path><path fill="#ffffff" d="M236 351L237 352L236 351M242 352L243 353L242 352M262 352L263 353L262 352M264 352L265 353L264 352z" class="color27a6ca svgShape"></path><path fill="#ffffff" d="M408 352L409 353L408 352z" class="color4fb8c9 svgShape"></path><path fill="#ffffff" d="M34 355L35 356L34 355z" class="color03fdfd svgShape"></path><path fill="#ffffff" d="M102 355C103.113 370.837 108.565 378.567 122 388C118.643 378.778 110.305 360.331 102 355z" class="color62c2c9 svgShape"></path><path fill="#ffffff" d="M102 357L103 358L102 357M102 362L103 363L102 362z" class="color4fb8c9 svgShape"></path><path fill="#ffffff" d="M59 368L60 369L59 368z" class="color03fdfd svgShape"></path><path fill="#ffffff" d="M308 369L309 370L308 369M106 373L107 374L106 373M297 374L298 375L297 374M63 375L64 376L63 375M294 376L295 377L294 376M293 377L294 378L293 377M112 379L113 380L112 379M288 383L289 384L288 383M321 384L322 385L321 384z" class="color4fb8c9 svgShape"></path><path fill="#ffffff" d="M285 387L286 388L285 387M337 467L344 482L346 480C353.84 480.173 362.076 474.492 369 471.164C392.695 459.772 416.361 441.684 433.715 422C439.789 415.11 448.268 407.571 451.911 399C453.731 394.718 453.078 388.856 447.956 387.438C437.057 384.419 424.544 407.277 417.985 414C397.649 434.846 366.346 460.713 337 467z" class="color27a6ca svgShape"></path><path fill="#ffffff" d="M122 388L123 389L122 388z" class="color62c2c9 svgShape"></path><path fill="#ffffff" d="M284.333 389.667L284.667 390.333L284.333 389.667z" class="color27a6ca svgShape"></path><path fill="#ffffff" d="M54 391L55 392L54 391M211 393L212 394L211 393z" class="color03fdfd svgShape"></path><path fill="#ffffff" d="M298.333 395.667L298.667 396.333L298.333 395.667z" class="color4fb8c9 svgShape"></path><path fill="#ffffff" d="M434 395L435 396L434 395z" class="color03fdfd svgShape"></path><path fill="#ffffff" d="M281 397L282 398L281 397z" class="color27a6ca svgShape"></path><path fill="#ffffff" d="M452 398L453 399L452 398M214 399L215 400L214 399M297 399L298 400L297 399M82 401L83 402L82 401z" class="color03fdfd svgShape"></path><path fill="#ffffff" d="M296 401L297 402L296 401M296 403L297 404L296 403M296 405L296 426L297 426L296 405z" class="color27a6ca svgShape"></path><path fill="#ffffff" d="M65 406L66 407L65 406M215 406L215 426L216 426L215 406z" class="color03fdfd svgShape"></path><path fill="#ffffff" d="M140 407L141 408L140 407z" class="color62c2c9 svgShape"></path><path fill="#ffffff" d="M352 408L353 409L352 408z" class="color4fb8c9 svgShape"></path><path fill="#ffffff" d="M89 409L90 410L89 409M409 422L410 423L409 422z" class="color03fdfd svgShape"></path><path fill="#ffffff" d="M103 423L104 424L103 423M408 423L409 424L408 423M105 425L106 426L105 425M111 430L112 431L111 430M91 434L92 435L91 434M116 434L117 435L116 434M391 437L392 438L391 437M121 438L122 439L121 438M384 442L385 443L384 442z" class="color4fb8c9 svgShape"></path><path fill="#ffffff" d="M226 443L227 444L226 443M285 443L286 444L285 443M105 446L106 447L105 446z" class="color03fdfd svgShape"></path><path fill="#ffffff" d="M378 446L379 447L378 446M167 458L162 460C166.494 460 177.124 481.269 177 486C192.817 488.689 207.891 494.658 224 496.715C264.125 501.836 306.436 497.524 344 482L337 468C288.734 485.724 228.043 490.296 180 469C185.089 466.619 191.285 465.245 195.891 462.006C201.303 458.201 201.076 449.237 193.985 447.449C187.731 445.873 170.695 452.961 167 458M123 450L124 451L123 450M122 451L123 452L122 451z" class="color4fb8c9 svgShape"></path><path fill="#ffffff" d="M179 451L180 452L179 451z" class="color62c2c9 svgShape"></path><path fill="#ffffff" d="M113 452L114 453L113 452M368 452L369 453L368 452z" class="color03fdfd svgShape"></path><path fill="#ffffff" d="M398 452L399 453L398 452z" class="color4fb8c9 svgShape"></path><path fill="#ffffff" d="M169 455L170 456L169 455z" class="color03fdfd svgShape"></path><path fill="#ffffff" d="M166 457L167 458L166 457z" class="color62c2c9 svgShape"></path><path fill="#ffffff" d="M391 457L392 458L391 457z" class="color03fdfd svgShape"></path><path fill="#ffffff" d="M160 459L161 460L160 459z" class="color4fb8c9 svgShape"></path><path fill="#ffffff" d="M173 484L178 485L164 459C142.783 462.511 152.717 479.263 158.579 493C160.751 498.091 162.391 506.065 167.108 509.397C174.065 514.31 180.922 507.213 178.931 500C177.408 494.486 174.202 489.625 173 484z" class="color62c2c9 svgShape"></path><path fill="#ffffff" d="M155 461L156 462L155 461M344 464L345 465L344 464M150 465L151 466L150 465M378 465L379 466L378 465M340 466L341 467L340 466z" class="color4fb8c9 svgShape"></path><path fill="#ffffff" d="M180 468L181 469L180 468z" class="color03fdfd svgShape"></path><path fill="#ffffff" d="M334.667 468.333L335.333 468.667L334.667 468.333M332.667 469.333L333.333 469.667L332.667 469.333z" class="color27a6ca svgShape"></path><path fill="#ffffff" d="M365 472L366 473L365 472z" class="color4fb8c9 svgShape"></path><path fill="#ffffff" d="M319 473L320 474L319 473z" class="color27a6ca svgShape"></path><path fill="#ffffff" d="M151 475L152 476L151 475M359 475L360 476L359 475z" class="color4fb8c9 svgShape"></path><path fill="#ffffff" d="M355 477L356 478L355 477z" class="color03fdfd svgShape"></path><path fill="#ffffff" d="M212 478L213 479L212 478z" class="color62c2c9 svgShape"></path><path fill="#ffffff" d="M350 479L351 480L350 479z" class="color4fb8c9 svgShape"></path><path fill="#ffffff" d="M224 480L225 481L224 480z" class="color62c2c9 svgShape"></path><path fill="#ffffff" d="M346 480L347 481L346 480z" class="color4fb8c9 svgShape"></path><path fill="#ffffff" d="M348 480L349 481L348 480z" class="color03fdfd svgShape"></path><path fill="#ffffff" d="M341 482L342 483L341 482z" class="color27a6ca svgShape"></path><path fill="#ffffff" d="M172 483L173 484L172 483z" class="color4fb8c9 svgShape"></path><path fill="#ffffff" d="M340 483L341 484L340 483z" class="color27a6ca svgShape"></path><path fill="#ffffff" d="M175 484L176 485L175 484z" class="color4fb8c9 svgShape"></path><path fill="#ffffff" d="M173 486L174 487L173 486z" class="color03fdfd svgShape"></path><path fill="#ffffff" d="M180 486L181 487L180 486z" class="color62c2c9 svgShape"></path><path fill="#ffffff" d="M173 487L174 488L173 487z" class="color4fb8c9 svgShape"></path><path fill="#ffffff" d="M186 488L187 489L186 488z" class="color62c2c9 svgShape"></path><path fill="#ffffff" d="M318 490L319 491L318 490z" class="color27a6ca svgShape"></path><path fill="#ffffff" d="M175 491L176 492L175 491z" class="color4fb8c9 svgShape"></path><path fill="#ffffff" d="M197 491L198 492L197 491z" class="color62c2c9 svgShape"></path><path fill="#ffffff" d="M158 492L159 493L158 492z" class="color4fb8c9 svgShape"></path><path fill="#ffffff" d="M201 492L202 493L201 492z" class="color62c2c9 svgShape"></path><path fill="#ffffff" d="M176 494L177 495L176 494z" class="color4fb8c9 svgShape"></path><path fill="#ffffff" d="M160 497L161 498L160 497M264 498L265 499L264 498z" class="color03fdfd svgShape"></path><path fill="#ffffff" d="M161 499L162 500L161 499M179 501L180 502L179 501M179 505L180 506L179 505M178 507L179 508L178 507M165 508L166 509L165 508M166 509L167 510L166 509z" class="color4fb8c9 svgShape"></path></svg></g></svg>