<svg id="SvgjsSvg1001" width="288" height="288" xmlns="http://www.w3.org/2000/svg" version="1.1" xmlns:xlink="http://www.w3.org/1999/xlink" xmlns:svgjs="http://svgjs.com/svgjs"><defs id="SvgjsDefs1002"></defs><g id="SvgjsG1008"><svg xmlns="http://www.w3.org/2000/svg" viewBox="0 0 512 512" width="288" height="288"><path fill="#191515" d="M307 508L307 507C294.429 498.145 283.871 484.871 273 474L208 409L168 369C161.768 362.768 153.321 356.473 148.603 349C142.547 339.406 151.453 324.594 145.397 315C136.515 300.931 119.768 288.768 108 277C88.2431 257.243 68.823 232.077 46 216L46 215L192 149.694L237 129.576L256 121.908L277 130.14L325 151.576L416 192.14L466 214.699L512 259C512 211.143 501.033 165.41 476.396 124C455.179 88.3387 424.121 56.3866 388 35.7199C353.429 15.9406 312.454 0.195831 272 0.000762939C188.896 -0.399963 111.45 26.5616 57.4599 93C-26.3356 196.117 -16.3225 346.714 77 440C96.2265 459.219 119.978 476.657 145 487.576C174.489 500.443 205.553 510.54 238 511.961C261.483 512.989 283.81 508.996 307 508z" class="color6dd7a7 svgShape"></path><path fill="#ffffff" d="M216 2L217 3L216 2M295 2L296 3L295 2M301 3L302 4L301 3M200 5L201 6L200 5M311 5L312 6L311 5M188 8L189 9L188 8M169 14L170 15L169 14M345 15L346 16L345 15M355 19L356 20L355 19M149 22L150 23L149 22M362 22L363 23L362 22M378 30L379 31L378 30M385 34L386 35L385 34M118 39L119 40L118 39M109 45L110 46L109 45z" class="color81e39c svgShape"></path><path fill="#191515" d="M106 47L107 48L106 47z" class="color03c379 svgShape"></path><path fill="#ffffff" d="M405 47L406 48L405 47M98 53L99 54L98 53M418 57L419 58L418 57z" class="color81e39c svgShape"></path><path fill="#191515" d="M87 62L88 63L87 62M424 62L425 63L424 62M62 87L63 88L62 87M449 87L450 88L449 87z" class="color03c379 svgShape"></path><path fill="#ffffff" d="M53 98L54 99 53 98M458 98L459 99 458 98M47 106L48 107 47 106M464 106L465 107 464 106zM481 133L482 134 481 133M22 149L23 150 22 149M496 166L497 167 496 166M5 200L6 201 5 200M506 200L507 201 506 200M3 210L4 211 3 210M508 210L509 211 508 210z" class="color81e39c svgShape"></path><path fill="#191515" d="M432 229L432 261C432 264.957 430.893 270.951 432.603 274.61C437.413 284.903 449.659 286.843 449.659 301C449.659 311.213 440.531 316.084 439.148 325C437.861 333.296 439.004 342.605 439 351C438.999 354.15 439.737 358.934 436.682 360.972C430.546 365.067 414.29 362 407 362C407 350.604 409.448 336.048 406.682 325C404.318 315.555 394.701 311.268 395.379 300C396.191 286.511 407.727 284.603 412.397 274.61C416.528 265.769 413 247.774 413 238C401.21 242.837 389.681 248.329 378 253.424C374.59 254.912 367.333 256.871 365.603 260.418C363.21 265.326 365 274.607 365 280L365 327C365 332.928 367.074 343.804 363.397 348.79C360.428 352.815 354.342 355.076 350 357.247C337.338 363.578 323.832 368.224 310 371.21C271.376 379.547 230.179 379.468 192 368.573C177.564 364.453 164.917 357.065 151 352C158.823 363.105 170.4 372.4 180 382L234 436L285 487C290.661 492.661 298.895 504.825 306.961 506.628C312.302 507.822 318.894 504.478 324 503.231C340.286 499.255 356.063 492.763 371 485.248C438.272 451.4 486.858 389.988 505.105 317C508.338 304.066 509.891 291.213 511.17 278C511.719 272.327 513.654 264.364 510.972 259C506.309 249.674 494.338 241.338 487 234C482.197 229.197 473.055 215.895 466 215.238C455.89 214.295 441.783 226.183 432 229M46 215L96 266L147 316L147 277C147 272.29 148.436 264.72 146.397 260.39C143.523 254.291 126.992 250.182 121 247.576C105.29 240.742 89.5761 233.823 74 226.691C65.1721 222.649 55.5876 216.709 46 215z" class="color03c379 svgShape"></path><path fill="#ffffff" d="M2 216L3 217L2 216z" class="color81e39c svgShape"></path><path fill="#191515" d="M509 216L510 217L509 216z" class="color03c379 svgShape"></path><path fill="#191515" d="M55 218L56 219L55 218M64 222L65 223L64 222z" class="color6dd7a7 svgShape"></path><path fill="#191515" d="M1 223L2 224L1 223z" class="color03c379 svgShape"></path><path fill="#191515" d="M73 226L74 227L73 226M75 227L76 228L75 227M82 230L83 231L82 230z" class="color6dd7a7 svgShape"></path><path fill="#ffffff" d="M407 361L438 361C438 350.199 435.708 336.476 438.318 326C441.144 314.657 450.007 310.417 448.907 297C447.897 284.69 436.372 283.151 432.603 273.896C428.015 262.629 432 242.188 432 230C427.061 231.412 417.051 234.088 414.028 238.498C408.42 246.68 415.201 263.473 412.682 272.957C410.286 281.977 397.988 284.58 396.301 296C394.247 309.902 403.784 314.365 406.682 326C409.292 336.476 407 350.199 407 361z" class="colorfdb908 svgShape"></path><path fill="#191515" d="M84 231L85 232L84 231M91 234L92 235L91 234M93 235L94 236L93 235M100 238L101 239L100 238M102 239L103 240L102 239M109 242L110 243L109 242M111 243L112 244L111 243M118 246L119 247L118 246M120 247L121 248L120 247M129 251L130 252L129 251M138 255L139 256L138 255M511 275L511 278L512 278L511 275M411 276L412 277L411 276M433 276L434 277L433 276M409 277L410 278L409 277M435 277L436 278L435 277M407 278L408 279L407 278M437 278L438 279L437 278z" class="color6dd7a7 svgShape"></path><path fill="#ffffff" d="M511 278L512 279 511 278zM406 279L407 280 406 279M438 279L439 280 438 279z" class="color81e39c svgShape"></path><path fill="#191515" d="M400 285L401 286L400 285M444 285L445 286L444 285M510.333 286.667L510.667 287.333L510.333 286.667M398 288L399 289L398 288M446 288L447 289L446 288M397 290L398 291L397 290M447 290L448 291L447 290M396 293L397 294L396 293M448 293L449 294L448 293z" class="color6dd7a7 svgShape"></path><path fill="#ffffff" d="M396 294L397 295L396 294z" class="color81e39c svgShape"></path><path fill="#191515" d="M509 294L510 295L509 294z" class="color6dd7a7 svgShape"></path><path fill="#ffffff" d="M2 295L3 296L2 295z" class="color81e39c svgShape"></path><path fill="#191515" d="M395 298L395 304L396 304L395 298M449 298L449 304L450 304L449 298M508 300L509 301L508 300z" class="color6dd7a7 svgShape"></path><path fill="#ffffff" d="M3 301L4 302L3 301M508 301L509 302L508 301z" class="color81e39c svgShape"></path><path fill="#191515" d="M507 306L508 307L507 306z" class="color6dd7a7 svgShape"></path><path fill="#ffffff" d="M396 307L397 308L396 307z" class="color81e39c svgShape"></path><path fill="#191515" d="M396 308L397 309L396 308M448 308L449 309L448 308M506 310L507 311L506 310z" class="color6dd7a7 svgShape"></path><path fill="#ffffff" d="M5 311L6 312L5 311z" class="color81e39c svgShape"></path><path fill="#191515" d="M397 311L398 312L397 311M447 311L448 312L447 311z" class="color6dd7a7 svgShape"></path><path fill="#ffffff" d="M506 311L507 312L506 311z" class="color81e39c svgShape"></path><path fill="#191515" d="M398 313L399 314L398 313M446 313L447 314L446 313M505 315L506 316L505 315M400 316L401 317L400 316M444 316L445 317L444 316M504 319L505 320L504 319M503.333 322.667L503.667 323.333L503.333 322.667M438 323L438 361L439 361C439 350.089 442.211 333.036 438 323M502 326L503 327L502 326M501 330L502 331L501 330M500 333L501 334L500 333M499 336L500 337L499 336M498 339L499 340L498 339M497 342L498 343L497 342z" class="color6dd7a7 svgShape"></path><path fill="#ffffff" d="M15 345L16 346L15 345z" class="color81e39c svgShape"></path><path fill="#191515" d="M496 345L497 346L496 345z" class="color6dd7a7 svgShape"></path><path fill="#191515" d="M149 350L150 351L149 350z" class="color03c379 svgShape"></path><path fill="#191515" d="M494 350L495 351L494 350z" class="color6dd7a7 svgShape"></path><path fill="#191515" d="M150 351L151 352L150 351z" class="color03c379 svgShape"></path><path fill="#191515" d="M493 352L494 353L493 352M492 355L493 356L492 355M490 359L491 360L490 359M407 361L407 362L438 362L407 361M489 361L490 362L489 361z" class="color6dd7a7 svgShape"></path><path fill="#ffffff" d="M22 362L23 363L22 362M489 362L490 363L489 362z" class="color81e39c svgShape"></path><path fill="#191515" d="M488 364L489 365L488 364M487 366L488 367L487 366M486 368L487 369L486 368M485 370L486 371L485 370M484 372L485 373L484 372M483 374L484 375L483 374M482 376L483 377L482 376z" class="color6dd7a7 svgShape"></path><path fill="#ffffff" d="M30 378L31 379L30 378z" class="color81e39c svgShape"></path><path fill="#191515" d="M481 378L482 379L481 378z" class="color6dd7a7 svgShape"></path><path fill="#ffffff" d="M34 385L35 386L34 385z" class="color81e39c svgShape"></path><path fill="#191515" d="M475 388L476 389L475 388M474 390L475 391L474 390z" class="color6dd7a7 svgShape"></path><path fill="#ffffff" d="M39 393L40 394L39 393z" class="color81e39c svgShape"></path><path fill="#191515" d="M468 399L469 400L468 399z" class="color6dd7a7 svgShape"></path><path fill="#ffffff" d="M47 405L48 406L47 405z" class="color81e39c svgShape"></path><path fill="#191515" d="M461 409L462 410L461 409z" class="color6dd7a7 svgShape"></path><path fill="#ffffff" d="M53 413L54 414L53 413z" class="color81e39c svgShape"></path><path fill="#191515" d="M454 418L455 419L454 418M453 419L454 420L453 419z" class="color6dd7a7 svgShape"></path><path fill="#191515" d="M62 424L63 425L62 424z" class="color03c379 svgShape"></path><path fill="#191515" d="M448 425L449 426L448 425M445 428L446 429L445 428M428 445L429 446L428 445M427 446L428 447L427 446M426 447L427 448L426 447M425 448L426 449L425 448z" class="color6dd7a7 svgShape"></path><path fill="#191515" d="M87 449L88 450L87 449z" class="color03c379 svgShape"></path><path fill="#191515" d="M418 454L419 455L418 454z" class="color6dd7a7 svgShape"></path><path fill="#191515" d="M98 458L99 459L98 458z" class="color03c379 svgShape"></path><path fill="#191515" d="M410 460L411 461L410 460M409 461L410 462L409 461M406 463L407 464L406 463z" class="color6dd7a7 svgShape"></path><path fill="#191515" d="M106 464L107 465L106 464z" class="color03c379 svgShape"></path><path fill="#ffffff" d="M109 466L110 467L109 466z" class="color81e39c svgShape"></path><path fill="#191515" d="M399 468L400 469L399 468M390 474L391 475L390 474M388 475L389 476L388 475M383 478L384 479L383 478z" class="color6dd7a7 svgShape"></path><path fill="#ffffff" d="M133 481L134 482L133 481M378 481L379 482L378 481z" class="color81e39c svgShape"></path><path fill="#191515" d="M376 482L377 483L376 482M374 483L375 484L374 483M372 484L373 485L372 484M370 485L371 486L370 485M368 486L369 487L368 486M366 487L367 488L366 487z" class="color6dd7a7 svgShape"></path><path fill="#ffffff" d="M147 488L148 489L147 488z" class="color81e39c svgShape"></path><path fill="#191515" d="M364 488L365 489L364 488M359 490L360 491L359 490M355 492L356 493L355 492M352 493L353 494L352 493M350 494L351 495L350 494z" class="color6dd7a7 svgShape"></path><path fill="#ffffff" d="M166 496L167 497L166 496M345 496L346 497L345 496z" class="color81e39c svgShape"></path><path fill="#191515" d="M342 497L343 498L342 497M339 498L340 499L339 498M336 499L337 500L336 499M333 500L334 501L333 500z" class="color6dd7a7 svgShape"></path><path fill="#ffffff" d="M181 501L182 502L181 501z" class="color81e39c svgShape"></path><path fill="#191515" d="M330 501L331 502L330 501M322.667 503.333L323.333 503.667L322.667 503.333M319 504L320 505L319 504M315 505L316 506L315 505z" class="color6dd7a7 svgShape"></path><path fill="#ffffff" d="M200 506L201 507L200 506z" class="color81e39c svgShape"></path><path fill="#191515" d="M310 506L311 507L310 506z" class="color6dd7a7 svgShape"></path><path fill="#ffffff" d="M301 508L302 509L301 508z" class="color81e39c svgShape"></path><path fill="#191515" d="M216 509L217 510L216 509M295 509L296 510L295 509z" class="color03c379 svgShape"></path><path fill="#ffffff" d="M233 511L234 512L233 511M278 511L279 512L278 511z" class="color81e39c svgShape"></path></svg></g></svg>