<svg id="SvgjsSvg1001" width="288" height="288" xmlns="http://www.w3.org/2000/svg" version="1.1" xmlns:xlink="http://www.w3.org/1999/xlink" xmlns:svgjs="http://svgjs.com/svgjs"><defs id="SvgjsDefs1002"></defs><g id="SvgjsG1008"><svg xmlns="http://www.w3.org/2000/svg" viewBox="0 0 512 512" width="288" height="288"><path fill="#191515" d="M224 510L224 509C207.518 508.66 200.055 499.055 189 488L155 454L124 423C119.715 418.715 112.75 413.823 110.603 408C107.852 400.536 110 388.917 110 381L110 322L110 119L152 119L152 89L180 89L180 119L181 119L181 91C188.896 98.8963 199.447 114.506 210 118.397C218.752 121.623 232.691 119 242 119L242 89L270 89L270 119L271 119L271 91C278.896 98.8963 289.447 114.506 300 118.397C308.752 121.623 322.691 119 332 119L332 89L360 89L360 119L361 119L361 91C373.011 103.011 383.06 119 401 119L401 278L401 325L400.397 346L383 365L338 411L402 411L402 121L479 198C487.752 206.752 505.967 219.079 509.772 231C512.146 238.44 511 247.304 511 255C511 275.11 509.121 294.35 504.65 314C487.73 388.377 435.816 451.339 368 485.247C346.107 496.193 320.627 506.054 296 508C301.178 510.112 307.744 507.344 313 506.21C328.731 502.814 344.344 497.912 359 491.231C418.945 463.902 467.598 416.238 492.988 355C538.001 246.434 501.991 116.027 406 47.4275C378.258 27.6021 347.149 13.7409 314 5.88428C167.576 -28.8201 19.3228 76.185 1.28549 225C-11.9665 334.334 48.1403 443.837 149 489.306C171.664 499.523 198.796 509.791 224 510z" class="color7585f3 svgShape"></path><path fill="#ffffff" d="M152 89L152 144L180 144L180 89L152 89M242 89L242 144L270 144L270 89L242 89M332 89L332 144L360 144L360 89L332 89z" class="colorfec204 svgShape"></path><path fill="#191515" d="M181 91L181 119L209 119C201.991 109.051 190.949 98.0085 181 91M271 91L271 119L299 119C291.991 109.051 280.949 98.0085 271 91M361 91L361 119L389 119C381.991 109.051 370.949 98.0085 361 91z" class="color232b62 svgShape"></path><path fill="#ffffff" d="M110 119L110 334L110 389C110 393.897 107.876 405.418 111.028 409.397C114.703 414.037 134.339 411 140 411L228 411L304 411C313.567 411 328.003 413.714 337 410.397C343.171 408.121 348.453 400.547 353 396L385 364C389.808 359.192 397.994 353.516 400.397 347C402.581 341.076 401 332.262 401 326L401 279L401 119L360 119L360 144L332 144L332 119L270 119L270 144L242 144L242 119L180 119L180 144L152 144L152 119L110 119z" class="colorf1f3f8 svgShape"></path><path fill="#191515" d="M221 178L221 235C226.094 235.686 231.854 238.487 237 237.683C246.901 236.136 254.088 227.958 264.96 233.688C275.782 239.392 269.614 251.018 260 253.177C248.2 255.828 240.283 248.892 230 245C227.462 249.062 218.245 256.96 219.461 261.96C220.864 267.729 231.136 270.742 236 272.329C252.325 277.655 276.115 277.467 288.532 263.826C315.054 234.692 275.861 196.03 245 218L245 199L290 200L290 178L221 178z" class="colorfe5942 svgShape"></path><path fill="#ffffff" d="M220 179L220 234L221 234L221 197L220 179M245 199L245 200L256 200L245 199M262 210L262 211L269 211L262 210M257 211L258 212L257 211M273 211L274 212L273 211M254 212L255 213L254 212M252 213L253 214L252 213M279 213L280 214L279 213M250 214L251 215L250 214M281 214L282 215L281 214M284 216L285 217L284 216M290 222L291 223L290 222M292 225L293 226L292 225M293 227L294 228L293 227M294 229L295 230L294 229M254.667 231.333L255.333 231.667L254.667 231.333M248 232L249 233L248 232M262 232L263 233L262 232M295 232L296 233L295 232M245 233L246 234L245 233M265 233L266 234L265 233M243 234L244 235L243 234M224 235L225 236L224 235M268 235L269 236L268 235M228 236L229 237L228 236M240 236L241 237L240 236M232 237L233 238L232 237M296 237L296 240L297 240L296 237M236.667 238.333L237.333 238.667L236.667 238.333M270 238L271 239L270 238M296.333 244.667L296.667 245.333L296.333 244.667M229 246L230 247L229 246M233 246L234 247L233 246M270 246L271 247L270 246M236 248L237 249L236 248M238 249L239 250L238 249M268 249L269 250L268 249M226 250L227 251L226 250M240 250L241 251L240 250M295 250L296 251L295 250M225 251L226 252L225 251M242 251L243 252L242 251M265 251L266 252L265 251M245.667 252.333L246.333 252.667L245.667 252.333M263 252L264 253L263 252M250.667 253.333L251.333 253.667L250.667 253.333M256 253L256 254L259 254L256 253M222 255L223 256L222 255M221 256L222 257L221 256M293 256L294 257L293 256M292 258L293 259L292 258M218 260L219 261L218 260M290 261L291 262L290 261M289 262L290 263L289 262M285 266L286 267L285 266M228 269L229 270L228 269M279 270L280 271L279 270M233 271L234 272L233 271M277 271L278 272L277 271M236 272L237 273L236 272M239 273L240 274L239 273M244 274L245 275L244 274M267 274L268 275L267 274M254.667 275.333L255.333 275.667L254.667 275.333M257 275L257 276L262 276L257 275z" class="colorfec204 svgShape"></path><path fill="#191515" d="M349 314L349 315L354 315L349 314z" class="color7585f3 svgShape"></path><path fill="#191515" d="M340 349C338.391 351.369 335.003 354.858 335.167 357.906C335.354 361.391 340.293 363.126 343 364.123C350.631 366.935 361.727 367.439 368.96 363.246C383.77 354.662 375.066 338.419 362 334.746C358.654 333.805 350.366 333.446 349.631 328.95C348.235 320.415 365.636 328.971 367.91 328.759C371.119 328.461 374.966 323.488 373.169 320.39C365.266 306.767 331.661 315.187 335.548 333C337.469 341.805 346.314 344.533 354 346.35C356.617 346.968 363.02 347.911 362.369 351.91C360.781 361.663 343.48 351.095 340 349z" class="color232b62 svgShape"></path><path fill="#191515" d="M356 314L356 315L362 315L356 314M134 315L152.298 346L153 366L166 366L166.499 346L185 315C170.583 315 165.182 318.845 160 333L147.621 315.603L134 315M189 315L189 366L226 366L226 354L202 354L202 346L225 346L225 334L202 334L202 326L226 326L226 315L189 315M228 366L241.582 365.397L249.044 358.322L266 359L266 358L256 358L256 347L249 347C253.706 336.383 256 326.542 256 315L247.699 316.028L241.319 330L228 366z" class="color7585f3 svgShape"></path><path fill="#191515" d="M256 315L262 347L256 347L256 358L269.418 364.397L282 365L264 315L256 315z" class="color232b62 svgShape"></path><path fill="#191515" d="M286 315L286 351L287.028 364.397L300 366L300 349L307 349L307 348C296.577 348.124 299 356.827 299 365L287 365C287 350.951 291.409 327.89 286 315z" class="color7585f3 svgShape"></path><path fill="#191515" d="M287 315L287 365L299 365C299 361.534 298.052 342.48 306.363 349.608C310.625 353.264 310.547 360.882 315.39 363.972C318.833 366.168 325.073 365 329 365L320 346C331.313 341.521 332.312 324.316 321.985 317.854C312.867 312.15 297.295 315 287 315z" class="color232b62 svgShape"></path><path fill="#191515" d="M315 315L315 316L318 316L315 315M346.667 315.333L347.333 315.667L346.667 315.333M364.667 315.333L365.333 315.667L364.667 315.333M264.333 316.667L264.667 317.333L264.333 316.667M319.667 316.333L320.333 316.667L319.667 316.333M344 316L345 317L344 316M367 316L368 317L367 316M322 317L323 318L322 317M342 317L343 318L342 317M369.667 317.333L370.333 317.667L369.667 317.333M323 318L324 319L323 318M371 318L372 319L371 318M265.333 319.667L265.667 320.333L265.333 319.667M324 319L325 320L324 319M339 319L340 320L339 319M373 319L374 320L373 319M325 320L326 321L325 320M338 320L339 321L338 320M374 320L375 321L374 320M326 321L327 322L326 321M375 321L376 322L375 321M266 322L267 323L266 322M337 322L338 323L337 322M374 322L375 323L374 322M327 323L328 324L327 323M336 323L337 324L336 323M267.333 324.667L267.667 325.333L267.333 324.667M328 325L329 326L328 325M350 325L350 326L359 326L350 325M372 325L373 326L372 325M299 326C299 336.441 300.559 338 311 338L311 337L300 337L299 326z" class="color7585f3 svgShape"></path><path fill="#ffffff" d="M300 326L300 337C303.908 337 310.188 338.152 313.566 335.821C324.062 328.578 303.609 326 300 326z" class="colorf1f3f8 svgShape"></path><path fill="#191515" d="M310 326L310 327L313 327L310 326M335.333 326.667L335.667 327.333L335.333 326.667M349 326L350 327L349 326M360.667 326.333L361.333 326.667L360.667 326.333M371 326L372 327L371 326M268 327L269 328L268 327M314 327L315 328L314 327M348 327L348 330L349 330L348 327M363 327L364 328L363 327M315 328L316 329L315 328M329 328L329 336L330 336L329 328M365 328L366 329L365 328z" class="color7585f3 svgShape"></path><path fill="#ffffff" d="M255 329L249 347L262 347L255 329z" class="colorf1f3f8 svgShape"></path><path fill="#191515" d="M367 329L368 330L367 329M369 329L370 330L369 329M256.333 330.667L256.667 331.333L256.333 330.667M269 330L270 331L269 330M316 330L316 333L317 333L316 330M368 330L369 331L368 330M350 331L351 332L350 331M270.333 332.667L270.667 333.333L270.333 332.667M352 332L352 333L355 333L352 332M257 333L258 334L257 333M335.333 333.667L335.667 334.333L335.333 333.667M356 333L356 334L359 334L356 333M315 334L316 335L315 334M361.667 334.333L362.333 334.667L361.667 334.333M271 335L272 336L271 335M364.667 335.333L365.333 335.667L364.667 335.333M258 336L259 337L258 336M313 336L314 337L313 336M336.333 336.667L336.667 337.333L336.333 336.667M367 336L368 337L367 336M328.333 337.667L328.667 338.333L328.333 337.667M369 337L370 338L369 337M259.333 338.667L259.667 339.333L259.333 338.667M272 338L273 339L272 338M337 338L338 339L337 338M371 338L372 339L371 338M338 339L339 340L338 339M372 339L373 340L372 339M273.333 340.667L273.667 341.333L273.333 340.667M327 340L328 341L327 340M339 340L340 341L339 340M373 340L374 341L373 340M260.333 341.667L260.667 342.333L260.333 341.667M326 341L327 342L326 341M340 341L341 342L340 341M374 341L375 342L374 341M342 342L343 343L342 342M274 343L275 344L274 343M343.667 343.333L344.333 343.667L343.667 343.333M375 343L376 344L375 343M261.333 344.667L261.667 345.333L261.333 344.667M323 344L324 345L323 344M346 344L347 345L346 344M322 345L323 346L322 345M349.667 345.333L350.333 345.667L349.667 345.333M376.333 345.667L376.667 346.333L376.333 345.667M275 346L276 347L275 346M320 346L321 347L320 346M353.667 346.333L354.333 346.667L353.667 346.333M357 347L357 348L360 348L357 347M276.333 348.667L276.667 349.333L276.333 348.667M320 348L321 349L320 348M361 348L362 349L361 348M339 349L340 350L339 349z" class="color7585f3 svgShape"></path><path fill="#ffffff" d="M400 349C380.558 368.442 355.82 387.541 340 410L401 410L401 369L400 349z" class="colorf1f3f8 svgShape"></path><path fill="#191515" d="M307 350L308 351L307 350M321 350L322 351L321 350M342 350L343 351L342 350M363 350L363 353L364 353L363 350M277 351L278 352L277 351M338 351L339 352L338 351M343 351L344 352L343 351M308 352L309 353L308 352M322 352L323 353L322 352M337 352L338 353L337 352M345 352L346 353L345 352M376 352L376 355L377 355L376 352M278.333 353.667L278.667 354.333L278.333 353.667M347 353L348 354L347 353M362 353L363 354L362 353M309 354L310 355L309 354M323 354L324 355L323 354M336 354L337 355L336 354M349.667 354.333L350.333 354.667L349.667 354.333M361 354L362 355L361 354M324 355L325 356L324 355M335 355L336 356L335 355M353 355L353 356L359 356L353 355M279.333 356.667L279.667 357.333L279.333 356.667M310 356L311 357L310 356M375 356L376 357L375 356M325 357L326 358L325 357M311 358L312 359L311 358M333 358L334 359L333 358M374 358L375 359L374 358M280 359L281 360L280 359M326 359L327 360L326 359M334 359L335 360L334 359M373 359L374 360L373 359M266.333 360.667L266.667 361.333L266.333 360.667M312 360L313 361L312 360M335 360L336 361L335 360M281.333 361.667L281.667 362.333L281.333 361.667M327 361L328 362L327 361M337 361L338 362L337 361M371 361L372 362L371 361M313 362L314 363L313 362M338 362L339 363L338 362M370 362L371 363L370 362M267.333 363.667L267.667 364.333L267.333 363.667M328 363L329 364L328 363M340.667 363.333L341.333 363.667L340.667 363.333M369 363L370 364L369 363M282 364L268 365L268 366L282 364M314 364L315 365L314 364M329 364L315 365L315 366L329 364M343 364L344 365L343 364M366.667 364.333L367.333 364.667L366.667 364.333M346.667 365.333L347.333 365.667L346.667 365.333M363.667 365.333L364.333 365.667L363.667 365.333M351 366L351 367L360 367L351 366M288 509L288 510L295 510L288 509M225 510L225 511L233 511L225 510M279 510L279 511L287 511L279 510M233 511L234 512L233 511M235 511L235 512L253 512L235 511M258 511L258 512L277 512L258 511M278 511L279 512L278 511z" class="color7585f3 svgShape"></path></svg></g></svg>