<svg width="160" height="127" viewBox="0 0 160 127" fill="none" xmlns="http://www.w3.org/2000/svg">
    <path d="M15.7261 121.838V92.3298H77.6233V121.838H15.7261Z" stroke="black" stroke-width="0.828312" stroke-linecap="round" stroke-linejoin="round"/>
    <path d="M15.7261 95.7449H72.7603" stroke="black" stroke-width="0.828312" stroke-linecap="round" stroke-linejoin="round"/>
    <path d="M51.0889 98.3103H71.4695" stroke="black" stroke-width="0.828312" stroke-linecap="round" stroke-linejoin="round"/>
    <path d="M15.7261 98.3103H42.2759" stroke="black" stroke-width="0.828312" stroke-linecap="round" stroke-linejoin="round"/>
    <path d="M15.7261 112.097H69.8645" stroke="black" stroke-width="0.828312" stroke-linecap="round" stroke-linejoin="round"/>
    <path d="M77.6227 119.132H37.79" stroke="black" stroke-width="0.828312" stroke-linecap="round" stroke-linejoin="round"/>
    <path d="M15.7261 108.036H42.3861" stroke="black" stroke-width="0.828312" stroke-linecap="round" stroke-linejoin="round"/>
    <path d="M53.1036 95.7449L46.6825 103.897L40.2615 95.7449" stroke="black" stroke-width="0.828312" stroke-linecap="round" stroke-linejoin="round"/>
    <path d="M70.7772 55.9595C68.8629 59.1869 66.6216 62.2088 64.0886 64.9773C56.7746 73.0078 52.1286 66.6944 60.5003 61.2499C65.1438 58.229 72.6583 58.4452 69.2506 65.6723C67.1218 70.1866 63.2867 69.1512 67.3778 64.6178C71.188 60.4 75.9757 59.5171 75.2467 63.9883C74.8308 65.7367 73.8389 67.2943 72.4305 68.4107C70.3696 69.9844 70.5452 67.5823 73.4692 65.4834C75.1548 64.2741 76.1131 64.8381 76.9315 65.9083C77.7499 66.9785 79.3552 65.2457 80.4104 65.2001C81.6695 65.1479 82.6767 66.7424 83.7154 66.6952" stroke="black" stroke-width="0.828312" stroke-linecap="round" stroke-linejoin="round"/>
    <path d="M80.724 89.0407C80.7082 89.0564 80.6925 89.0879 80.6768 89.1036C79.9793 90.1664 79.0102 91.0228 77.8701 91.5844C76.7299 92.146 75.4602 92.3929 74.1927 92.2984C65.242 91.553 65.5468 78.0714 74.7121 78.0714L41.6152 78.0606C47.1989 70.1916 53.1511 59.1229 54.0325 46.7844H90.0565C89.485 45.4975 89.3682 44.0546 89.7252 42.6925C90.0864 41.2541 90.9379 39.9867 92.1323 39.1081C93.3276 38.2295 94.7912 37.7948 96.2714 37.8786C97.7524 37.9624 99.1572 38.5596 100.246 39.5675C101.333 40.5753 102.036 41.9308 102.233 43.4007C103.408 54.1116 83.1161 85.5982 80.724 89.0407Z" stroke="black" stroke-width="0.828312" stroke-linecap="round" stroke-linejoin="round"/>
    <path d="M95.8951 37.8609C94.4695 37.8559 93.0838 38.3315 91.9614 39.211C90.8391 40.0905 90.0464 41.3225 89.7101 42.7082C89.3821 44.0726 89.498 45.5061 90.0414 46.8H41.914C41.4896 45.8294 41.3135 44.7684 41.4014 43.7127C41.4895 42.657 41.8389 41.6398 42.4182 40.7529C42.9975 39.866 43.7885 39.1372 44.7198 38.6323C45.6511 38.1274 46.6934 37.8623 47.7528 37.8609H95.8951Z" stroke="black" stroke-width="0.828312" stroke-linecap="round" stroke-linejoin="round"/>
    <path d="M74.2554 92.314H26.1918C24.301 92.314 22.4877 91.5627 21.1506 90.2258C19.8136 88.8889 19.0625 87.0757 19.0625 85.1847C19.0625 83.2937 19.8136 81.4805 21.1506 80.1436C22.4877 78.8067 24.301 78.0554 26.1918 78.0554L74.7118 78.0712C73.2835 78.0728 71.8887 78.5027 70.7082 79.307C69.5278 80.1113 68.6163 81.2511 68.092 82.5797C67.5678 83.9083 67.4549 85.3636 67.7681 86.7568C68.0814 88.1509 68.8063 89.4174 69.8488 90.394C71.0619 91.508 72.6133 92.1839 74.2554 92.314Z" stroke="black" stroke-width="0.828312" stroke-linecap="round" stroke-linejoin="round"/>
    <path d="M69.613 80.2274H79.8112C79.1488 79.5449 78.3562 79.0023 77.4803 78.6321C76.6044 78.2618 75.6631 78.0713 74.7121 78.0713C73.7611 78.0713 72.8198 78.2618 71.944 78.6321C71.0681 79.0023 70.2755 79.5449 69.613 80.2274Z" fill="black"/>
    <path d="M69.613 80.2274H79.8112C79.1488 79.5449 78.3562 79.0023 77.4803 78.6321C76.6044 78.2618 75.6631 78.0713 74.7121 78.0713C73.7611 78.0713 72.8198 78.2618 71.944 78.6321C71.0681 79.0023 70.2755 79.5449 69.613 80.2274Z" stroke="black" stroke-width="0.828312" stroke-linecap="round" stroke-linejoin="round"/>
    <path d="M131.51 121.838L107.541 114.001L134.721 30.8889L158.689 38.7264L131.51 121.838Z" stroke="black" stroke-width="0.828312" stroke-linecap="round" stroke-linejoin="round"/>
    <path d="M138.655 38.522L151.01 42.5666L131.983 100.765L119.613 96.7208L138.655 38.522Z" fill="#D6056A"/>
    <path d="M138.655 38.522L151.01 42.5666L131.983 100.765L119.613 96.7208L138.655 38.522Z" fill="white" fill-opacity="0.5"/>
    <path d="M138.655 38.522L151.01 42.5666L131.983 100.765L119.613 96.7208L138.655 38.522Z" stroke="black" stroke-width="0.828312" stroke-linecap="round" stroke-linejoin="round"/>
    <path d="M126.303 109.205C126.074 109.907 125.642 110.525 125.062 110.982C124.482 111.438 123.78 111.712 123.044 111.77C122.308 111.827 121.572 111.664 120.927 111.303C120.284 110.941 119.762 110.398 119.427 109.739C119.093 109.082 118.961 108.339 119.049 107.606C119.136 106.873 119.439 106.183 119.918 105.622C120.399 105.061 121.034 104.654 121.745 104.455C122.456 104.255 123.209 104.271 123.911 104.499C124.85 104.809 125.628 105.478 126.076 106.359C126.524 107.241 126.606 108.263 126.303 109.205Z" fill="white"/>
    <path d="M126.303 109.205C126.074 109.907 125.642 110.525 125.062 110.982C124.482 111.438 123.78 111.712 123.044 111.77C122.308 111.827 121.572 111.664 120.927 111.303C120.284 110.941 119.762 110.398 119.427 109.739C119.093 109.082 118.961 108.339 119.049 107.606C119.136 106.873 119.439 106.183 119.918 105.622C120.399 105.061 121.034 104.654 121.745 104.455C122.456 104.255 123.209 104.271 123.911 104.499C124.85 104.809 125.628 105.478 126.076 106.359C126.524 107.241 126.606 108.263 126.303 109.205Z" stroke="black" stroke-width="0.828312" stroke-linecap="round" stroke-linejoin="round"/>
    <path d="M107.935 33.1868L65.2693 109.531L87.2891 121.823L129.955 45.4938L107.935 33.1868ZM80.4406 94.8959L110.311 41.4492L121.674 47.7916L91.8034 101.237L80.4406 94.8959Z" fill="#D6056A"/>
    <path d="M107.935 33.1868L65.2693 109.531L87.2891 121.823L129.955 45.4938L107.935 33.1868ZM80.4406 94.8959L110.311 41.4492L121.674 47.7916L91.8034 101.237L80.4406 94.8959Z" fill="white" fill-opacity="0.5"/>
    <path d="M107.935 33.1868L65.2693 109.531L87.2891 121.823L129.955 45.4938L107.935 33.1868ZM80.4406 94.8959L110.311 41.4492L121.674 47.7916L91.8034 101.237L80.4406 94.8959Z" stroke="black" stroke-width="0.828312" stroke-linecap="round" stroke-linejoin="round"/>
    <path d="M84.6112 108.414C84.25 109.058 83.7058 109.581 83.0481 109.916C82.3896 110.251 81.6475 110.384 80.9136 110.297C80.1805 110.21 79.4894 109.907 78.9279 109.427C78.3666 108.947 77.9601 108.312 77.7598 107.601C77.5595 106.89 77.5746 106.136 77.8029 105.434C78.0313 104.731 78.4628 104.113 79.0428 103.655C79.6229 103.198 80.3255 102.924 81.0618 102.866C81.7982 102.808 82.5346 102.97 83.179 103.331C83.6072 103.571 83.9833 103.892 84.2865 104.277C84.5905 104.663 84.8149 105.104 84.9483 105.576C85.0808 106.048 85.1197 106.541 85.0618 107.028C85.0038 107.515 84.8505 107.987 84.6112 108.414Z" fill="white"/>
    <path d="M84.6112 108.414C84.25 109.058 83.7058 109.581 83.0481 109.916C82.3896 110.251 81.6475 110.384 80.9136 110.297C80.1805 110.21 79.4894 109.907 78.9279 109.427C78.3666 108.947 77.9601 108.312 77.7598 107.601C77.5595 106.89 77.5746 106.136 77.8029 105.434C78.0313 104.731 78.4628 104.113 79.0428 103.655C79.6229 103.198 80.3255 102.924 81.0618 102.866C81.7982 102.808 82.5346 102.97 83.179 103.331C83.6072 103.571 83.9833 103.892 84.2865 104.277C84.5905 104.663 84.8149 105.104 84.9483 105.576C85.0808 106.048 85.1197 106.541 85.0618 107.028C85.0038 107.515 84.8505 107.987 84.6112 108.414Z" stroke="black" stroke-width="0.828312" stroke-linecap="round" stroke-linejoin="round"/>
    <path d="M17.0012 52.9223C17.0012 53.1742 16.9265 53.4206 16.7866 53.6301C16.6467 53.8397 16.4477 54.0031 16.2151 54.0997C15.9823 54.1963 15.7261 54.2217 15.4789 54.1728C15.2318 54.1239 15.0046 54.0028 14.8262 53.8248C14.6478 53.6469 14.5261 53.4201 14.4766 53.173C14.427 52.9259 14.4518 52.6697 14.5478 52.4367C14.6438 52.2037 14.8066 52.0044 15.0158 51.8639C15.225 51.7234 15.4712 51.6481 15.7231 51.6475C15.891 51.6464 16.0574 51.6786 16.2127 51.7422C16.368 51.8059 16.5093 51.8996 16.6281 52.0182C16.747 52.1368 16.8412 52.2777 16.9052 52.4329C16.9692 52.588 17.0019 52.7544 17.0012 52.9223Z" fill="black"/>
    <path d="M17.0012 52.9223C17.0012 53.1742 16.9265 53.4206 16.7866 53.6301C16.6467 53.8397 16.4477 54.0031 16.2151 54.0997C15.9823 54.1963 15.7261 54.2217 15.4789 54.1728C15.2318 54.1239 15.0046 54.0028 14.8262 53.8248C14.6478 53.6469 14.5261 53.4201 14.4766 53.173C14.427 52.9259 14.4518 52.6697 14.5478 52.4367C14.6438 52.2037 14.8066 52.0044 15.0158 51.8639C15.225 51.7234 15.4712 51.6481 15.7231 51.6475C15.891 51.6464 16.0574 51.6786 16.2127 51.7422C16.368 51.8059 16.5093 51.8996 16.6281 52.0182C16.747 52.1368 16.8412 52.2777 16.9052 52.4329C16.9692 52.588 17.0019 52.7544 17.0012 52.9223Z" stroke="black" stroke-width="0.828312" stroke-linecap="round" stroke-linejoin="round"/>
    <path d="M124.759 1.17603L124.743 12.6018" stroke="black" stroke-width="0.828312" stroke-linecap="round" stroke-linejoin="round"/>
    <path d="M130.456 6.90465L119.03 6.88892" stroke="black" stroke-width="0.828312" stroke-linecap="round" stroke-linejoin="round"/>
    <path d="M15.7268 30.4329V46.2809" stroke="black" stroke-width="0.828312" stroke-linecap="round" stroke-linejoin="round"/>
    <path d="M158.689 121.839V125.824H1.31006V121.839H158.689Z" fill="black"/>
    <path d="M158.689 121.839V125.824H1.31006V121.839H158.689Z" stroke="black" stroke-width="0.828312" stroke-linecap="round" stroke-linejoin="round"/>
    <path d="M158.689 24.8928V125.824" stroke="black" stroke-width="0.828312" stroke-linecap="round" stroke-linejoin="round"/>
</svg>
