<svg width="375" height="811" viewBox="0 0 375 811" fill="none" xmlns="http://www.w3.org/2000/svg">
        <path d="M243.715 252.995C244.44 245.04 244.281 240.948 245.11 240.879C246.255 240.779 248.332 243.904 247.408 246.951C246.759 249.084 245.98 252.866 243.715 252.995Z" fill="#FC7C7C"/>
        <path d="M251.625 258.407C251.625 258.407 258.289 249.424 260.618 243.134L258.692 241.847L256.583 244.76L257.759 241.233L254.568 239.792L253.368 242.47L253.028 239.222L249.987 238.028L246.903 243.492L243.151 254.683L251.625 258.407Z" fill="#FC7C7C"/>
        <path d="M291.766 331.165L82.8701 331.519C74.8954 331.534 68.4195 325.08 68.406 317.106L68.2075 200.633C68.1939 192.659 74.6479 186.183 82.6225 186.169L291.52 185.814C299.494 185.8 305.97 192.254 305.985 200.228L306.183 316.7C306.197 324.674 299.743 331.15 291.766 331.165Z" fill="#777777"/>
        <path d="M157.181 261.541C157.147 241.737 141.065 225.71 121.261 225.743C101.456 225.776 85.4282 241.858 85.4622 261.662C85.4962 281.47 101.578 297.496 121.383 297.46C141.187 297.427 157.215 281.345 157.181 261.541Z" fill="#EFEEFE"/>
        <path d="M157.181 261.541C157.147 241.737 141.065 225.71 121.261 225.743C101.456 225.776 85.4282 241.858 85.4622 261.662C85.4962 281.47 101.578 297.496 121.383 297.46C141.187 297.427 157.215 281.345 157.181 261.541Z" fill="#BFBFBF"/>
        <path d="M121.382 297.459C133.892 297.441 144.892 291.014 151.292 281.294C145.531 270.659 134.266 263.444 121.324 263.467C108.382 263.49 97.1421 270.742 91.4174 281.395C97.8506 291.096 108.872 297.481 121.382 297.459Z" fill="#838383"/>
        <path d="M135.112 246.118C135.098 238.487 128.902 232.313 121.271 232.324C113.641 232.338 107.464 238.533 107.478 246.164C107.491 253.795 113.687 259.972 121.318 259.958C128.949 259.947 135.125 253.749 135.112 246.118Z" fill="#838383"/>
        <path d="M282.855 231.226L172.032 231.412C169.507 231.416 167.465 233.466 167.469 235.993L167.491 248.775C167.495 251.298 169.545 253.34 172.069 253.336L282.894 253.149C285.417 253.145 287.459 251.095 287.455 248.569L287.435 235.786C287.431 233.263 285.381 231.221 282.855 231.226Z" fill="#BFBFBF"/>
        <path d="M219.356 225.499L174.549 225.576L174.54 220.004L219.347 219.93L219.356 225.499Z" fill="#BFBFBF"/>
        <path d="M235.843 245.05L174.584 245.154L174.575 239.586L235.834 239.482L235.843 245.05Z" fill="#838383"/>
        <path d="M282.925 272.731L172.102 272.918C169.578 272.922 167.535 274.972 167.54 277.498L167.562 290.281C167.566 292.804 169.615 294.846 172.14 294.842L282.964 294.655C285.488 294.651 287.53 292.601 287.525 290.075L287.506 277.292C287.501 274.769 285.452 272.727 282.925 272.731Z" fill="#BFBFBF"/>
        <path d="M212.75 267.013L174.621 267.081L174.611 261.509L212.742 261.445L212.75 267.013Z" fill="#BFBFBF"/>
        <path d="M180.218 283.866C180.216 282.328 178.966 281.085 177.429 281.087C175.891 281.09 174.647 282.34 174.649 283.878C174.652 285.415 175.9 286.658 177.438 286.656C178.976 286.654 180.22 285.403 180.218 283.866Z" fill="#838383"/>
        <path d="M191.355 283.849C191.353 282.311 190.106 281.065 188.568 281.067C187.031 281.069 185.785 282.32 185.787 283.857C185.789 285.395 187.04 286.641 188.577 286.639C190.114 286.633 191.358 285.387 191.355 283.849Z" fill="#838383"/>
        <path d="M202.495 283.829C202.493 282.291 201.243 281.048 199.706 281.051C198.168 281.053 196.921 282.3 196.927 283.837C196.929 285.375 198.176 286.621 199.714 286.619C201.252 286.617 202.498 285.366 202.495 283.829Z" fill="#838383"/>
        <path d="M213.633 283.811C213.63 282.274 212.38 281.028 210.842 281.03C209.305 281.032 208.062 282.282 208.064 283.82C208.066 285.358 209.316 286.6 210.854 286.598C212.392 286.596 213.635 285.349 213.633 283.811Z" fill="#838383"/>
        <path d="M224.773 283.79C224.767 282.253 223.52 281.006 221.983 281.012C220.445 281.014 219.198 282.261 219.201 283.799C219.203 285.337 220.453 286.583 221.991 286.581C223.529 286.578 224.775 285.328 224.773 283.79Z" fill="#838383"/>
        <path d="M235.909 283.774C235.907 282.233 234.657 280.991 233.119 280.993C231.581 280.995 230.339 282.245 230.341 283.783C230.343 285.321 231.59 286.564 233.128 286.561C234.665 286.559 235.911 285.309 235.909 283.774Z" fill="#838383"/>
        <path d="M247.046 283.754C247.044 282.216 245.797 280.969 244.256 280.972C242.719 280.978 241.475 282.224 241.478 283.762C241.48 285.3 242.73 286.546 244.268 286.543C245.806 286.541 247.048 285.291 247.046 283.754Z" fill="#838383"/>
        <path d="M258.186 283.733C258.181 282.195 256.934 280.952 255.396 280.954C253.859 280.957 252.612 282.204 252.615 283.745C252.617 285.282 253.867 286.525 255.405 286.523C256.942 286.521 258.189 285.27 258.186 283.733Z" fill="#838383"/>
        <path d="M269.323 283.716C269.321 282.178 268.07 280.932 266.533 280.934C264.995 280.937 263.752 282.187 263.754 283.724C263.757 285.262 265.004 286.508 266.544 286.502C268.082 286.5 269.325 285.253 269.323 283.716Z" fill="#838383"/>

    <path d="M221.173 342.586C221.173 324.035 206.134 309 187.586 309C169.035 309 154 324.035 154 342.586C154 361.134 169.035 376.173 187.586 376.173C206.134 376.173 221.173 361.134 221.173 342.586Z" fill="#CE0500"/>
    <line x1="200.433" y1="331.026" x2="175.243" y2="356.216" stroke="white" stroke-width="6" stroke-linecap="round"/>
    <line x1="3" y1="-3" x2="38.6237" y2="-3" transform="matrix(0.707107 0.707107 0.707107 -0.707107 174.567 326.783)" stroke="white" stroke-width="6" stroke-linecap="round"/>
    <defs>
        <linearGradient id="paint0_linear_8474_13719" x1="25.976" y1="61.3399" x2="40.9492" y2="57.5991" gradientUnits="userSpaceOnUse">
            <stop stop-color="#F2939E"/>
            <stop offset="1" stop-color="#E83977"/>
        </linearGradient>
        <linearGradient id="paint1_linear_8474_13719" x1="27.5" y1="49.5004" x2="37.1205" y2="47.1103" gradientUnits="userSpaceOnUse">
            <stop stop-color="#F2939E"/>
            <stop offset="1" stop-color="#E83977"/>
        </linearGradient>
        <clipPath id="clip0_8474_13719">
            <rect width="270.939" height="171" fill="white" transform="translate(51.624 173)"/>
        </clipPath>
    </defs>
</svg>
