<svg  viewBox="0 0 12 18" fill="none" xmlns="http://www.w3.org/2000/svg">
<path d="M10.5005 12.0005H1.5005C1.2245 12.0005 1.0005 11.7765 1.0005 11.5005C1.0005 11.2245 1.2245 11.0005 1.5005 11.0005H10.5005C10.777 11.0005 11.0005 11.2245 11.0005 11.5005C11.0005 11.7765 10.777 12.0005 10.5005 12.0005ZM12.0005 9.00049C12.0005 7.62199 10.879 6.50049 9.5005 6.50049H8.0005C7.7985 6.50049 7.674 6.38899 7.6175 6.32249C7.562 6.25599 7.473 6.11449 7.5075 5.91599C7.7975 4.24899 8 2.63849 8 2.00049C8 0.897488 7.103 0.000488281 6 0.000488281C4.897 0.000488281 4 0.897488 4 2.00049C4 2.63949 4.2025 4.24949 4.4925 5.91599C4.527 6.11449 4.439 6.25599 4.383 6.32199C4.327 6.38849 4.203 6.50049 4 6.50049H2.5C1.1215 6.50049 0 7.62199 0 9.00049C0 9.48549 0.3505 10.0005 1 10.0005H11.0005C11.65 10.0005 12.0005 9.48549 12.0005 9.00049ZM4.0005 7.50049C4.4445 7.50049 4.863 7.30549 5.1485 6.96549C5.434 6.62599 5.554 6.18099 5.478 5.74449C5.201 4.15399 5 2.57899 5 2.00049C5 1.44899 5.4485 1.00049 6 1.00049C6.5515 1.00049 7 1.44899 7 2.00049C7 2.57849 6.799 4.15299 6.522 5.74449C6.4465 6.18149 6.5665 6.62649 6.852 6.96599C7.138 7.30549 7.556 7.50049 8 7.50049H9.5C10.327 7.50049 11 8.17349 11 9.00049H1.0005C1.0005 8.17349 1.6735 7.50049 2.5005 7.50049H4.0005Z" fill="black"/>
</svg>
