<svg width="12" height="12" viewBox="0 0 12 12" fill="none" xmlns="http://www.w3.org/2000/svg">
<path d="M3.69997 2.77769C3.65384 2.70019 3.58836 2.63601 3.50995 2.59144C3.43155 2.54687 3.34291 2.52344 3.25272 2.52344C3.16253 2.52344 3.07389 2.54687 2.99549 2.59144C2.91708 2.63601 2.8516 2.70019 2.80547 2.77769L0.0554687 8.27769C0.0255116 8.33649 0.00748952 8.40063 0.00244165 8.46643C-0.00260623 8.53222 0.00541991 8.59837 0.0260573 8.66105C0.0466947 8.72373 0.0795351 8.7817 0.122685 8.83163C0.165835 8.88155 0.218441 8.92244 0.27747 8.95194C0.336499 8.98144 0.400783 8.99896 0.466616 9.00349C0.532448 9.00803 0.598528 8.99949 0.661044 8.97836C0.72356 8.95724 0.781276 8.92395 0.830864 8.88041C0.880452 8.83687 0.920932 8.78395 0.949969 8.72469L1.80947 7.00119H4.69147L5.55347 8.72469C5.58251 8.78395 5.62298 8.83687 5.67257 8.88041C5.72216 8.92395 5.77988 8.95724 5.84239 8.97836C5.90491 8.99949 5.97099 9.00803 6.03682 9.00349C6.10265 8.99896 6.16694 8.98144 6.22597 8.95194C6.285 8.92244 6.3376 8.88155 6.38075 8.83163C6.4239 8.7817 6.45674 8.72373 6.47738 8.66105C6.49802 8.59837 6.50604 8.53222 6.501 8.46643C6.49595 8.40063 6.47793 8.33649 6.44797 8.27769L3.69997 2.77769ZM2.30947 6.00119L3.24997 4.11919L4.19147 6.00119H2.30947Z" fill="black"/>
<path d="M11.4999 4.00119C11.3673 4.00119 11.2401 4.05386 11.1463 4.14763C11.0526 4.2414 10.9999 4.36858 10.9999 4.50119V4.51419C10.5697 4.18328 10.0426 4.00302 9.4999 4.00119C8.83687 4.00119 8.20098 4.26458 7.73214 4.73342C7.2633 5.20226 6.99991 5.83815 6.99991 6.50119C6.99991 7.16423 7.2633 7.80011 7.73214 8.26895C8.20098 8.73779 8.83687 9.00119 9.4999 9.00119C10.0426 8.99935 10.5697 8.81909 10.9999 8.48819V8.50119C10.9999 8.63379 11.0526 8.76097 11.1463 8.85474C11.2401 8.94851 11.3673 9.00119 11.4999 9.00119C11.6325 9.00119 11.7597 8.94851 11.8535 8.85474C11.9472 8.76097 11.9999 8.63379 11.9999 8.50119V4.50119C11.9999 4.36858 11.9472 4.2414 11.8535 4.14763C11.7597 4.05386 11.6325 4.00119 11.4999 4.00119ZM9.4999 8.00119C9.20323 8.00119 8.91323 7.91321 8.66655 7.74839C8.41988 7.58357 8.22762 7.3493 8.11409 7.07521C8.00056 6.80112 7.97085 6.49952 8.02873 6.20855C8.08661 5.91758 8.22947 5.6503 8.43925 5.44053C8.64902 5.23075 8.9163 5.08789 9.20727 5.03001C9.49824 4.97213 9.79984 5.00184 10.0739 5.11537C10.348 5.2289 10.5823 5.42116 10.7471 5.66783C10.9119 5.9145 10.9999 6.20451 10.9999 6.50119C10.9999 6.89901 10.8419 7.28054 10.5606 7.56185C10.2793 7.84315 9.89773 8.00119 9.4999 8.00119Z" fill="black"/>
</svg>
